<?xml version="1.0" standalone="no"?>
<!DOCTYPE svg PUBLIC "-//W3C//DTD SVG 1.1//EN" "http://www.w3.org/Graphics/SVG/1.1/DTD/svg11.dtd" >
<svg xmlns="http://www.w3.org/2000/svg" xmlns:xlink="http://www.w3.org/1999/xlink" version="1.1">
<metadata>
Created by FontForge 20201107 at Tue Oct 12 20:43:59 2021
 By Darren Embry
Copyright (c) IBM Corporation 1990,1991.
</metadata>
<defs>
<font id="IBMCourier-Italic" horiz-adv-x="600" >
  <font-face 
    font-family="IBM Courier"
    font-weight="400"
    font-style="italic"
    font-stretch="normal"
    units-per-em="1000"
    panose-1="2 0 5 9 0 0 0 0 0 0"
    ascent="800"
    descent="-200"
    x-height="430"
    cap-height="563"
    bbox="-48 -288 800 841"
    underline-thickness="50"
    underline-position="-100"
    slope="-12"
    stemh=" 47 "
    stemv=" 50 "
    unicode-range="U+0020-FB04"
  />
    <missing-glyph />
    <glyph glyph-name="fi" unicode="fi" 
d="M527 418l-79 -371h162l-10 -47h-604l10 47h94l68 324h-93l10 47h93l13 59c12 54 31 148 169 148c49 0 82 -12 102 -19l-29 -43c-20 6 -44 15 -80 15c-88 0 -99 -45 -113 -107l-12 -53h299zM466 371h-248l-68 -324h247zM479 537l25 119h73l-25 -119h-73z" />
    <glyph glyph-name="fl" unicode="fl" 
d="M450 612l118 8l-121 -573h150l-10 -47h-591l10 47h94l68 323h-93l10 48h93l13 59c12 56 31 148 171 148c42 0 69 -8 88 -13zM510 570l-73 -7c-18 6 -41 14 -80 14c-95 0 -105 -48 -117 -106l-12 -53h214l-11 -48h-213l-68 -323h249z" />
    <glyph glyph-name="ffl" unicode="&#xfb00;l" 
d="M4 0l10 47h78l69 324h-79l10 47h79l13 59c12 55 31 148 172 148c48 0 72 -10 100 -20c11 5 22 10 37 13c15 4 34 7 57 7c37 0 56 -5 98 -16l-120 -562h80l-10 -47h-594zM211 371l-69 -324h143l69 324h-143zM232 471l-11 -53h143l13 59c12 55 17 64 31 86
c-23 9 -45 15 -68 15c-85 0 -97 -54 -108 -107zM479 47l111 525c-10 2 -27 6 -52 6c-89 0 -101 -51 -113 -107l-11 -53h74l-9 -47h-75l-69 -324h144z" />
    <glyph glyph-name="ff" unicode="ff" 
d="M730 616l-20 -49c-1 1 -5 2 -6 2c-15 4 -32 9 -55 9c-93 0 -104 -48 -116 -107l-11 -53h145l-10 -47h-145l-69 -324h159l-10 -47h-593l10 47h159l68 324h-104l10 47h105l12 59c13 65 34 148 185 148c55 0 100 -9 132 -15c16 5 28 8 40 11c13 3 25 4 41 4
c23 0 40 -3 64 -7c1 -1 8 -2 9 -2zM472 418l12 59c4 14 13 61 34 90c-24 4 -56 11 -89 11c-99 0 -108 -48 -121 -107l-12 -53h176zM286 371l-68 -324h175l69 324h-176z" />
    <glyph glyph-name="ffi" unicode="&#xfb00;i" 
d="M1 0l10 47h79l69 324h-80l11 47h79l12 59c11 55 32 148 175 148c37 0 61 -6 91 -14c10 4 19 8 29 10c10 3 20 4 32 4c29 0 50 -6 65 -10l-28 -52c-28 12 -33 15 -49 15c-47 0 -59 -39 -73 -107l-11 -53h194l-79 -371h79l-10 -47h-595zM209 371l-69 -324h143l69 324h-143z
M230 471l-11 -53h143l12 59c10 47 17 69 30 91c-26 6 -42 10 -62 10c-89 0 -101 -54 -112 -107zM476 47l69 324h-143l-69 -324h143zM578 537l28 119h63l-25 -119h-66z" />
    <glyph glyph-name="space" unicode=" " 
 />
    <glyph glyph-name="exclam" unicode="!" 
d="M462 571l-98 -378h-46l61 378h83zM320 106c37 0 59 -24 59 -51c0 -37 -37 -72 -82 -72c-34 0 -59 22 -59 51c0 38 38 72 82 72z" />
    <glyph glyph-name="quotedbl" unicode="&#x22;" 
d="M287 563h95l-70 -281h-74zM477 563h95l-70 -281h-74z" />
    <glyph glyph-name="numbersign" unicode="#" 
d="M339 659h47l-55 -205h145l55 205h48l-56 -205h95l-14 -65h-98l-45 -167h106l-13 -65h-110l-58 -214h-47l57 214h-144l-58 -214h-47l57 214h-95l14 65h99l44 167h-106l14 65h110zM459 389h-145l-45 -167h145z" />
    <glyph glyph-name="dollar" unicode="$" 
d="M413 656h48l-22 -104c12 0 43 -8 71 -36c2 -1 6 -6 9 -6c8 0 33 48 39 59l37 -6c-27 -50 -35 -77 -43 -138l-39 -7c0 43 -4 72 -84 87l-43 -206c72 -20 141 -40 141 -121c0 -95 -101 -162 -202 -162l-32 -150h-48l32 150c-40 4 -66 20 -75 26c-4 4 -14 11 -19 11
c-10 0 -22 -21 -37 -47l-36 10c27 58 34 127 36 141l40 7c-2 -44 -6 -100 101 -101l43 200c-55 16 -132 38 -132 118c0 74 65 163 193 171zM340 312l41 193c-66 -10 -129 -44 -129 -115c0 -50 36 -61 88 -78zM375 250l-39 -186c94 3 138 65 138 107c0 50 -39 61 -99 79z" />
    <glyph glyph-name="percent" unicode="%" 
d="M457 253c81 0 116 -58 116 -109c0 -74 -72 -158 -171 -158c-83 0 -117 59 -117 108c0 72 69 159 172 159zM450 208c-67 0 -112 -63 -112 -110c0 -52 40 -67 70 -67c65 0 112 57 112 107c0 49 -37 70 -70 70zM319 614c81 0 116 -58 116 -109c0 -74 -72 -158 -171 -158
c-83 0 -117 59 -117 108c0 72 69 159 172 159zM312 569c-67 0 -112 -63 -112 -110c0 -52 40 -67 70 -67c65 0 112 57 112 107c0 49 -37 70 -70 70zM584 426l11 -47l-444 -192l-10 48z" />
    <glyph glyph-name="ampersand" unicode="&#x26;" 
d="M492 281h58l-10 -48h-23c-34 -63 -60 -101 -85 -131l26 -55h34l-6 -47h-63l-29 58c-4 8 -34 -24 -41 -30c-20 -21 -81 -35 -114 -35c-54 0 -115 35 -115 116c0 28 10 135 157 193c-28 57 -33 85 -33 107c0 84 84 133 151 133c27 0 44 -6 67 -13c6 -2 15 -4 23 -4
c13 0 22 3 33 8l-30 -88c-17 20 -42 49 -98 49c-63 0 -96 -50 -96 -79c0 -27 16 -66 31 -97l82 -173c29 44 56 85 73 119l6 13s2 3 2 4zM375 102l-75 161c-62 -24 -122 -79 -122 -146c0 -30 14 -76 77 -76c39 0 79 19 120 61z" />
    <glyph glyph-name="quoteright" unicode="&#x2019;" 
d="M374 563h105l-160 -243h-73z" />
    <glyph glyph-name="parenleft" unicode="(" 
d="M547 649h54c-118 -158 -208 -305 -208 -486c0 -105 24 -181 48 -259h-50c0 1 -2 4 -2 4c-44 96 -55 206 -55 266c0 51 0 164 123 354c36 56 69 97 90 121z" />
    <glyph glyph-name="parenright" unicode=")" 
d="M168 -96h-54c108 145 208 295 208 487c0 87 -16 156 -45 249c-1 1 -3 8 -3 9h50l4 -9c38 -87 53 -187 53 -261c0 -73 -12 -140 -54 -229c-41 -89 -97 -175 -149 -234c-7 -8 -8 -9 -10 -12z" />
    <glyph glyph-name="asterisk" unicode="*" 
d="M382 563h69l-39 -147l151 51l7 -64l-153 -40l69 -116l-62 -40l-57 124l-109 -124l-48 40l118 116l-136 40l34 64l130 -51z" />
    <glyph glyph-name="plus" unicode="+" 
d="M340 533h50v-205h209v-50h-209v-205h-50v205h-209v50h209v205z" />
    <glyph glyph-name="comma" unicode="," 
d="M280 133h105l-161 -242h-72z" />
    <glyph glyph-name="hyphen" unicode="-" 
d="M259 317h212v-55h-212v55z" />
    <glyph glyph-name="period" unicode="." 
d="M322 119c36 0 65 -23 65 -56c0 -48 -48 -80 -90 -80c-34 0 -66 21 -66 56c0 46 48 80 91 80z" />
    <glyph glyph-name="slash" unicode="/" 
d="M611 702l41 -19l-547 -816l-41 21z" />
    <glyph glyph-name="zero" unicode="0" 
d="M429 621c133 0 140 -128 140 -172c0 -123 -56 -463 -271 -463c-132 0 -141 123 -141 171c0 119 53 464 272 464zM423 576c-162 0 -212 -310 -212 -414c0 -26 -1 -131 91 -131c167 0 213 319 213 413c0 27 1 132 -92 132z" />
    <glyph glyph-name="one" unicode="1" 
d="M217 533l215 88h33l-122 -574h172l-10 -47h-396l10 47h174l109 516l-174 -74z" />
    <glyph glyph-name="two" unicode="2" 
d="M455 146h47l-31 -146h-390l11 54c35 25 310 228 368 289c50 53 55 109 55 129c0 56 -53 100 -113 100c-21 0 -134 -14 -150 -105h-53l15 66c55 52 125 88 201 88c79 0 154 -58 154 -147c0 -76 -43 -127 -63 -151c-42 -48 -189 -166 -347 -274v-2h276z" />
    <glyph glyph-name="three" unicode="3" 
d="M90 35l27 43c57 -30 106 -46 154 -46c95 0 182 71 182 172c0 29 -15 63 -48 81c-31 17 -79 14 -108 13l10 47c39 1 83 2 126 40s50 81 50 104c0 57 -50 84 -95 84c-54 0 -99 -26 -138 -47c-3 -1 -18 -10 -21 -11l-17 40c66 38 120 65 183 65c80 0 142 -52 142 -123
c0 -13 0 -108 -109 -168c49 -23 79 -71 79 -124c0 -109 -102 -220 -244 -220c-61 0 -102 18 -151 40c-3 1 -19 9 -22 10z" />
    <glyph glyph-name="four" unicode="4" 
d="M520 621l-90 -427h90l-10 -48h-91l-21 -99h90l-9 -47h-274l9 47h135l22 99h-268l13 59l335 416h69zM164 194h217l77 363l-2 2z" />
    <glyph glyph-name="five" unicode="5" 
d="M253 606h335l-10 -47h-290l-43 -203c33 13 72 28 126 28c82 0 161 -45 161 -153c0 -97 -80 -245 -256 -245c-69 0 -109 16 -180 46l26 44c63 -31 114 -41 156 -41c142 0 200 112 200 190c0 69 -49 112 -120 112s-127 -36 -145 -48l-24 15z" />
    <glyph glyph-name="six" unicode="6" 
d="M617 620l-10 -48c-145 4 -296 9 -390 -273l2 -2c43 42 99 73 160 73c67 0 141 -44 141 -153c0 -118 -105 -231 -220 -231c-89 0 -155 66 -155 178c0 135 78 372 270 436c61 21 119 21 202 20zM200 210c-1 -12 -3 -25 -3 -44c0 -93 58 -130 108 -130c97 0 160 95 160 178
c0 57 -32 106 -90 106c-73 0 -136 -47 -175 -110z" />
    <glyph glyph-name="seven" unicode="7" 
d="M234 606h393l-11 -48l-311 -558h-59l321 559h-294l-19 -92h-50z" />
    <glyph glyph-name="eight" unicode="8" 
d="M273 309c-19 11 -63 47 -63 115c0 106 105 197 219 197c102 0 152 -70 152 -133c0 -85 -70 -153 -125 -179c72 -39 72 -110 72 -122c0 -85 -89 -201 -232 -201c-106 0 -160 66 -160 143c0 78 65 151 137 180zM423 574c-88 0 -159 -68 -159 -146c0 -36 27 -96 104 -96
c75 0 159 69 159 151c0 43 -33 91 -104 91zM360 282c-106 0 -170 -86 -170 -150c0 -54 44 -99 112 -99c80 0 172 60 172 148c0 69 -54 101 -114 101z" />
    <glyph glyph-name="nine" unicode="9" 
d="M104 -13l14 48c14 -1 27 -3 49 -3c161 0 268 64 338 276l-2 2c-43 -42 -98 -73 -160 -73c-65 0 -141 42 -141 152c0 120 105 232 219 232c88 0 156 -65 156 -179c0 -141 -77 -326 -203 -405c-89 -56 -182 -53 -270 -50zM521 397c2 12 4 25 4 44c0 94 -60 130 -108 130
c-96 0 -161 -94 -161 -178c0 -58 33 -106 91 -106c73 0 135 47 174 110z" />
    <glyph glyph-name="colon" unicode=":" 
d="M381 390c34 0 64 -23 64 -56c0 -47 -48 -80 -90 -80c-34 0 -66 21 -66 56c0 46 48 80 92 80zM323 119c34 0 64 -23 64 -56c0 -47 -48 -80 -90 -80c-34 0 -66 21 -66 56c0 46 48 80 92 80z" />
    <glyph glyph-name="semicolon" unicode=";" 
d="M285 134h104l-160 -242h-73zM381 390c34 0 64 -23 64 -56c0 -47 -48 -80 -90 -80c-34 0 -66 21 -66 56c0 46 48 80 92 80z" />
    <glyph glyph-name="less" unicode="&#x3c;" 
d="M579 89l-472 219l472 224l20 -45l-381 -179l381 -175z" />
    <glyph glyph-name="equal" unicode="=" 
d="M129 419h472v-50h-472v50zM129 238h472v-50h-472v50z" />
    <glyph glyph-name="greater" unicode="&#x3e;" 
d="M161 527l472 -219l-472 -224l-20 45l381 179l-381 175z" />
    <glyph glyph-name="question" unicode="?" 
d="M211 435l22 103c76 24 113 34 167 34c130 0 163 -78 163 -130c0 -151 -167 -191 -221 -204l-13 -60h-49l21 98c3 0 13 3 20 4c66 16 112 26 152 68c29 29 38 63 38 87c0 88 -100 88 -116 88c-56 0 -94 -14 -120 -25l-14 -63h-50zM286 106c36 0 59 -23 59 -51
c0 -38 -40 -72 -82 -72c-34 0 -59 22 -59 52c0 37 38 71 82 71z" />
    <glyph glyph-name="at" unicode="@" 
d="M530 99l14 -43c-81 -41 -169 -70 -259 -70c-139 0 -207 85 -207 204c0 158 119 356 344 356c129 0 213 -72 213 -187c0 -146 -100 -253 -182 -253c-16 0 -37 7 -46 10c-17 6 -21 15 -32 38c-11 -8 -12 -9 -21 -16c-35 -31 -77 -34 -86 -34c-24 0 -59 20 -59 69
c0 91 97 231 191 231c34 0 44 -26 49 -40l17 35h52l-76 -158c-7 -14 -21 -43 -21 -56c0 -18 15 -32 35 -32c63 0 132 100 132 200c0 127 -116 146 -174 146c-194 0 -282 -178 -282 -306c0 -118 77 -160 162 -160c91 0 166 33 229 63c1 0 6 3 7 3zM281 153
c59 0 131 115 131 169c0 18 -10 32 -25 32c-54 0 -127 -117 -127 -172c0 -3 1 -29 21 -29z" />
    <glyph glyph-name="A" unicode="A" 
d="M231 563h215l102 -516h51l-10 -47h-205l10 47h102l-28 139h-259l-87 -139h101l-9 -47h-205l10 47h52l293 469h-141zM461 230l-54 274l-171 -274h225z" />
    <glyph glyph-name="B" unicode="B" 
d="M162 563h272c32 0 165 0 165 -117c0 -72 -44 -119 -108 -152c24 -9 87 -31 87 -112c0 -51 -29 -102 -67 -133c-59 -48 -142 -49 -202 -49h-266l10 47h83l98 469h-82zM426 516h-140l-43 -199h132c164 0 172 114 172 122c0 77 -92 77 -121 77zM361 270h-127l-48 -223h128
c48 0 120 0 164 35c30 24 48 60 48 97c0 91 -135 91 -165 91z" />
    <glyph glyph-name="C" unicode="C" 
d="M635 563l40 -8c0 -3 -4 -13 -5 -16c-27 -81 -37 -105 -45 -171h-44c2 14 3 25 3 40c0 107 -100 122 -134 122c-154 0 -279 -146 -279 -323c0 -85 37 -174 176 -174c98 0 161 40 199 67c1 1 5 4 6 4l29 -42c-39 -27 -113 -79 -237 -79c-166 0 -227 102 -227 225
c0 206 158 372 335 372c54 0 92 -19 121 -47c5 -5 28 -32 31 -32c8 0 16 22 22 37c6 16 6 18 9 25z" />
    <glyph glyph-name="D" unicode="D" 
d="M152 563h248c88 0 121 -10 151 -31c44 -31 69 -95 69 -157c0 -44 -12 -178 -106 -284c-80 -91 -189 -91 -234 -91h-248l10 47h79l100 469h-79zM394 516h-122l-100 -469h115c39 0 126 0 190 75c72 84 89 189 89 238c0 78 -35 117 -50 129c-18 15 -41 27 -122 27z" />
    <glyph glyph-name="E" unicode="E" 
d="M175 563h476l-35 -184h-46l19 137h-288l-42 -195h162l16 73h46l-41 -192h-46l15 72h-161l-49 -227h298l34 137h47l-39 -184h-486l10 47h86l99 469h-85z" />
    <glyph glyph-name="F" unicode="F" 
d="M192 563h467l-33 -180h-45l17 133h-286l-42 -195h162l16 74h45l-40 -191h-46l15 70h-160l-50 -227h130l-10 -47h-260l10 47h82l98 469h-80z" />
    <glyph glyph-name="G" unicode="G" 
d="M382 247h247l-10 -46h-48l-36 -170c-92 -36 -159 -48 -215 -48c-144 0 -222 87 -222 221c0 183 143 376 333 376c60 0 113 -27 141 -70c2 -2 7 -10 10 -10c10 0 30 61 31 63l46 -8c-9 -25 -38 -107 -46 -183l-48 -8c2 32 4 66 -14 101c-28 54 -84 65 -125 65
c-150 0 -274 -155 -274 -325c0 -98 51 -172 178 -172c34 0 77 5 162 33l29 135h-149z" />
    <glyph glyph-name="H" unicode="H" 
d="M157 563h202l-12 -47h-75l-43 -202h273l42 202h-74l10 47h200l-10 -47h-75l-101 -469h76l-10 -47h-201l11 47h75l49 220h-273l-48 -220h75l-11 -47h-200l10 47h75l99 469h-74z" />
    <glyph glyph-name="I" unicode="I" 
d="M218 563h400l-10 -47h-175l-99 -469h174l-10 -47h-400l10 47h175l99 469h-174z" />
    <glyph glyph-name="J" unicode="J" 
d="M323 563h375l-10 -47h-128l-66 -312c-16 -73 -28 -108 -49 -138c-35 -53 -97 -83 -163 -83c-61 0 -121 19 -206 64l37 216h49l-17 -98c-1 -10 -5 -31 -5 -50c0 -58 84 -82 137 -82c127 0 148 85 166 171l66 312h-196z" />
    <glyph glyph-name="K" unicode="K" 
d="M178 563h219l-10 -47h-83l-50 -226l298 224v2h-81l10 47h196l-10 -47h-43l-257 -196c62 -96 91 -162 136 -273h94l-11 -47h-122c-2 6 -3 8 -8 24c-59 159 -112 238 -131 266l-83 -63l-38 -180h84l-10 -47h-220l10 47h85l101 469h-86z" />
    <glyph glyph-name="L" unicode="L" 
d="M177 563h273l-10 -47h-123l-100 -469h283l57 202h48l-65 -249h-483l10 47h100l100 469h-100z" />
    <glyph glyph-name="M" unicode="M" 
d="M127 563h163l47 -339h17l196 339h157l-10 -47h-62l-92 -469h66l-7 -47h-227l10 47h110l91 469h-17l-215 -372h-51l-54 372h-18l-114 -469h109l-10 -47h-216l10 47h61l115 469h-69z" />
    <glyph glyph-name="N" unicode="N" 
d="M146 563h170l154 -521h17l97 474h-108l11 47h222l-10 -47h-68l-106 -529h-91l-155 529h-16l-97 -469h108l-11 -47h-237l10 47h83l97 469h-80z" />
    <glyph glyph-name="O" unicode="O" 
d="M92 211c0 162 131 369 327 369c179 0 205 -160 205 -219c0 -187 -141 -378 -327 -378c-190 0 -205 178 -205 228zM146 215c0 -67 28 -185 156 -185c151 0 268 168 268 325c0 68 -34 178 -156 178c-156 0 -268 -177 -268 -318z" />
    <glyph glyph-name="P" unicode="P" 
d="M211 563h227c52 0 117 -2 156 -36c30 -27 46 -67 46 -107c0 -55 -32 -111 -71 -146c-60 -53 -133 -53 -243 -53h-58l-37 -174h148l-10 -47h-278l10 47h82l100 469h-82zM431 516h-99l-54 -248h54c91 0 157 -1 200 37c31 28 56 70 56 112c0 99 -96 99 -157 99z" />
    <glyph glyph-name="Q" unicode="Q" 
d="M503 -52l23 -38c-27 -17 -63 -37 -106 -37c-32 0 -51 9 -81 24c-29 14 -47 19 -72 19c-47 0 -76 -15 -129 -42l-15 41c32 18 48 28 103 79c-75 21 -134 103 -134 203c0 201 146 383 330 383c81 0 202 -50 202 -219c0 -150 -110 -382 -345 -378c-5 -7 -9 -9 -23 -19l2 -2
c19 2 49 4 100 -19c43 -19 48 -21 64 -21c32 0 55 12 81 26zM146 215c0 -67 28 -185 156 -185c151 0 268 168 268 325c0 68 -34 178 -156 178c-156 0 -268 -177 -268 -318z" />
    <glyph glyph-name="R" unicode="R" 
d="M163 563h255c69 0 169 0 169 -121c0 -80 -65 -170 -184 -183c2 -5 5 -12 10 -22c10 -21 15 -33 61 -136c14 -32 18 -42 23 -54h89l-10 -47h-126c-17 67 -44 131 -73 193c-5 10 -26 56 -28 61c0 1 -2 4 -2 5h-117l-45 -212h90l-10 -47h-221l10 47h82l99 469h-82zM412 516
h-128l-45 -213h95c41 0 101 0 144 31c25 18 57 55 57 106c0 76 -62 76 -123 76z" />
    <glyph glyph-name="S" unicode="S" 
d="M590 581l41 -11c-38 -94 -49 -152 -54 -187l-42 8c2 10 4 21 4 35c0 73 -57 107 -133 107c-103 0 -168 -63 -168 -128c0 -89 87 -94 130 -97c100 -7 177 -39 177 -135c0 -87 -74 -190 -222 -190c-37 0 -120 7 -166 59c-2 3 -8 9 -11 9c-8 0 -30 -55 -36 -70l-43 7
c25 76 33 103 43 180h44c-3 -51 22 -138 163 -138c120 0 174 75 174 139c0 77 -72 83 -140 89c-55 5 -88 16 -112 34c-33 25 -55 70 -55 112c0 77 76 176 218 176c90 0 122 -39 133 -53c3 -3 8 -9 11 -9c11 0 34 43 40 56c1 1 3 6 4 7z" />
    <glyph glyph-name="T" unicode="T" 
d="M178 563h480l-30 -210h-48l23 163h-171l-99 -469h122l-10 -47h-292l11 47h120l100 469h-170l-47 -163h-49z" />
    <glyph glyph-name="U" unicode="U" 
d="M148 563h225l-10 -47h-101l-61 -282c-4 -20 -13 -69 -13 -104c0 -23 9 -96 121 -96c158 0 180 101 199 193l62 289h-103l10 47h221l-10 -47h-71l-63 -295c-24 -113 -47 -151 -83 -181c-53 -43 -119 -57 -170 -57c-76 0 -164 36 -164 140c0 19 1 46 15 111l60 282h-74z
" />
    <glyph glyph-name="V" unicode="V" 
d="M125 563h214l-8 -47h-97l79 -460l278 460h-102l10 47h213l-10 -47h-61l-310 -516h-61l-86 516h-69z" />
    <glyph glyph-name="W" unicode="W" 
d="M120 563h198l-10 -47h-102l-32 -418l2 -2l205 364h34l49 -364h2l147 420h-102l10 47h195l-10 -47h-46l-183 -516h-51l-49 364h-2l-207 -364h-48l38 516h-47z" />
    <glyph glyph-name="X" unicode="X" 
d="M170 563h194l-10 -47h-82l100 -183l176 183h-75l10 47h184l-10 -47h-51l-216 -220l133 -249h53l-10 -47h-202l8 47h93l-111 212l-205 -212h106l-11 -47h-213l10 47h50l243 249l-120 220h-54z" />
    <glyph glyph-name="Y" unicode="Y" 
d="M150 563h197l-11 -47h-76l98 -248l201 248h-77l10 47h195l-10 -47h-62l-244 -298l-35 -171h117l-10 -47h-287l10 47h119l37 171l-118 298h-64z" />
    <glyph glyph-name="Z" unicode="Z" 
d="M209 563h403l-9 -42l-449 -474h324l36 162h45l-45 -209h-431l10 47l443 469h-290l-31 -146h-47z" />
    <glyph glyph-name="bracketleft" unicode="[" 
d="M447 654h176l-11 -50h-125l-138 -648h125l-10 -50h-176z" />
    <glyph glyph-name="backslash" unicode="\" 
d="M284 706l200 -825l-47 -20l-200 826z" />
    <glyph glyph-name="bracketright" unicode="]" 
d="M269 -94h-176l11 50h125l138 648h-125l10 50h176z" />
    <glyph glyph-name="asciicircum" unicode="^" 
d="M365 479l-151 -325h-76l190 409h74l190 -409h-76z" />
    <glyph glyph-name="underscore" unicode="_" 
d="M-48 -75h696v-50h-696v50z" />
    <glyph glyph-name="quoteleft" unicode="&#x2018;" 
d="M332 320h-104l160 243h73z" />
    <glyph glyph-name="a" unicode="a" 
d="M523 296l-51 -249h87l-10 -47h-139l12 57c-58 -33 -125 -71 -208 -71c-79 0 -132 52 -132 117c0 73 76 175 249 175c19 0 75 -2 136 -13l5 31c1 5 5 31 5 43c0 25 -22 63 -102 63c-69 0 -140 -27 -180 -42l-10 46c46 17 119 44 202 44c76 0 143 -33 143 -103
c0 -19 -6 -45 -7 -51zM435 119l22 100c-42 7 -83 11 -125 11c-158 0 -196 -83 -196 -122c0 -48 47 -74 85 -74c67 0 163 46 214 85z" />
    <glyph glyph-name="b" unicode="b" 
d="M135 620l143 9l-60 -279l2 -2c23 23 89 85 187 85c96 0 184 -62 184 -179c0 -132 -131 -264 -271 -264c-18 0 -107 0 -159 88l-17 -78h-129l10 47h81l112 530l-90 -4zM407 384c-125 0 -221 -110 -221 -210c0 -85 64 -135 140 -135c113 0 211 105 211 211
c0 88 -66 134 -130 134z" />
    <glyph glyph-name="c" unicode="c" 
d="M567 447l36 -8c-23 -60 -31 -96 -36 -160l-43 -6c2 49 6 123 -127 123c-152 0 -237 -122 -237 -223c0 -134 126 -138 150 -138c80 0 167 52 206 75l20 -41c-51 -31 -137 -83 -240 -83c-76 0 -190 42 -190 182c0 135 121 277 289 277c76 0 109 -29 130 -50c1 -1 6 -5 9 -5
c8 0 22 25 33 57z" />
    <glyph glyph-name="d" unicode="d" 
d="M417 608l212 19l-123 -580h84l-10 -47h-133l15 71l-2 2c-81 -83 -161 -83 -185 -83c-117 0 -181 87 -181 178c0 142 138 264 269 264c61 0 125 -28 153 -84h2l50 225l-167 -10zM277 39c124 0 217 108 217 210c0 81 -56 134 -132 134c-117 0 -212 -102 -212 -212
c0 -92 70 -132 127 -132z" />
    <glyph glyph-name="e" unicode="e" 
d="M541 96l14 -45c-4 -2 -5 -2 -6 -3l-14 -7c-61 -31 -153 -55 -221 -55c-123 0 -202 65 -202 177c0 142 123 282 289 282c134 0 191 -83 191 -164c0 -23 -4 -43 -14 -73l-1 -5h-410c-1 -9 -1 -17 -1 -29c0 -116 89 -139 154 -139c78 0 155 33 221 61zM180 248h356
c1 7 2 15 2 27c0 59 -40 121 -143 121c-126 0 -192 -92 -215 -148z" />
    <glyph glyph-name="f" unicode="f" 
d="M184 418h105l12 59c17 81 44 148 187 148c53 0 99 -7 137 -12c1 0 9 -2 11 -2l-31 -48c-57 10 -109 15 -137 15c-95 0 -106 -51 -118 -107l-11 -53h186l-10 -47h-186l-69 -324h183l-10 -47h-338l10 47h105l69 324h-105z" />
    <glyph glyph-name="g" unicode="g" 
d="M511 430h132l-10 -47h-82l-75 -357c-24 -116 -80 -183 -240 -183c-34 0 -61 1 -85 2l12 53c29 -3 57 -6 93 -6c106 0 154 45 171 134l11 58l-2 2c-60 -57 -121 -75 -173 -75c-109 0 -174 77 -174 170c0 126 122 253 265 253c42 0 108 -17 141 -78zM268 60
c114 0 203 99 203 202c0 77 -58 123 -121 123c-113 0 -207 -98 -207 -199c0 -95 79 -126 125 -126z" />
    <glyph glyph-name="h" unicode="h" 
d="M154 617l150 12l-53 -257c42 28 108 72 180 72c56 0 123 -39 123 -118c0 -22 -5 -47 -6 -53l-49 -226h85l-11 -47h-219l9 47h87l49 226c2 8 6 34 6 55c0 38 -37 65 -77 65c-72 0 -151 -54 -192 -83l-56 -263h82l-11 -47h-215l9 47h85l113 530l-95 -7z" />
    <glyph glyph-name="i" unicode="i" 
d="M218 430h198l-81 -383h173l-10 -47h-400l10 47h176l71 336h-147zM366 537l25 119h73l-25 -119h-73z" />
    <glyph glyph-name="j" unicode="j" 
d="M174 430h307l-84 -391c-11 -54 -40 -190 -226 -190c-54 0 -98 10 -134 17l22 47c25 -5 72 -15 123 -15c135 0 155 94 167 149l71 336h-256zM409 537l25 119h73l-25 -119h-73z" />
    <glyph glyph-name="k" unicode="k" 
d="M166 616l152 13l-83 -388l216 140v2h-55l10 47h210l-10 -47h-78l-197 -130c52 -57 120 -145 156 -206h85l-10 -47h-208l10 47h65c-20 33 -38 61 -140 178l-66 -43l-39 -182h-132l9 47h83l113 530l-96 -8z" />
    <glyph glyph-name="l" unicode="l" 
d="M233 597l219 14l-120 -564h175l-10 -47h-397l10 47h175l109 516l-166 -12z" />
    <glyph glyph-name="m" unicode="m" 
d="M86 430h119l-7 -34c25 19 58 45 107 45c59 0 75 -38 86 -62c31 27 71 62 128 62c49 0 90 -35 90 -86c0 -29 -9 -72 -11 -83l-49 -225h63l-10 -47h-112l59 272c2 9 11 49 11 74c0 8 -6 44 -47 44c-45 0 -85 -33 -116 -66l-58 -277h62l-10 -47h-111l59 278c2 8 9 42 9 63
c0 2 -2 49 -51 49c-33 0 -64 -13 -109 -56l-61 -287h71l-10 -47h-193l10 47h72l72 336h-72z" />
    <glyph glyph-name="n" unicode="n" 
d="M124 430h134l-14 -59c43 29 109 73 182 73c56 0 125 -38 125 -119c0 -21 -6 -46 -7 -52l-49 -226h85l-10 -47h-220l9 47h87l49 226c2 8 7 34 7 55c0 36 -35 65 -80 65c-64 0 -121 -34 -191 -81l-56 -265h83l-9 -47h-217l10 47h82l72 336h-83z" />
    <glyph glyph-name="o" unicode="o" 
d="M394 450c115 0 203 -62 203 -183c0 -129 -110 -281 -301 -281c-111 0 -205 57 -205 183c0 127 107 281 303 281zM387 403c-151 0 -242 -123 -242 -228c0 -70 44 -142 159 -142c149 0 239 126 239 227c0 82 -55 143 -156 143z" />
    <glyph glyph-name="p" unicode="p" 
d="M109 430h132l-15 -68l2 -2c20 21 83 83 189 83c122 0 181 -89 181 -177c0 -150 -145 -273 -272 -273c-13 0 -108 0 -160 87l-40 -190h149l-10 -47h-281l10 47h82l105 493h-82zM414 394c-124 0 -226 -102 -226 -217c0 -86 74 -135 140 -135c112 0 216 106 216 219
c0 82 -52 133 -130 133z" />
    <glyph glyph-name="q" unicode="q" 
d="M539 430h131l-10 -47h-82l-104 -489h83l-10 -47h-281l10 47h149l38 179l-2 2c-31 -33 -98 -83 -188 -83c-121 0 -183 89 -183 180c0 130 125 269 278 269c70 0 128 -39 154 -87zM273 41c118 0 226 94 226 215c0 88 -68 136 -142 136c-117 0 -213 -116 -213 -213
c0 -75 50 -138 129 -138z" />
    <glyph glyph-name="r" unicode="r" 
d="M173 430h167l-20 -90l2 -2c43 44 104 103 194 103c14 0 95 0 116 -103l-56 -6c-8 27 -19 60 -67 60c-77 0 -164 -86 -207 -142l-43 -203h189l-10 -47h-365l10 47h125l72 336h-117z" />
    <glyph glyph-name="s" unicode="s" 
d="M541 448l35 -5c-14 -43 -24 -82 -29 -150h-42c0 37 1 103 -133 103c-91 0 -148 -46 -148 -92c0 -57 69 -61 166 -66c43 -2 148 -8 148 -98c0 -74 -78 -154 -221 -154c-81 0 -124 31 -135 42c-2 3 -7 8 -10 8c-7 0 -27 -40 -32 -51l-38 6c0 2 2 8 4 12c3 11 17 58 18 65
c1 9 5 56 5 65c1 3 1 11 2 15l44 6c-1 -35 -2 -49 8 -68c15 -28 64 -51 132 -51c89 0 170 37 170 102c0 46 -44 48 -129 53c-69 4 -186 10 -186 108c0 69 74 145 205 145c44 0 90 -10 123 -40c2 -2 7 -6 10 -6c9 0 18 19 28 41c2 3 4 9 5 10z" />
    <glyph glyph-name="t" unicode="t" 
d="M292 563h48l-31 -147h223l-10 -47h-222l-40 -189c-2 -9 -12 -60 -12 -85c0 -8 3 -60 83 -60c57 0 130 23 214 57v-50c-70 -29 -142 -56 -218 -56c-95 0 -131 58 -131 97c0 24 10 72 15 97l40 189h-68l10 47h67z" />
    <glyph glyph-name="u" unicode="u" 
d="M123 430h131l-56 -265c-1 -7 -7 -34 -7 -56c0 -23 17 -74 77 -74c86 0 164 72 182 89l55 259h-85l10 47h134l-80 -383h80l-10 -47h-130l11 52c-40 -28 -93 -66 -170 -66c-107 0 -124 92 -124 125c0 21 6 49 7 54l46 218h-81z" />
    <glyph glyph-name="v" unicode="v" 
d="M111 430h213l-10 -47h-81l81 -325l220 325h-78l10 47h203l-10 -47h-73l-262 -383h-48l-100 383h-75z" />
    <glyph glyph-name="w" unicode="w" 
d="M93 430h178l-10 -47h-83l24 -303h2l155 272h35l41 -276h2l155 307h-84l10 47h170l-10 -47h-38l-193 -383h-53l-38 258h-2l-148 -258h-49l-31 383h-43z" />
    <glyph glyph-name="x" unicode="x" 
d="M130 430h194l-10 -47h-62l99 -125l151 123v2h-57l10 47h184l-10 -47h-60l-191 -158l140 -178h65l-10 -47h-204l9 47h73l-114 146l-174 -144v-2h69l-10 -47h-198l10 47h61l216 178l-125 158h-66z" />
    <glyph glyph-name="y" unicode="y" 
d="M438 430h217l-10 -47h-82l-73 -343c-18 -84 -43 -203 -249 -203c-41 0 -63 4 -95 9l11 54c27 -7 49 -14 95 -14c148 0 167 76 186 154l12 50l-2 2c-38 -35 -92 -77 -164 -77c-83 0 -138 56 -138 147c0 17 4 35 6 44l37 177h-76l9 47h218l-9 -47h-91l-38 -181
c-2 -11 -4 -23 -4 -38c0 -74 49 -100 95 -100c30 0 79 7 173 100l46 219h-85z" />
    <glyph glyph-name="z" unicode="z" 
d="M204 430h383l-10 -44l-395 -339h275l19 92h49l-30 -139h-393l10 47l392 336h-262l-19 -89h-48z" />
    <glyph glyph-name="braceleft" unicode="{" 
d="M598 652l-10 -48c-62 0 -96 -13 -114 -38c-18 -26 -20 -64 -20 -119c0 -90 0 -119 -78 -169c21 -20 37 -36 37 -71c0 -22 -4 -32 -41 -122c-14 -35 -22 -56 -22 -77c0 -55 57 -55 99 -55l-10 -49c-40 0 -141 -3 -141 98c0 34 15 69 19 78c2 6 15 36 18 41
c9 21 25 62 25 82c0 42 -51 48 -73 50l11 51c101 12 104 62 104 128c0 79 0 133 54 181c46 40 102 39 142 39z" />
    <glyph glyph-name="bar" unicode="|" 
d="M391 673v-858h-53v858h53z" />
    <glyph glyph-name="braceright" unicode="}" 
d="M117 -95l10 48c62 0 96 13 114 38c18 26 20 64 20 119c0 90 0 119 78 169c-21 20 -37 36 -37 71c0 22 4 32 41 122c14 35 22 56 22 77c0 55 -57 55 -99 55l10 49c40 0 141 3 141 -98c0 -34 -15 -69 -19 -78c-2 -6 -15 -36 -18 -41c-9 -21 -25 -62 -25 -82
c0 -42 51 -48 73 -50l-11 -51c-101 -12 -104 -62 -104 -128c0 -79 0 -133 -54 -181c-46 -40 -102 -39 -142 -39z" />
    <glyph glyph-name="asciitilde" unicode="~" 
d="M546 387l33 -38c-15 -28 -54 -95 -122 -95c-12 0 -24 0 -94 28c-63 27 -70 30 -90 30c-41 0 -61 -35 -89 -83l-34 39c27 45 60 101 123 101c29 0 53 -10 105 -32c53 -22 65 -26 78 -26c16 0 51 7 85 67c0 2 4 8 5 9z" />
    <glyph glyph-name="exclamdown" unicode="&#xa1;" 
d="M254 -138l98 378h46l-61 -378h-83zM396 327c-37 0 -59 24 -59 51c0 37 37 72 82 72c34 0 59 -22 59 -51c0 -38 -38 -72 -82 -72z" />
    <glyph glyph-name="cent" unicode="&#xa2;" 
d="M410 613h48l-29 -137c30 -5 58 -13 75 -31c3 -3 10 -10 14 -10c9 0 25 32 36 56l41 -10c-23 -55 -29 -83 -31 -137l-41 -9c-5 52 -8 86 -104 95l-62 -294c52 5 106 28 166 63l16 -42c-58 -36 -129 -69 -192 -69l-31 -144h-47l30 144c-33 6 -135 27 -135 153
c0 109 89 218 217 235zM310 138l61 292c-122 -29 -153 -127 -153 -182c0 -23 2 -96 92 -110z" />
    <glyph glyph-name="sterling" unicode="&#xa3;" 
d="M167 347h87c-1 11 -4 46 -4 71c0 89 52 192 187 192c51 0 82 -19 86 -22c3 -2 8 -6 12 -6c6 0 9 8 12 15c0 1 2 5 2 6c1 2 2 5 2 6l42 -6c-7 -32 -11 -65 -11 -99c0 -5 0 -19 1 -39h-45c-2 29 -5 98 -104 98c-134 0 -134 -123 -134 -152s3 -51 5 -64h218l-10 -45h-203
c1 -11 2 -25 2 -36c0 -39 -4 -51 -46 -151c-9 -20 -23 -37 -31 -46l-14 -13l2 -2c20 8 33 13 57 13c34 0 60 -9 83 -18c27 -11 38 -14 56 -14c48 0 69 30 82 47l37 -35c-13 -17 -48 -61 -121 -61c-28 0 -51 8 -69 15c-35 15 -45 19 -66 19c-40 0 -76 -14 -126 -40l-24 44
c83 68 130 160 130 249c0 14 -1 22 -1 29h-105z" />
    <glyph glyph-name="fraction" unicode="&#x2044;" 
d="M568 608l35 -29l-572 -636l-33 31z" />
    <glyph glyph-name="yen" unicode="&#xa5;" 
d="M288 47l17 84h-139l11 47h138l12 52h-139l10 47h139v9l-124 230h-59l12 47h185l-10 -47h-72l102 -184l174 184h-67l10 47h184l-10 -47h-52l-222 -230v-9h136l-10 -47h-137l-11 -52h137l-10 -47h-137l-19 -84h112l-10 -47h-273l11 47h111z" />
    <glyph glyph-name="florin" unicode="&#x192;" 
d="M247 456h105l24 60c26 65 58 147 197 147c25 0 46 -4 61 -6l-31 -49c-25 5 -39 8 -56 8c-83 0 -105 -59 -124 -107l-21 -53h108l-20 -47h-106l-140 -362c-21 -55 -57 -146 -191 -146c-27 0 -50 3 -67 5l31 50c14 -4 29 -8 50 -8c87 0 109 57 129 108l138 353h-106z" />
    <glyph glyph-name="section" unicode="&#xa7;" 
d="M593 563l-29 -135h-51l18 86h-108c-84 0 -90 -57 -90 -70c0 -19 13 -39 22 -48l118 -107c34 -31 61 -56 61 -96c0 -50 -44 -103 -111 -113c5 -8 13 -22 13 -46c0 -40 -34 -125 -161 -125h-160l30 143h51l-20 -94h111c62 0 95 36 95 71c0 18 -12 38 -27 51l-113 104
c-37 34 -55 54 -55 90c0 43 33 97 105 116c-9 18 -13 27 -13 44c0 13 2 129 164 129h150zM434 254l-107 98c-57 -6 -86 -45 -86 -73c0 -13 1 -25 35 -56l114 -104c67 3 90 44 90 68c0 21 -15 38 -46 67z" />
    <glyph glyph-name="currency" unicode="&#xa4;" 
d="M508 174l82 -80l-35 -34l-81 80c-41 -33 -88 -37 -109 -37c-16 0 -64 2 -109 37l-81 -80l-35 34l82 80c-35 51 -35 90 -35 100c0 64 21 95 35 115l-82 81l35 33l81 -80c41 32 83 37 109 37c58 0 94 -26 109 -37l81 80l35 -33l-82 -81c33 -46 36 -86 36 -100
c0 -65 -23 -97 -36 -115zM497 282c0 67 -51 131 -132 131c-82 0 -131 -66 -131 -131c0 -67 49 -132 130 -132s133 65 133 132z" />
    <glyph glyph-name="quotesingle" unicode="'" 
d="M372 563h114l-80 -282h-74z" />
    <glyph glyph-name="quotedblleft" unicode="&#x201c;" 
d="M489 320h-104l160 243h72zM317 320h-104l160 243h72z" />
    <glyph glyph-name="guillemotleft" unicode="&#xab;" 
d="M293 26l-193 204l274 200l29 -41l-228 -167l155 -163zM485 26l-192 204l272 200l30 -41l-228 -167l154 -163z" />
    <glyph glyph-name="guilsinglleft" unicode="&#x2039;" 
d="M405 26l-193 204l273 200l30 -41l-228 -167l155 -163z" />
    <glyph glyph-name="guilsinglright" unicode="&#x203a;" 
d="M287 430l193 -204l-273 -200l-30 41l228 167l-155 163z" />
    <glyph glyph-name="endash" unicode="&#x2013;" 
d="M153 317h424v-55h-424v55z" />
    <glyph glyph-name="dagger" unicode="&#x2020;" 
d="M387 563h55l-30 -138h111l-10 -49h-112l-90 -424h-55l90 424h-111l10 49h112z" />
    <glyph glyph-name="daggerdbl" unicode="&#x2021;" 
d="M388 563h55l-30 -140h110l-10 -47h-110l-34 -160h108l-11 -47h-108l-45 -217h-55l46 217h-108l10 47h107l35 160h-113l12 47h111z" />
    <glyph glyph-name="periodcentered" unicode="&#xb7;" 
d="M378 371c36 0 65 -23 65 -56c0 -48 -48 -80 -90 -80c-34 0 -66 21 -66 56c0 46 48 80 91 80z" />
    <glyph glyph-name="paragraph" unicode="&#xb6;" 
d="M556 533l-123 -580h53l-7 -30h-117l7 30h19l123 580h-82l-123 -580h20l-7 -30h-127l6 30h62l66 308c-59 -3 -142 14 -142 110c0 46 17 108 56 149c40 43 99 43 162 43h209l-6 -30h-49zM331 291l53 242c-41 -1 -90 -1 -109 -92l-13 -63c-1 -3 -3 -12 -3 -21
c0 -49 19 -71 72 -66z" />
    <glyph glyph-name="bullet" unicode="&#x2022;" 
d="M359 382c-55 0 -100 -45 -100 -100s45 -100 100 -100s100 45 100 100s-45 100 -100 100z" />
    <glyph glyph-name="quotesinglbase" unicode="&#x201a;" 
d="M280 133h105l-161 -242h-72z" />
    <glyph glyph-name="quotedblbase" unicode="&#x201e;" 
d="M194 133h104l-160 -242h-72zM366 133h104l-160 -242h-72z" />
    <glyph glyph-name="quotedblright" unicode="&#x201d;" 
d="M288 563h105l-160 -243h-73zM461 563h104l-160 -243h-72z" />
    <glyph glyph-name="guillemotright" unicode="&#xbb;" 
d="M200 430l192 -204l-273 -200l-29 40l228 167l-155 163zM392 430l193 -204l-274 -200l-29 40l228 167l-155 163z" />
    <glyph glyph-name="ellipsis" unicode="&#x2026;" 
d="M119 119c34 0 65 -22 65 -56c0 -48 -49 -80 -91 -80c-33 0 -65 21 -65 56c0 46 47 80 91 80zM322 119c35 0 65 -22 65 -56c0 -48 -48 -80 -90 -80c-33 0 -66 20 -66 56c0 46 47 80 91 80zM526 119c35 0 65 -23 65 -56c0 -48 -49 -80 -91 -80c-33 0 -65 20 -65 56
c0 47 48 80 91 80z" />
    <glyph glyph-name="perthousand" unicode="&#x2030;" 
d="M222 240c78 0 111 -56 111 -104c0 -69 -69 -150 -163 -150c-79 0 -112 54 -112 104c0 68 66 150 164 150zM215 195c-63 0 -105 -55 -105 -100c0 -48 36 -64 66 -64c61 0 105 54 105 101c0 50 -40 63 -66 63zM177 602c78 0 111 -56 111 -103c0 -70 -68 -151 -163 -151
c-80 0 -112 57 -112 104c0 67 66 150 164 150zM169 557c-64 0 -104 -56 -104 -100c0 -48 36 -64 66 -64c62 0 105 55 105 101c0 48 -37 63 -67 63zM532 240c78 0 111 -56 111 -104c0 -69 -68 -150 -163 -150c-80 0 -112 56 -112 103c0 68 65 151 164 151zM525 195
c-63 0 -105 -55 -105 -100c0 -49 36 -64 66 -64c61 0 105 54 105 101c0 50 -40 63 -66 63zM441 417l10 -47l-419 -157l-10 47z" />
    <glyph glyph-name="questiondown" unicode="&#xbf;" 
d="M499 -2l-22 -103c-76 -24 -113 -34 -167 -34c-130 0 -163 78 -163 130c0 151 167 191 221 204l13 60h49l-21 -98c-3 0 -13 -3 -20 -4c-66 -16 -112 -26 -152 -68c-28 -30 -38 -63 -38 -87c0 -88 100 -88 116 -88c56 0 94 14 120 25l14 63h50zM424 327
c-36 0 -59 23 -59 51c0 38 40 72 82 72c34 0 59 -22 59 -52c0 -37 -38 -71 -82 -71z" />
    <glyph glyph-name="grave" unicode="`" 
d="M319 618h105l61 -115h-50z" />
    <glyph glyph-name="acute" unicode="&#xb4;" 
d="M534 618l-166 -115h-54l110 115h110z" />
    <glyph glyph-name="circumflex" unicode="&#x2c6;" 
d="M394 620h76l75 -94l-35 -23l-89 64l-102 -64l-28 25z" />
    <glyph glyph-name="tilde" unicode="&#x2dc;" 
d="M547 618l38 -13c-45 -89 -100 -91 -116 -91c-24 0 -42 10 -66 32c-26 24 -35 29 -46 29c-35 0 -56 -37 -65 -53c-1 -2 -3 -4 -4 -5l-37 15c12 23 46 88 110 88c31 0 51 -18 68 -34s31 -27 48 -27c38 0 61 42 70 59z" />
    <glyph glyph-name="macron" unicode="&#xaf;" 
d="M252 592h340l-11 -50h-340z" />
    <glyph glyph-name="breve" unicode="&#x2d8;" 
d="M271 624h46s1 -4 2 -4c24 -67 86 -67 99 -67c15 0 77 0 127 68c1 1 2 3 3 3h47c-32 -57 -72 -85 -107 -100c-35 -14 -65 -14 -76 -14c-92 0 -130 53 -141 114z" />
    <glyph glyph-name="dotaccent" unicode="&#x2d9;" 
d="M371 513l23 108h72l-22 -108h-73z" />
    <glyph glyph-name="dieresis" unicode="&#xa8;" 
d="M306 513l22 108h73l-23 -108h-72zM436 513l23 108h72l-23 -108h-72z" />
    <glyph glyph-name="ring" unicode="&#x2da;" 
d="M419 642c42 0 76 -34 76 -76s-34 -76 -76 -76s-76 34 -76 76s34 76 76 76zM420 604c-21 0 -39 -14 -39 -38c0 -21 18 -38 39 -38s37 17 37 38s-16 38 -37 38z" />
    <glyph glyph-name="cedilla" unicode="&#xb8;" 
d="M334 1l-7 -23c39 -6 57 -26 57 -56c0 -33 -26 -64 -90 -64c-8 0 -45 0 -103 14l-8 1l17 44c1 -1 5 -2 6 -2c49 -12 82 -12 91 -12c7 0 40 1 40 19c0 7 0 16 -56 18h-12l20 61h45z" />
    <glyph glyph-name="hungarumlaut" unicode="&#x2dd;" 
d="M475 617l-146 -113h-45l114 113h77zM601 617l-146 -113h-45l114 113h77z" />
    <glyph glyph-name="ogonek" unicode="&#x2db;" 
d="M355 -39l-22 -55c-10 -7 -32 -23 -63 -23c-25 0 -48 16 -48 47c0 38 36 70 79 84h95v-5c-24 -6 -42 -9 -56 -15c-16 -7 -55 -18 -55 -46c0 -12 11 -13 14 -13c12 0 20 5 34 13c7 4 9 6 22 13z" />
    <glyph glyph-name="caron" unicode="&#x2c7;" 
d="M447 503h-80l-64 94l35 23l79 -64l100 64l33 -25z" />
    <glyph glyph-name="emdash" unicode="&#x2014;" 
d="M17 317h696v-55h-696v55z" />
    <glyph glyph-name="AE" unicode="&#xc6;" 
d="M275 563h391l-33 -180h-46l16 133h-143l-41 -193h70l14 72h45l-37 -192h-47l15 73h-72l-47 -229h151l37 137h45l-39 -184h-254l39 184h-120l-88 -137h88l-10 -47h-192l10 47h53l288 469h-103zM348 228l59 266l-2 2l-162 -268h105z" />
    <glyph glyph-name="ordfeminine" unicode="&#xaa;" 
d="M316 521l-7 34c51 19 77 25 107 25c47 0 76 -20 76 -55l-3 -26l-25 -117h44l-8 -36h-81l6 28c-40 -27 -64 -35 -96 -35c-40 0 -70 26 -70 61c0 53 57 95 130 95c20 0 32 -1 60 -5l1 8l3 18c0 18 -16 28 -45 28c-25 0 -52 -7 -92 -23zM435 423l7 31c-28 4 -39 5 -56 5
c-50 0 -88 -21 -88 -51c0 -18 18 -33 39 -33c29 0 61 15 96 46zM225 302h276l-8 -36h-276z" />
    <glyph glyph-name="Lslash" unicode="&#x141;" 
d="M276 322l213 108l15 -41l-240 -124l-47 -218h283l57 202h48l-64 -249h-484l10 47h100l42 195l-87 -44l-16 44l115 57l46 217h-100l10 47h274l-11 -47h-123z" />
    <glyph glyph-name="Oslash" unicode="&#xd8;" 
d="M154 37l-59 -59l-29 29l62 64c-12 19 -36 68 -36 139c0 153 122 370 328 370c90 0 130 -41 150 -61l50 51l29 -30l-55 -56c12 -24 30 -57 30 -124c0 -186 -140 -377 -326 -377c-89 0 -128 38 -144 54zM552 441l-359 -365c31 -40 87 -46 112 -46c138 0 265 154 265 327
c0 46 -12 68 -18 84zM169 112l361 367c-41 55 -102 54 -117 54c-149 0 -267 -163 -267 -320c0 -52 15 -82 23 -101z" />
    <glyph glyph-name="OE" unicode="&#x152;" 
d="M548 0h-306c-136 0 -176 121 -176 209c0 173 137 354 329 354h259l-33 -180h-46l16 133h-132l-40 -193h64l14 72h45l-37 -192h-46l14 73h-64l-49 -229h145l37 138h45zM310 47l99 469h-24c-155 0 -267 -149 -267 -300c0 -59 17 -169 146 -169h46z" />
    <glyph glyph-name="ordmasculine" unicode="&#xba;" 
d="M423 580c65 0 105 -36 105 -94c0 -81 -71 -147 -156 -147c-64 0 -105 36 -105 93c0 82 70 148 156 148zM416 544c-60 0 -110 -46 -110 -104c0 -40 29 -65 74 -65c59 0 109 47 109 104c0 40 -29 65 -73 65zM226 302h276l-8 -36h-276z" />
    <glyph glyph-name="ae" unicode="&#xe6;" 
d="M604 205h-241c-4 -20 -8 -45 -8 -71c0 -58 30 -103 85 -103c30 0 72 9 120 24l9 -44c-45 -15 -92 -25 -139 -25c-48 0 -55 6 -101 52c-16 16 -16 28 -16 40c-45 -48 -116 -92 -164 -92c-40 0 -95 27 -95 101c0 77 70 177 195 177c33 0 56 -4 74 -8l8 37c8 36 7 46 7 54
c0 45 -19 56 -54 56s-63 -7 -129 -28l-4 45c63 22 102 30 141 30c71 0 87 -37 92 -75c28 29 71 75 136 75c50 0 102 -33 102 -141c0 -51 -9 -78 -18 -104zM293 118l20 92c-17 4 -39 9 -70 9c-101 0 -138 -81 -138 -126c0 -38 23 -60 49 -60c41 0 104 47 139 85zM370 249h196
c5 21 7 42 7 62c0 15 -1 94 -60 94c-31 0 -112 -28 -143 -156z" />
    <glyph glyph-name="dotlessi" unicode="&#x131;" 
d="M219 430h198l-81 -383h173l-10 -47h-400l10 47h176l71 336h-147z" />
    <glyph glyph-name="lslash" unicode="&#x142;" 
d="M398 353l151 77l15 -41l-178 -92l-53 -250h174l-10 -47h-397l10 47h175l48 229l-151 -78l-16 42l179 92l49 231l-166 -12l5 46l219 14z" />
    <glyph glyph-name="oslash" unicode="&#xf8;" 
d="M152 32l-57 -46l-31 38l55 45c-20 29 -28 67 -28 102c0 128 113 279 302 279c14 0 90 0 144 -42l59 47l31 -39l-58 -47c20 -29 28 -67 28 -103c0 -128 -114 -280 -298 -280c-11 0 -95 1 -147 46zM525 334l-331 -269c42 -33 100 -32 112 -32c140 0 237 120 237 230
c0 34 -9 52 -18 71zM164 106l329 266c-30 23 -68 32 -107 32c-144 0 -241 -120 -241 -231c0 -25 9 -51 19 -67z" />
    <glyph glyph-name="oe" unicode="&#x153;" 
d="M604 205h-241c-5 -21 -8 -43 -8 -66c0 -56 20 -108 94 -108c36 0 57 12 89 33l21 -40c-26 -16 -59 -38 -115 -38c-96 0 -116 53 -129 86c-38 -54 -92 -86 -156 -86c-108 0 -119 94 -119 126c0 112 67 338 227 338c74 0 102 -51 115 -74c52 60 101 74 135 74
c102 0 105 -115 105 -141c0 -50 -9 -79 -16 -99c0 -1 -1 -4 -2 -5zM370 249h196c2 10 7 28 7 63c0 33 -8 93 -60 93c-43 0 -119 -45 -143 -156zM297 129l37 177c1 5 4 23 4 36c0 23 -22 61 -73 61c-115 0 -171 -193 -171 -284c0 -30 10 -86 73 -86c76 0 126 78 130 96z" />
    <glyph glyph-name="germandbls" unicode="&#xdf;" 
d="M70 47h62l82 383c10 46 45 209 206 209c80 0 140 -46 140 -125c0 -109 -106 -149 -147 -163v-2c38 -12 133 -44 133 -158c0 -124 -111 -204 -211 -204c-31 0 -54 7 -72 13l10 47c11 -2 22 -5 34 -8c12 -2 24 -3 37 -3c64 0 152 56 152 151c0 110 -117 129 -167 138l10 50
c110 16 171 75 171 138c0 61 -53 77 -91 77c-92 0 -136 -68 -156 -160l-92 -430h-111z" />
    <glyph glyph-name="copyright" unicode="&#xa9;" 
d="M520 436l-20 -95h-29c3 18 6 34 6 50c0 31 -44 40 -70 40c-100 0 -161 -94 -161 -179c0 -67 39 -105 94 -105c37 0 76 14 113 66l4 5l23 -10c-1 -1 -4 -6 -4 -7c-36 -57 -98 -85 -153 -85c-67 0 -129 40 -129 132c0 101 79 211 212 211c43 0 96 -15 108 -20
c2 -1 5 -2 6 -3zM358 580c161 0 292 -130 292 -293c0 -161 -131 -292 -292 -292s-292 131 -292 292c0 163 131 293 292 293zM358 542c-138 0 -254 -112 -254 -255c0 -139 114 -254 254 -254c141 0 254 115 254 254c0 142 -115 255 -254 255z" />
    <glyph glyph-name="approxequalalt" 
d="M578 245v-57h-426v57h426zM546 464l34 -38c-17 -29 -55 -96 -123 -96c-14 0 -23 0 -94 29c-64 26 -71 29 -90 29c-41 0 -62 -36 -89 -82l-33 39s2 3 2 4c24 40 57 96 119 96c31 0 55 -10 106 -31c53 -22 66 -27 79 -27c14 0 50 6 84 68c0 1 4 7 5 9z" />
    <glyph glyph-name="twosuperior" unicode="&#xb2;" 
d="M444 340h32l-20 -92h-236l7 35l8 7l101 76c46 34 88 68 103 83c26 26 39 52 39 81c0 32 -29 57 -64 57c-47 0 -84 -26 -91 -62h-33l10 46c31 29 81 50 120 50c54 0 95 -38 95 -89c0 -23 -8 -49 -20 -68c-10 -16 -24 -31 -37 -43c-24 -20 -53 -44 -89 -70l-92 -67v-2h155z
" />
    <glyph glyph-name="rightangle" unicode="&#x221f;" 
d="M575 0h-429v429h50v-379h379v-50z" />
    <glyph glyph-name="productdot" 
d="M365 371c38 0 77 -27 77 -68c0 -42 -40 -68 -77 -68c-35 0 -77 24 -77 68c0 42 40 68 77 68z" />
    <glyph glyph-name="alpha" unicode="&#x3b1;" 
d="M458 47h78l-10 -47h-120c-1 2 -3 8 -3 12c0 1 3 34 3 40v70h-2c-12 -18 -103 -137 -215 -137c-103 0 -155 91 -155 181c0 140 112 285 244 285c83 0 153 -60 173 -192c48 76 77 141 96 189h51c-37 -96 -68 -149 -140 -265c-2 -21 0 -116 0 -136zM406 195
c-3 118 -47 208 -131 208c-101 0 -187 -123 -187 -237c0 -80 43 -133 107 -133c84 0 169 106 211 162z" />
    <glyph glyph-name="Sigma" unicode="&#x3a3;" 
d="M223 563h392l-37 -183h-47l19 136h-284l134 -220l-229 -249h286l37 137h47l-40 -184h-398l11 54l226 246l-128 216z" />
    <glyph glyph-name="Tbar" unicode="&#x166;" 
d="M178 563h480l-30 -210h-48l23 163h-171l-34 -162h140l-10 -47h-140l-55 -260h122l-10 -47h-292l11 47h120l55 260h-139l10 47h139l35 162h-170l-47 -163h-49z" />
    <glyph glyph-name="SS270000" unicode="&#x2321;" 
d="M258 841h84v-869c0 -156 -81 -217 -146 -217s-73 44 -73 59c0 33 25 51 48 51c33 0 43 -16 54 -32c1 -2 9 -15 16 -15c17 0 17 19 17 78v945z" />
    <glyph glyph-name="Scedilla" unicode="&#x15e;" 
d="M324 -17l-2 -5c39 -6 58 -26 58 -56c0 -33 -27 -64 -91 -64c-45 0 -90 11 -110 15l16 44c19 -5 55 -14 97 -14c7 0 40 1 40 19c0 9 0 16 -67 18l15 46c-30 4 -74 15 -104 38c-5 4 -24 27 -30 27c-8 0 -30 -55 -36 -70l-43 7c25 76 33 103 43 180h44
c-3 -63 27 -138 162 -138c120 0 175 74 175 138c0 77 -72 84 -140 90c-55 5 -88 16 -112 34c-33 25 -55 70 -55 112c0 77 76 176 218 176c28 0 83 -4 118 -36c4 -4 21 -26 26 -26c11 0 31 39 44 63l41 -11c-38 -94 -49 -152 -54 -187l-42 8c2 10 4 21 4 35
c0 73 -57 107 -133 107c-103 0 -168 -63 -168 -128c0 -89 87 -94 130 -97c100 -7 177 -39 177 -135c0 -73 -57 -187 -221 -190z" />
    <glyph glyph-name="brokenbar" unicode="&#xa6;" 
d="M391 673v-373h-53v373h53zM391 188v-373h-53v373h53z" />
    <glyph glyph-name="SM680000" unicode="&#x2310;" 
d="M601 438v-52h-377v-217h-52v269h429z" />
    <glyph glyph-name="arrowright" unicode="&#x2192;" 
d="M26 262v50h410c-37 55 -40 83 -40 84c0 3 3 19 21 19c9 0 16 -8 34 -27c44 -47 104 -79 112 -83c9 -4 19 -8 19 -20c0 -9 -9 -13 -24 -21c-36 -16 -83 -51 -110 -82c-18 -21 -21 -24 -31 -24c-15 0 -21 12 -21 19c0 21 30 70 40 85h-410z" />
    <glyph glyph-name="approxequal" unicode="&#x2248;" 
d="M546 464l34 -38c-17 -29 -55 -96 -123 -96c-14 0 -23 0 -94 29c-64 26 -71 29 -90 29c-41 0 -62 -36 -89 -82l-33 39s2 3 2 4c24 40 57 96 119 96c31 0 55 -10 106 -31c53 -22 66 -27 79 -27c14 0 50 6 84 68c0 1 4 7 5 9zM546 297l34 -38c-17 -29 -55 -96 -123 -96
c-14 0 -23 0 -94 29c-64 26 -71 29 -90 29c-41 0 -62 -36 -89 -82l-33 39s2 3 2 4c24 40 57 96 119 96c31 0 55 -10 106 -31c53 -22 66 -27 79 -27c14 0 50 6 84 68c0 1 4 7 5 9z" />
    <glyph glyph-name="club" unicode="&#x2663;" 
d="M495 0h-388l4 16l6 1c80 18 100 27 129 61c31 36 49 86 49 134v22h-2c-33 -71 -85 -109 -148 -109c-71 0 -127 56 -127 128c0 68 48 124 110 126c29 -2 38 -5 73 -23l2 2c-25 40 -31 54 -31 81c0 70 55 124 127 124c71 0 127 -54 127 -122c0 -30 -9 -54 -31 -83l2 -2
l14 8c27 13 38 16 58 16c63 0 113 -56 113 -125c0 -72 -55 -130 -125 -130c-42 0 -89 24 -119 59c-11 12 -18 23 -31 50l-2 -2c1 -61 9 -95 31 -129c32 -49 68 -70 146 -85l9 -2z" />
    <glyph glyph-name="SS010000" unicode="&#x263b;" 
d="M300 563c155 0 282 -126 282 -281c0 -156 -127 -282 -282 -282s-282 126 -282 282c0 155 126 281 282 281zM213 403c-24 0 -43 -19 -43 -42c0 -24 19 -43 43 -43c23 0 42 19 42 43c0 23 -19 42 -42 42zM391 403c-23 0 -42 -19 -42 -43c0 -23 19 -42 42 -42
c24 0 43 19 43 42c0 24 -19 43 -43 43zM483 316v-2l-2 2c-6 -39 -14 -55 -34 -78c-37 -43 -84 -63 -147 -63c-62 0 -109 20 -146 63c-20 23 -28 39 -35 78l-2 -2c5 -65 14 -95 37 -130c32 -49 82 -74 146 -74c59 0 106 21 139 62c29 37 39 72 44 144z" />
    <glyph glyph-name="SM490000" 
d="M21 612l50 58c85 -54 146 -73 229 -73c85 0 143 18 231 73l48 -58c-43 -95 -63 -182 -62 -278c1 -100 21 -191 62 -275l-48 -59c-74 51 -141 72 -226 72c-87 0 -157 -21 -234 -72l-50 59c41 83 62 175 62 275c0 97 -20 184 -62 278zM100 588l14 -53
c25 -70 33 -141 33 -201c0 -53 -10 -134 -32 -199l-15 -54c77 41 129 55 198 55c72 0 128 -15 201 -55l-15 54c-18 64 -31 146 -31 199c0 60 5 130 30 201l18 51l-2 2c-55 -37 -127 -55 -201 -55c-67 0 -130 17 -198 55z" />
    <glyph glyph-name="arrowup" unicode="&#x2191;" 
d="M325 0h-50v442c-55 -37 -83 -40 -84 -40c-3 0 -19 3 -19 21c0 9 8 16 27 34c47 44 79 104 83 112c4 9 8 19 20 19c9 0 13 -9 21 -24c16 -36 51 -83 82 -110c21 -18 24 -21 24 -31c0 -15 -12 -21 -19 -21c-21 0 -70 30 -85 40v-442z" />
    <glyph glyph-name="SF020000" unicode="&#x2514;" 
d="M336 288h264v-72h-336v576h72v-504z" />
    <glyph glyph-name="SF610000" unicode="&#x2588;" 
d="M0 -288v1080h600v-1080h-600z" />
    <glyph glyph-name="commasuperior" 
d="M337 355h88l-112 -156h-65z" />
    <glyph glyph-name="zeroslash" 
d="M511 597l36 59l44 -18l-44 -74c14 -30 22 -72 22 -112c0 -139 -49 -293 -107 -375c-55 -77 -125 -91 -162 -91c-28 0 -62 5 -82 24l-44 -72l-43 18l52 89c-23 40 -26 88 -26 115c0 106 46 461 272 461c32 0 61 -5 82 -24zM217 107l268 445c-18 20 -51 24 -62 24
c-148 0 -211 -272 -212 -411c0 -9 0 -46 6 -58zM511 508l-267 -455c6 -5 21 -22 57 -22c169 0 214 321 214 403c0 24 0 50 -2 74h-2z" />
    <glyph glyph-name="Tcedilla" unicode="&#x162;" 
d="M328 0l-7 -22c39 -6 58 -26 58 -56c0 -33 -26 -64 -90 -64c-46 0 -91 11 -111 15l16 44c19 -5 56 -14 97 -14c8 0 41 1 41 19c0 9 0 16 -68 18l20 60h-131l11 47h120l100 469h-170l-47 -163h-49l60 210h480l-30 -210h-48l23 163h-171l-99 -469h122l-10 -47h-117z" />
    <glyph glyph-name="carriagereturn" unicode="&#x21b5;" 
d="M524 312v215h50v-265h-410c37 -55 40 -83 40 -84c0 -3 -3 -19 -21 -19c-9 0 -16 8 -34 27c-44 47 -104 79 -112 83c-9 4 -19 8 -19 20c0 9 9 13 24 21c36 16 83 51 110 82c18 21 21 24 31 24c15 0 21 -12 21 -19c0 -21 -30 -70 -40 -85h360z" />
    <glyph glyph-name="diamond" unicode="&#x2666;" 
d="M100 265l-10 11c15 18 26 32 55 68c44 56 54 68 69 90c35 47 60 84 85 129c29 -50 62 -97 115 -168c33 -42 61 -79 78 -98c6 -7 9 -11 18 -21c-15 -15 -28 -31 -52 -61l-56 -73c-35 -46 -75 -105 -102 -153c-12 23 -27 46 -52 82c-47 66 -79 109 -99 134z" />
    <glyph glyph-name="SF440000" unicode="&#x256c;" 
d="M264 216v-504h-72v432h-192v72h264zM264 288h-264v72h192v432h72v-504zM336 216h264v-72h-192v-432h-72v504zM336 288v504h72v-432h192v-72h-264z" />
    <glyph glyph-name="trademark" unicode="&#x2122;" 
d="M719 574l-5 -25c-30 0 -34 -2 -37 -16l-45 -210c-3 -16 1 -15 31 -18l-6 -25h-110l6 25c30 1 35 0 40 25l39 180l-2 2l-157 -243l-49 243h-2l-38 -182c-1 -1 -2 -13 -2 -15c0 -9 3 -9 32 -10l-5 -25h-94l5 25c30 2 34 1 39 25l44 210c2 10 -1 10 -25 9l6 25h71l44 -222
l143 222h77zM330 497h-25c3 19 4 23 4 32c0 16 -7 21 -62 20l-49 -226l-1 -11c0 -6 26 -6 40 -7l-5 -25h-127l5 25c39 0 43 -1 48 21l47 223c-60 1 -66 -5 -80 -52h-27c13 37 14 41 22 77h227c-5 -18 -11 -37 -17 -77z" />
    <glyph glyph-name="sigma" unicode="&#x3c3;" 
d="M640 450l-10 -49l-186 14l-2 -2c27 -15 92 -56 92 -159c0 -142 -133 -269 -278 -269c-125 0 -192 91 -192 191c0 108 75 191 132 227c73 46 169 47 227 47h217zM342 401c-118 0 -224 -110 -224 -228c0 -63 42 -139 143 -139c112 0 219 105 219 223c0 94 -67 144 -138 144
z" />
    <glyph glyph-name="Kcedilla" unicode="&#x136;" 
d="M178 563h219l-10 -47h-83l-50 -226l298 224v2h-81l10 47h196l-10 -47h-43l-257 -196c61 -96 90 -159 136 -273h94l-11 -47h-122c-40 106 -73 192 -139 290l-83 -63l-38 -180h84l-10 -47h-220l10 47h85l101 469h-86zM382 0l-8 -22c39 -6 58 -26 58 -56
c0 -33 -26 -64 -90 -64c-46 0 -91 11 -111 15l16 44c19 -5 56 -14 97 -14c8 0 41 1 41 19c0 9 0 16 -68 18l20 60h45z" />
    <glyph glyph-name="tquoteright" 
d="M292 563h48l-31 -147h223l-10 -47h-222l-40 -189c-2 -9 -12 -60 -12 -85c0 -8 3 -60 83 -60c57 0 130 23 214 57v-50c-70 -29 -142 -56 -218 -56c-95 0 -131 58 -131 97c0 24 10 72 15 97l40 189h-68l10 47h67zM675 563h105l-160 -243h-73z" />
    <glyph glyph-name="aogonek" unicode="&#x105;" 
d="M496 -39l-22 -55c-11 -7 -33 -23 -63 -23c-25 0 -48 16 -48 47c0 32 24 55 47 70l12 57c-58 -33 -125 -71 -208 -71c-79 0 -132 52 -132 117c0 73 76 175 249 175c19 0 75 -2 136 -13l5 31c1 5 5 31 5 43c0 25 -22 63 -102 63c-69 0 -140 -27 -180 -42l-10 46
c46 17 119 44 202 44c76 0 143 -33 143 -103c0 -19 -6 -45 -7 -51l-51 -249h87l-10 -47h-53c-17 -5 -70 -24 -70 -52c0 -12 11 -13 14 -13c13 0 17 3 56 26zM435 119l22 100c-42 7 -83 10 -125 10c-157 0 -196 -81 -196 -121c0 -48 47 -74 85 -74c67 0 163 46 214 85z" />
    <glyph glyph-name="SF280000" unicode="&#x255b;" 
d="M336 792v-648h-336v72h264v72h-264v72h264v432h72z" />
    <glyph glyph-name="tbar" unicode="&#x167;" 
d="M286 306h222l-10 -47h-222l-16 -79c-2 -9 -12 -63 -12 -85c0 -4 0 -60 83 -60c30 0 78 4 214 56v-49c-97 -39 -163 -56 -218 -56c-96 0 -131 59 -131 97c0 24 10 72 15 97l17 79h-69l10 47h69l13 63h-68l10 47h67l32 147h48l-30 -147h222l-10 -47h-222z" />
    <glyph glyph-name="SF600000" unicode="&#x2580;" 
d="M0 252v540h600v-540h-600z" />
    <glyph glyph-name="registered" unicode="&#xae;" 
d="M251 441l5 23h138c35 0 101 -6 101 -67c0 -14 -3 -84 -97 -104c9 -9 19 -18 28 -57l8 -33c11 -46 12 -48 50 -47l-5 -22h-39c-40 0 -46 32 -54 77c-13 70 -16 72 -62 72h-20l-23 -110c-2 -6 -4 -13 12 -14c7 -1 13 -1 26 -3l-5 -22h-126l5 22c5 1 29 3 33 5
c7 2 9 7 10 13c1 3 1 6 2 9l50 235c0 2 3 12 3 13c0 8 -9 8 -13 8c-5 0 -23 2 -27 2zM333 418l-24 -110c37 -1 141 -4 141 88c0 7 -2 28 -20 35c-21 9 -61 12 -65 12c-27 0 -30 -14 -32 -25zM358 580c159 0 292 -127 292 -292c0 -162 -131 -292 -292 -292
c-160 0 -291 130 -291 292c0 164 132 292 291 292zM359 542c-139 0 -254 -113 -254 -254c0 -139 113 -254 254 -254c140 0 253 114 253 254c0 141 -115 254 -253 254z" />
    <glyph glyph-name="threeeighths" unicode="&#x215c;" 
d="M370 0c0 43 29 82 76 107c-22 20 -32 40 -32 66c0 64 63 120 135 120c55 0 95 -35 95 -83c0 -40 -24 -77 -69 -105c25 -18 38 -41 38 -71c0 -64 -68 -122 -143 -122c-59 0 -100 35 -100 88zM455 177c0 -29 25 -53 58 -53c46 0 90 41 90 84c0 27 -24 48 -57 48
c-50 0 -91 -35 -91 -79zM411 2c0 -31 26 -53 63 -53c51 0 98 39 98 82c0 32 -25 54 -64 54c-51 0 -97 -39 -97 -83zM146 549l-14 33c57 31 82 40 115 40c51 0 88 -32 88 -76c0 -40 -20 -74 -59 -99c29 -19 41 -41 41 -72c0 -72 -68 -134 -149 -134c-29 0 -49 6 -91 24l-19 8
l22 34c38 -20 66 -29 93 -29c58 0 103 43 103 96c0 32 -24 51 -66 51l-16 -1h-11l8 37c40 1 56 6 76 23c17 15 27 37 27 56c0 26 -21 45 -53 45c-23 0 -42 -8 -78 -27zM686 633l25 -20l-660 -703l-23 22z" />
    <glyph glyph-name="delta" unicode="&#x3b4;" 
d="M600 615l-10 -47h-286l160 -144c46 -42 103 -94 103 -183c0 -118 -117 -256 -267 -256c-125 0 -182 97 -182 180c0 131 128 254 252 254c10 0 23 -1 28 -1l-104 91c-23 20 -34 34 -44 49l13 57h337zM380 370c-118 0 -208 -102 -208 -209c0 -72 53 -127 129 -127
c119 0 212 108 212 209c0 108 -92 127 -133 127z" />
    <glyph glyph-name="SF420000" unicode="&#x2560;" 
d="M192 -288v1080h72v-1080h-72zM336 216h264v-72h-192v-432h-72v504zM336 288v504h72v-432h192v-72h-264z" />
    <glyph glyph-name="SF480000" unicode="&#x2565;" 
d="M336 216h-72v-504h-72v504h-192v72h600v-72h-192v-504h-72v504z" />
    <glyph glyph-name="SM570001" unicode="&#x25d8;" 
d="M61 0v478h478v-478h-478zM300 338c-54 0 -99 -45 -99 -100c0 -54 45 -98 99 -98s99 44 99 98c0 55 -45 100 -99 100z" />
    <glyph glyph-name="SF010000" unicode="&#x250c;" 
d="M336 216v-504h-72v576h336v-72h-264z" />
    <glyph glyph-name="dquoteright" 
d="M384 608l212 19l-123 -580h84l-10 -47h-133l15 71l-2 2c-81 -83 -161 -83 -185 -83c-117 0 -181 87 -181 178c0 142 138 264 269 264c61 0 125 -28 153 -84h2l50 225l-167 -10zM244 39c124 0 217 108 217 210c0 81 -56 134 -132 134c-117 0 -212 -102 -212 -212
c0 -92 70 -132 127 -132zM695 563h105l-160 -243h-73z" />
    <glyph glyph-name="SS000000" unicode="&#x263a;" 
d="M300 563c155 0 282 -126 282 -281c0 -156 -127 -282 -282 -282s-282 126 -282 282c0 155 126 281 282 281zM300 525c-135 0 -244 -108 -244 -243s109 -244 244 -244s244 109 244 244s-109 243 -244 243zM216 399c22 0 39 -17 39 -39c0 -21 -17 -39 -39 -39s-39 18 -39 39
c0 22 17 39 39 39zM384 399c22 0 39 -18 39 -40s-17 -38 -39 -38c-21 0 -39 17 -39 38c0 22 18 40 39 40zM483 316c-5 -72 -16 -107 -45 -144c-32 -41 -79 -62 -138 -62c-64 0 -114 25 -146 74c-23 35 -32 65 -37 132c9 -39 17 -55 37 -78c37 -43 84 -63 146 -63
c63 0 110 20 147 63c20 23 27 39 36 78z" />
    <glyph glyph-name="plussuperior" unicode="&#x207a;" 
d="M356 572h50v-121h134v-43h-134v-121h-50v121h-134v43h134v121z" />
    <glyph glyph-name="divide" unicode="&#xf7;" 
d="M366 528c24 0 45 -19 45 -45c0 -24 -19 -45 -45 -45c-25 0 -45 21 -45 45c0 27 22 45 45 45zM132 328h468v-50h-468v50zM366 168c22 0 45 -18 45 -45c0 -26 -22 -45 -45 -45c-24 0 -45 20 -45 45c0 26 21 45 45 45z" />
    <glyph glyph-name="uogonek" unicode="&#x173;" 
d="M501 -39l-21 -55c-11 -7 -33 -23 -63 -23c-25 0 -48 16 -48 47c0 43 45 70 56 75l10 47c-40 -28 -93 -66 -170 -66c-107 0 -124 92 -124 125c0 21 6 49 7 54l46 218h-81l10 47h131l-56 -265c-1 -7 -7 -34 -7 -56c0 -23 17 -74 77 -74c86 0 164 72 182 89l55 259h-85
l10 47h134l-80 -383h80l-10 -47h-52c-16 -4 -71 -24 -71 -52c0 -12 11 -13 14 -13c14 0 18 3 56 26z" />
    <glyph glyph-name="SF410000" unicode="&#x2566;" 
d="M408 -288h-72v504h264v-72h-192v-432zM0 216h264v-504h-72v432h-192v72zM600 288h-600v72h600v-72z" />
    <glyph glyph-name="SM630000" unicode="&#x25c0;" 
d="M560 83l-560 199l560 198v-397z" />
    <glyph glyph-name="Aogonek" unicode="&#x104;" 
d="M536 -39l-21 -55c-11 -7 -33 -23 -63 -23c-25 0 -48 16 -48 47c0 32 23 55 47 68v2h-67l10 47h102l-28 139h-259l-87 -139h101l-9 -47h-205l10 47h52l293 469h-141l8 47h215l102 -516h51l-10 -47h-52c-17 -5 -70 -24 -70 -52c0 -12 11 -13 13 -13c14 0 18 3 56 26z
M461 230l-54 274l-171 -274h225z" />
    <glyph glyph-name="SF070000" unicode="&#x2534;" 
d="M336 288h264v-72h-600v72h264v504h72v-504z" />
    <glyph glyph-name="scedilla" unicode="&#x15f;" 
d="M335 -14l-3 -8c39 -6 58 -26 58 -56c0 -33 -27 -64 -91 -64c-45 0 -90 11 -110 15l16 44c19 -5 55 -14 97 -14c7 0 40 1 40 19c0 9 0 16 -67 18l15 47c-34 3 -63 11 -93 29c-5 3 -21 20 -25 20c-7 0 -27 -40 -32 -51l-38 6c3 11 22 73 22 77c5 61 6 68 7 80l44 6
c-1 -35 -2 -49 8 -68c15 -28 64 -51 132 -51c89 0 170 37 170 102c0 46 -44 48 -129 53c-69 4 -186 10 -186 108c0 69 74 145 205 145c57 0 91 -17 109 -29c4 -2 20 -17 24 -17c8 0 11 5 33 51l35 -5c-14 -43 -24 -82 -29 -150h-42c0 37 1 103 -133 103
c-91 0 -148 -46 -148 -92c0 -57 69 -61 166 -66c43 -2 148 -8 148 -98c0 -58 -54 -145 -203 -154z" />
    <glyph glyph-name="arrowdown" unicode="&#x2193;" 
d="M275 563h50v-442c55 37 83 40 84 40c3 0 19 -3 19 -21c0 -9 -8 -16 -27 -34c-47 -44 -79 -104 -83 -112c-4 -9 -8 -19 -20 -19c-9 0 -13 9 -21 24c-16 36 -51 83 -82 110c-21 18 -24 21 -24 31c0 15 12 21 19 21c21 0 70 -30 85 -40v442z" />
    <glyph glyph-name="thorn" unicode="&#xfe;" 
d="M283 629l-57 -267l2 -2c26 27 85 83 189 83c122 0 181 -89 181 -177c0 -151 -146 -273 -272 -273c-14 0 -108 0 -159 87l-41 -190h149l-9 -47h-282l10 47h82l146 687l-89 -4l8 47zM415 394c-125 0 -227 -103 -227 -216c0 -87 73 -136 140 -136c112 0 216 105 216 219
c0 84 -54 133 -129 133z" />
    <glyph glyph-name="dbar" unicode="&#x111;" 
d="M417 608l212 19l-23 -107h84l-10 -47h-84l-90 -426h84l-10 -47h-133l15 71l-2 2c-81 -83 -161 -83 -185 -83c-117 0 -181 87 -181 178c0 142 138 264 269 264c61 0 125 -28 153 -84h2l29 125h-243l10 47h243l11 53l-167 -10zM277 39c124 0 217 108 217 210
c0 81 -56 134 -132 134c-117 0 -212 -102 -212 -212c0 -92 70 -132 127 -132z" />
    <glyph glyph-name="sixsuperior" unicode="&#x2076;" 
d="M544 621l-9 -34c-9 1 -15 1 -27 1c-73 0 -110 -14 -147 -56c-23 -26 -36 -51 -54 -99l2 -2c12 13 26 24 42 31s33 11 49 11c50 0 86 -38 86 -91c0 -75 -63 -143 -133 -143c-57 0 -95 44 -95 109c0 76 36 164 88 216c40 40 90 60 159 58l29 -1h10zM296 374
c-1 -11 -2 -17 -2 -25c0 -44 25 -75 62 -75c50 0 92 48 92 105c0 34 -21 59 -51 59c-39 0 -74 -22 -101 -64z" />
    <glyph glyph-name="SF470000" unicode="&#x2564;" 
d="M336 144v-432h-72v432h-264v72h600v-72h-264zM600 288h-600v72h600v-72z" />
    <glyph glyph-name="similar" unicode="&#x223c;" 
d="M546 387l33 -38c-15 -28 -54 -95 -122 -95c-12 0 -24 0 -94 28c-63 27 -70 30 -90 30c-41 0 -61 -35 -89 -83l-34 39c27 45 60 101 123 101c29 0 53 -10 105 -32c53 -22 65 -26 78 -26c16 0 51 7 85 67c0 2 4 8 5 9z" />
    <glyph glyph-name="SS260000" unicode="&#x2320;" 
d="M342 -245h-84v869c0 152 79 217 146 217c64 0 73 -43 73 -59c0 -35 -27 -51 -49 -51c-32 0 -42 16 -53 32c-1 2 -9 14 -15 14c-18 0 -18 -17 -18 -77v-945z" />
    <glyph glyph-name="degree" unicode="&#xb0;" 
d="M212 467c0 85 68 154 153 154c87 0 153 -71 153 -154s-67 -152 -153 -152c-85 0 -153 67 -153 152zM267 468c0 -54 44 -98 98 -98c55 0 98 44 98 98c0 55 -43 98 -98 98c-54 0 -98 -43 -98 -98z" />
    <glyph glyph-name="SF520000" unicode="&#x2553;" 
d="M336 216h-72v-504h-72v576h408v-72h-192v-504h-72v504z" />
    <glyph glyph-name="ccedilla" unicode="&#xe7;" 
d="M313 -14v-9c18 -4 54 -12 54 -55c0 -37 -31 -64 -90 -64c-45 0 -90 10 -111 15l16 44c23 -6 56 -14 98 -14c3 0 40 0 40 19c0 9 0 15 -68 18l16 47c-87 12 -161 67 -161 180c0 135 120 278 288 278c70 0 101 -25 114 -35c4 -3 21 -20 25 -20c12 0 31 50 33 57l36 -8
c-26 -87 -30 -101 -36 -160l-43 -6c2 49 6 123 -127 123c-152 0 -236 -122 -236 -223c0 -134 125 -138 149 -138c81 0 167 52 206 75l20 -41c-42 -26 -128 -79 -223 -83z" />
    <glyph glyph-name="SM760000" unicode="&#x2195;" 
d="M321 461v-297c42 25 81 40 92 40c5 0 19 -4 19 -21c0 -8 -1 -9 -47 -53c-21 -20 -54 -62 -72 -101c-1 -3 -7 -14 -15 -14c-10 0 -12 4 -26 31s-44 74 -85 110c-17 15 -19 17 -19 27c0 15 12 21 19 21c1 0 29 -2 84 -40v297c-47 -34 -81 -40 -84 -40c-6 0 -19 5 -19 20
c0 9 1 11 27 34c48 43 80 109 82 113c4 8 8 19 20 19c10 0 13 -5 21 -24c1 -2 27 -56 97 -116c11 -9 17 -15 17 -25c0 -17 -13 -21 -18 -21c-14 0 -53 17 -93 40z" />
    <glyph glyph-name="Uogonek" unicode="&#x172;" 
d="M399 -39l-22 -55c-11 -7 -33 -23 -63 -23c-25 0 -48 16 -48 47c0 21 11 39 26 53c-109 7 -155 66 -155 140c0 19 1 46 15 111l60 282h-74l10 47h225l-10 -47h-101l-61 -282c-4 -20 -13 -69 -13 -104c0 -23 9 -96 121 -96c158 0 180 101 199 193l62 289h-103l10 47h221
l-10 -47h-71l-63 -295c-12 -59 -36 -171 -119 -205c-81 -33 -106 -44 -106 -68c0 -12 11 -13 14 -13c13 0 17 3 56 26z" />
    <glyph glyph-name="Ldot" unicode="&#x13f;" 
d="M177 563h273l-10 -47h-123l-100 -469h283l57 202h48l-65 -249h-483l10 47h100l100 469h-100zM440 358c34 0 65 -21 65 -55c0 -49 -49 -80 -90 -80c-35 0 -66 21 -66 55c0 47 47 80 91 80z" />
    <glyph glyph-name="underscoredbl" unicode="&#x2017;" 
d="M648 -175v-50h-696v50h696zM-48 -75h696v-50h-696v50z" />
    <glyph glyph-name="SM750002" unicode="&#x25d9;" 
d="M300 499c-119 0 -217 -96 -217 -217c0 -120 98 -217 217 -217s217 97 217 217c0 121 -98 217 -217 217zM18 0v564h564v-564h-564zM300 449c91 0 167 -75 167 -167c0 -91 -75 -167 -167 -167s-167 77 -167 167c0 92 75 167 167 167z" />
    <glyph glyph-name="SF430000" unicode="&#x2550;" 
d="M600 360v-72h-600v72h600zM600 216v-72h-600v72h600z" />
    <glyph glyph-name="SF400000" unicode="&#x2569;" 
d="M600 288h-264v504h72v-432h192v-72zM0 288v72h192v432h72v-504h-264zM600 216v-72h-600v72h600z" />
    <glyph glyph-name="SF530000" unicode="&#x256b;" 
d="M264 288h72v504h72v-504h192v-72h-192v-504h-72v504h-72v-504h-72v504h-192v72h192v504h72v-504z" />
    <glyph glyph-name="SF370000" unicode="&#x255f;" 
d="M336 792h72v-504h192v-72h-192v-504h-72v1080zM192 -288v1080h72v-1080h-72z" />
    <glyph glyph-name="SF060000" unicode="&#x252c;" 
d="M336 216v-504h-72v504h-264v72h600v-72h-264z" />
    <glyph glyph-name="SM690000" unicode="&#x263c;" 
d="M137 404l-66 65l42 41l66 -66c19 19 66 38 92 38v94h58v-94c27 0 68 -18 92 -38l67 66l41 -41l-66 -66c18 -18 37 -64 37 -92h94v-58h-94c0 -29 -17 -68 -37 -93l66 -66l-41 -41l-67 66c-14 -14 -61 -37 -92 -38v-94h-58v95c-35 0 -72 16 -92 37l-66 -66l-42 41l67 66
c-21 21 -37 65 -37 93h-95v58h95c0 24 18 71 36 93zM300 416c-74 0 -133 -59 -133 -133s59 -135 133 -135s134 61 134 135s-60 133 -134 133z" />
    <glyph glyph-name="tau" unicode="&#x3c4;" 
d="M341 383l-66 -308c-2 -8 -2 -13 -2 -16c0 -8 1 -19 26 -19c34 0 58 10 96 28l4 -48c-23 -11 -61 -29 -110 -29c-35 0 -66 12 -66 57c0 11 2 24 3 27l64 308h-60c-11 0 -57 0 -101 -10l10 49c12 3 38 8 87 8h278l-10 -47h-153z" />
    <glyph glyph-name="SM700000" 
d="M7 149v179h586v-179h-586z" />
    <glyph glyph-name="Lcedilla" unicode="&#x13b;" 
d="M351 0l-7 -22c39 -6 58 -26 58 -56c0 -33 -27 -64 -91 -64c-45 0 -90 11 -110 15l16 44c19 -5 55 -14 97 -14c7 0 40 1 40 19c0 9 0 16 -67 18l19 60h-249l10 47h100l100 469h-100l10 47h273l-10 -47h-123l-100 -469h283l57 202h48l-65 -249h-189z" />
    <glyph glyph-name="zerodot" 
d="M372 352c28 0 48 -18 48 -42c0 -35 -35 -59 -67 -59c-26 0 -49 16 -49 42c0 34 35 59 68 59zM429 621c132 0 140 -127 140 -174c0 -117 -55 -461 -272 -461c-131 0 -141 121 -141 172c0 114 52 463 273 463zM423 576c-165 0 -213 -318 -213 -414c0 -25 0 -131 92 -131
c168 0 213 325 213 413c0 26 0 132 -92 132z" />
    <glyph glyph-name="SV040000" unicode="&#x25bc;" 
d="M102 467h396l-198 -371z" />
    <glyph glyph-name="SP500000" 
d="M265 282l-147 148l36 34l146 -147l146 147l36 -34l-147 -148l147 -146l-36 -36l-146 147l-146 -147l-36 36zM18 0v564h564v-564h-564zM75 507v-450h450v450h-450z" />
    <glyph glyph-name="Rcedilla" unicode="&#x156;" 
d="M163 563h255c69 0 169 0 169 -121c0 -80 -65 -170 -184 -183c7 -14 80 -175 94 -212h89l-10 -47h-126c-6 24 -12 47 -31 97c-10 26 -62 139 -72 162h-117l-45 -212h90l-10 -47h-221l10 47h82l99 469h-82zM412 516h-128l-45 -213h95c41 0 101 0 144 31c25 18 57 55 57 106
c0 76 -62 76 -123 76zM350 0l-8 -22c39 -6 58 -26 58 -56c0 -33 -27 -64 -91 -64c-45 0 -90 11 -110 15l16 44c19 -5 55 -14 97 -14c7 0 40 1 40 19c0 9 0 16 -67 18l20 60h45z" />
    <glyph glyph-name="SF490000" unicode="&#x2559;" 
d="M336 288v504h72v-504h192v-72h-408v576h72v-504h72z" />
    <glyph glyph-name="radical" unicode="&#x221a;" 
d="M59 316h130l47 -185h2l188 644h268v-50h-230l-214 -725h-48l-70 266h-73v50z" />
    <glyph glyph-name="SF460000" unicode="&#x2568;" 
d="M336 288v504h72v-504h192v-72h-600v72h192v504h72v-504h72z" />
    <glyph glyph-name="SM590000" unicode="&#x25b6;" 
d="M40 83v397l560 -198z" />
    <glyph glyph-name="SM750000" unicode="&#x25cb;" 
d="M300 499c119 0 217 -96 217 -217c0 -120 -98 -217 -217 -217s-217 97 -217 217c0 121 98 217 217 217zM300 449c-92 0 -167 -75 -167 -167c0 -90 75 -167 167 -167s167 76 167 167c0 92 -76 167 -167 167z" />
    <glyph glyph-name="SM770000" unicode="&#x21a8;" 
d="M321 461v-297c42 25 81 40 92 40c5 0 19 -4 19 -21c0 -8 -1 -9 -47 -53c-21 -20 -54 -62 -72 -101c-1 -3 -7 -14 -15 -14c-10 0 -12 4 -26 31s-44 74 -85 110c-17 15 -19 17 -19 27c0 15 12 21 19 21c1 0 29 -2 84 -40v297c-47 -34 -81 -40 -84 -40c-6 0 -19 5 -19 20
c0 9 1 11 27 34c48 43 80 109 82 113c4 8 8 19 20 19c10 0 13 -5 21 -24c1 -2 27 -56 97 -116c11 -9 17 -15 17 -25c0 -17 -13 -21 -18 -21c-14 0 -53 17 -93 40zM195 -37h213v-50h-213v50z" />
    <glyph glyph-name="SF580000" unicode="&#x258c;" 
d="M0 -288v1080h300v-1080h-300z" />
    <glyph glyph-name="arrowboth" unicode="&#x2194;" 
d="M432 262h-261c25 -42 40 -81 40 -92c0 -5 -4 -19 -21 -19c-8 0 -9 1 -53 47c-20 21 -62 54 -101 72c-3 1 -14 7 -14 15c0 10 4 12 31 26s74 44 110 85c15 17 17 19 27 19c15 0 21 -12 21 -19c0 -1 -2 -29 -40 -84h261c-34 47 -40 81 -40 84c0 6 5 19 20 19
c9 0 11 -1 34 -27c43 -48 109 -80 113 -82c8 -4 19 -8 19 -20c0 -10 -5 -13 -24 -21c-2 -1 -56 -27 -116 -97c-9 -11 -15 -17 -25 -17c-17 0 -21 13 -21 18c0 14 17 53 40 93z" />
    <glyph glyph-name="SF240000" unicode="&#x2551;" 
d="M408 -288h-72v1080h72v-1080zM192 -288v1080h72v-1080h-72z" />
    <glyph glyph-name="Eng" unicode="&#x14a;" 
d="M162 563h135l-14 -66c48 28 131 79 217 79c104 0 116 -87 116 -123c0 -18 -4 -39 -5 -44l-82 -388c-23 -109 -117 -158 -188 -158h-78l10 52h75c90 0 124 75 131 106l82 392c4 18 4 31 4 37c0 53 -34 74 -77 74c-72 0 -163 -48 -219 -94l-82 -383h86l-10 -47h-221l10 47
h85l99 469h-84z" />
    <glyph glyph-name="SF390000" unicode="&#x2554;" 
d="M336 216h264v-72h-192v-432h-72v504zM264 288v-576h-72v648h408v-72h-336z" />
    <glyph glyph-name="Theta" unicode="&#x398;" 
d="M241 377h47l-14 -67h178l14 67h47l-38 -181h-47l14 67h-178l-14 -67h-48zM92 207c0 176 131 373 323 373c148 0 207 -118 207 -228c0 -175 -134 -369 -323 -369c-138 0 -207 109 -207 224zM146 211c0 -96 50 -181 155 -181c154 0 267 170 267 321c0 91 -45 182 -157 182
c-161 0 -265 -183 -265 -322z" />
    <glyph glyph-name="Omega" unicode="&#x2126;" 
d="M31 0l24 103h47l-14 -56h126l9 38c-32 11 -133 44 -133 187c0 154 130 308 318 308c140 0 235 -90 235 -209c0 -14 0 -227 -232 -286l-8 -38h127l14 56h47l-24 -103h-221l25 118c40 9 87 19 135 62s84 114 84 187c0 86 -64 165 -184 165c-150 0 -262 -123 -262 -264
c0 -119 94 -141 133 -150l-25 -118h-221z" />
    <glyph glyph-name="Thorn" unicode="&#xde;" 
d="M231 47h115l-10 -47h-245l10 47h82l99 469h-81l10 47h244l-10 -47h-114l-11 -51h55c109 0 169 -1 210 -42c28 -28 35 -63 35 -93c0 -65 -36 -122 -73 -154c-61 -52 -134 -53 -242 -53h-58zM410 418h-100l-53 -248h53c89 0 157 -1 201 37c31 27 55 70 55 112
c0 99 -95 99 -156 99z" />
    <glyph glyph-name="spade" unicode="&#x2660;" 
d="M298 194v19h-2c-11 -27 -19 -39 -33 -52c-24 -23 -54 -35 -85 -35c-55 0 -100 46 -100 101c0 48 25 90 86 140c36 29 40 33 58 53c47 51 67 86 79 143c17 -72 43 -111 122 -182c79 -72 99 -103 99 -153c0 -58 -43 -102 -100 -102c-48 0 -85 28 -114 87h-2
c0 -74 12 -112 43 -145c30 -32 67 -47 129 -51l4 -17h-363l3 17c110 0 175 65 176 177z" />
    <glyph glyph-name="sevensuperior" unicode="&#x2077;" 
d="M304 613h238l-7 -32l-185 -333h-42l190 331h-167l-11 -54h-35z" />
    <glyph glyph-name="zerosuperior" unicode="&#x2070;" 
d="M430 621c55 0 85 -37 85 -104c0 -79 -27 -174 -64 -224c-26 -35 -61 -54 -100 -54c-55 0 -86 38 -86 105c0 79 28 174 65 223c27 35 60 54 100 54zM426 588c-25 0 -47 -11 -66 -36c-31 -41 -57 -135 -57 -207c0 -47 18 -73 51 -73c25 0 48 13 67 37c32 41 56 135 56 207
c0 47 -18 72 -51 72z" />
    <glyph glyph-name="onehalf" unicode="&#xbd;" 
d="M129 575l112 47h26l-72 -335h82l-8 -38h-205l8 38h84l62 287l-81 -35zM686 633l25 -20l-660 -703l-23 22zM561 15h37l-21 -95h-241l9 39l9 7c36 25 113 83 154 115c54 42 68 56 78 77c7 14 10 29 10 42c0 31 -28 56 -63 56c-25 0 -51 -12 -69 -29
c-12 -10 -13 -14 -17 -34h-40l10 46c38 36 80 54 124 54c54 0 96 -40 96 -91c0 -39 -21 -78 -58 -110c-27 -24 -50 -42 -118 -93c-24 -18 -31 -23 -58 -40v-2h146z" />
    <glyph glyph-name="IJ" unicode="&#x132;" 
d="M157 563h225l-10 -47h-87l-100 -469h85l-10 -47h-223l10 47h88l99 469h-87zM482 563h212l-10 -47h-64l-66 -312c-21 -100 -47 -221 -151 -221c-11 0 -71 0 -100 64l31 168h50l-8 -50c-13 -76 -13 -76 -13 -89c0 -19 15 -43 46 -43c52 0 70 57 95 171l66 312h-98z" />
    <glyph glyph-name="SF450000" unicode="&#x2567;" 
d="M336 360h264v-72h-600v72h264v432h72v-432zM600 144h-600v72h600v-72z" />
    <glyph glyph-name="SM790000" unicode="&#x2302;" 
d="M73 0v312l227 255l227 -255v-312h-454zM126 290v-237h348v237l-174 195z" />
    <glyph glyph-name="SF090000" unicode="&#x2524;" 
d="M336 -288h-72v504h-264v72h264v504h72v-1080z" />
    <glyph glyph-name="eth" unicode="&#xf0;" 
d="M385 571l-69 -85l-38 30l66 77c-45 23 -65 32 -102 45l27 42c44 -14 66 -25 112 -48l55 66l38 -29l-52 -62c97 -57 180 -162 180 -308c0 -180 -129 -313 -306 -313c-119 0 -204 64 -204 183c0 139 122 281 297 281c51 0 103 -12 141 -45l2 2c-17 31 -54 104 -147 164z
M388 403c-151 0 -242 -123 -242 -228c0 -64 38 -142 159 -142c145 0 237 121 237 228c0 80 -54 142 -154 142z" />
    <glyph glyph-name="eng" unicode="&#x14b;" 
d="M232 314l-57 -267h83l-9 -47h-217l10 47h82l72 336h-83l11 47h134l-14 -55c53 32 113 70 186 70c81 0 120 -56 120 -124c0 -18 -4 -38 -5 -42l-55 -258c-24 -112 -119 -160 -189 -160h-69l12 51h64c81 0 123 68 132 109l54 258c2 10 5 23 5 38c0 50 -33 77 -75 77
c-66 0 -125 -36 -192 -80z" />
    <glyph glyph-name="arrowleft" unicode="&#x2190;" 
d="M574 312v-50h-410c37 -55 40 -83 40 -84c0 -3 -3 -19 -21 -19c-9 0 -16 8 -34 27c-44 47 -104 79 -112 83c-9 4 -19 8 -19 20c0 9 9 13 24 21c36 16 83 51 110 82c18 21 21 24 31 24c15 0 21 -12 21 -19c0 -21 -30 -70 -40 -85h410z" />
    <glyph glyph-name="rcedilla" unicode="&#x157;" 
d="M364 0l-7 -22c39 -6 58 -26 58 -56c0 -33 -27 -64 -91 -64c-45 0 -90 11 -110 15l16 44c19 -5 55 -14 97 -14c7 0 40 1 40 19c0 9 0 16 -67 18l19 60h-246l10 47h125l72 336h-117l10 47h167l-20 -90l2 -2c43 44 104 103 194 103c14 0 95 0 116 -103l-56 -6
c-8 27 -19 60 -67 60c-77 0 -164 -86 -207 -142l-43 -203h189l-10 -47h-74z" />
    <glyph glyph-name="plusminus" unicode="&#xb1;" 
d="M340 576h50v-195h208v-50h-208v-196h-50v196h-208v50h208v195zM132 80h466v-50h-466v50z" />
    <glyph glyph-name="Gamma" unicode="&#x393;" 
d="M170 563h481l-35 -183h-47l20 136h-288l-99 -469h131l-10 -47h-260l10 47h78l100 469h-91z" />
    <glyph glyph-name="underscorebroken" 
d="M44 -75h512v-50h-512v50z" />
    <glyph glyph-name="SF150000" unicode="&#x2592;" 
d="M0 733h100v-99l-1 -1h-99v100zM200 733h100v-99l-1 -1h-98l-1 1v99zM400 733h100v-99l-1 -1h-98l-1 1v99zM100 632l1 1h98l1 -1v-98l-1 -1h-98l-1 1v98zM300 632l1 1h98l1 -1v-98l-1 -1h-98l-1 1v98zM501 633h99v-100h-99l-1 1v98zM0 533h99l1 -1v-98l-1 -1h-99v100z
M200 532l1 1h98l1 -1v-98l-1 -1h-98l-1 1v98zM400 532l1 1h98l1 -1v-98l-1 -1h-98l-1 1v98zM100 432l1 1h98l1 -1v-98l-1 -1h-98l-1 1v98zM300 432l1 1h98l1 -1v-98l-1 -1h-98l-1 1v98zM501 433h99v-100h-99l-1 1v98zM0 333h99l1 -1v-98l-1 -1h-99v100zM200 332l1 1h98l1 -1
v-98l-1 -1h-98l-1 1v98zM400 332l1 1h98l1 -1v-98l-1 -1h-98l-1 1v98zM100 232l1 1h98l1 -1v-98l-1 -1h-98l-1 1v98zM300 232l1 1h98l1 -1v-98l-1 -1h-98l-1 1v98zM501 233h99v-100h-99l-1 1v98zM0 133h99l1 -1v-98l-1 -1h-99v100zM200 132l1 1h98l1 -1v-98l-1 -1h-98l-1 1
v98zM400 132l1 1h98l1 -1v-98l-1 -1h-98l-1 1v98zM100 32l1 1h98l1 -1v-98l-1 -1h-98l-1 1v98zM300 32l1 1h98l1 -1v-98l-1 -1h-98l-1 1v98zM501 33h99v-100h-99l-1 1v98zM0 -67h99l1 -1v-98l-1 -1h-99v100zM200 -68l1 1h98l1 -1v-98l-1 -1h-98l-1 1v98zM400 -68l1 1h98
l1 -1v-98l-1 -1h-98l-1 1v98zM101 -167h98l1 -1v-99h-100v99zM301 -167h98l1 -1v-99h-100v99zM501 -167h99v-100h-100v99z" />
    <glyph glyph-name="SF080000" unicode="&#x251c;" 
d="M264 -288v1080h72v-504h264v-72h-264v-504h-72z" />
    <glyph glyph-name="foursuperior" unicode="&#x2074;" 
d="M487 621l-54 -254h54l-7 -32h-54l-12 -55h54l-7 -32h-168l7 32h80l11 55h-158l8 38l200 248h46zM399 367l43 203l-2 2l-162 -205h121z" />
    <glyph glyph-name="SF380000" unicode="&#x255a;" 
d="M336 288v504h72v-432h192v-72h-264zM264 216h336v-72h-408v648h72v-576z" />
    <glyph glyph-name="Iogonek" unicode="&#x12e;" 
d="M368 -39l-21 -55c-11 -7 -33 -23 -63 -23c-25 0 -48 16 -48 47c0 32 23 55 47 68v2h-185l10 47h175l99 469h-174l10 47h400l-10 -47h-175l-99 -469h174l-10 -47h-129c-17 -5 -71 -24 -71 -52c0 -12 11 -13 14 -13c14 0 18 3 56 26z" />
    <glyph glyph-name="SF500000" unicode="&#x2558;" 
d="M264 792h72v-432h264v-72h-264v-72h264v-72h-336v648z" />
    <glyph glyph-name="female" unicode="&#x2640;" 
d="M326 275v-65h122v-47h-122v-125h-50v125h-122v47h122v65c-39 0 -120 51 -120 142c0 81 64 146 144 146c83 0 144 -69 144 -145c0 -96 -92 -143 -118 -143zM300 513c-52 0 -94 -42 -94 -94s42 -94 94 -94s94 42 94 94s-42 94 -94 94z" />
    <glyph glyph-name="SF040000" unicode="&#x2518;" 
d="M264 288v504h72v-576h-336v72h264z" />
    <glyph glyph-name="eightsuperior" unicode="&#x2078;" 
d="M253 327c0 40 31 85 73 105l5 3l-2 1c-20 15 -32 40 -32 67c0 63 62 118 132 118c54 0 93 -34 93 -81c0 -42 -24 -78 -71 -107l3 -1c22 -14 37 -42 37 -70c0 -65 -67 -123 -140 -123c-59 0 -98 36 -98 88zM335 504c0 -29 25 -54 58 -54c47 0 91 43 91 88
c0 29 -24 50 -58 50c-51 0 -91 -37 -91 -84zM291 329c0 -33 26 -57 63 -57c52 0 99 41 99 86c0 34 -25 57 -64 57c-53 0 -98 -41 -98 -86z" />
    <glyph glyph-name="Eogonek" unicode="&#x118;" 
d="M487 -39l-21 -55c-11 -7 -33 -23 -63 -23c-25 0 -49 16 -49 47c0 32 24 55 48 68v2h-347l10 47h86l99 469h-85l10 47h476l-35 -184h-46l19 137h-288l-42 -195h162l16 73h46l-41 -192h-46l15 72h-161l-49 -227h298l34 137h47l-39 -184h-53c-17 -5 -71 -24 -71 -52
c0 -12 11 -13 14 -13c14 0 18 3 56 26z" />
    <glyph glyph-name="spacenumeric" 
 />
    <glyph glyph-name="mu" unicode="&#xb5;" 
d="M125 430h132l-50 -235c-2 -10 -11 -50 -11 -73c0 -43 43 -87 99 -87c43 0 94 20 121 47c32 32 43 61 54 113l40 193h-82l10 42h131l-82 -389h82l-9 -41h-132l10 49l-2 2c-24 -25 -69 -65 -145 -65c-36 0 -82 14 -114 65l-42 -200h-50l114 537h-83z" />
    <glyph glyph-name="hbar" unicode="&#x127;" 
d="M271 473l-27 -112c44 28 109 71 182 71c57 0 124 -39 124 -117c0 -21 -5 -48 -6 -53l-44 -215h84l-11 -47h-219l9 47h87l44 215c1 7 7 35 7 55c0 36 -36 64 -77 64c-71 0 -142 -46 -192 -83l-52 -251h82l-10 -47h-216l9 47h87l89 426h-98l9 47h100l12 57l-96 -7l6 47
l150 12l-23 -109h228l-9 -47h-229z" />
    <glyph glyph-name="Gcedilla" unicode="&#x122;" 
d="M354 -15l-2 -7c39 -6 57 -26 57 -56c0 -33 -26 -64 -90 -64c-45 0 -91 11 -111 15l17 44c18 -5 55 -14 97 -14c7 0 40 1 40 19c0 9 0 16 -68 18l14 43c-158 6 -210 113 -210 221c0 183 143 376 333 376c73 0 115 -39 126 -50c4 -5 19 -30 25 -30c10 0 30 61 31 63l46 -8
c-9 -25 -38 -107 -46 -183l-48 -8c2 32 4 66 -14 101c-28 54 -84 65 -125 65c-150 0 -274 -154 -274 -324c0 -98 51 -173 178 -173c34 0 77 5 162 33l29 135h-149l10 46h247l-10 -46h-48l-36 -170c-63 -24 -120 -40 -181 -46z" />
    <glyph glyph-name="SF270000" unicode="&#x255c;" 
d="M264 288h72v504h72v-576h-408v72h192v504h72v-504z" />
    <glyph glyph-name="Lquoteright" 
d="M177 563h273l-10 -47h-123l-100 -469h283l57 202h48l-65 -249h-483l10 47h100l100 469h-100zM540 563h105l-161 -243h-73z" />
    <glyph glyph-name="SF540000" unicode="&#x256a;" 
d="M336 360h264v-72h-264v-72h264v-72h-264v-432h-72v432h-264v72h264v72h-264v72h264v432h72v-432z" />
    <glyph glyph-name="greaterequal" unicode="&#x2265;" 
d="M161 576l472 -219l-472 -225l-20 45l381 179l-381 175zM158 84h465v-51h-465v51z" />
    <glyph glyph-name="SF510000" unicode="&#x2552;" 
d="M336 216h264v-72h-264v-432h-72v648h336v-72h-264v-72z" />
    <glyph glyph-name="Eth" unicode="&#xd0;" 
d="M170 274h-80l10 47h80l40 195h-78l10 47h248c88 0 122 -10 151 -31c44 -32 69 -95 69 -157c0 -38 -10 -176 -105 -284c-80 -91 -190 -91 -235 -91h-248l10 47h79zM385 274h-165l-50 -227h117c39 0 126 0 190 75c72 85 89 190 89 238c0 77 -34 116 -50 129
c-18 15 -40 27 -121 27h-123l-41 -195h164z" />
    <glyph glyph-name="SF190000" unicode="&#x2561;" 
d="M336 -288h-72v432h-264v72h264v72h-264v72h264v432h72v-1080z" />
    <glyph glyph-name="overline" unicode="&#x203e;" 
d="M44 775h512v-50h-512v50z" />
    <glyph glyph-name="heart" unicode="&#x2665;" 
d="M185 203l-52 69c-65 85 -82 122 -82 172c0 67 51 119 117 119c64 0 107 -38 132 -115h2c9 35 17 51 34 70c25 29 59 45 95 45c65 0 118 -51 118 -115c0 -59 -25 -112 -97 -203c-46 -58 -56 -71 -74 -97c-43 -65 -63 -105 -77 -159c-9 32 -15 49 -26 73
c-17 35 -52 91 -90 141z" />
    <glyph glyph-name="SM580000" 
d="M300 497c119 0 215 -96 215 -215s-96 -215 -215 -215s-215 96 -215 215c0 118 96 215 215 215z" />
    <glyph glyph-name="threequarters" unicode="&#xbe;" 
d="M619 293l-54 -250h54l-8 -37h-54l-11 -50h54l-8 -36h-172l8 36h80l11 50h-159l9 41l201 246h49zM527 43l41 190l-2 2l-155 -192h116zM156 549l-14 33c57 31 82 40 115 40c51 0 88 -32 88 -76c0 -40 -20 -74 -59 -99c29 -19 41 -41 41 -72c0 -72 -68 -134 -149 -134
c-29 0 -49 6 -91 24l-19 8l22 34c38 -20 66 -29 93 -29c58 0 103 43 103 96c0 32 -24 51 -66 51l-16 -1h-11l8 37c40 1 56 6 76 23c17 15 27 37 27 56c0 26 -21 45 -53 45c-23 0 -42 -8 -78 -27zM710 633l25 -20l-660 -703l-23 22z" />
    <glyph glyph-name="SF230000" unicode="&#x2563;" 
d="M336 -288v1080h72v-1080h-72zM192 144h-192v72h264v-504h-72v432zM264 288h-264v72h192v432h72v-504z" />
    <glyph glyph-name="SF110000" unicode="&#x2502;" 
d="M264 -288v1080h72v-1080h-72z" />
    <glyph glyph-name="fivesuperior" unicode="&#x2075;" 
d="M323 613h204l-7 -34h-172l-24 -113c30 11 47 15 71 15c59 0 98 -37 98 -91c0 -83 -68 -151 -153 -151c-35 0 -61 7 -112 29l18 30c43 -18 66 -24 96 -24c64 0 113 48 113 109c0 39 -27 65 -67 65c-26 0 -43 -5 -91 -27l-13 9z" />
    <glyph glyph-name="minussuperior" unicode="&#x207b;" 
d="M540 451v-43h-318v43h318z" />
    <glyph glyph-name="ncedilla" unicode="&#x146;" 
d="M124 430h134l-14 -59c43 29 109 73 182 73c56 0 125 -38 125 -119c0 -21 -6 -46 -7 -52l-49 -226h85l-10 -47h-220l9 47h87l49 226c2 8 7 34 7 55c0 36 -35 65 -80 65c-64 0 -121 -34 -191 -81l-56 -265h83l-9 -47h-217l10 47h82l72 336h-83zM327 0l-8 -22
c14 -2 58 -9 58 -56c0 -33 -27 -64 -91 -64c-45 0 -90 11 -110 15l16 44c19 -5 55 -14 97 -14c7 0 40 1 40 19c0 9 0 16 -67 18l20 60h45z" />
    <glyph glyph-name="onequarter" unicode="&#xbc;" 
d="M485 276h65l-50 -238h74l-7 -33h-74l-12 -54h74l-7 -31h-199l6 31h92l12 54h-186l9 40zM510 245h-14l-181 -207h151zM170 625h116l-63 -295h76l-7 -33h-192l7 33h80l56 264h-80zM686 633l25 -20l-660 -703l-23 22z" />
    <glyph glyph-name="phi" unicode="&#x3c6;" 
d="M307 435l-11 -50c-119 -46 -151 -158 -151 -207c0 -89 56 -125 109 -139l45 213c14 66 41 193 159 193c81 0 141 -75 141 -175c0 -140 -121 -289 -306 -285l-30 -141h-51l32 147c-101 18 -153 85 -153 178c0 70 33 146 98 204c44 39 74 48 118 62zM349 250l-46 -217
c161 0 242 135 242 234c0 63 -32 129 -94 129c-69 0 -88 -78 -102 -146z" />
    <glyph glyph-name="highcomman" 
d="M124 680h101l-101 -130h-65zM124 430h134l-14 -59c43 29 109 73 182 73c56 0 125 -38 125 -119c0 -21 -6 -46 -7 -52l-49 -226h85l-10 -47h-220l9 47h87l49 226c2 8 7 34 7 55c0 36 -35 65 -80 65c-64 0 -121 -34 -191 -81l-56 -265h83l-9 -47h-217l10 47h82l72 336h-83z
" />
    <glyph glyph-name="yuan" 
d="M288 47l28 132h-139l10 47h139l13 60l-126 230h-59l12 47h186l-13 -47h-69l101 -184l174 184h-67l10 47h184l-10 -47h-52l-221 -230l-13 -60h137l-9 -47h-138l-27 -132h110l-10 -47h-273l11 47h111z" />
    <glyph glyph-name="oneeighth" unicode="&#x215b;" 
d="M370 0c0 43 29 82 76 107c-22 20 -32 40 -32 66c0 64 63 120 135 120c55 0 95 -35 95 -83c0 -40 -24 -77 -69 -105c25 -18 38 -41 38 -71c0 -64 -68 -122 -143 -122c-59 0 -100 35 -100 88zM455 177c0 -29 25 -53 58 -53c46 0 90 41 90 84c0 27 -24 48 -57 48
c-50 0 -91 -35 -91 -79zM411 2c0 -31 26 -53 63 -53c51 0 98 39 98 82c0 32 -25 54 -64 54c-51 0 -97 -39 -97 -83zM129 575l112 47h26l-72 -335h82l-8 -38h-205l8 38h84l62 287l-81 -35zM686 633l25 -20l-660 -703l-23 22z" />
    <glyph glyph-name="tcedilla" unicode="&#x163;" 
d="M349 -14l-3 -8c39 -6 58 -26 58 -56c0 -33 -27 -64 -90 -64c-46 0 -91 11 -111 15l16 44c19 -5 55 -14 97 -14c7 0 41 1 41 19c0 9 0 16 -68 18l15 47c-99 12 -108 82 -108 97c0 23 10 71 15 96l40 189h-68l10 47h67l32 147h48l-31 -147h223l-10 -47h-222l-40 -189
c-2 -9 -12 -60 -12 -85c0 -8 3 -60 83 -60c57 0 130 23 214 57v-50c-36 -15 -125 -50 -196 -56z" />
    <glyph glyph-name="musicalnotedbl" unicode="&#x266b;" 
d="M479 171v159l-247 -68v-146c0 -103 -78 -136 -126 -136c-62 0 -63 39 -63 54c0 49 45 98 104 98c12 0 22 -2 35 -5v352l347 90v-408c0 -102 -76 -137 -125 -137c-31 0 -63 13 -63 54c0 49 44 99 104 99c12 0 22 -2 34 -6zM232 413v-75l247 67v76z" />
    <glyph glyph-name="SF220000" unicode="&#x2555;" 
d="M0 216h264v72h-264v72h336v-648h-72v432h-264v72z" />
    <glyph glyph-name="SM600000" unicode="&#x25b2;" 
d="M102 95l198 371l198 -371h-396z" />
    <glyph glyph-name="multiply" unicode="&#xd7;" 
d="M330 306l-147 147l36 35l146 -146l146 146l36 -35l-147 -147l147 -146l-36 -36l-146 147l-146 -147l-36 36z" />
    <glyph glyph-name="Phi" unicode="&#x3a6;" 
d="M521 563l-10 -47h-78l-9 -42c24 -1 85 -3 129 -31c51 -33 67 -86 67 -125c0 -13 -4 -225 -278 -229l-9 -42h91l-9 -47h-220l10 47h78l9 42c-24 1 -83 4 -126 30c-50 30 -68 84 -68 125c0 21 9 225 276 230l9 42h-91l10 47h219zM415 430l-63 -295c207 7 214 159 214 185
c0 106 -110 109 -151 110zM302 135l62 295c-26 -1 -86 -2 -136 -37c-58 -41 -76 -107 -76 -148c0 -105 107 -109 150 -110z" />
    <glyph glyph-name="pi" unicode="&#x3c0;" 
d="M625 430l-10 -47h-76l-72 -336h89l-10 -47h-204l10 47h65l71 336h-243l-72 -336h78l-10 -47h-204l10 47h76l71 336h-89l10 47h510z" />
    <glyph glyph-name="SF360000" unicode="&#x255e;" 
d="M264 -288v1080h72v-432h264v-72h-264v-72h264v-72h-264v-432h-72z" />
    <glyph glyph-name="periodsuperior" 
d="M371 346c28 0 50 -17 50 -38c0 -33 -36 -54 -67 -54c-24 0 -51 13 -51 39c0 30 34 53 68 53z" />
    <glyph glyph-name="SF250000" unicode="&#x2557;" 
d="M192 144h-192v72h264v-504h-72v432zM336 -288v576h-336v72h408v-648h-72z" />
    <glyph glyph-name="SF200000" unicode="&#x2562;" 
d="M264 792v-1080h-72v504h-192v72h192v504h72zM408 -288h-72v1080h72v-1080z" />
    <glyph glyph-name="kcedilla" unicode="&#x137;" 
d="M166 616l152 13l-83 -388l216 140v2h-55l10 47h210l-10 -47h-78l-197 -130c54 -59 121 -147 156 -206h85l-10 -47h-208l10 47h65c-20 33 -38 61 -140 178l-66 -43l-39 -182h-132l9 47h83l113 530l-96 -8zM314 0l-7 -22c14 -2 58 -9 58 -56c0 -33 -27 -64 -91 -64
c-45 0 -90 11 -110 15l16 44c19 -5 55 -14 97 -14c7 0 40 1 40 19c0 9 0 16 -67 18l20 60h44z" />
    <glyph glyph-name="Ccedilla" unicode="&#xc7;" 
d="M356 -16v-7c20 -4 57 -12 57 -55c0 -36 -31 -64 -90 -64c-46 0 -91 10 -111 15l16 44c22 -6 56 -14 97 -14c3 0 40 0 40 18c0 10 0 16 -67 19l15 44c-45 5 -196 22 -196 224c0 205 158 372 335 372c55 0 93 -19 122 -47c5 -5 27 -32 31 -32c7 0 14 17 17 24l14 38l40 -8
c-34 -94 -41 -114 -50 -187h-44c2 14 3 25 3 40c0 107 -100 122 -135 122c-153 0 -279 -146 -279 -323c0 -85 37 -174 176 -174c103 0 165 43 206 71l29 -42c-59 -40 -117 -73 -226 -78z" />
    <glyph glyph-name="fiveeighths" unicode="&#x215d;" 
d="M370 0c0 43 29 82 76 107c-22 20 -32 40 -32 66c0 64 63 120 135 120c55 0 95 -35 95 -83c0 -40 -24 -77 -69 -105c25 -18 38 -41 38 -71c0 -64 -68 -122 -143 -122c-59 0 -100 35 -100 88zM455 177c0 -29 25 -53 58 -53c46 0 90 41 90 84c0 27 -24 48 -57 48
c-50 0 -91 -35 -91 -79zM411 2c0 -31 26 -53 63 -53c51 0 98 39 98 82c0 32 -25 54 -64 54c-51 0 -97 -39 -97 -83zM159 614h208l-8 -38h-172l-23 -106c28 10 46 14 68 14c62 0 101 -37 101 -95c0 -81 -71 -148 -157 -148c-32 0 -57 6 -97 22l-17 7l21 34
c37 -17 64 -26 95 -26c64 0 114 48 114 109c0 37 -27 60 -68 60c-28 0 -55 -9 -86 -29l-19 12zM686 633l25 -20l-660 -703l-23 22z" />
    <glyph glyph-name="SF570000" unicode="&#x2584;" 
d="M0 -288v540h600v-540h-600z" />
    <glyph glyph-name="minus" unicode="&#x2212;" 
d="M599 328v-50h-468v50h468z" />
    <glyph glyph-name="SF590000" unicode="&#x2590;" 
d="M300 -288v1080h300v-1080h-300z" />
    <glyph glyph-name="ninesuperior" unicode="&#x2079;" 
d="M234 239l9 34c9 -1 15 -1 27 -1c73 0 110 14 147 56c23 26 36 51 54 99l-2 2c-23 -26 -58 -42 -91 -42c-50 0 -86 38 -86 91c0 75 63 143 133 143c57 0 95 -44 95 -109c0 -76 -36 -164 -88 -216c-40 -40 -90 -60 -159 -58l-29 1h-10zM482 486c1 11 2 17 2 25
c0 44 -25 75 -62 75c-50 0 -92 -48 -92 -105c0 -34 21 -59 51 -59c39 0 74 22 101 64z" />
    <glyph glyph-name="Ncedilla" unicode="&#x145;" 
d="M146 563h170l154 -521h17l97 474h-108l11 47h222l-10 -47h-68l-106 -529h-91l-155 529h-16l-97 -469h108l-11 -47h-237l10 47h83l97 469h-80zM362 0l-8 -22c39 -6 58 -26 58 -56c0 -33 -26 -64 -90 -64c-46 0 -91 11 -111 15l16 44c19 -5 56 -14 97 -14c8 0 41 1 41 19
c0 9 0 16 -68 18l20 60h45z" />
    <glyph glyph-name="seveneighths" unicode="&#x215e;" 
d="M370 0c0 43 29 82 76 107c-22 20 -32 40 -32 66c0 64 63 120 135 120c55 0 95 -35 95 -83c0 -40 -24 -77 -69 -105c25 -18 38 -41 38 -71c0 -64 -68 -122 -143 -122c-59 0 -100 35 -100 88zM455 177c0 -29 25 -53 58 -53c46 0 90 41 90 84c0 27 -24 48 -57 48
c-50 0 -91 -35 -91 -79zM411 2c0 -31 26 -53 63 -53c51 0 98 39 98 82c0 32 -25 54 -64 54c-51 0 -97 -39 -97 -83zM130 614h242l-7 -35l-187 -330h-46l191 327h-163l-12 -53h-38zM686 633l25 -20l-660 -703l-23 22z" />
    <glyph glyph-name="equivalence" unicode="&#x2261;" 
d="M129 509h472v-50h-472v50zM129 328h472v-50h-472v50zM129 147h472v-50h-472v50z" />
    <glyph glyph-name="iogonek" unicode="&#x12f;" 
d="M371 -39l-22 -55c-10 -7 -32 -23 -63 -23c-24 0 -48 16 -48 47c0 32 24 55 48 68v2h-188l10 47h176l71 336h-147l10 47h198l-81 -383h173l-10 -47h-126c-16 -4 -71 -24 -71 -52c0 -12 11 -13 14 -13c14 0 18 3 56 26zM366 537l25 119h73l-25 -119h-73z" />
    <glyph glyph-name="SF210000" unicode="&#x2556;" 
d="M264 216v-504h-72v504h-192v72h408v-576h-72v504h-72z" />
    <glyph glyph-name="ohm" unicode="&#x2126;" 
d="M32 0v113h42v-66h130v38c-40 11 -66 20 -97 47c-52 46 -78 114 -78 182c0 143 113 266 271 266s271 -123 271 -265c0 -77 -33 -144 -79 -184c-30 -26 -55 -35 -96 -46v-38h130v66h42v-113h-221v118c43 9 171 36 171 191c0 135 -110 222 -218 222
c-107 0 -218 -86 -218 -221c0 -156 130 -183 171 -192v-118h-221z" />
    <glyph glyph-name="Hbar" unicode="&#x126;" 
d="M257 445h271l16 71h-75l10 47h201l-10 -47h-76l-14 -71h76l-11 -47h-75l-77 -351h77l-10 -47h-202l12 47h75l48 220h-272l-48 -220h75l-11 -47h-200l10 47h75l75 351h-76l11 47h75l14 71h-75l11 47h201l-11 -47h-75zM519 398h-271l-19 -84h273z" />
    <glyph glyph-name="SF030000" unicode="&#x2510;" 
d="M0 216v72h336v-576h-72v504h-264z" />
    <glyph glyph-name="eogonek" unicode="&#x119;" 
d="M413 -39l-22 -55c-11 -8 -33 -23 -63 -23c-24 0 -48 16 -48 47c0 29 19 47 29 56c-129 2 -197 73 -197 177c0 142 123 282 289 282c134 0 191 -83 191 -164c0 -28 -7 -50 -15 -78h-410c-1 -9 -1 -17 -1 -29c0 -60 28 -137 153 -137c57 0 119 14 222 59l14 -45
c-58 -28 -74 -32 -145 -52c-8 -3 -67 -22 -67 -51c0 -12 11 -13 14 -13c13 0 17 3 56 26zM180 248h356c1 7 2 15 2 27c0 59 -40 121 -143 121c-126 0 -192 -92 -215 -148z" />
    <glyph glyph-name="micro" unicode="&#xb5;" 
d="M125 430h133l-50 -236c-1 -5 -10 -44 -10 -67c0 -47 38 -93 99 -93c20 0 138 1 172 160l40 189h-82l9 47h134l-82 -383h82l-9 -47h-134l15 66l-2 2c-43 -63 -102 -83 -149 -83c-84 0 -104 59 -109 78h-2l-46 -219h-51l115 539h-83z" />
    <glyph glyph-name="epsilon" unicode="&#x3b5;" 
d="M519 457h44c-17 -44 -34 -110 -40 -158l-45 -8c2 34 3 49 -4 66c-16 38 -80 45 -109 45c-85 0 -119 -45 -119 -80c0 -67 95 -72 139 -72l-10 -49c-141 0 -197 -53 -197 -102c0 -17 13 -65 110 -65c73 0 116 20 164 43l3 -50c0 -1 -3 -2 -4 -2c-30 -13 -89 -40 -173 -40
c-89 0 -154 41 -154 113c0 90 99 119 139 129v2c-22 0 -71 32 -71 88c0 71 71 134 174 134c59 0 108 -21 127 -41c1 -1 4 -4 5 -4c6 0 17 34 21 51z" />
    <glyph glyph-name="Pts" unicode="&#x20a7;" 
d="M196 47l-10 -47h-180l10 47h62l100 469h-76l10 47h221c59 0 130 -2 172 -38c16 -14 37 -41 37 -76c0 -45 -31 -85 -64 -109c-56 -40 -135 -40 -240 -40h-60l-52 -253h70zM326 516h-100l-36 -169h56c89 0 154 0 196 26c21 13 47 39 47 72c0 23 -18 39 -28 47
c-28 22 -71 24 -135 24zM246 172h-33l13 44h29l12 58h46l-12 -58h97l-11 -44h-96l-17 -74c-1 -5 -6 -25 -6 -38c0 -11 10 -21 28 -21c30 0 63 16 79 23l12 -41c-17 -9 -49 -28 -95 -28c-40 0 -70 25 -70 56c0 17 6 41 7 49zM414 85h44c0 -9 -1 -21 4 -31c6 -9 19 -17 45 -17
c43 0 65 19 65 36c0 13 -17 14 -45 15c-37 1 -96 5 -96 61c0 61 70 80 97 80c11 0 37 -3 46 -7c3 -1 8 -3 10 -3s8 14 9 14l41 -6c-12 -37 -15 -49 -18 -86h-42l-1 25c-4 13 -30 19 -47 19c-29 0 -53 -14 -53 -29c0 -16 21 -20 51 -22c42 -3 90 -6 90 -55
c0 -41 -44 -86 -112 -86c-25 0 -42 7 -57 12l-4 -11h-43c13 43 14 49 16 91z" />
    <glyph glyph-name="SF100000" unicode="&#x2500;" 
d="M0 216v72h600v-72h-600z" />
    <glyph glyph-name="SF050000" unicode="&#x253c;" 
d="M336 288h264v-72h-264v-504h-72v504h-264v72h264v504h72v-504z" />
    <glyph glyph-name="infinity" unicode="&#x221e;" 
d="M365 342c25 31 71 75 133 75c61 0 115 -39 115 -113c0 -59 -38 -115 -110 -115c-64 0 -106 43 -138 77c-22 -27 -64 -76 -137 -76c-54 0 -111 37 -111 112c0 77 60 115 115 115c75 0 132 -74 133 -75zM398 304c28 -30 59 -65 104 -65c59 0 61 55 61 65
c0 44 -36 63 -63 63c-53 0 -90 -48 -102 -63zM333 304c-9 13 -14 17 -60 50c-15 11 -34 13 -42 13c-28 0 -64 -15 -64 -64s37 -63 58 -63c50 0 86 40 108 64z" />
    <glyph glyph-name="lessequal" unicode="&#x2264;" 
d="M579 576l20 -45l-381 -175l381 -179l-20 -45l-472 225zM582 84v-51h-465v51h465z" />
    <glyph glyph-name="liter" 
d="M296 243c-5 -22 -34 -158 -34 -189c0 -6 3 -11 10 -11c21 0 37 30 40 35c13 24 17 31 31 31c17 0 19 -15 19 -19c0 -20 -39 -102 -105 -102c-31 0 -71 20 -71 75c0 32 5 59 13 110c-30 -23 -34 -25 -44 -25c-8 0 -19 9 -19 19s4 13 35 39c5 4 22 19 41 37
c50 232 105 378 192 378c45 0 59 -41 59 -77c0 -38 -12 -84 -31 -125c-28 -57 -32 -61 -136 -176zM313 323l17 21c37 40 88 129 88 197c0 16 -6 31 -19 31s-21 -14 -24 -17c-20 -31 -38 -108 -64 -230z" />
    <glyph glyph-name="logicalnot" unicode="&#xac;" 
d="M129 438h429v-269h-52v217h-377v52z" />
    <glyph glyph-name="SF140000" unicode="&#x2591;" 
d="M500 533v-100h-100v100h100zM300 533v-100h-100v100h100zM500 333v-100h-100v100h100zM300 333v-100h-100v100h100zM500 133v-100h-100v100h100zM300 133v-100h-100v100h100zM500 -67v-100h-100v100h100zM300 -67v-100h-100v100h100zM100 533v-100h-100v100h100zM100 333
v-100h-100v100h100zM100 133v-100h-100v100h100zM100 -67v-100h-100v100h100zM100 733v-100h-100v100h100zM300 733v-100h-100v100h100zM500 733v-100h-100v100h100z" />
    <glyph glyph-name="nsuperior" unicode="&#x207f;" 
d="M231 570h105l-7 -30c25 16 64 40 120 40c15 0 88 -3 88 -70c0 -17 -3 -35 -5 -44l-33 -156h54l-10 -47h-164l10 47h61l33 156c1 4 5 22 5 36c0 26 -36 29 -45 29c-56 0 -98 -30 -126 -49l-38 -172h57l-7 -47h-164l10 47h56l48 214h-58z" />
    <glyph glyph-name="intersection" unicode="&#x2229;" 
d="M196 0h-50v250c0 118 0 178 34 230c43 66 116 100 185 100c85 0 151 -48 185 -100c34 -51 34 -108 34 -230v-250h-50v253c0 97 0 160 -28 203c-33 51 -92 74 -141 74c-51 0 -108 -25 -141 -74c-29 -43 -28 -105 -28 -203v-253z" />
    <glyph glyph-name="SF160000" unicode="&#x2593;" 
d="M600 -267h-600v100h100v100h-100v100h100v100h-100v100h100v100h-100v100h100v100h-100v100h100v100h100v-100h100v100h100v-100h100v100h100v-1000zM500 233v100h-100v-100h100zM300 233v100h-100v-100h100zM500 33v100h-100v-100h100zM300 33v100h-100v-100h100z
M500 433v100h-100v-100h100zM300 433v100h-100v-100h100zM500 -167v100h-100v-100h100zM300 -167v100h-100v-100h100z" />
    <glyph glyph-name="SF260000" unicode="&#x255d;" 
d="M264 288h-264v72h192v432h72v-504zM336 216v576h72v-648h-408v72h336z" />
    <glyph glyph-name="notequal" unicode="&#x2260;" 
d="M421 352l-51 -102h208v-57h-237l-62 -122l-54 21l51 101h-124v57h153l51 102h-204v57h232l65 130l56 -21l-55 -109h128v-57h-157z" />
    <glyph glyph-name="filledbox" unicode="&#x25a0;" 
d="M201 141v198h198v-198h-198z" />
    <glyph glyph-name="lcedilla" unicode="&#x13c;" 
d="M324 0l-7 -22c14 -2 57 -9 57 -56c0 -33 -26 -64 -90 -64c-45 0 -91 11 -111 15l17 44c18 -5 55 -14 97 -14c7 0 40 1 40 19c0 9 0 16 -67 18l19 60h-179l10 47h175l109 516l-166 -12l5 46l219 14l-120 -564h175l-10 -47h-173z" />
    <glyph glyph-name="parenrightsuperior" unicode="&#x207e;" 
d="M272 221h-54l14 18c82 102 125 181 125 275c0 49 -9 90 -33 159h50c0 -1 2 -3 2 -4c37 -74 37 -147 37 -162c0 -45 -8 -85 -36 -139c-27 -51 -63 -104 -97 -140z" />
    <glyph glyph-name="musicalnote" unicode="&#x266a;" 
d="M271 162v401h50v-53c3 -4 8 -11 10 -12c5 -7 35 -43 41 -50c18 -21 74 -88 74 -182c0 -16 0 -77 -49 -136h-37c16 36 32 70 32 125c0 47 -22 107 -71 128v-232c0 -104 -79 -137 -127 -137c-63 0 -63 49 -63 54c0 50 45 99 104 99c13 0 23 -2 36 -5z" />
    <glyph glyph-name="parenleftsuperior" unicode="&#x207d;" 
d="M506 673h54c-68 -85 -139 -176 -139 -293c0 -45 8 -87 25 -137l5 -13c0 -1 3 -8 3 -9h-50s-2 3 -2 4c-33 67 -37 134 -37 161c0 101 63 206 133 279z" />
    <glyph glyph-name="longdash" 
d="M114 317h502v-55h-502v55z" />
    <glyph glyph-name="male" unicode="&#x2642;" 
d="M305 387l104 104c-49 17 -55 19 -75 33c-6 5 -13 10 -13 20c0 6 4 17 17 17c5 0 9 -1 17 -3c14 -3 31 -6 59 -6c43 0 53 3 66 7c10 4 16 4 19 4c10 0 14 -7 14 -14c0 -5 -1 -9 -3 -19c-7 -23 -8 -50 -8 -68c0 -28 4 -47 7 -61c2 -10 2 -12 2 -16c0 -16 -14 -18 -16 -18
c-23 0 -44 62 -53 91l-99 -99c10 -11 35 -40 35 -92c0 -76 -59 -148 -145 -148c-78 0 -143 63 -143 143c0 74 57 145 146 145c39 0 57 -11 69 -20zM234 357c-64 0 -94 -53 -94 -94c0 -52 42 -94 94 -94s94 42 94 94s-42 94 -94 94z" />
    <glyph glyph-name="lquoteright" 
d="M200 597l219 14l-120 -564h174l-10 -47h-396l10 47h174l110 516l-166 -12zM528 563h104l-160 -243h-73z" />
    <glyph glyph-name="threesuperior" unicode="&#xb3;" 
d="M310 553l-13 29c54 30 81 39 112 39c50 0 87 -32 87 -75c0 -40 -21 -74 -62 -100c30 -19 44 -41 44 -73c0 -72 -68 -134 -147 -134c-30 0 -69 12 -107 32l19 30c43 -21 65 -28 93 -28c34 0 65 15 87 42c13 16 15 29 17 56c-1 37 -24 55 -72 56c-9 0 -12 0 -20 -1l7 32h5
c56 0 98 36 98 82c0 28 -21 47 -54 47c-24 0 -55 -11 -94 -34z" />
    <glyph glyph-name="jcircumflex" unicode="&#x135;" 
d="M174 430h307l-84 -391c-12 -55 -40 -190 -226 -190c-52 0 -87 8 -134 17l22 47c40 -8 82 -15 123 -15c135 0 155 94 167 149l71 336h-256zM342 620h77l75 -94l-35 -23l-89 64l-102 -64l-29 25z" />
    <glyph glyph-name="ij" unicode="&#x133;" 
d="M236 430h159l-91 -430h-188l10 47h137l71 336h-108zM339 537l25 119h73l-25 -119h-73zM432 430h140l-83 -391c-12 -55 -40 -190 -227 -190c-53 0 -97 10 -133 17l22 47c25 -5 72 -15 123 -15c135 0 155 94 166 149l72 336h-90zM502 537l25 119h73l-25 -119h-73z" />
    <glyph glyph-name="onesuperior" unicode="&#xb9;" 
d="M301 568l130 53h23l-72 -340h101l-7 -33h-240l7 33h104l63 297l-102 -41z" />
    <glyph glyph-name="kgreenlandic" unicode="&#x138;" 
d="M235 241l215 140v2h-54l10 47h210l-10 -47h-78l-197 -130c73 -81 132 -165 156 -206h84l-10 -47h-207l10 47h64c-30 49 -61 89 -139 178l-67 -43l-38 -182h-132l9 47h83l71 336h-98l10 47h148z" />
    <glyph glyph-name="ldot" unicode="&#x140;" 
d="M233 597l219 14l-120 -564h175l-10 -47h-397l10 47h175l109 516l-166 -12zM575 373c35 0 65 -22 65 -55c0 -49 -49 -80 -90 -80c-32 0 -66 19 -66 55c0 47 48 80 91 80z" />
    <glyph glyph-name="exclamdbl" unicode="&#x203c;" 
d="M345 571l-99 -378h-46l62 378h83zM203 106c36 0 59 -23 59 -51c0 -37 -38 -72 -82 -72c-35 0 -59 22 -59 51c0 38 37 72 82 72zM579 571l-99 -378h-46l62 378h83zM436 106c37 0 59 -24 59 -51c0 -37 -37 -72 -82 -72c-34 0 -59 22 -59 51c0 38 38 72 82 72z" />
    <glyph glyph-name="Aacute" unicode="&#xc1;" 
d="M231 563h215l102 -516h51l-10 -47h-205l10 47h102l-28 139h-259l-87 -139h101l-9 -47h-205l10 47h52l293 469h-141zM461 230l-54 274l-171 -274h225zM534 751l-166 -115h-54l110 115h110z" />
    <glyph glyph-name="Abreve" unicode="&#x102;" 
d="M231 563h215l102 -516h51l-10 -47h-205l10 47h102l-28 139h-259l-87 -139h101l-9 -47h-205l10 47h52l293 469h-141zM461 230l-54 274l-171 -274h225zM271 757h46s1 -4 2 -4c24 -67 86 -67 99 -67c15 0 77 0 127 68c1 1 2 3 3 3h47c-32 -57 -72 -85 -107 -100
c-35 -14 -65 -14 -76 -14c-92 0 -130 53 -141 114z" />
    <glyph glyph-name="Acircumflex" unicode="&#xc2;" 
d="M231 563h215l102 -516h51l-10 -47h-205l10 47h102l-28 139h-259l-87 -139h101l-9 -47h-205l10 47h52l293 469h-141zM461 230l-54 274l-171 -274h225zM394 753h76l75 -94l-35 -23l-89 64l-102 -64l-28 25z" />
    <glyph glyph-name="Adieresis" unicode="&#xc4;" 
d="M231 563h215l102 -516h51l-10 -47h-205l10 47h102l-28 139h-259l-87 -139h101l-9 -47h-205l10 47h52l293 469h-141zM461 230l-54 274l-171 -274h225zM306 646l22 108h73l-23 -108h-72zM436 646l23 108h72l-23 -108h-72z" />
    <glyph glyph-name="Agrave" unicode="&#xc0;" 
d="M231 563h215l102 -516h51l-10 -47h-205l10 47h102l-28 139h-259l-87 -139h101l-9 -47h-205l10 47h52l293 469h-141zM461 230l-54 274l-171 -274h225zM319 751h105l61 -115h-50z" />
    <glyph glyph-name="Amacron" unicode="&#x100;" 
d="M231 563h215l102 -516h51l-10 -47h-205l10 47h102l-28 139h-259l-87 -139h101l-9 -47h-205l10 47h52l293 469h-141zM461 230l-54 274l-171 -274h225zM252 725h340l-11 -50h-340z" />
    <glyph glyph-name="Aring" unicode="&#xc5;" 
d="M231 563h215l102 -516h51l-10 -47h-205l10 47h102l-28 139h-259l-87 -139h101l-9 -47h-205l10 47h52l293 469h-141zM461 230l-54 274l-171 -274h225zM419 775c42 0 76 -34 76 -76s-34 -76 -76 -76s-76 34 -76 76s34 76 76 76zM420 737c-21 0 -39 -14 -39 -38
c0 -21 18 -38 39 -38s37 17 37 38s-16 38 -37 38z" />
    <glyph glyph-name="Atilde" unicode="&#xc3;" 
d="M231 563h215l102 -516h51l-10 -47h-205l10 47h102l-28 139h-259l-87 -139h101l-9 -47h-205l10 47h52l293 469h-141zM461 230l-54 274l-171 -274h225zM547 751l38 -13c-45 -89 -100 -91 -116 -91c-24 0 -42 10 -66 32c-26 24 -35 29 -46 29c-35 0 -56 -37 -65 -53
c-1 -2 -3 -4 -4 -5l-37 15c12 23 46 88 110 88c31 0 51 -18 68 -34s31 -27 48 -27c38 0 61 42 70 59z" />
    <glyph glyph-name="Cacute" unicode="&#x106;" 
d="M635 563l40 -8c0 -3 -4 -13 -5 -16c-27 -81 -37 -105 -45 -171h-44c2 14 3 25 3 40c0 107 -100 122 -134 122c-154 0 -279 -146 -279 -323c0 -85 37 -174 176 -174c98 0 161 40 199 67c1 1 5 4 6 4l29 -42c-39 -27 -113 -79 -237 -79c-166 0 -227 102 -227 225
c0 206 158 372 335 372c54 0 92 -19 121 -47c5 -5 28 -32 31 -32c8 0 16 22 22 37c6 16 6 18 9 25zM587 751l-166 -115h-54l110 115h110z" />
    <glyph glyph-name="Ccaron" unicode="&#x10c;" 
d="M635 563l40 -8c0 -3 -4 -13 -5 -16c-27 -81 -37 -105 -45 -171h-44c2 14 3 25 3 40c0 107 -100 122 -134 122c-154 0 -279 -146 -279 -323c0 -85 37 -174 176 -174c98 0 161 40 199 67c1 1 5 4 6 4l29 -42c-39 -27 -113 -79 -237 -79c-166 0 -227 102 -227 225
c0 206 158 372 335 372c54 0 92 -19 121 -47c5 -5 28 -32 31 -32c8 0 16 22 22 37c6 16 6 18 9 25zM500 636h-80l-64 94l35 23l79 -64l100 64l33 -25z" />
    <glyph glyph-name="Ccircumflex" unicode="&#x108;" 
d="M635 563l40 -8c0 -3 -4 -13 -5 -16c-27 -81 -37 -105 -45 -171h-44c2 14 3 25 3 40c0 107 -100 122 -134 122c-154 0 -279 -146 -279 -323c0 -85 37 -174 176 -174c98 0 161 40 199 67c1 1 5 4 6 4l29 -42c-39 -27 -113 -79 -237 -79c-166 0 -227 102 -227 225
c0 206 158 372 335 372c54 0 92 -19 121 -47c5 -5 28 -32 31 -32c8 0 16 22 22 37c6 16 6 18 9 25zM447 753h76l75 -94l-35 -23l-89 64l-102 -64l-28 25z" />
    <glyph glyph-name="Cdotaccent" unicode="&#x10a;" 
d="M635 563l40 -8c0 -3 -4 -13 -5 -16c-27 -81 -37 -105 -45 -171h-44c2 14 3 25 3 40c0 107 -100 122 -134 122c-154 0 -279 -146 -279 -323c0 -85 37 -174 176 -174c98 0 161 40 199 67c1 1 5 4 6 4l29 -42c-39 -27 -113 -79 -237 -79c-166 0 -227 102 -227 225
c0 206 158 372 335 372c54 0 92 -19 121 -47c5 -5 28 -32 31 -32c8 0 16 22 22 37c6 16 6 18 9 25zM424 646l23 108h72l-22 -108h-73z" />
    <glyph glyph-name="Dcaron" unicode="&#x10e;" 
d="M152 563h248c88 0 121 -10 151 -31c44 -31 69 -95 69 -157c0 -44 -12 -178 -106 -284c-80 -91 -189 -91 -234 -91h-248l10 47h79l100 469h-79zM394 516h-122l-100 -469h115c39 0 126 0 190 75c72 84 89 189 89 238c0 78 -35 117 -50 129c-18 15 -41 27 -122 27zM480 636
h-80l-64 94l35 23l79 -64l100 64l33 -25z" />
    <glyph glyph-name="Eacute" unicode="&#xc9;" 
d="M175 563h476l-35 -184h-46l19 137h-288l-42 -195h162l16 73h46l-41 -192h-46l15 72h-161l-49 -227h298l34 137h47l-39 -184h-486l10 47h86l99 469h-85zM587 751l-166 -115h-54l110 115h110z" />
    <glyph glyph-name="Ecaron" unicode="&#x11a;" 
d="M175 563h476l-35 -184h-46l19 137h-288l-42 -195h162l16 73h46l-41 -192h-46l15 72h-161l-49 -227h298l34 137h47l-39 -184h-486l10 47h86l99 469h-85zM500 636h-80l-64 94l35 23l79 -64l100 64l33 -25z" />
    <glyph glyph-name="Ecircumflex" unicode="&#xca;" 
d="M175 563h476l-35 -184h-46l19 137h-288l-42 -195h162l16 73h46l-41 -192h-46l15 72h-161l-49 -227h298l34 137h47l-39 -184h-486l10 47h86l99 469h-85zM447 753h76l75 -94l-35 -23l-89 64l-102 -64l-28 25z" />
    <glyph glyph-name="Edieresis" unicode="&#xcb;" 
d="M175 563h476l-35 -184h-46l19 137h-288l-42 -195h162l16 73h46l-41 -192h-46l15 72h-161l-49 -227h298l34 137h47l-39 -184h-486l10 47h86l99 469h-85zM359 646l22 108h73l-23 -108h-72zM489 646l23 108h72l-23 -108h-72z" />
    <glyph glyph-name="Edotaccent" unicode="&#x116;" 
d="M175 563h476l-35 -184h-46l19 137h-288l-42 -195h162l16 73h46l-41 -192h-46l15 72h-161l-49 -227h298l34 137h47l-39 -184h-486l10 47h86l99 469h-85zM424 646l23 108h72l-22 -108h-73z" />
    <glyph glyph-name="Egrave" unicode="&#xc8;" 
d="M175 563h476l-35 -184h-46l19 137h-288l-42 -195h162l16 73h46l-41 -192h-46l15 72h-161l-49 -227h298l34 137h47l-39 -184h-486l10 47h86l99 469h-85zM372 751h105l61 -115h-50z" />
    <glyph glyph-name="Emacron" unicode="&#x112;" 
d="M175 563h476l-35 -184h-46l19 137h-288l-42 -195h162l16 73h46l-41 -192h-46l15 72h-161l-49 -227h298l34 137h47l-39 -184h-486l10 47h86l99 469h-85zM305 725h340l-11 -50h-340z" />
    <glyph glyph-name="Gbreve" unicode="&#x11e;" 
d="M382 247h247l-10 -46h-48l-36 -170c-92 -36 -159 -48 -215 -48c-144 0 -222 87 -222 221c0 183 143 376 333 376c60 0 113 -27 141 -70c2 -2 7 -10 10 -10c10 0 30 61 31 63l46 -8c-9 -25 -38 -107 -46 -183l-48 -8c2 32 4 66 -14 101c-28 54 -84 65 -125 65
c-150 0 -274 -155 -274 -325c0 -98 51 -172 178 -172c34 0 77 5 162 33l29 135h-149zM324 757h46s1 -4 2 -4c24 -67 86 -67 99 -67c15 0 77 0 127 68c1 1 2 3 3 3h47c-32 -57 -72 -85 -107 -100c-35 -14 -65 -14 -76 -14c-92 0 -130 53 -141 114z" />
    <glyph glyph-name="Gcircumflex" unicode="&#x11c;" 
d="M382 247h247l-10 -46h-48l-36 -170c-92 -36 -159 -48 -215 -48c-144 0 -222 87 -222 221c0 183 143 376 333 376c60 0 113 -27 141 -70c2 -2 7 -10 10 -10c10 0 30 61 31 63l46 -8c-9 -25 -38 -107 -46 -183l-48 -8c2 32 4 66 -14 101c-28 54 -84 65 -125 65
c-150 0 -274 -155 -274 -325c0 -98 51 -172 178 -172c34 0 77 5 162 33l29 135h-149zM447 753h76l75 -94l-35 -23l-89 64l-102 -64l-28 25z" />
    <glyph glyph-name="Gdotaccent" unicode="&#x120;" 
d="M382 247h247l-10 -46h-48l-36 -170c-92 -36 -159 -48 -215 -48c-144 0 -222 87 -222 221c0 183 143 376 333 376c60 0 113 -27 141 -70c2 -2 7 -10 10 -10c10 0 30 61 31 63l46 -8c-9 -25 -38 -107 -46 -183l-48 -8c2 32 4 66 -14 101c-28 54 -84 65 -125 65
c-150 0 -274 -155 -274 -325c0 -98 51 -172 178 -172c34 0 77 5 162 33l29 135h-149zM424 699l23 108h72l-22 -108h-73z" />
    <glyph glyph-name="Hcircumflex" unicode="&#x124;" 
d="M157 563h202l-12 -47h-75l-43 -202h273l42 202h-74l10 47h200l-10 -47h-75l-101 -469h76l-10 -47h-201l11 47h75l49 220h-273l-48 -220h75l-11 -47h-200l10 47h75l99 469h-74zM424 753h76l75 -94l-35 -23l-89 64l-102 -64l-28 25z" />
    <glyph glyph-name="Iacute" unicode="&#xcd;" 
d="M218 563h400l-10 -47h-175l-99 -469h174l-10 -47h-400l10 47h175l99 469h-174zM564 751l-166 -115h-54l110 115h110z" />
    <glyph glyph-name="Icircumflex" unicode="&#xce;" 
d="M218 563h400l-10 -47h-175l-99 -469h174l-10 -47h-400l10 47h175l99 469h-174zM424 753h76l75 -94l-35 -23l-89 64l-102 -64l-28 25z" />
    <glyph glyph-name="Idieresis" unicode="&#xcf;" 
d="M218 563h400l-10 -47h-175l-99 -469h174l-10 -47h-400l10 47h175l99 469h-174zM336 646l22 108h73l-23 -108h-72zM466 646l23 108h72l-23 -108h-72z" />
    <glyph glyph-name="Idotaccent" unicode="&#x130;" 
d="M218 563h400l-10 -47h-175l-99 -469h174l-10 -47h-400l10 47h175l99 469h-174zM401 646l23 108h72l-22 -108h-73z" />
    <glyph glyph-name="Igrave" unicode="&#xcc;" 
d="M218 563h400l-10 -47h-175l-99 -469h174l-10 -47h-400l10 47h175l99 469h-174zM349 751h105l61 -115h-50z" />
    <glyph glyph-name="Imacron" unicode="&#x12a;" 
d="M218 563h400l-10 -47h-175l-99 -469h174l-10 -47h-400l10 47h175l99 469h-174zM282 725h340l-11 -50h-340z" />
    <glyph glyph-name="Itilde" unicode="&#x128;" 
d="M218 563h400l-10 -47h-175l-99 -469h174l-10 -47h-400l10 47h175l99 469h-174zM577 751l38 -13c-45 -89 -100 -91 -116 -91c-24 0 -42 10 -66 32c-26 24 -35 29 -46 29c-35 0 -56 -37 -65 -53c-1 -2 -3 -4 -4 -5l-37 15c12 23 46 88 110 88c31 0 51 -18 68 -34
s31 -27 48 -27c38 0 61 42 70 59z" />
    <glyph glyph-name="Jcircumflex" unicode="&#x134;" 
d="M323 563h375l-10 -47h-128l-66 -312c-16 -73 -28 -108 -49 -138c-35 -53 -97 -83 -163 -83c-61 0 -121 19 -206 64l37 216h49l-17 -98c-1 -10 -5 -31 -5 -50c0 -58 84 -82 137 -82c127 0 148 85 166 171l66 312h-196zM492 753h76l75 -94l-35 -23l-89 64l-102 -64l-28 25z
" />
    <glyph glyph-name="Lacute" unicode="&#x139;" 
d="M177 563h273l-10 -47h-123l-100 -469h283l57 202h48l-65 -249h-483l10 47h100l100 469h-100zM451 751l-166 -115h-54l110 115h110z" />
    <glyph glyph-name="Lcaron" unicode="&#x13d;" 
d="M177 563h273l-10 -47h-123l-100 -469h283l57 202h48l-65 -249h-483l10 47h100l100 469h-100zM364 636h-80l-64 94l35 23l79 -64l100 64l33 -25z" />
    <glyph glyph-name="Nacute" unicode="&#x143;" 
d="M146 563h170l154 -521h17l97 474h-108l11 47h222l-10 -47h-68l-106 -529h-91l-155 529h-16l-97 -469h108l-11 -47h-237l10 47h83l97 469h-80zM587 751l-166 -115h-54l110 115h110z" />
    <glyph glyph-name="Ncaron" unicode="&#x147;" 
d="M146 563h170l154 -521h17l97 474h-108l11 47h222l-10 -47h-68l-106 -529h-91l-155 529h-16l-97 -469h108l-11 -47h-237l10 47h83l97 469h-80zM500 636h-80l-64 94l35 23l79 -64l100 64l33 -25z" />
    <glyph glyph-name="Ntilde" unicode="&#xd1;" 
d="M146 563h170l154 -521h17l97 474h-108l11 47h222l-10 -47h-68l-106 -529h-91l-155 529h-16l-97 -469h108l-11 -47h-237l10 47h83l97 469h-80zM600 751l38 -13c-45 -89 -100 -91 -116 -91c-24 0 -42 10 -66 32c-26 24 -35 29 -46 29c-35 0 -56 -37 -65 -53
c-1 -2 -3 -4 -4 -5l-37 15c12 23 46 88 110 88c31 0 51 -18 68 -34s31 -27 48 -27c38 0 61 42 70 59z" />
    <glyph glyph-name="Oacute" unicode="&#xd3;" 
d="M92 211c0 162 131 369 327 369c179 0 205 -160 205 -219c0 -187 -141 -378 -327 -378c-190 0 -205 178 -205 228zM146 215c0 -67 28 -185 156 -185c151 0 268 168 268 325c0 68 -34 178 -156 178c-156 0 -268 -177 -268 -318zM587 751l-166 -115h-54l110 115h110z" />
    <glyph glyph-name="Ocircumflex" unicode="&#xd4;" 
d="M92 211c0 162 131 369 327 369c179 0 205 -160 205 -219c0 -187 -141 -378 -327 -378c-190 0 -205 178 -205 228zM146 215c0 -67 28 -185 156 -185c151 0 268 168 268 325c0 68 -34 178 -156 178c-156 0 -268 -177 -268 -318zM447 753h76l75 -94l-35 -23l-89 64l-102 -64
l-28 25z" />
    <glyph glyph-name="Odieresis" unicode="&#xd6;" 
d="M92 211c0 162 131 369 327 369c179 0 205 -160 205 -219c0 -187 -141 -378 -327 -378c-190 0 -205 178 -205 228zM146 215c0 -67 28 -185 156 -185c151 0 268 168 268 325c0 68 -34 178 -156 178c-156 0 -268 -177 -268 -318zM359 646l22 108h73l-23 -108h-72zM489 646
l23 108h72l-23 -108h-72z" />
    <glyph glyph-name="Ograve" unicode="&#xd2;" 
d="M92 211c0 162 131 369 327 369c179 0 205 -160 205 -219c0 -187 -141 -378 -327 -378c-190 0 -205 178 -205 228zM146 215c0 -67 28 -185 156 -185c151 0 268 168 268 325c0 68 -34 178 -156 178c-156 0 -268 -177 -268 -318zM372 751h105l61 -115h-50z" />
    <glyph glyph-name="Ohungarumlaut" unicode="&#x150;" 
d="M92 211c0 162 131 369 327 369c179 0 205 -160 205 -219c0 -187 -141 -378 -327 -378c-190 0 -205 178 -205 228zM146 215c0 -67 28 -185 156 -185c151 0 268 168 268 325c0 68 -34 178 -156 178c-156 0 -268 -177 -268 -318zM528 750l-146 -113h-45l114 113h77zM654 750
l-146 -113h-45l114 113h77z" />
    <glyph glyph-name="Omacron" unicode="&#x14c;" 
d="M92 211c0 162 131 369 327 369c179 0 205 -160 205 -219c0 -187 -141 -378 -327 -378c-190 0 -205 178 -205 228zM146 215c0 -67 28 -185 156 -185c151 0 268 168 268 325c0 68 -34 178 -156 178c-156 0 -268 -177 -268 -318zM305 725h340l-11 -50h-340z" />
    <glyph glyph-name="Otilde" unicode="&#xd5;" 
d="M92 211c0 162 131 369 327 369c179 0 205 -160 205 -219c0 -187 -141 -378 -327 -378c-190 0 -205 178 -205 228zM146 215c0 -67 28 -185 156 -185c151 0 268 168 268 325c0 68 -34 178 -156 178c-156 0 -268 -177 -268 -318zM600 751l38 -13c-45 -89 -100 -91 -116 -91
c-24 0 -42 10 -66 32c-26 24 -35 29 -46 29c-35 0 -56 -37 -65 -53c-1 -2 -3 -4 -4 -5l-37 15c12 23 46 88 110 88c31 0 51 -18 68 -34s31 -27 48 -27c38 0 61 42 70 59z" />
    <glyph glyph-name="Racute" unicode="&#x154;" 
d="M163 563h255c69 0 169 0 169 -121c0 -80 -65 -170 -184 -183c2 -5 5 -12 10 -22c10 -21 15 -33 61 -136c14 -32 18 -42 23 -54h89l-10 -47h-126c-17 67 -44 131 -73 193c-5 10 -26 56 -28 61c0 1 -2 4 -2 5h-117l-45 -212h90l-10 -47h-221l10 47h82l99 469h-82zM412 516
h-128l-45 -213h95c41 0 101 0 144 31c25 18 57 55 57 106c0 76 -62 76 -123 76zM587 751l-166 -115h-54l110 115h110z" />
    <glyph glyph-name="Rcaron" unicode="&#x158;" 
d="M163 563h255c69 0 169 0 169 -121c0 -80 -65 -170 -184 -183c2 -5 5 -12 10 -22c10 -21 15 -33 61 -136c14 -32 18 -42 23 -54h89l-10 -47h-126c-17 67 -44 131 -73 193c-5 10 -26 56 -28 61c0 1 -2 4 -2 5h-117l-45 -212h90l-10 -47h-221l10 47h82l99 469h-82zM412 516
h-128l-45 -213h95c41 0 101 0 144 31c25 18 57 55 57 106c0 76 -62 76 -123 76zM487 636h-80l-64 94l35 23l79 -64l100 64l33 -25z" />
    <glyph glyph-name="Sacute" unicode="&#x15a;" 
d="M590 581l41 -11c-38 -94 -49 -152 -54 -187l-42 8c2 10 4 21 4 35c0 73 -57 107 -133 107c-103 0 -168 -63 -168 -128c0 -89 87 -94 130 -97c100 -7 177 -39 177 -135c0 -87 -74 -190 -222 -190c-37 0 -120 7 -166 59c-2 3 -8 9 -11 9c-8 0 -30 -55 -36 -70l-43 7
c25 76 33 103 43 180h44c-3 -51 22 -138 163 -138c120 0 174 75 174 139c0 77 -72 83 -140 89c-55 5 -88 16 -112 34c-33 25 -55 70 -55 112c0 77 76 176 218 176c90 0 122 -39 133 -53c3 -3 8 -9 11 -9c11 0 34 43 40 56c1 1 3 6 4 7zM587 751l-166 -115h-54l110 115h110z
" />
    <glyph glyph-name="Scaron" unicode="&#x160;" 
d="M590 581l41 -11c-38 -94 -49 -152 -54 -187l-42 8c2 10 4 21 4 35c0 73 -57 107 -133 107c-103 0 -168 -63 -168 -128c0 -89 87 -94 130 -97c100 -7 177 -39 177 -135c0 -87 -74 -190 -222 -190c-37 0 -120 7 -166 59c-2 3 -8 9 -11 9c-8 0 -30 -55 -36 -70l-43 7
c25 76 33 103 43 180h44c-3 -51 22 -138 163 -138c120 0 174 75 174 139c0 77 -72 83 -140 89c-55 5 -88 16 -112 34c-33 25 -55 70 -55 112c0 77 76 176 218 176c90 0 122 -39 133 -53c3 -3 8 -9 11 -9c11 0 34 43 40 56c1 1 3 6 4 7zM500 636h-80l-64 94l35 23l79 -64
l100 64l33 -25z" />
    <glyph glyph-name="Scircumflex" unicode="&#x15c;" 
d="M590 581l41 -11c-38 -94 -49 -152 -54 -187l-42 8c2 10 4 21 4 35c0 73 -57 107 -133 107c-103 0 -168 -63 -168 -128c0 -89 87 -94 130 -97c100 -7 177 -39 177 -135c0 -87 -74 -190 -222 -190c-37 0 -120 7 -166 59c-2 3 -8 9 -11 9c-8 0 -30 -55 -36 -70l-43 7
c25 76 33 103 43 180h44c-3 -51 22 -138 163 -138c120 0 174 75 174 139c0 77 -72 83 -140 89c-55 5 -88 16 -112 34c-33 25 -55 70 -55 112c0 77 76 176 218 176c90 0 122 -39 133 -53c3 -3 8 -9 11 -9c11 0 34 43 40 56c1 1 3 6 4 7zM447 753h76l75 -94l-35 -23l-89 64
l-102 -64l-28 25z" />
    <glyph glyph-name="Tcaron" unicode="&#x164;" 
d="M178 563h480l-30 -210h-48l23 163h-171l-99 -469h122l-10 -47h-292l11 47h120l100 469h-170l-47 -163h-49zM487 636h-80l-64 94l35 23l79 -64l100 64l33 -25z" />
    <glyph glyph-name="Uacute" unicode="&#xda;" 
d="M148 563h225l-10 -47h-101l-61 -282c-4 -20 -13 -69 -13 -104c0 -23 9 -96 121 -96c158 0 180 101 199 193l62 289h-103l10 47h221l-10 -47h-71l-63 -295c-24 -113 -47 -151 -83 -181c-53 -43 -119 -57 -170 -57c-76 0 -164 36 -164 140c0 19 1 46 15 111l60 282h-74z
M587 751l-166 -115h-54l110 115h110z" />
    <glyph glyph-name="Ubreve" unicode="&#x16c;" 
d="M148 563h225l-10 -47h-101l-61 -282c-4 -20 -13 -69 -13 -104c0 -23 9 -96 121 -96c158 0 180 101 199 193l62 289h-103l10 47h221l-10 -47h-71l-63 -295c-24 -113 -47 -151 -83 -181c-53 -43 -119 -57 -170 -57c-76 0 -164 36 -164 140c0 19 1 46 15 111l60 282h-74z
M324 757h46s1 -4 2 -4c24 -67 86 -67 99 -67c15 0 77 0 127 68c1 1 2 3 3 3h47c-32 -57 -72 -85 -107 -100c-35 -14 -65 -14 -76 -14c-92 0 -130 53 -141 114z" />
    <glyph glyph-name="Ucircumflex" unicode="&#xdb;" 
d="M148 563h225l-10 -47h-101l-61 -282c-4 -20 -13 -69 -13 -104c0 -23 9 -96 121 -96c158 0 180 101 199 193l62 289h-103l10 47h221l-10 -47h-71l-63 -295c-24 -113 -47 -151 -83 -181c-53 -43 -119 -57 -170 -57c-76 0 -164 36 -164 140c0 19 1 46 15 111l60 282h-74z
M447 753h76l75 -94l-35 -23l-89 64l-102 -64l-28 25z" />
    <glyph glyph-name="Udieresis" unicode="&#xdc;" 
d="M148 563h225l-10 -47h-101l-61 -282c-4 -20 -13 -69 -13 -104c0 -23 9 -96 121 -96c158 0 180 101 199 193l62 289h-103l10 47h221l-10 -47h-71l-63 -295c-24 -113 -47 -151 -83 -181c-53 -43 -119 -57 -170 -57c-76 0 -164 36 -164 140c0 19 1 46 15 111l60 282h-74z
M359 646l22 108h73l-23 -108h-72zM489 646l23 108h72l-23 -108h-72z" />
    <glyph glyph-name="Ugrave" unicode="&#xd9;" 
d="M148 563h225l-10 -47h-101l-61 -282c-4 -20 -13 -69 -13 -104c0 -23 9 -96 121 -96c158 0 180 101 199 193l62 289h-103l10 47h221l-10 -47h-71l-63 -295c-24 -113 -47 -151 -83 -181c-53 -43 -119 -57 -170 -57c-76 0 -164 36 -164 140c0 19 1 46 15 111l60 282h-74z
M372 751h105l61 -115h-50z" />
    <glyph glyph-name="Uhungarumlaut" unicode="&#x170;" 
d="M148 563h225l-10 -47h-101l-61 -282c-4 -20 -13 -69 -13 -104c0 -23 9 -96 121 -96c158 0 180 101 199 193l62 289h-103l10 47h221l-10 -47h-71l-63 -295c-24 -113 -47 -151 -83 -181c-53 -43 -119 -57 -170 -57c-76 0 -164 36 -164 140c0 19 1 46 15 111l60 282h-74z
M528 750l-146 -113h-45l114 113h77zM654 750l-146 -113h-45l114 113h77z" />
    <glyph glyph-name="Umacron" unicode="&#x16a;" 
d="M148 563h225l-10 -47h-101l-61 -282c-4 -20 -13 -69 -13 -104c0 -23 9 -96 121 -96c158 0 180 101 199 193l62 289h-103l10 47h221l-10 -47h-71l-63 -295c-24 -113 -47 -151 -83 -181c-53 -43 -119 -57 -170 -57c-76 0 -164 36 -164 140c0 19 1 46 15 111l60 282h-74z
M305 725h340l-11 -50h-340z" />
    <glyph glyph-name="Uring" unicode="&#x16e;" 
d="M148 563h225l-10 -47h-101l-61 -282c-4 -20 -13 -69 -13 -104c0 -23 9 -96 121 -96c158 0 180 101 199 193l62 289h-103l10 47h221l-10 -47h-71l-63 -295c-24 -113 -47 -151 -83 -181c-53 -43 -119 -57 -170 -57c-76 0 -164 36 -164 140c0 19 1 46 15 111l60 282h-74z
M472 775c42 0 76 -34 76 -76s-34 -76 -76 -76s-76 34 -76 76s34 76 76 76zM473 737c-21 0 -39 -14 -39 -38c0 -21 18 -38 39 -38s37 17 37 38s-16 38 -37 38z" />
    <glyph glyph-name="Utilde" unicode="&#x168;" 
d="M148 563h225l-10 -47h-101l-61 -282c-4 -20 -13 -69 -13 -104c0 -23 9 -96 121 -96c158 0 180 101 199 193l62 289h-103l10 47h221l-10 -47h-71l-63 -295c-24 -113 -47 -151 -83 -181c-53 -43 -119 -57 -170 -57c-76 0 -164 36 -164 140c0 19 1 46 15 111l60 282h-74z
M600 751l38 -13c-45 -89 -100 -91 -116 -91c-24 0 -42 10 -66 32c-26 24 -35 29 -46 29c-35 0 -56 -37 -65 -53c-1 -2 -3 -4 -4 -5l-37 15c12 23 46 88 110 88c31 0 51 -18 68 -34s31 -27 48 -27c38 0 61 42 70 59z" />
    <glyph glyph-name="Yacute" unicode="&#xdd;" 
d="M150 563h197l-11 -47h-76l98 -248l201 248h-77l10 47h195l-10 -47h-62l-244 -298l-35 -171h117l-10 -47h-287l10 47h119l37 171l-118 298h-64zM587 751l-166 -115h-54l110 115h110z" />
    <glyph glyph-name="Ydieresis" unicode="&#x178;" 
d="M150 563h197l-11 -47h-76l98 -248l201 248h-77l10 47h195l-10 -47h-62l-244 -298l-35 -171h117l-10 -47h-287l10 47h119l37 171l-118 298h-64zM359 646l22 108h73l-23 -108h-72zM489 646l23 108h72l-23 -108h-72z" />
    <glyph glyph-name="Zacute" unicode="&#x179;" 
d="M209 563h403l-9 -42l-449 -474h324l36 162h45l-45 -209h-431l10 47l443 469h-290l-31 -146h-47zM574 751l-166 -115h-54l110 115h110z" />
    <glyph glyph-name="Zcaron" unicode="&#x17d;" 
d="M209 563h403l-9 -42l-449 -474h324l36 162h45l-45 -209h-431l10 47l443 469h-290l-31 -146h-47zM487 636h-80l-64 94l35 23l79 -64l100 64l33 -25z" />
    <glyph glyph-name="Zdotaccent" unicode="&#x17b;" 
d="M209 563h403l-9 -42l-449 -474h324l36 162h45l-45 -209h-431l10 47l443 469h-290l-31 -146h-47zM411 646l23 108h72l-22 -108h-73z" />
    <glyph glyph-name="aacute" unicode="&#xe1;" 
d="M523 296l-51 -249h87l-10 -47h-139l12 57c-58 -33 -125 -71 -208 -71c-79 0 -132 52 -132 117c0 73 76 175 249 175c19 0 75 -2 136 -13l5 31c1 5 5 31 5 43c0 25 -22 63 -102 63c-69 0 -140 -27 -180 -42l-10 46c46 17 119 44 202 44c76 0 143 -33 143 -103
c0 -19 -6 -45 -7 -51zM435 119l22 100c-42 7 -83 11 -125 11c-158 0 -196 -83 -196 -122c0 -48 47 -74 85 -74c67 0 163 46 214 85zM534 618l-166 -115h-54l110 115h110z" />
    <glyph glyph-name="abreve" unicode="&#x103;" 
d="M523 296l-51 -249h87l-10 -47h-139l12 57c-58 -33 -125 -71 -208 -71c-79 0 -132 52 -132 117c0 73 76 175 249 175c19 0 75 -2 136 -13l5 31c1 5 5 31 5 43c0 25 -22 63 -102 63c-69 0 -140 -27 -180 -42l-10 46c46 17 119 44 202 44c76 0 143 -33 143 -103
c0 -19 -6 -45 -7 -51zM435 119l22 100c-42 7 -83 11 -125 11c-158 0 -196 -83 -196 -122c0 -48 47 -74 85 -74c67 0 163 46 214 85zM271 624h46s1 -4 2 -4c24 -67 86 -67 99 -67c15 0 77 0 127 68c1 1 2 3 3 3h47c-32 -57 -72 -85 -107 -100c-35 -14 -65 -14 -76 -14
c-92 0 -130 53 -141 114z" />
    <glyph glyph-name="acircumflex" unicode="&#xe2;" 
d="M523 296l-51 -249h87l-10 -47h-139l12 57c-58 -33 -125 -71 -208 -71c-79 0 -132 52 -132 117c0 73 76 175 249 175c19 0 75 -2 136 -13l5 31c1 5 5 31 5 43c0 25 -22 63 -102 63c-69 0 -140 -27 -180 -42l-10 46c46 17 119 44 202 44c76 0 143 -33 143 -103
c0 -19 -6 -45 -7 -51zM435 119l22 100c-42 7 -83 11 -125 11c-158 0 -196 -83 -196 -122c0 -48 47 -74 85 -74c67 0 163 46 214 85zM394 620h76l75 -94l-35 -23l-89 64l-102 -64l-28 25z" />
    <glyph glyph-name="adieresis" unicode="&#xe4;" 
d="M523 296l-51 -249h87l-10 -47h-139l12 57c-58 -33 -125 -71 -208 -71c-79 0 -132 52 -132 117c0 73 76 175 249 175c19 0 75 -2 136 -13l5 31c1 5 5 31 5 43c0 25 -22 63 -102 63c-69 0 -140 -27 -180 -42l-10 46c46 17 119 44 202 44c76 0 143 -33 143 -103
c0 -19 -6 -45 -7 -51zM435 119l22 100c-42 7 -83 11 -125 11c-158 0 -196 -83 -196 -122c0 -48 47 -74 85 -74c67 0 163 46 214 85zM306 513l22 108h73l-23 -108h-72zM436 513l23 108h72l-23 -108h-72z" />
    <glyph glyph-name="agrave" unicode="&#xe0;" 
d="M523 296l-51 -249h87l-10 -47h-139l12 57c-58 -33 -125 -71 -208 -71c-79 0 -132 52 -132 117c0 73 76 175 249 175c19 0 75 -2 136 -13l5 31c1 5 5 31 5 43c0 25 -22 63 -102 63c-69 0 -140 -27 -180 -42l-10 46c46 17 119 44 202 44c76 0 143 -33 143 -103
c0 -19 -6 -45 -7 -51zM435 119l22 100c-42 7 -83 11 -125 11c-158 0 -196 -83 -196 -122c0 -48 47 -74 85 -74c67 0 163 46 214 85zM319 618h105l61 -115h-50z" />
    <glyph glyph-name="amacron" unicode="&#x101;" 
d="M523 296l-51 -249h87l-10 -47h-139l12 57c-58 -33 -125 -71 -208 -71c-79 0 -132 52 -132 117c0 73 76 175 249 175c19 0 75 -2 136 -13l5 31c1 5 5 31 5 43c0 25 -22 63 -102 63c-69 0 -140 -27 -180 -42l-10 46c46 17 119 44 202 44c76 0 143 -33 143 -103
c0 -19 -6 -45 -7 -51zM435 119l22 100c-42 7 -83 11 -125 11c-158 0 -196 -83 -196 -122c0 -48 47 -74 85 -74c67 0 163 46 214 85zM252 592h340l-11 -50h-340z" />
    <glyph glyph-name="aring" unicode="&#xe5;" 
d="M523 296l-51 -249h87l-10 -47h-139l12 57c-58 -33 -125 -71 -208 -71c-79 0 -132 52 -132 117c0 73 76 175 249 175c19 0 75 -2 136 -13l5 31c1 5 5 31 5 43c0 25 -22 63 -102 63c-69 0 -140 -27 -180 -42l-10 46c46 17 119 44 202 44c76 0 143 -33 143 -103
c0 -19 -6 -45 -7 -51zM435 119l22 100c-42 7 -83 11 -125 11c-158 0 -196 -83 -196 -122c0 -48 47 -74 85 -74c67 0 163 46 214 85zM419 642c42 0 76 -34 76 -76s-34 -76 -76 -76s-76 34 -76 76s34 76 76 76zM420 604c-21 0 -39 -14 -39 -38c0 -21 18 -38 39 -38
s37 17 37 38s-16 38 -37 38z" />
    <glyph glyph-name="atilde" unicode="&#xe3;" 
d="M523 296l-51 -249h87l-10 -47h-139l12 57c-58 -33 -125 -71 -208 -71c-79 0 -132 52 -132 117c0 73 76 175 249 175c19 0 75 -2 136 -13l5 31c1 5 5 31 5 43c0 25 -22 63 -102 63c-69 0 -140 -27 -180 -42l-10 46c46 17 119 44 202 44c76 0 143 -33 143 -103
c0 -19 -6 -45 -7 -51zM435 119l22 100c-42 7 -83 11 -125 11c-158 0 -196 -83 -196 -122c0 -48 47 -74 85 -74c67 0 163 46 214 85zM547 618l38 -13c-45 -89 -100 -91 -116 -91c-24 0 -42 10 -66 32c-26 24 -35 29 -46 29c-35 0 -56 -37 -65 -53c-1 -2 -3 -4 -4 -5l-37 15
c12 23 46 88 110 88c31 0 51 -18 68 -34s31 -27 48 -27c38 0 61 42 70 59z" />
    <glyph glyph-name="cacute" unicode="&#x107;" 
d="M567 447l36 -8c-23 -60 -31 -96 -36 -160l-43 -6c2 49 6 123 -127 123c-152 0 -237 -122 -237 -223c0 -134 126 -138 150 -138c80 0 167 52 206 75l20 -41c-51 -31 -137 -83 -240 -83c-76 0 -190 42 -190 182c0 135 121 277 289 277c76 0 109 -29 130 -50c1 -1 6 -5 9 -5
c8 0 22 25 33 57zM534 618l-166 -115h-54l110 115h110z" />
    <glyph glyph-name="ccaron" unicode="&#x10d;" 
d="M567 447l36 -8c-23 -60 -31 -96 -36 -160l-43 -6c2 49 6 123 -127 123c-152 0 -237 -122 -237 -223c0 -134 126 -138 150 -138c80 0 167 52 206 75l20 -41c-51 -31 -137 -83 -240 -83c-76 0 -190 42 -190 182c0 135 121 277 289 277c76 0 109 -29 130 -50c1 -1 6 -5 9 -5
c8 0 22 25 33 57zM447 503h-80l-64 94l35 23l79 -64l100 64l33 -25z" />
    <glyph glyph-name="ccircumflex" unicode="&#x109;" 
d="M567 447l36 -8c-23 -60 -31 -96 -36 -160l-43 -6c2 49 6 123 -127 123c-152 0 -237 -122 -237 -223c0 -134 126 -138 150 -138c80 0 167 52 206 75l20 -41c-51 -31 -137 -83 -240 -83c-76 0 -190 42 -190 182c0 135 121 277 289 277c76 0 109 -29 130 -50c1 -1 6 -5 9 -5
c8 0 22 25 33 57zM394 622h76l75 -94l-35 -23l-89 64l-102 -64l-28 25z" />
    <glyph glyph-name="cdotaccent" unicode="&#x10b;" 
d="M567 447l36 -8c-23 -60 -31 -96 -36 -160l-43 -6c2 49 6 123 -127 123c-152 0 -237 -122 -237 -223c0 -134 126 -138 150 -138c80 0 167 52 206 75l20 -41c-51 -31 -137 -83 -240 -83c-76 0 -190 42 -190 182c0 135 121 277 289 277c76 0 109 -29 130 -50c1 -1 6 -5 9 -5
c8 0 22 25 33 57zM371 513l23 108h72l-22 -108h-73z" />
    <glyph glyph-name="dcaron" unicode="&#x10f;" 
d="M417 608l212 19l-123 -580h84l-10 -47h-133l15 71l-2 2c-81 -83 -161 -83 -185 -83c-117 0 -181 87 -181 178c0 142 138 264 269 264c61 0 125 -28 153 -84h2l50 225l-167 -10zM277 39c124 0 217 108 217 210c0 81 -56 134 -132 134c-117 0 -212 -102 -212 -212
c0 -92 70 -132 127 -132zM467 685h-80l-64 94l35 23l79 -64l100 64l33 -25z" />
    <glyph glyph-name="eacute" unicode="&#xe9;" 
d="M541 96l14 -45c-4 -2 -5 -2 -6 -3l-14 -7c-61 -31 -153 -55 -221 -55c-123 0 -202 65 -202 177c0 142 123 282 289 282c134 0 191 -83 191 -164c0 -23 -4 -43 -14 -73l-1 -5h-410c-1 -9 -1 -17 -1 -29c0 -116 89 -139 154 -139c78 0 155 33 221 61zM180 248h356
c1 7 2 15 2 27c0 59 -40 121 -143 121c-126 0 -192 -92 -215 -148zM534 618l-166 -115h-54l110 115h110z" />
    <glyph glyph-name="ecaron" unicode="&#x11b;" 
d="M541 96l14 -45c-4 -2 -5 -2 -6 -3l-14 -7c-61 -31 -153 -55 -221 -55c-123 0 -202 65 -202 177c0 142 123 282 289 282c134 0 191 -83 191 -164c0 -23 -4 -43 -14 -73l-1 -5h-410c-1 -9 -1 -17 -1 -29c0 -116 89 -139 154 -139c78 0 155 33 221 61zM180 248h356
c1 7 2 15 2 27c0 59 -40 121 -143 121c-126 0 -192 -92 -215 -148zM447 503h-80l-64 94l35 23l79 -64l100 64l33 -25z" />
    <glyph glyph-name="ecircumflex" unicode="&#xea;" 
d="M541 96l14 -45c-4 -2 -5 -2 -6 -3l-14 -7c-61 -31 -153 -55 -221 -55c-123 0 -202 65 -202 177c0 142 123 282 289 282c134 0 191 -83 191 -164c0 -23 -4 -43 -14 -73l-1 -5h-410c-1 -9 -1 -17 -1 -29c0 -116 89 -139 154 -139c78 0 155 33 221 61zM180 248h356
c1 7 2 15 2 27c0 59 -40 121 -143 121c-126 0 -192 -92 -215 -148zM394 620h76l75 -94l-35 -23l-89 64l-102 -64l-28 25z" />
    <glyph glyph-name="edieresis" unicode="&#xeb;" 
d="M541 96l14 -45c-4 -2 -5 -2 -6 -3l-14 -7c-61 -31 -153 -55 -221 -55c-123 0 -202 65 -202 177c0 142 123 282 289 282c134 0 191 -83 191 -164c0 -23 -4 -43 -14 -73l-1 -5h-410c-1 -9 -1 -17 -1 -29c0 -116 89 -139 154 -139c78 0 155 33 221 61zM180 248h356
c1 7 2 15 2 27c0 59 -40 121 -143 121c-126 0 -192 -92 -215 -148zM306 513l22 108h73l-23 -108h-72zM436 513l23 108h72l-23 -108h-72z" />
    <glyph glyph-name="edotaccent" unicode="&#x117;" 
d="M541 96l14 -45c-4 -2 -5 -2 -6 -3l-14 -7c-61 -31 -153 -55 -221 -55c-123 0 -202 65 -202 177c0 142 123 282 289 282c134 0 191 -83 191 -164c0 -23 -4 -43 -14 -73l-1 -5h-410c-1 -9 -1 -17 -1 -29c0 -116 89 -139 154 -139c78 0 155 33 221 61zM180 248h356
c1 7 2 15 2 27c0 59 -40 121 -143 121c-126 0 -192 -92 -215 -148zM371 513l23 108h72l-22 -108h-73z" />
    <glyph glyph-name="egrave" unicode="&#xe8;" 
d="M541 96l14 -45c-4 -2 -5 -2 -6 -3l-14 -7c-61 -31 -153 -55 -221 -55c-123 0 -202 65 -202 177c0 142 123 282 289 282c134 0 191 -83 191 -164c0 -23 -4 -43 -14 -73l-1 -5h-410c-1 -9 -1 -17 -1 -29c0 -116 89 -139 154 -139c78 0 155 33 221 61zM180 248h356
c1 7 2 15 2 27c0 59 -40 121 -143 121c-126 0 -192 -92 -215 -148zM319 618h105l61 -115h-50z" />
    <glyph glyph-name="emacron" unicode="&#x113;" 
d="M541 96l14 -45c-4 -2 -5 -2 -6 -3l-14 -7c-61 -31 -153 -55 -221 -55c-123 0 -202 65 -202 177c0 142 123 282 289 282c134 0 191 -83 191 -164c0 -23 -4 -43 -14 -73l-1 -5h-410c-1 -9 -1 -17 -1 -29c0 -116 89 -139 154 -139c78 0 155 33 221 61zM180 248h356
c1 7 2 15 2 27c0 59 -40 121 -143 121c-126 0 -192 -92 -215 -148zM252 592h340l-11 -50h-340z" />
    <glyph glyph-name="gacute" unicode="&#x1f5;" 
d="M511 430h132l-10 -47h-82l-75 -357c-24 -116 -80 -183 -240 -183c-34 0 -61 1 -85 2l12 53c29 -3 57 -6 93 -6c106 0 154 45 171 134l11 58l-2 2c-60 -57 -121 -75 -173 -75c-109 0 -174 77 -174 170c0 126 122 253 265 253c42 0 108 -17 141 -78zM268 60
c114 0 203 99 203 202c0 77 -58 123 -121 123c-113 0 -207 -98 -207 -199c0 -95 79 -126 125 -126zM524 618l-166 -115h-54l110 115h110z" />
    <glyph glyph-name="gbreve" unicode="&#x11f;" 
d="M511 430h132l-10 -47h-82l-75 -357c-24 -116 -80 -183 -240 -183c-34 0 -61 1 -85 2l12 53c29 -3 57 -6 93 -6c106 0 154 45 171 134l11 58l-2 2c-60 -57 -121 -75 -173 -75c-109 0 -174 77 -174 170c0 126 122 253 265 253c42 0 108 -17 141 -78zM268 60
c114 0 203 99 203 202c0 77 -58 123 -121 123c-113 0 -207 -98 -207 -199c0 -95 79 -126 125 -126zM261 624h46s1 -4 2 -4c24 -67 86 -67 99 -67c15 0 77 0 127 68c1 1 2 3 3 3h47c-32 -57 -72 -85 -107 -100c-35 -14 -65 -14 -76 -14c-92 0 -130 53 -141 114z" />
    <glyph glyph-name="gcircumflex" unicode="&#x11d;" 
d="M511 430h132l-10 -47h-82l-75 -357c-24 -116 -80 -183 -240 -183c-34 0 -61 1 -85 2l12 53c29 -3 57 -6 93 -6c106 0 154 45 171 134l11 58l-2 2c-60 -57 -121 -75 -173 -75c-109 0 -174 77 -174 170c0 126 122 253 265 253c42 0 108 -17 141 -78zM268 60
c114 0 203 99 203 202c0 77 -58 123 -121 123c-113 0 -207 -98 -207 -199c0 -95 79 -126 125 -126zM384 620h76l75 -94l-35 -23l-89 64l-102 -64l-28 25z" />
    <glyph glyph-name="gdotaccent" unicode="&#x121;" 
d="M511 430h132l-10 -47h-82l-75 -357c-24 -116 -80 -183 -240 -183c-34 0 -61 1 -85 2l12 53c29 -3 57 -6 93 -6c106 0 154 45 171 134l11 58l-2 2c-60 -57 -121 -75 -173 -75c-109 0 -174 77 -174 170c0 126 122 253 265 253c42 0 108 -17 141 -78zM268 60
c114 0 203 99 203 202c0 77 -58 123 -121 123c-113 0 -207 -98 -207 -199c0 -95 79 -126 125 -126zM371 513l23 108h72l-22 -108h-73z" />
    <glyph glyph-name="hcircumflex" unicode="&#x125;" 
d="M154 617l150 12l-53 -257c42 28 108 72 180 72c56 0 123 -39 123 -118c0 -22 -5 -47 -6 -53l-49 -226h85l-11 -47h-219l9 47h87l49 226c2 8 6 34 6 55c0 38 -37 65 -77 65c-72 0 -151 -54 -192 -83l-56 -263h82l-11 -47h-215l9 47h85l113 530l-95 -7zM394 802h76l75 -94
l-35 -23l-89 64l-102 -64l-28 25z" />
    <glyph glyph-name="iacute" unicode="&#xed;" 
d="M219 430h198l-81 -383h173l-10 -47h-400l10 47h176l71 336h-147zM534 618l-166 -115h-54l110 115h110z" />
    <glyph glyph-name="icircumflex" unicode="&#xee;" 
d="M219 430h198l-81 -383h173l-10 -47h-400l10 47h176l71 336h-147zM370 620h76l75 -94l-35 -23l-89 64l-102 -64l-28 25z" />
    <glyph glyph-name="idieresis" unicode="&#xef;" 
d="M219 430h198l-81 -383h173l-10 -47h-400l10 47h176l71 336h-147zM306 513l22 108h73l-23 -108h-72zM436 513l23 108h72l-23 -108h-72z" />
    <glyph glyph-name="igrave" unicode="&#xec;" 
d="M219 430h198l-81 -383h173l-10 -47h-400l10 47h176l71 336h-147zM319 618h105l61 -115h-50z" />
    <glyph glyph-name="imacron" unicode="&#x12b;" 
d="M219 430h198l-81 -383h173l-10 -47h-400l10 47h176l71 336h-147zM252 592h340l-11 -50h-340z" />
    <glyph glyph-name="itilde" unicode="&#x129;" 
d="M219 430h198l-81 -383h173l-10 -47h-400l10 47h176l71 336h-147zM547 618l38 -13c-45 -89 -100 -91 -116 -91c-24 0 -42 10 -66 32c-26 24 -35 29 -46 29c-35 0 -56 -37 -65 -53c-1 -2 -3 -4 -4 -5l-37 15c12 23 46 88 110 88c31 0 51 -18 68 -34s31 -27 48 -27
c38 0 61 42 70 59z" />
    <glyph glyph-name="lacute" unicode="&#x13a;" 
d="M233 597l219 14l-120 -564h175l-10 -47h-397l10 47h175l109 516l-166 -12zM534 800l-166 -115h-54l110 115h110z" />
    <glyph glyph-name="lcaron" unicode="&#x13e;" 
d="M233 597l219 14l-120 -564h175l-10 -47h-397l10 47h175l109 516l-166 -12zM447 685h-80l-64 94l35 23l79 -64l100 64l33 -25z" />
    <glyph glyph-name="nacute" unicode="&#x144;" 
d="M124 430h134l-14 -59c43 29 109 73 182 73c56 0 125 -38 125 -119c0 -21 -6 -46 -7 -52l-49 -226h85l-10 -47h-220l9 47h87l49 226c2 8 7 34 7 55c0 36 -35 65 -80 65c-64 0 -121 -34 -191 -81l-56 -265h83l-9 -47h-217l10 47h82l72 336h-83zM534 618l-166 -115h-54
l110 115h110z" />
    <glyph glyph-name="ncaron" unicode="&#x148;" 
d="M124 430h134l-14 -59c43 29 109 73 182 73c56 0 125 -38 125 -119c0 -21 -6 -46 -7 -52l-49 -226h85l-10 -47h-220l9 47h87l49 226c2 8 7 34 7 55c0 36 -35 65 -80 65c-64 0 -121 -34 -191 -81l-56 -265h83l-9 -47h-217l10 47h82l72 336h-83zM447 503h-80l-64 94l35 23
l79 -64l100 64l33 -25z" />
    <glyph glyph-name="ntilde" unicode="&#xf1;" 
d="M124 430h134l-14 -59c43 29 109 73 182 73c56 0 125 -38 125 -119c0 -21 -6 -46 -7 -52l-49 -226h85l-10 -47h-220l9 47h87l49 226c2 8 7 34 7 55c0 36 -35 65 -80 65c-64 0 -121 -34 -191 -81l-56 -265h83l-9 -47h-217l10 47h82l72 336h-83zM547 618l38 -13
c-45 -89 -100 -91 -116 -91c-24 0 -42 10 -66 32c-26 24 -35 29 -46 29c-35 0 -56 -37 -65 -53c-1 -2 -3 -4 -4 -5l-37 15c12 23 46 88 110 88c31 0 51 -18 68 -34s31 -27 48 -27c38 0 61 42 70 59z" />
    <glyph glyph-name="oacute" unicode="&#xf3;" 
d="M394 450c115 0 203 -62 203 -183c0 -129 -110 -281 -301 -281c-111 0 -205 57 -205 183c0 127 107 281 303 281zM387 403c-151 0 -242 -123 -242 -228c0 -70 44 -142 159 -142c149 0 239 126 239 227c0 82 -55 143 -156 143zM534 618l-166 -115h-54l110 115h110z" />
    <glyph glyph-name="ocircumflex" unicode="&#xf4;" 
d="M394 450c115 0 203 -62 203 -183c0 -129 -110 -281 -301 -281c-111 0 -205 57 -205 183c0 127 107 281 303 281zM387 403c-151 0 -242 -123 -242 -228c0 -70 44 -142 159 -142c149 0 239 126 239 227c0 82 -55 143 -156 143zM394 620h76l75 -94l-35 -23l-89 64l-102 -64
l-28 25z" />
    <glyph glyph-name="odieresis" unicode="&#xf6;" 
d="M394 450c115 0 203 -62 203 -183c0 -129 -110 -281 -301 -281c-111 0 -205 57 -205 183c0 127 107 281 303 281zM387 403c-151 0 -242 -123 -242 -228c0 -70 44 -142 159 -142c149 0 239 126 239 227c0 82 -55 143 -156 143zM306 513l22 108h73l-23 -108h-72zM436 513
l23 108h72l-23 -108h-72z" />
    <glyph glyph-name="ograve" unicode="&#xf2;" 
d="M394 450c115 0 203 -62 203 -183c0 -129 -110 -281 -301 -281c-111 0 -205 57 -205 183c0 127 107 281 303 281zM387 403c-151 0 -242 -123 -242 -228c0 -70 44 -142 159 -142c149 0 239 126 239 227c0 82 -55 143 -156 143zM319 618h105l61 -115h-50z" />
    <glyph glyph-name="ohungarumlaut" unicode="&#x151;" 
d="M394 450c115 0 203 -62 203 -183c0 -129 -110 -281 -301 -281c-111 0 -205 57 -205 183c0 127 107 281 303 281zM387 403c-151 0 -242 -123 -242 -228c0 -70 44 -142 159 -142c149 0 239 126 239 227c0 82 -55 143 -156 143zM475 617l-146 -113h-45l114 113h77zM601 617
l-146 -113h-45l114 113h77z" />
    <glyph glyph-name="omacron" unicode="&#x14d;" 
d="M394 450c115 0 203 -62 203 -183c0 -129 -110 -281 -301 -281c-111 0 -205 57 -205 183c0 127 107 281 303 281zM387 403c-151 0 -242 -123 -242 -228c0 -70 44 -142 159 -142c149 0 239 126 239 227c0 82 -55 143 -156 143zM252 592h340l-11 -50h-340z" />
    <glyph glyph-name="otilde" unicode="&#xf5;" 
d="M394 450c115 0 203 -62 203 -183c0 -129 -110 -281 -301 -281c-111 0 -205 57 -205 183c0 127 107 281 303 281zM387 403c-151 0 -242 -123 -242 -228c0 -70 44 -142 159 -142c149 0 239 126 239 227c0 82 -55 143 -156 143zM547 618l38 -13c-45 -89 -100 -91 -116 -91
c-24 0 -42 10 -66 32c-26 24 -35 29 -46 29c-35 0 -56 -37 -65 -53c-1 -2 -3 -4 -4 -5l-37 15c12 23 46 88 110 88c31 0 51 -18 68 -34s31 -27 48 -27c38 0 61 42 70 59z" />
    <glyph glyph-name="racute" unicode="&#x155;" 
d="M173 430h167l-20 -90l2 -2c43 44 104 103 194 103c14 0 95 0 116 -103l-56 -6c-8 27 -19 60 -67 60c-77 0 -164 -86 -207 -142l-43 -203h189l-10 -47h-365l10 47h125l72 336h-117zM534 618l-166 -115h-54l110 115h110z" />
    <glyph glyph-name="rcaron" unicode="&#x159;" 
d="M173 430h167l-20 -90l2 -2c43 44 104 103 194 103c14 0 95 0 116 -103l-56 -6c-8 27 -19 60 -67 60c-77 0 -164 -86 -207 -142l-43 -203h189l-10 -47h-365l10 47h125l72 336h-117zM447 503h-80l-64 94l35 23l79 -64l100 64l33 -25z" />
    <glyph glyph-name="sacute" unicode="&#x15b;" 
d="M541 448l35 -5c-14 -43 -24 -82 -29 -150h-42c0 37 1 103 -133 103c-91 0 -148 -46 -148 -92c0 -57 69 -61 166 -66c43 -2 148 -8 148 -98c0 -74 -78 -154 -221 -154c-81 0 -124 31 -135 42c-2 3 -7 8 -10 8c-7 0 -27 -40 -32 -51l-38 6c0 2 2 8 4 12c3 11 17 58 18 65
c1 9 5 56 5 65c1 3 1 11 2 15l44 6c-1 -35 -2 -49 8 -68c15 -28 64 -51 132 -51c89 0 170 37 170 102c0 46 -44 48 -129 53c-69 4 -186 10 -186 108c0 69 74 145 205 145c44 0 90 -10 123 -40c2 -2 7 -6 10 -6c9 0 18 19 28 41c2 3 4 9 5 10zM534 618l-166 -115h-54l110 115
h110z" />
    <glyph glyph-name="scaron" unicode="&#x161;" 
d="M541 448l35 -5c-14 -43 -24 -82 -29 -150h-42c0 37 1 103 -133 103c-91 0 -148 -46 -148 -92c0 -57 69 -61 166 -66c43 -2 148 -8 148 -98c0 -74 -78 -154 -221 -154c-81 0 -124 31 -135 42c-2 3 -7 8 -10 8c-7 0 -27 -40 -32 -51l-38 6c0 2 2 8 4 12c3 11 17 58 18 65
c1 9 5 56 5 65c1 3 1 11 2 15l44 6c-1 -35 -2 -49 8 -68c15 -28 64 -51 132 -51c89 0 170 37 170 102c0 46 -44 48 -129 53c-69 4 -186 10 -186 108c0 69 74 145 205 145c44 0 90 -10 123 -40c2 -2 7 -6 10 -6c9 0 18 19 28 41c2 3 4 9 5 10zM447 503h-80l-64 94l35 23
l79 -64l100 64l33 -25z" />
    <glyph glyph-name="scircumflex" unicode="&#x15d;" 
d="M541 448l35 -5c-14 -43 -24 -82 -29 -150h-42c0 37 1 103 -133 103c-91 0 -148 -46 -148 -92c0 -57 69 -61 166 -66c43 -2 148 -8 148 -98c0 -74 -78 -154 -221 -154c-81 0 -124 31 -135 42c-2 3 -7 8 -10 8c-7 0 -27 -40 -32 -51l-38 6c0 2 2 8 4 12c3 11 17 58 18 65
c1 9 5 56 5 65c1 3 1 11 2 15l44 6c-1 -35 -2 -49 8 -68c15 -28 64 -51 132 -51c89 0 170 37 170 102c0 46 -44 48 -129 53c-69 4 -186 10 -186 108c0 69 74 145 205 145c44 0 90 -10 123 -40c2 -2 7 -6 10 -6c9 0 18 19 28 41c2 3 4 9 5 10zM394 620h76l75 -94l-35 -23
l-89 64l-102 -64l-28 25z" />
    <glyph glyph-name="tcaron" unicode="&#x165;" 
d="M292 563h48l-31 -147h223l-10 -47h-222l-40 -189c-2 -9 -12 -60 -12 -85c0 -8 3 -60 83 -60c57 0 130 23 214 57v-50c-70 -29 -142 -56 -218 -56c-95 0 -131 58 -131 97c0 24 10 72 15 97l40 189h-68l10 47h67zM382 621h-80l-64 94l35 23l79 -64l100 64l33 -25z" />
    <glyph glyph-name="uacute" unicode="&#xfa;" 
d="M123 430h131l-56 -265c-1 -7 -7 -34 -7 -56c0 -23 17 -74 77 -74c86 0 164 72 182 89l55 259h-85l10 47h134l-80 -383h80l-10 -47h-130l11 52c-40 -28 -93 -66 -170 -66c-107 0 -124 92 -124 125c0 21 6 49 7 54l46 218h-81zM534 618l-166 -115h-54l110 115h110z" />
    <glyph glyph-name="ubreve" unicode="&#x16d;" 
d="M123 430h131l-56 -265c-1 -7 -7 -34 -7 -56c0 -23 17 -74 77 -74c86 0 164 72 182 89l55 259h-85l10 47h134l-80 -383h80l-10 -47h-130l11 52c-40 -28 -93 -66 -170 -66c-107 0 -124 92 -124 125c0 21 6 49 7 54l46 218h-81zM271 624h46s1 -4 2 -4c24 -67 86 -67 99 -67
c15 0 77 0 127 68c1 1 2 3 3 3h47c-32 -57 -72 -85 -107 -100c-35 -14 -65 -14 -76 -14c-92 0 -130 53 -141 114z" />
    <glyph glyph-name="ucircumflex" unicode="&#xfb;" 
d="M123 430h131l-56 -265c-1 -7 -7 -34 -7 -56c0 -23 17 -74 77 -74c86 0 164 72 182 89l55 259h-85l10 47h134l-80 -383h80l-10 -47h-130l11 52c-40 -28 -93 -66 -170 -66c-107 0 -124 92 -124 125c0 21 6 49 7 54l46 218h-81zM394 620h76l75 -94l-35 -23l-89 64l-102 -64
l-28 25z" />
    <glyph glyph-name="udieresis" unicode="&#xfc;" 
d="M123 430h131l-56 -265c-1 -7 -7 -34 -7 -56c0 -23 17 -74 77 -74c86 0 164 72 182 89l55 259h-85l10 47h134l-80 -383h80l-10 -47h-130l11 52c-40 -28 -93 -66 -170 -66c-107 0 -124 92 -124 125c0 21 6 49 7 54l46 218h-81zM306 513l22 108h73l-23 -108h-72zM436 513
l23 108h72l-23 -108h-72z" />
    <glyph glyph-name="ugrave" unicode="&#xf9;" 
d="M123 430h131l-56 -265c-1 -7 -7 -34 -7 -56c0 -23 17 -74 77 -74c86 0 164 72 182 89l55 259h-85l10 47h134l-80 -383h80l-10 -47h-130l11 52c-40 -28 -93 -66 -170 -66c-107 0 -124 92 -124 125c0 21 6 49 7 54l46 218h-81zM319 618h105l61 -115h-50z" />
    <glyph glyph-name="uhungarumlaut" unicode="&#x171;" 
d="M123 430h131l-56 -265c-1 -7 -7 -34 -7 -56c0 -23 17 -74 77 -74c86 0 164 72 182 89l55 259h-85l10 47h134l-80 -383h80l-10 -47h-130l11 52c-40 -28 -93 -66 -170 -66c-107 0 -124 92 -124 125c0 21 6 49 7 54l46 218h-81zM475 617l-146 -113h-45l114 113h77zM601 617
l-146 -113h-45l114 113h77z" />
    <glyph glyph-name="umacron" unicode="&#x16b;" 
d="M123 430h131l-56 -265c-1 -7 -7 -34 -7 -56c0 -23 17 -74 77 -74c86 0 164 72 182 89l55 259h-85l10 47h134l-80 -383h80l-10 -47h-130l11 52c-40 -28 -93 -66 -170 -66c-107 0 -124 92 -124 125c0 21 6 49 7 54l46 218h-81zM252 592h340l-11 -50h-340z" />
    <glyph glyph-name="uring" unicode="&#x16f;" 
d="M123 430h131l-56 -265c-1 -7 -7 -34 -7 -56c0 -23 17 -74 77 -74c86 0 164 72 182 89l55 259h-85l10 47h134l-80 -383h80l-10 -47h-130l11 52c-40 -28 -93 -66 -170 -66c-107 0 -124 92 -124 125c0 21 6 49 7 54l46 218h-81zM389 642c42 0 76 -34 76 -76s-34 -76 -76 -76
s-76 34 -76 76s34 76 76 76zM390 604c-21 0 -39 -14 -39 -38c0 -21 18 -38 39 -38s37 17 37 38s-16 38 -37 38z" />
    <glyph glyph-name="utilde" unicode="&#x169;" 
d="M123 430h131l-56 -265c-1 -7 -7 -34 -7 -56c0 -23 17 -74 77 -74c86 0 164 72 182 89l55 259h-85l10 47h134l-80 -383h80l-10 -47h-130l11 52c-40 -28 -93 -66 -170 -66c-107 0 -124 92 -124 125c0 21 6 49 7 54l46 218h-81zM547 618l38 -13c-45 -89 -100 -91 -116 -91
c-24 0 -42 10 -66 32c-26 24 -35 29 -46 29c-35 0 -56 -37 -65 -53c-1 -2 -3 -4 -4 -5l-37 15c12 23 46 88 110 88c31 0 51 -18 68 -34s31 -27 48 -27c38 0 61 42 70 59z" />
    <glyph glyph-name="yacute" unicode="&#xfd;" 
d="M438 430h217l-10 -47h-82l-73 -343c-18 -84 -43 -203 -249 -203c-41 0 -63 4 -95 9l11 54c27 -7 49 -14 95 -14c148 0 167 76 186 154l12 50l-2 2c-38 -35 -92 -77 -164 -77c-83 0 -138 56 -138 147c0 17 4 35 6 44l37 177h-76l9 47h218l-9 -47h-91l-38 -181
c-2 -11 -4 -23 -4 -38c0 -74 49 -100 95 -100c30 0 79 7 173 100l46 219h-85zM534 618l-166 -115h-54l110 115h110z" />
    <glyph glyph-name="ydieresis" unicode="&#xff;" 
d="M438 430h217l-10 -47h-82l-73 -343c-18 -84 -43 -203 -249 -203c-41 0 -63 4 -95 9l11 54c27 -7 49 -14 95 -14c148 0 167 76 186 154l12 50l-2 2c-38 -35 -92 -77 -164 -77c-83 0 -138 56 -138 147c0 17 4 35 6 44l37 177h-76l9 47h218l-9 -47h-91l-38 -181
c-2 -11 -4 -23 -4 -38c0 -74 49 -100 95 -100c30 0 79 7 173 100l46 219h-85zM306 513l22 108h73l-23 -108h-72zM436 513l23 108h72l-23 -108h-72z" />
    <glyph glyph-name="zacute" unicode="&#x17a;" 
d="M204 430h383l-10 -44l-395 -339h275l19 92h49l-30 -139h-393l10 47l392 336h-262l-19 -89h-48zM534 618l-166 -115h-54l110 115h110z" />
    <glyph glyph-name="zcaron" unicode="&#x17e;" 
d="M204 430h383l-10 -44l-395 -339h275l19 92h49l-30 -139h-393l10 47l392 336h-262l-19 -89h-48zM447 503h-80l-64 94l35 23l79 -64l100 64l33 -25z" />
    <glyph glyph-name="zdotaccent" unicode="&#x17c;" 
d="M204 430h383l-10 -44l-395 -339h275l19 92h49l-30 -139h-393l10 47l392 336h-262l-19 -89h-48zM371 513l23 108h72l-22 -108h-73z" />
  </font>
</defs>
</svg>
