<?xml version="1.0" standalone="no"?>
<!DOCTYPE svg PUBLIC "-//W3C//DTD SVG 1.1//EN" "http://www.w3.org/Graphics/SVG/1.1/DTD/svg11.dtd" >
<svg xmlns="http://www.w3.org/2000/svg" xmlns:xlink="http://www.w3.org/1999/xlink" version="1.1">
<metadata>
Created by FontForge 20201107 at Tue Oct 12 20:43:59 2021
 By Darren Embry
Copyright (c) IBM Corporation 1990,1991.
</metadata>
<defs>
<font id="IBMCourier-BoldItalic" horiz-adv-x="600" >
  <font-face 
    font-family="IBM Courier"
    font-weight="700"
    font-style="italic"
    font-stretch="normal"
    units-per-em="1000"
    panose-1="2 0 8 9 0 0 0 0 0 0"
    ascent="800"
    descent="-200"
    x-height="453"
    cap-height="583"
    bbox="-48 -288 860 839"
    underline-thickness="50"
    underline-position="-100"
    slope="-12"
    stemh=" 85 "
    stemv=" 87 "
    unicode-range="U+0020-FB04"
  />
    <missing-glyph />
    <glyph glyph-name="fi" unicode="fi" 
d="M556 443l-76 -361h121l-18 -82h-569l18 82h116l58 277h-116l18 84h116l9 38c18 75 38 162 140 162c37 0 63 -9 88 -17l-47 -86c-30 18 -46 19 -51 19c-20 0 -28 -14 -44 -85l-7 -31h244zM392 82l58 277h-156l-58 -277h156zM471 540l27 132h107l-28 -132h-106z" />
    <glyph glyph-name="fl" unicode="fl" 
d="M600 626l-115 -544h115l-18 -82h-568l18 82h115l58 277h-115l18 84h115l8 38c16 74 43 162 203 162c48 0 97 -7 142 -13c3 -1 21 -3 24 -4zM234 82h166l98 467c-21 4 -52 10 -88 10c-72 0 -79 -24 -93 -85l-7 -31h110l-20 -84h-108z" />
    <glyph glyph-name="ffl" unicode="&#xfb00;l" 
d="M-2 0l18 82h65l58 277h-65l18 84h65l12 38c1 3 2 12 3 16c17 87 72 146 192 146c48 0 70 -8 95 -18c7 3 18 8 33 11c16 3 37 7 63 7s57 -4 79 -10c24 -7 27 -6 33 -8l-115 -543h66l-18 -82h-602zM227 359l-58 -277h104l58 277h-104zM251 474l-6 -31h104l8 38
c2 6 3 10 12 44c4 15 7 21 12 30c-9 1 -21 4 -37 4c-74 0 -82 -28 -93 -85zM361 82h104l100 474c-6 1 -13 3 -29 3c-66 0 -79 -15 -93 -85l-6 -31h59l-18 -84h-60z" />
    <glyph glyph-name="ff" unicode="ff" 
d="M726 632l-39 -86c-29 9 -73 14 -86 14c-68 0 -77 -44 -86 -86l-7 -31h142l-18 -84h-142l-58 -277h142l-18 -82h-554l18 82h101l58 277h-101l18 84h101l11 38l3 13c17 75 57 149 194 149c26 0 70 -2 119 -19c18 8 38 13 58 16c19 3 38 3 53 3c50 0 68 -5 91 -11zM421 443
l8 38c4 17 9 38 21 69c-17 3 -41 9 -66 9c-75 0 -80 -29 -93 -85l-7 -31h137zM266 359l-58 -277h137l58 277h-137z" />
    <glyph glyph-name="ffi" unicode="&#xfb00;i" 
d="M559 631l-31 -84c-15 6 -25 10 -36 10c-28 0 -42 -41 -45 -58l-10 -56h192l-76 -361h62l-18 -82h-594l18 82h61l58 277h-66l18 84h66l11 38l4 16c20 79 66 146 189 146c39 0 60 -7 79 -12c7 3 14 6 23 8c10 2 22 4 39 4c21 0 30 -3 46 -9zM227 359l-58 -277h105l58 277
h-105zM252 474l-7 -31h105l8 38c3 15 11 52 20 73c-8 2 -18 5 -34 5c-74 0 -80 -30 -92 -85zM466 82l58 277h-105l-58 -277h105zM566 540l28 132h94l-28 -132h-94z" />
    <glyph glyph-name="space" unicode=" " 
 />
    <glyph glyph-name="exclam" unicode="!" 
d="M483 591l-106 -404h-83l66 404h123zM320 141c46 0 76 -32 76 -68c0 -47 -45 -89 -99 -89c-42 0 -76 29 -76 69c0 47 45 88 99 88z" />
    <glyph glyph-name="quotedbl" unicode="&#x22;" 
d="M257 583h133l-78 -311h-109zM459 583h132l-77 -311h-110z" />
    <glyph glyph-name="numbersign" unicode="#" 
d="M310 658h87l-54 -198h152l54 198h86l-50 -198h87l-21 -93h-93l-36 -140h101l-21 -93h-107l-56 -207h-86l55 207h-151l-57 -207h-86l55 207h-90l22 93h96l36 140h-105l22 93h107zM471 367h-152l-39 -140h153z" />
    <glyph glyph-name="dollar" unicode="$" 
d="M400 672h71l-19 -104c23 -8 39 -15 60 -40l26 64l74 -15c-31 -71 -39 -97 -54 -164l-72 -13c2 61 1 74 -52 83l-34 -161c67 -20 139 -45 139 -130c0 -115 -121 -172 -202 -176l-33 -146h-71l33 146c-44 8 -61 17 -84 39l-21 -55l-70 23c30 67 37 96 46 164l74 16
c-1 -8 -2 -42 -2 -47c0 -50 36 -54 74 -56l31 158c-43 12 -132 38 -132 132c0 88 85 180 199 182zM329 340l35 146c-49 -11 -91 -42 -91 -90c0 -41 41 -52 56 -56zM384 238l-30 -138c90 8 94 75 94 83c0 30 -18 40 -49 50c-5 2 -13 5 -15 5z" />
    <glyph glyph-name="percent" unicode="%" 
d="M482 274c87 0 125 -62 125 -118c0 -80 -78 -170 -183 -170c-91 0 -126 65 -126 117c0 80 77 171 184 171zM471 206c-59 0 -97 -52 -97 -94c0 -34 21 -58 60 -58c58 0 97 52 97 94c0 37 -25 58 -60 58zM304 634c83 0 126 -59 126 -118c0 -77 -74 -170 -184 -170
c-90 0 -126 63 -126 117c0 82 80 171 184 171zM293 566c-57 0 -97 -52 -97 -94s32 -58 61 -58c58 0 97 51 97 93c0 37 -25 59 -61 59zM598 423l15 -52l-464 -168l-14 51z" />
    <glyph glyph-name="ampersand" unicode="&#x26;" 
d="M472 310h93l-19 -84h-25c-22 -49 -40 -77 -71 -111l15 -33h47l-18 -82h-86l-23 46c-29 -20 -73 -53 -142 -53c-72 0 -133 47 -133 132c0 18 0 127 145 197c-1 2 -5 12 -8 18c-10 27 -17 45 -17 74c0 94 90 148 167 148c25 0 36 -3 66 -12c3 -1 14 -5 23 -5c6 0 24 4 30 6
c2 1 15 7 18 8c4 2 10 4 12 5l-52 -153c-28 35 -52 65 -101 65c-46 0 -75 -32 -75 -56c0 -17 6 -40 27 -85l63 -136c36 45 49 73 64 111zM349 123l-59 125c-42 -21 -89 -62 -89 -117c0 -19 8 -52 54 -52c45 0 73 25 94 44z" />
    <glyph glyph-name="quoteright" unicode="&#x2019;" 
d="M365 583h146l-180 -274h-110z" />
    <glyph glyph-name="parenleft" unicode="(" 
d="M530 666h100l-32 -42c-1 -2 -8 -11 -9 -13c-163 -219 -179 -346 -179 -434c0 -76 13 -143 38 -223c1 -2 4 -11 4 -12c1 -2 6 -19 7 -22c1 -2 3 -11 4 -13h-88c-43 97 -61 185 -61 281c0 200 131 379 216 478z" />
    <glyph glyph-name="parenright" unicode=")" 
d="M181 -93h-99c9 13 11 16 21 29c106 138 199 282 199 461c0 95 -19 155 -50 257c0 1 -3 10 -4 12h88c2 -5 3 -6 5 -10c2 -5 2 -6 4 -10c42 -84 53 -185 53 -260c0 -57 -3 -168 -122 -353c-44 -68 -77 -105 -92 -122z" />
    <glyph glyph-name="asterisk" unicode="*" 
d="M370 587h108l-35 -134l136 48l11 -104l-138 -36l62 -105l-97 -63l-52 112l-99 -112l-74 63l106 105l-123 36l54 104l118 -48z" />
    <glyph glyph-name="plus" unicode="+" 
d="M319 553h88v-197h202v-88h-202v-197h-88v197h-202v88h202v197z" />
    <glyph glyph-name="comma" unicode="," 
d="M274 168h146l-181 -274h-110z" />
    <glyph glyph-name="hyphen" unicode="-" 
d="M254 345h221v-92h-221v92z" />
    <glyph glyph-name="period" unicode="." 
d="M329 154c38 0 79 -25 79 -70c0 -56 -56 -100 -111 -100c-41 0 -80 25 -80 70c0 57 58 100 112 100z" />
    <glyph glyph-name="slash" unicode="/" 
d="M594 728l75 -35l-551 -821l-74 37z" />
    <glyph glyph-name="zero" unicode="0" 
d="M425 639c146 0 154 -141 154 -186c0 -123 -55 -467 -281 -467c-147 0 -156 138 -156 186c0 122 55 467 283 467zM418 555c-131 0 -185 -264 -185 -384c0 -35 8 -101 69 -101c138 0 186 279 186 382c0 29 -3 103 -70 103z" />
    <glyph glyph-name="one" unicode="1" 
d="M197 547l227 92h59l-117 -557h165l-17 -82h-423l18 82h168l95 446l-156 -63z" />
    <glyph glyph-name="two" unicode="2" 
d="M435 180h84l-38 -180h-417l17 82c23 16 46 33 66 48c183 137 258 196 293 233c43 46 49 93 49 112c0 42 -39 77 -95 77c-47 0 -91 -25 -109 -52c-10 -16 -12 -30 -15 -47h-91l20 91c58 56 129 95 212 95c87 0 168 -64 168 -163c0 -121 -84 -199 -356 -392v-2h191z" />
    <glyph glyph-name="three" unicode="3" 
d="M68 46l49 76c36 -20 95 -50 155 -50c96 0 156 74 156 142c0 70 -67 77 -95 76l-60 -2l18 84c45 1 74 1 103 18c37 22 63 61 63 103s-37 58 -72 58c-48 0 -80 -16 -163 -62l-31 77c72 41 130 73 201 73c93 0 156 -65 156 -136c0 -30 -6 -109 -87 -165
c58 -46 58 -105 58 -120c0 -115 -107 -232 -254 -232c-64 0 -108 20 -154 41c-6 3 -37 16 -43 19z" />
    <glyph glyph-name="four" unicode="4" 
d="M537 639l-82 -398h87l-16 -76h-88l-18 -83h90l-21 -82h-305l21 82h128l20 83h-259l16 79l328 395h99zM204 241h164l61 276l-2 2z" />
    <glyph glyph-name="five" unicode="5" 
d="M239 625h363l-18 -86h-279l-31 -145c22 7 53 16 93 16c102 0 177 -60 177 -167c0 -110 -92 -257 -265 -257c-94 0 -161 33 -205 55l47 77c45 -22 98 -44 159 -44c123 0 171 96 171 162c0 47 -27 90 -96 90c-62 0 -109 -30 -139 -50l-45 28z" />
    <glyph glyph-name="six" unicode="6" 
d="M632 637l-24 -85c-32 1 -51 1 -68 1c-120 0 -206 -33 -278 -188l2 -2c20 13 56 33 110 33c84 0 158 -56 158 -166c0 -126 -110 -244 -232 -244c-97 0 -170 73 -170 192c0 126 81 461 406 461c6 0 81 -2 96 -2zM223 215c-1 -9 -3 -15 -3 -31c0 -110 76 -112 86 -112
c80 0 135 82 135 154c0 18 -6 84 -71 84c-46 0 -112 -30 -147 -95z" />
    <glyph glyph-name="seven" unicode="7" 
d="M240 625h419l-15 -73l-308 -552h-103l310 539h-234l-18 -86h-88z" />
    <glyph glyph-name="eight" unicode="8" 
d="M238 323c-44 42 -44 95 -44 108c0 111 110 208 231 208c108 0 166 -76 166 -149c0 -16 0 -101 -104 -174c53 -47 53 -102 53 -112c0 -104 -100 -218 -243 -218c-118 0 -175 77 -175 157c0 76 55 145 112 178c0 0 3 1 4 2zM419 555c-75 0 -134 -58 -134 -123
c0 -31 22 -75 80 -75c66 0 135 60 135 126c0 46 -34 72 -81 72zM359 275c-87 0 -146 -67 -146 -128c0 -52 44 -77 90 -77c74 0 146 58 146 127c0 75 -75 78 -90 78z" />
    <glyph glyph-name="nine" unicode="9" 
d="M80 -12l24 85c32 -1 51 -1 68 -1c120 0 206 33 278 188l-2 2c-20 -13 -56 -33 -110 -33c-84 0 -158 56 -158 166c0 126 110 244 232 244c97 0 170 -73 170 -192c0 -126 -81 -461 -406 -461c-6 0 -81 2 -96 2zM489 410c1 9 3 15 3 31c0 110 -76 112 -86 112
c-80 0 -135 -82 -135 -154c0 -18 6 -84 71 -84c46 0 112 30 147 95z" />
    <glyph glyph-name="colon" unicode=":" 
d="M384 416c46 0 80 -30 80 -69c0 -59 -60 -101 -111 -101c-40 0 -80 25 -80 70c0 58 57 100 111 100zM329 154c35 0 79 -22 79 -70c0 -57 -57 -100 -111 -100c-40 0 -80 25 -80 70c0 58 59 100 112 100z" />
    <glyph glyph-name="semicolon" unicode=";" 
d="M278 169h146l-181 -274h-109zM386 419c44 0 79 -29 79 -70c0 -57 -57 -100 -111 -100c-44 0 -80 28 -80 70c0 56 55 100 112 100z" />
    <glyph glyph-name="less" unicode="&#x3c;" 
d="M581 556l36 -79l-348 -159l347 -163l-35 -80l-512 244z" />
    <glyph glyph-name="equal" unicode="=" 
d="M117 444h495v-88h-495v88zM117 269h495v-88h-495v88z" />
    <glyph glyph-name="greater" unicode="&#x3e;" 
d="M133 556l511 -237l-511 -244l-36 80l348 163l-348 159z" />
    <glyph glyph-name="question" unicode="?" 
d="M189 420l29 134c84 27 118 38 179 38c136 0 177 -84 177 -148c0 -151 -160 -195 -217 -211l-11 -54h-88l26 123l20 5c4 1 10 2 11 3c63 14 168 39 168 130c0 65 -75 66 -90 66c-40 0 -62 -6 -101 -20l-15 -66h-88zM285 142c46 0 77 -31 77 -69c0 -48 -47 -89 -98 -89
c-47 0 -77 32 -77 69c0 48 46 89 98 89z" />
    <glyph glyph-name="at" unicode="@" 
d="M540 126l19 -60c-132 -70 -225 -78 -277 -78c-184 0 -212 146 -212 206c0 176 116 398 363 398c151 0 220 -91 220 -194c0 -128 -85 -266 -204 -266c-31 0 -59 16 -73 43c-46 -40 -83 -46 -104 -46c-31 0 -67 25 -67 77c0 97 104 244 206 244c27 0 38 -14 47 -26l10 21
h72l-82 -169c-6 -12 -19 -40 -19 -51c0 -13 10 -25 28 -25c55 0 116 93 116 186c0 130 -123 140 -166 140c-176 0 -274 -169 -274 -312c0 -109 58 -158 156 -158c94 0 164 33 241 70zM293 199c47 0 115 106 115 155c0 14 -7 26 -18 26c-42 0 -112 -106 -112 -157
c0 -3 0 -24 15 -24z" />
    <glyph glyph-name="A" unicode="A" 
d="M218 583h240l98 -501h58l-18 -82h-239l18 82h89l-17 97h-224l-60 -97h88l-18 -82h-239l18 82h56l259 419h-127zM432 263l-38 190l-120 -190h158z" />
    <glyph glyph-name="B" unicode="B" 
d="M151 583h279c31 0 178 0 178 -133c0 -89 -59 -130 -80 -144c58 -35 61 -89 61 -109c0 -65 -38 -117 -72 -145c-62 -51 -144 -52 -209 -52h-281l18 82h81l88 419h-81zM419 501h-117l-33 -156h101c147 0 147 95 147 101c0 55 -73 55 -98 55zM358 261h-106l-38 -179h98
c50 0 111 1 147 30c23 19 39 48 39 78c0 42 -29 71 -140 71z" />
    <glyph glyph-name="C" unicode="C" 
d="M608 588l76 -19c-16 -35 -46 -98 -55 -216l-79 5c2 21 5 41 5 61c0 81 -79 94 -116 94c-131 0 -245 -133 -245 -295c0 -50 13 -148 152 -148c92 0 140 34 204 78l47 -73c-54 -39 -127 -91 -255 -91c-170 0 -239 106 -239 237c0 209 162 378 342 378c33 0 102 -6 142 -71z
" />
    <glyph glyph-name="D" unicode="D" 
d="M141 583h256c86 0 123 -10 157 -34c38 -27 75 -86 75 -171c0 -29 -8 -171 -107 -284c-82 -93 -194 -94 -241 -94h-264l18 82h77l88 419h-77zM391 501h-102l-88 -419h88c37 0 112 0 167 67c64 78 80 176 80 220c0 67 -26 99 -39 110c-17 15 -40 22 -106 22z" />
    <glyph glyph-name="E" unicode="E" 
d="M164 583h499l-41 -216h-84l19 134h-240l-32 -151h116l15 70h85l-48 -225h-84l14 69h-116l-38 -182h248l33 135h85l-47 -217h-508l18 82h82l89 419h-83z" />
    <glyph glyph-name="F" unicode="F" 
d="M179 583h491l-39 -216h-82l16 134h-238l-32 -151h116l15 71h85l-48 -225h-85l15 68h-116l-38 -182h126l-18 -82h-292l18 82h79l87 419h-78z" />
    <glyph glyph-name="G" unicode="G" 
d="M363 278h279l-18 -84h-46l-34 -159l-14 -5c-54 -20 -123 -46 -212 -46c-149 0 -233 93 -233 232c0 190 149 383 341 383c91 0 129 -55 143 -75l20 63l81 -17c-23 -53 -47 -126 -52 -208l-83 -14c2 34 2 44 2 55c0 96 -77 112 -116 112c-135 0 -243 -145 -243 -297
c0 -100 55 -148 154 -148c65 0 116 20 137 28l20 96h-144z" />
    <glyph glyph-name="H" unicode="H" 
d="M146 583h234l-18 -82h-73l-33 -158h223l34 158h-73l18 82h234l-18 -82h-73l-88 -419h73l-18 -82h-234l18 82h73l37 177h-223l-38 -177h73l-18 -82h-234l18 82h73l88 419h-73z" />
    <glyph glyph-name="I" unicode="I" 
d="M204 583h427l-18 -82h-169l-88 -419h169l-18 -82h-427l18 82h169l89 419h-170z" />
    <glyph glyph-name="J" unicode="J" 
d="M306 583h402l-18 -82h-123l-61 -288c-15 -73 -28 -110 -50 -141c-39 -55 -103 -88 -174 -88c-74 0 -140 27 -221 68l41 240h88l-20 -117c-3 -12 -5 -30 -5 -44c0 -41 68 -61 113 -61c106 0 123 65 141 151l59 280h-190z" />
    <glyph glyph-name="K" unicode="K" 
d="M167 583h246l-20 -82h-74l-31 -153l198 151v2h-44l17 82h230l-18 -82h-51l-227 -178c46 -72 65 -115 109 -224l7 -17h102l-18 -82h-148c-41 114 -63 163 -126 270l-57 -43l-31 -145h82l-18 -82h-252l18 82h82l88 419h-82z" />
    <glyph glyph-name="L" unicode="L" 
d="M165 583h304l-18 -82h-119l-89 -419h235l52 196h89l-72 -278h-506l18 82h96l88 419h-96z" />
    <glyph glyph-name="M" unicode="M" 
d="M118 583h194l41 -293h12l158 293h192l-18 -82h-61l-74 -419h59l-18 -82h-250l17 82h103l59 338h-18l-144 -269h-79l-43 280h-18l-85 -349h103l-18 -82h-243l18 82h53l103 419h-61z" />
    <glyph glyph-name="N" unicode="N" 
d="M130 583h183l142 -437h18l75 355h-93l18 82h241l-18 -82h-60l-109 -513h-106l-146 444h-18l-74 -350h96l-18 -82h-249l18 82h65l88 419h-71z" />
    <glyph glyph-name="O" unicode="O" 
d="M80 224c0 165 133 375 335 375c181 0 218 -153 218 -234c0 -181 -140 -381 -336 -381c-195 0 -217 178 -217 240zM173 227c0 -43 12 -159 129 -159c133 0 238 152 238 294c0 43 -17 153 -130 153c-137 0 -237 -160 -237 -288z" />
    <glyph glyph-name="P" unicode="P" 
d="M198 583h235c52 0 120 -2 164 -40c34 -29 51 -74 51 -118c0 -60 -35 -120 -76 -156c-63 -56 -140 -56 -246 -56h-41l-26 -131h141l-18 -82h-307l18 82h78l88 419h-79zM427 501h-81l-43 -204h30c93 0 147 3 180 33c25 23 44 59 44 94c0 77 -73 77 -130 77z" />
    <glyph glyph-name="Q" unicode="Q" 
d="M502 -7l42 -67c-36 -23 -77 -49 -130 -49c-35 0 -56 10 -86 24c-26 12 -41 17 -60 17c-30 0 -52 -7 -74 -17c-10 -4 -53 -27 -62 -31l-28 76c36 17 55 32 87 62c-53 21 -111 102 -111 202c0 205 149 389 337 389c87 0 216 -53 216 -233c0 -152 -101 -355 -299 -372v-2
c14 -4 17 -6 48 -20c9 -3 24 -9 41 -9c19 0 32 4 65 23c5 2 12 6 14 7zM173 227c0 -43 12 -159 129 -159c133 0 238 152 238 294c0 43 -17 153 -130 153c-137 0 -237 -160 -237 -288z" />
    <glyph glyph-name="R" unicode="R" 
d="M152 583h262c65 0 183 0 183 -135c0 -66 -39 -124 -87 -157c-27 -18 -50 -26 -81 -35c36 -76 53 -113 74 -174h97l-18 -82h-153c-23 86 -58 169 -97 249h-84l-35 -167h88l-20 -82h-253l18 82h79l88 419h-79zM408 501h-107l-36 -168h68c39 0 91 -1 127 26
c24 18 48 49 48 87c0 55 -39 55 -100 55z" />
    <glyph glyph-name="S" unicode="S" 
d="M569 606l76 -23c-43 -88 -48 -117 -65 -212l-76 12c3 14 6 29 6 49c0 72 -62 84 -105 84c-88 0 -146 -48 -146 -103c0 -67 66 -71 107 -74c38 -2 78 -5 118 -27c36 -21 72 -57 72 -124c0 -76 -59 -202 -246 -202c-91 0 -124 27 -159 62l-20 -66l-82 13
c34 89 41 117 52 209h77c0 -49 -1 -54 5 -69c20 -50 88 -60 128 -60c103 0 154 57 154 110c0 57 -52 61 -118 66c-56 5 -92 18 -118 37c-37 28 -61 77 -61 124c0 91 87 190 233 190c53 0 105 -16 139 -60z" />
    <glyph glyph-name="T" unicode="T" 
d="M172 583h501l-34 -242h-87l22 160h-126l-87 -419h118l-18 -82h-322l18 82h116l88 419h-125l-45 -160h-88z" />
    <glyph glyph-name="U" unicode="U" 
d="M138 583h257l-18 -82h-98l-55 -259c-4 -19 -13 -65 -13 -97c0 -73 84 -73 97 -73c139 0 156 84 174 170l54 259h-98l18 82h252l-17 -82h-69l-57 -272c-24 -110 -47 -153 -88 -186c-54 -44 -121 -59 -175 -59c-93 0 -179 49 -179 156c0 20 2 48 15 112l53 249h-71z" />
    <glyph glyph-name="V" unicode="V" 
d="M116 583h247l-19 -82h-84l63 -376l224 376h-88l18 82h246l-18 -82h-64l-297 -501h-89l-83 501h-74z" />
    <glyph glyph-name="W" unicode="W" 
d="M112 583h230l-18 -82h-96l-23 -300l2 -2l161 272h61l38 -276h2l106 306h-95l18 82h229l-18 -82h-47l-177 -501h-79l-43 311h-2l-176 -311h-81l39 501h-49z" />
    <glyph glyph-name="X" unicode="X" 
d="M159 583h228l-19 -82h-61l66 -130l120 130h-50l18 82h217l-18 -82h-56l-193 -199l117 -220h63l-18 -82h-236l18 82h72l-79 154l-147 -154h80l-18 -82h-247l18 82h56l217 227l-101 192h-65z" />
    <glyph glyph-name="Y" unicode="Y" 
d="M138 583h231l-18 -82h-61l71 -184l148 184h-57l19 82h227l-18 -82h-67l-227 -281l-29 -138h114l-19 -82h-314l16 82h116l30 147l-106 272h-73z" />
    <glyph glyph-name="Z" unicode="Z" 
d="M196 583h429l-15 -70l-406 -431h252l33 159h85l-51 -241h-457l15 74l401 427h-218l-30 -143h-86z" />
    <glyph glyph-name="bracketleft" unicode="[" 
d="M426 672h210l-19 -87h-121l-125 -589h121l-18 -87h-210z" />
    <glyph glyph-name="backslash" unicode="\" 
d="M298 735l203 -835l-82 -34l-203 836z" />
    <glyph glyph-name="bracketright" unicode="]" 
d="M285 -91h-210l19 87h121l125 589h-121l18 87h210z" />
    <glyph glyph-name="asciicircum" unicode="^" 
d="M602 153h-107l-133 328l-127 -328h-107l167 430h134z" />
    <glyph glyph-name="underscore" unicode="_" 
d="M-48 -75h696v-50h-696v50z" />
    <glyph glyph-name="quoteleft" unicode="&#x2018;" 
d="M365 309h-146l180 274h110z" />
    <glyph glyph-name="a" unicode="a" 
d="M535 301l-46 -219h86l-18 -82h-175l8 36c-40 -20 -100 -50 -172 -50c-90 0 -148 61 -148 133c0 80 78 188 262 188c44 0 76 -4 115 -9c0 15 0 16 2 29c1 8 2 15 2 18c0 37 -52 43 -78 43c-52 0 -111 -17 -160 -36c-17 -7 -19 -7 -29 -11l-18 83c7 2 8 3 15 5c3 2 6 3 7 3
c47 17 115 42 196 42c87 0 158 -41 158 -120c0 -20 -6 -47 -7 -53zM413 146l15 69c-30 4 -58 8 -97 8c-143 0 -170 -73 -170 -100c0 -33 35 -51 62 -51c62 0 154 47 190 74z" />
    <glyph glyph-name="b" unicode="b" 
d="M124 638l179 10l-51 -240c45 30 97 50 152 50c102 0 197 -69 197 -192c0 -140 -135 -275 -281 -275c-80 0 -128 40 -144 57l-11 -48h-164l18 82h78l100 474l-86 -4zM403 372c-109 0 -194 -97 -194 -184c0 -70 52 -111 117 -111c97 0 182 93 182 185
c0 75 -55 110 -105 110z" />
    <glyph glyph-name="c" unicode="c" 
d="M548 473l70 -14c-28 -66 -36 -109 -39 -187l-80 -11c2 37 2 43 2 53c0 68 -83 69 -104 69c-131 0 -208 -104 -208 -197c0 -106 98 -114 120 -114c68 0 134 34 211 82l37 -75c-63 -39 -150 -93 -257 -93c-95 0 -203 57 -203 196c0 149 134 287 297 287
c85 0 120 -36 134 -51z" />
    <glyph glyph-name="d" unicode="d" 
d="M398 626l244 22l-119 -566h81l-18 -82h-169l8 38c-30 -21 -82 -48 -149 -48c-126 0 -194 95 -194 190c0 148 138 277 280 277c56 0 100 -18 141 -55l31 149l-164 -12zM467 257c0 84 -57 114 -107 114c-101 0 -185 -88 -185 -185c0 -80 60 -110 103 -110
c111 0 189 102 189 181z" />
    <glyph glyph-name="e" unicode="e" 
d="M545 139l25 -81c-53 -26 -159 -72 -256 -72c-134 0 -215 75 -215 192c0 146 126 291 299 291c140 0 204 -88 204 -179c0 -26 -5 -47 -14 -75l-6 -19h-392c1 -39 3 -122 129 -122c74 0 144 29 226 65zM216 278h295c-1 23 -2 105 -119 105c-110 0 -160 -79 -176 -105z" />
    <glyph glyph-name="f" unicode="f" 
d="M172 443h101l9 41c17 78 46 159 199 159c5 0 82 0 167 -18l-44 -85c-42 8 -101 19 -142 19c-77 0 -82 -34 -94 -88l-6 -28h179l-18 -84h-179l-58 -277h176l-18 -82h-366l18 82h102l57 277h-101z" />
    <glyph glyph-name="g" unicode="g" 
d="M488 453h167l-18 -82h-79l-70 -328c-13 -61 -42 -192 -250 -192c-44 0 -79 4 -106 8l19 87c26 -5 50 -9 90 -9s132 1 154 86l8 31c-19 -12 -66 -43 -140 -43c-112 0 -187 80 -187 182c0 136 128 266 276 266c67 0 106 -33 126 -50zM269 97c100 0 176 88 176 177
c0 55 -42 99 -98 99c-94 0 -178 -86 -178 -173c0 -62 44 -103 100 -103z" />
    <glyph glyph-name="h" unicode="h" 
d="M140 634l188 14l-49 -228c22 13 81 48 145 48c74 0 141 -53 141 -133c0 -23 -6 -50 -7 -55l-41 -198h81l-19 -82h-251l16 82h84l43 205c2 6 8 32 8 49c0 28 -32 44 -57 44c-65 0 -142 -55 -167 -73l-48 -225h80l-18 -82h-248l16 82h82l101 473l-90 -6z" />
    <glyph glyph-name="i" unicode="i" 
d="M209 453h231l-79 -371h167l-18 -82h-425l18 82h170l61 289h-143zM352 540l28 132h106l-27 -132h-107z" />
    <glyph glyph-name="j" unicode="j" 
d="M166 453h335l-84 -396c-11 -51 -44 -203 -242 -203c-60 0 -112 12 -153 22l39 83c35 -8 82 -19 131 -19c112 0 128 71 139 125l61 306h-244zM392 540l28 132h107l-28 -132h-107z" />
    <glyph glyph-name="k" unicode="k" 
d="M121 633l188 15l-76 -353l129 74v2h-33l19 82h249l-18 -82h-76l-174 -111c65 -81 93 -117 130 -178h95l-18 -82h-240l18 82h41c-41 57 -59 81 -101 130l-44 -29l-39 -183h-168l18 82h80l100 473l-90 -8z" />
    <glyph glyph-name="l" unicode="l" 
d="M217 615l254 16l-116 -549h169l-18 -82h-424l18 82h169l97 459l-158 -11z" />
    <glyph glyph-name="m" unicode="m" 
d="M91 453h141l-6 -28c29 22 55 40 93 40c53 0 70 -32 79 -48c20 15 62 48 115 48c63 0 106 -45 106 -100c0 -30 -10 -74 -12 -84l-42 -199h47l-18 -82h-134l61 284c0 4 10 47 10 66c0 10 -6 29 -31 29c-38 0 -76 -41 -88 -53l-51 -244h60l-18 -82h-146l61 288
c3 16 9 41 9 56c0 10 -6 35 -30 35c-37 0 -73 -37 -90 -53l-51 -244h70l-19 -82h-212l18 82h59l59 289h-59z" />
    <glyph glyph-name="n" unicode="n" 
d="M113 453h170l-9 -33c58 33 105 48 148 48c68 0 139 -48 139 -133c0 -22 -5 -50 -7 -55l-41 -198h81l-18 -82h-252l16 82h85l43 205c1 5 7 33 7 48c0 27 -28 45 -59 45s-75 -8 -165 -71l-48 -227h80l-17 -82h-250l18 82h79l62 289h-80z" />
    <glyph glyph-name="o" unicode="o" 
d="M391 474c126 0 216 -72 216 -197c0 -135 -116 -291 -311 -291c-121 0 -217 66 -217 197c0 136 115 291 312 291zM384 388c-136 0 -212 -110 -212 -200c0 -62 37 -116 131 -116c131 0 211 109 211 199c0 60 -37 117 -130 117z" />
    <glyph glyph-name="p" unicode="p" 
d="M100 453h167l-7 -34c35 22 82 48 152 48c138 0 195 -103 195 -191c0 -124 -113 -283 -279 -283c-87 0 -126 38 -147 58l-25 -121h144l-17 -82h-312l18 82h79l93 441h-79zM409 381c-110 0 -198 -92 -198 -190c0 -71 62 -112 116 -112c99 0 189 96 189 193
c0 62 -37 109 -107 109z" />
    <glyph glyph-name="q" unicode="q" 
d="M515 453h167l-18 -82h-80l-92 -437h80l-18 -82h-311l18 82h144l22 108c-20 -14 -73 -50 -153 -50c-126 0 -196 94 -196 193c0 143 136 280 285 280c16 0 87 0 142 -57zM275 78c101 0 198 83 198 189c0 73 -56 112 -118 112c-102 0 -186 -103 -186 -186
c0 -63 40 -115 106 -115z" />
    <glyph glyph-name="r" unicode="r" 
d="M162 453h200l-12 -54l2 -2c60 57 119 67 157 67c115 0 132 -110 136 -133l-92 -12c-4 24 -10 59 -51 59c-73 0 -151 -89 -183 -126l-36 -170h184l-18 -82h-392l18 82h121l61 289h-113z" />
    <glyph glyph-name="s" unicode="s" 
d="M520 476l70 -10c-30 -88 -35 -128 -37 -168h-78c2 8 2 13 2 23c0 22 -3 35 -23 46c-18 10 -58 16 -86 16c-76 0 -123 -36 -123 -67c0 -28 27 -38 110 -43c82 -5 195 -10 195 -116c0 -97 -110 -168 -230 -168c-52 0 -104 13 -145 47l-16 -51l-78 11c25 67 32 108 36 173
l80 5c0 -33 0 -37 3 -48c14 -51 107 -51 115 -51c70 0 144 27 144 79c0 13 0 26 -73 30c-4 0 -28 1 -33 2c-68 3 -199 11 -199 123c0 89 97 160 214 160c8 0 90 0 134 -44z" />
    <glyph glyph-name="t" unicode="t" 
d="M276 583h87l-29 -142h214l-17 -84h-215l-37 -168c-5 -25 -12 -57 -12 -74c0 -42 51 -43 61 -43c51 0 91 12 229 66v-91c-99 -42 -172 -61 -231 -61c-98 0 -147 61 -147 115c0 19 3 36 16 97l34 159h-67l18 84h66z" />
    <glyph glyph-name="u" unicode="u" 
d="M113 453h168l-60 -278c-1 -6 -6 -31 -6 -49c0 -15 10 -54 54 -54c50 0 107 28 158 77l47 222h-82l18 82h170l-78 -371h78l-18 -82h-166l8 30c-22 -14 -66 -44 -137 -44c-117 0 -140 99 -140 141c0 22 6 51 7 56l40 188h-78z" />
    <glyph glyph-name="v" unicode="v" 
d="M102 453h246l-18 -82h-69l61 -248l167 248h-62l18 82h236l-18 -82h-76l-253 -371h-73l-95 371h-82z" />
    <glyph glyph-name="w" unicode="w" 
d="M84 453h212l-18 -82h-75l16 -210h2l125 210h62l32 -214h2l107 214h-72l18 82h204l-18 -82h-41l-186 -371h-80l-31 211h-2l-121 -211h-76l-31 371h-47z" />
    <glyph glyph-name="x" unicode="x" 
d="M121 453h227l-18 -82h-36l58 -75l94 73v2h-36l18 82h224l-18 -82h-63l-169 -138l119 -151h77l-18 -82h-237l18 82h45l-72 96l-112 -96h43l-18 -82h-237l18 82h67l188 158l-103 131h-77z" />
    <glyph glyph-name="y" unicode="y" 
d="M421 453h246l-18 -82h-80l-67 -316c-17 -79 -45 -212 -257 -212c-48 0 -88 7 -118 12l20 91c27 -7 63 -17 110 -17c127 0 142 66 158 131c-23 -15 -66 -45 -132 -45c-87 0 -151 59 -151 161c0 18 4 38 5 46l32 149h-74l17 82h239l-18 -82h-75l-34 -161
c-3 -16 -4 -28 -4 -33c0 -57 36 -76 73 -76c22 0 63 4 149 87l39 183h-78z" />
    <glyph glyph-name="z" unicode="z" 
d="M191 453h410l-15 -71l-346 -300h195l19 92h87l-37 -174h-420l16 75l344 296h-184l-20 -87h-85z" />
    <glyph glyph-name="braceleft" unicode="{" 
d="M613 669l-18 -87c-111 -2 -126 -15 -126 -131c0 -85 -1 -115 -65 -166c-2 -2 17 -28 20 -31c6 -8 6 -24 6 -29c0 -29 -6 -46 -18 -75c-13 -30 -44 -101 -44 -123c0 -19 8 -32 68 -32c17 -1 19 -1 32 -1l-17 -86c-56 -1 -172 -4 -172 114c0 38 11 65 37 123
c2 6 23 54 23 71c0 23 -31 26 -75 31l18 84c89 10 97 31 97 106c0 73 0 100 21 140c24 46 76 92 167 92h46z" />
    <glyph glyph-name="bar" unicode="|" 
d="M414 673v-857h-99v857h99z" />
    <glyph glyph-name="braceright" unicode="}" 
d="M447 330l-18 -84c-3 0 -17 -2 -19 -2c-78 -9 -78 -49 -78 -104c0 -72 0 -100 -21 -140c-22 -43 -70 -92 -165 -92h-47l18 87c117 0 125 23 126 131c1 78 0 118 64 166c2 2 -16 27 -19 31c-6 8 -6 24 -6 28c0 30 5 47 17 75l15 35c20 46 29 69 29 88c0 29 -33 33 -56 33
c-1 0 -30 1 -44 1l18 86c58 1 171 3 171 -114c0 -37 -10 -62 -36 -123c-3 -4 -24 -53 -24 -70c0 -24 30 -27 75 -32z" />
    <glyph glyph-name="asciitilde" unicode="~" 
d="M537 412l59 -67l-4 -6c-25 -42 -61 -101 -128 -101c-27 0 -42 8 -95 30c-27 11 -67 27 -81 27c-29 0 -46 -23 -70 -66l-6 -13l-60 69l4 6c25 44 61 106 132 106c13 0 35 0 106 -31c40 -18 55 -26 70 -26c29 0 46 28 73 72z" />
    <glyph glyph-name="exclamdown" unicode="&#xa1;" 
d="M353 -133h-122l105 404h83zM393 317c-46 0 -77 30 -77 69c0 46 45 88 99 88c44 0 76 -29 76 -69c0 -46 -45 -88 -98 -88z" />
    <glyph glyph-name="cent" unicode="&#xa2;" 
d="M401 631h70l-28 -134c24 -6 39 -13 64 -37l19 57l79 -20c-30 -74 -38 -96 -40 -160l-75 -19c6 69 -9 85 -65 96l-52 -239c75 16 121 47 148 65l29 -77c-33 -22 -106 -70 -195 -81l-29 -136h-71l31 144c-55 6 -131 59 -131 163c0 121 101 228 218 244zM304 173l51 235
c-82 -22 -115 -100 -115 -150c0 -67 44 -79 64 -85z" />
    <glyph glyph-name="sterling" unicode="&#xa3;" 
d="M155 381h79c0 6 -2 29 -2 44c0 131 83 211 199 211c47 0 68 -11 90 -23c5 13 7 16 9 22l76 -9c-11 -60 -14 -73 -14 -115c0 -22 1 -36 1 -58h-81c-3 57 -5 97 -81 97c-105 0 -111 -86 -111 -125c0 -15 1 -31 2 -44h218l-19 -84h-189c2 -60 -18 -122 -60 -187
c27 2 49 1 97 -18c24 -10 33 -12 46 -12c38 0 55 25 75 55l65 -59c-26 -34 -62 -82 -142 -82c-29 0 -59 10 -67 13c-39 17 -47 19 -68 19c-36 0 -58 -11 -123 -46l-42 75c95 75 133 161 131 242h-108z" />
    <glyph glyph-name="fraction" unicode="&#x2044;" 
d="M565 648l46 -37l-559 -616l-42 39z" />
    <glyph glyph-name="yen" unicode="&#xa5;" 
d="M374 138l-14 -56h118l-18 -82h-317l17 82h113l15 56h-145l17 64h141l10 48h-145l17 64h138l-119 216h-70l18 82h229l-19 -82h-59l84 -164l143 164h-68l18 82h229l-18 -82h-67l-206 -216h134l-17 -64h-135l-13 -48h143l-18 -64h-136z" />
    <glyph glyph-name="florin" unicode="&#x192;" 
d="M253 480h101l18 46c24 62 60 154 215 154c31 0 58 -5 77 -8l-53 -89c-13 5 -29 11 -52 11c-63 0 -79 -33 -105 -93l-9 -21h104l-36 -84h-101l-131 -337c-28 -73 -68 -154 -221 -154c-42 0 -53 3 -72 7l53 88c13 -5 24 -9 46 -9c75 0 89 35 111 91l123 314h-103z" />
    <glyph glyph-name="section" unicode="&#xa7;" 
d="M607 583l-36 -170h-90l18 82h-82c-20 0 -66 0 -66 -46c0 -16 14 -30 17 -33l113 -103c37 -33 65 -62 65 -109c0 -86 -78 -114 -99 -122c1 -7 4 -22 4 -33c0 -43 -37 -137 -176 -137h-178l38 179h89l-20 -91h83c38 0 73 15 73 47c0 14 -13 28 -21 35l-108 101
c-32 29 -60 57 -60 107c0 42 28 89 94 118c-3 11 -5 21 -5 37c0 40 30 138 166 138h181zM416 250l-96 89c-16 -4 -58 -14 -58 -46c0 -13 7 -24 28 -43l104 -96c58 10 61 40 61 45c0 12 -11 25 -39 51z" />
    <glyph glyph-name="currency" unicode="&#xa4;" 
d="M527 193l83 -81l-62 -60l-81 80c-26 -15 -53 -30 -102 -30c-50 0 -76 15 -103 30l-81 -80l-62 60l83 81l-13 24c-3 6 -16 34 -16 70c0 29 3 58 16 84l13 23l-83 81l62 60l81 -79l22 11c5 3 35 18 74 18c30 0 61 -4 88 -18l21 -11l81 79l62 -60l-82 -80
c23 -33 31 -73 29 -108c-2 -40 -11 -70 -30 -94zM472 294c0 53 -39 106 -107 106c-72 0 -107 -57 -107 -106c0 -56 41 -107 107 -107c65 0 107 51 107 107z" />
    <glyph glyph-name="quotesingle" unicode="'" 
d="M357 583h152l-88 -311h-109z" />
    <glyph glyph-name="quotedblleft" unicode="&#x201c;" 
d="M499 309h-146l180 274h110zM294 309h-146l180 274h110z" />
    <glyph glyph-name="guillemotleft" unicode="&#xab;" 
d="M585 440l40 -69l-211 -131l154 -133l-63 -69l-215 202zM401 463l45 -66l-227 -157l156 -158l-69 -64l-210 222z" />
    <glyph glyph-name="guilsinglleft" unicode="&#x2039;" 
d="M493 440l39 -69l-211 -131l154 -133l-63 -69l-224 202z" />
    <glyph glyph-name="guilsinglright" unicode="&#x203a;" 
d="M285 440l223 -200l-307 -202l-36 73l210 129l-155 131z" />
    <glyph glyph-name="endash" unicode="&#x2013;" 
d="M140 345h449v-92h-449v92z" />
    <glyph glyph-name="dagger" unicode="&#x2020;" 
d="M369 583h92l-28 -130h107l-18 -90h-108l-87 -411h-94l88 411h-108l20 90h107z" />
    <glyph glyph-name="daggerdbl" unicode="&#x2021;" 
d="M370 583h92l-28 -135h106l-18 -86h-107l-24 -113h105l-20 -86h-106l-43 -211h-93l46 211h-105l18 86h105l24 113h-109l21 86h106z" />
    <glyph glyph-name="periodcentered" unicode="&#xb7;" 
d="M382 398c38 0 79 -25 79 -70c0 -56 -56 -100 -111 -100c-41 0 -80 25 -80 70c0 57 58 100 112 100z" />
    <glyph glyph-name="paragraph" unicode="&#xb6;" 
d="M567 533l-120 -562h54l-11 -50h-130l130 612h-69l-131 -612h-141l10 50h66l65 297c-107 -6 -170 31 -170 123c0 59 29 112 65 144c53 48 123 48 190 48h256l-10 -50h-54zM298 313l47 220c-52 -2 -63 -52 -67 -72l-16 -78c-2 -7 -4 -18 -4 -28c0 -36 17 -40 40 -42z" />
    <glyph glyph-name="bullet" unicode="&#x2022;" 
d="M357 395c-62 0 -111 -49 -111 -111s49 -112 111 -112s112 50 112 112s-50 111 -112 111z" />
    <glyph glyph-name="quotesinglbase" unicode="&#x201a;" 
d="M274 168h146l-180 -274h-110z" />
    <glyph glyph-name="quotedblbase" unicode="&#x201e;" 
d="M171 168h146l-181 -274h-110zM376 168h146l-181 -274h-109z" />
    <glyph glyph-name="quotedblright" unicode="&#x201d;" 
d="M263 583h146l-180 -274h-110zM468 583h146l-180 -274h-110z" />
    <glyph glyph-name="guillemotright" unicode="&#xbb;" 
d="M192 440l214 -200l-298 -202l-36 72l210 130l-155 131zM387 463l212 -223l-301 -222l-44 64l223 158l-160 160z" />
    <glyph glyph-name="ellipsis" unicode="&#x2026;" 
d="M97 -16c-33 0 -71 22 -71 68c0 59 54 102 103 102c36 0 72 -24 72 -68c0 -58 -53 -102 -104 -102zM296 -16c-32 0 -71 21 -71 68c0 59 54 102 104 102c35 0 71 -24 71 -68c0 -58 -53 -102 -104 -102zM496 -16c-34 0 -72 22 -72 68c0 59 55 102 104 102
c35 0 71 -24 71 -68c0 -59 -53 -102 -103 -102z" />
    <glyph glyph-name="perthousand" unicode="&#x2030;" 
d="M186 639c78 0 120 -55 120 -112c0 -75 -72 -162 -175 -162c-86 0 -120 60 -120 111c0 78 75 163 175 163zM176 574c-55 0 -92 -50 -92 -89c0 -44 35 -55 56 -55c54 0 93 47 93 88c0 39 -28 56 -57 56zM210 261c79 0 119 -56 119 -112c0 -76 -72 -163 -175 -163
c-87 0 -120 63 -120 112c0 78 76 163 176 163zM200 196c-56 0 -93 -50 -93 -90c0 -42 33 -55 57 -55c53 0 92 47 92 89c0 37 -25 56 -56 56zM528 261c79 0 119 -57 119 -113c0 -74 -71 -162 -175 -162c-85 0 -120 60 -120 112c0 77 76 163 176 163zM518 196
c-55 0 -93 -50 -93 -90c0 -42 34 -55 57 -55c53 0 92 47 92 89c0 38 -26 56 -56 56zM452 423l15 -52l-433 -124l-14 51z" />
    <glyph glyph-name="questiondown" unicode="&#xbf;" 
d="M503 38l-28 -134c-80 -25 -117 -37 -179 -37c-139 0 -176 87 -176 148c0 156 177 200 216 210l11 54h87l-25 -123l-31 -7c-61 -14 -167 -39 -167 -130c0 -66 76 -66 90 -66c40 0 61 6 100 19l14 66h88zM407 316c-45 0 -76 31 -76 70c0 47 46 88 98 88c45 0 77 -30 77 -69
c0 -46 -45 -89 -99 -89z" />
    <glyph glyph-name="grave" unicode="`" 
d="M264 638v4h148l86 -98h-84z" />
    <glyph glyph-name="acute" unicode="&#xb4;" 
d="M582 638l-174 -94h-89l123 98h140v-4z" />
    <glyph glyph-name="circumflex" unicode="&#x2c6;" 
d="M390 652h86l78 -86l-56 -31l-78 48l-92 -48l-49 33z" />
    <glyph glyph-name="tilde" unicode="&#x2dc;" 
d="M536 659l67 -21c-19 -35 -56 -107 -139 -107c-17 0 -40 3 -73 31c-25 21 -30 22 -36 22c-23 0 -37 -23 -53 -48c-1 -2 -4 -5 -4 -6l-66 24c22 38 60 103 133 103c37 0 57 -17 75 -32c16 -14 27 -21 39 -21c24 0 42 29 54 49c0 1 3 5 3 6z" />
    <glyph glyph-name="macron" unicode="&#xaf;" 
d="M255 635h343l-19 -85h-342z" />
    <glyph glyph-name="breve" unicode="&#x2d8;" 
d="M258 662h77c3 -25 9 -71 84 -71c43 0 89 20 114 66c1 2 2 5 3 5h79c-18 -38 -29 -60 -66 -90c-47 -37 -97 -49 -141 -49c-58 0 -113 22 -139 78c-9 19 -9 33 -11 61z" />
    <glyph glyph-name="dotaccent" unicode="&#x2d9;" 
d="M353 533l25 120h97l-26 -120h-96z" />
    <glyph glyph-name="dieresis" unicode="&#xa8;" 
d="M284 533l26 115h97l-26 -115h-97zM432 533l26 115h97l-26 -115h-97z" />
    <glyph glyph-name="ring" unicode="&#x2da;" 
d="M483 604c0 -49 -40 -89 -90 -89c-49 0 -89 40 -89 89c0 50 40 90 89 90c50 0 90 -40 90 -90zM425 604c0 18 -14 32 -32 32c-17 0 -31 -14 -31 -32c0 -17 14 -31 31 -31c18 0 32 14 32 31z" />
    <glyph glyph-name="cedilla" unicode="&#xb8;" 
d="M346 7l-8 -25c32 -9 59 -28 59 -65c0 -29 -23 -87 -112 -87c-51 0 -101 13 -117 17c-1 0 -9 2 -10 3l25 68c43 -11 82 -18 106 -18c23 0 23 6 23 7c0 7 -25 11 -32 12c-3 0 -17 2 -19 2c-1 0 -14 1 -16 2l27 84h74z" />
    <glyph glyph-name="hungarumlaut" unicode="&#x2dd;" 
d="M488 657l-182 -129h-72l138 129h116zM650 657l-182 -129h-72l138 129h116z" />
    <glyph glyph-name="ogonek" unicode="&#x2db;" 
d="M386 -47l-35 -69c-26 -14 -54 -28 -97 -28c-36 0 -75 18 -75 58c0 45 51 86 124 105h88v-3c-38 -17 -46 -22 -71 -35c-21 -11 -45 -26 -45 -44c0 -13 16 -15 24 -15c21 0 28 3 87 31z" />
    <glyph glyph-name="caron" unicode="&#x2c7;" 
d="M451 535h-86l-79 86l56 31l79 -48l92 48l48 -33z" />
    <glyph glyph-name="emdash" unicode="&#x2014;" 
d="M16 345h697v-92h-697v92z" />
    <glyph glyph-name="AE" unicode="&#xc6;" 
d="M256 583h461l-41 -216h-74l21 134h-153l-34 -168h38l16 69h71l-50 -216h-71l16 70h-35l-39 -174h152l33 136h75l-46 -218h-314l41 174h-116l-53 -92h75l-18 -82h-213l18 82h57l250 419h-85zM337 250l53 232l-2 2l-132 -234h81z" />
    <glyph glyph-name="ordfeminine" unicode="&#xaa;" 
d="M311 520l-11 50c29 11 41 16 54 19c23 7 48 11 67 11c51 0 83 -24 83 -63l-3 -28l-23 -109h44l-11 -53h-99l4 19c-30 -18 -58 -26 -87 -26c-45 0 -73 24 -77 69c4 62 62 105 142 105c18 0 29 -1 53 -4l1 13c0 15 -14 23 -39 23c-26 0 -52 -7 -98 -26zM431 437l4 20
c-23 3 -34 3 -48 3c-45 0 -75 -15 -77 -40c2 -16 15 -25 32 -25c27 0 53 12 89 42zM217 305h296l-12 -54h-295z" />
    <glyph glyph-name="Lslash" unicode="&#x141;" 
d="M304 367l189 97l28 -78l-239 -124l-39 -180h235l54 196h87l-72 -278h-506l18 82h96l28 136l-67 -35l-28 79l117 60l38 179h-96l18 82h304l-18 -82h-119z" />
    <glyph glyph-name="Oslash" unicode="&#xd8;" 
d="M159 27l-57 -57l-56 57l63 64c-12 30 -29 73 -29 116c0 215 154 392 335 392c13 0 91 0 145 -50l48 49l57 -56l-57 -58c16 -34 25 -72 25 -116c0 -189 -143 -384 -337 -384c-48 0 -102 11 -137 43zM534 409l-310 -316c17 -12 35 -25 78 -25c130 0 238 148 238 294
c0 25 -4 36 -6 47zM181 175l308 313c-25 24 -54 27 -79 27c-125 0 -237 -146 -237 -285c0 -30 3 -40 8 -55z" />
    <glyph glyph-name="OE" unicode="&#x152;" 
d="M717 583l-42 -216h-79l20 134h-141l-31 -156h35l15 75h76l-49 -228h-77l17 76h-35l-40 -186h144l34 136h77l-45 -218h-349c-60 0 -77 0 -104 16c-67 37 -89 127 -89 187c0 181 132 380 313 380h350zM314 126l72 340c1 3 2 11 2 17c0 20 -36 23 -43 23
c-99 0 -210 -143 -210 -297c0 -93 43 -135 103 -135c16 0 66 6 76 52z" />
    <glyph glyph-name="ordmasculine" unicode="&#xba;" 
d="M428 600c49 -4 72 -13 91 -37c15 -18 20 -34 22 -65c-3 -45 -15 -74 -44 -105c-31 -34 -77 -53 -125 -53c-39 0 -72 13 -91 36c-15 18 -20 35 -21 67c2 44 14 72 43 103c32 35 62 48 125 54zM417 546c-38 -3 -56 -11 -75 -32c-16 -18 -22 -35 -24 -61
c1 -39 24 -59 65 -59c56 0 96 37 100 93c-2 39 -21 56 -66 59zM217 305h295l-11 -54h-295z" />
    <glyph glyph-name="ae" unicode="&#xe6;" 
d="M608 198h-237c-3 -14 -4 -26 -4 -44c0 -41 11 -84 64 -84c42 0 91 14 135 27l16 -80c-27 -9 -90 -31 -155 -31c-81 0 -103 40 -122 75c-56 -47 -93 -75 -147 -75c-64 0 -116 42 -116 118s66 192 214 192c23 0 35 -4 49 -7c8 34 12 51 12 67c0 30 -14 32 -30 32
c-28 0 -51 -2 -113 -23c-4 -2 -27 -9 -31 -11l-9 84c78 28 115 36 153 36c28 0 79 -6 100 -53c35 31 78 53 125 53c61 0 119 -49 119 -152c0 -58 -14 -98 -23 -124zM278 143l11 65c-11 2 -24 4 -41 4c-95 0 -118 -75 -118 -103c0 -19 9 -37 30 -37c33 0 89 40 118 71z
M387 280h153c1 11 3 24 3 48c0 34 -4 63 -46 63c-33 0 -87 -30 -110 -111z" />
    <glyph glyph-name="dotlessi" unicode="&#x131;" 
d="M209 453h231l-79 -371h167l-18 -82h-425l18 82h170l61 289h-143z" />
    <glyph glyph-name="lslash" unicode="&#x142;" 
d="M421 397l130 67l28 -78l-180 -93l-44 -211h168l-18 -82h-423l18 82h169l35 168l-130 -67l-28 78l180 93l39 187l-157 -11l9 85l254 16z" />
    <glyph glyph-name="oslash" unicode="&#xf8;" 
d="M158 24l-58 -47l-55 67l55 45c-16 33 -20 73 -20 95c0 139 121 290 309 290c44 0 102 -10 140 -37l59 49l55 -69l-55 -46c14 -29 20 -62 20 -94c0 -138 -119 -291 -309 -291c-34 0 -95 7 -141 38zM510 309l-276 -227c14 -5 32 -10 68 -10c142 0 213 117 213 198
c0 18 -3 30 -5 39zM178 152l276 224c-14 5 -34 12 -71 12c-125 0 -210 -102 -210 -200c0 -19 3 -28 5 -36z" />
    <glyph glyph-name="oe" unicode="&#x153;" 
d="M608 198h-231c-3 -14 -4 -25 -4 -44c0 -56 21 -84 71 -84c31 0 46 8 93 40l38 -74c-38 -25 -77 -50 -136 -50c-86 0 -114 41 -131 65c-32 -33 -71 -65 -143 -65c-123 0 -136 108 -136 142c0 110 65 346 241 346c66 0 93 -34 112 -59c15 15 61 59 129 59
c74 0 120 -62 120 -150c0 -58 -14 -99 -23 -126zM393 280h148c2 11 4 21 4 40c0 23 -4 73 -39 73c-32 0 -88 -30 -113 -113zM283 174l25 126c7 36 9 40 9 47c0 23 -20 43 -51 43c-92 0 -142 -168 -142 -253c0 -26 5 -65 46 -65c15 0 94 7 113 102z" />
    <glyph glyph-name="germandbls" unicode="&#xdf;" 
d="M62 82h60l76 361c8 40 45 213 219 213c87 0 154 -52 154 -140c0 -57 -32 -119 -109 -158c77 -41 96 -103 96 -151c0 -99 -74 -221 -204 -221c-47 0 -81 10 -107 19l19 87c35 -11 60 -20 87 -20c60 0 117 57 117 130c0 87 -98 105 -159 116l16 81c130 7 156 86 156 119
c0 34 -27 52 -69 52c-78 0 -115 -62 -131 -137l-91 -433h-147z" />
    <glyph glyph-name="copyright" unicode="&#xa9;" 
d="M520 439l-20 -95h-44c1 3 2 13 2 19c0 34 -15 56 -51 56c-69 0 -116 -72 -116 -150c0 -36 16 -83 73 -83c37 0 67 23 87 52l35 -15c-30 -54 -88 -85 -153 -85c-94 0 -128 60 -128 125c0 99 79 201 201 201c29 0 75 -8 114 -25zM361 599c160 0 294 -129 294 -293
c0 -160 -131 -293 -294 -293c-162 0 -293 132 -293 293c0 164 134 293 293 293zM361 541c-128 0 -235 -104 -235 -235c0 -130 107 -235 235 -235c129 0 236 105 236 235c0 131 -107 235 -236 235z" />
    <glyph glyph-name="approxequalalt" 
d="M594 248v-102h-442v102h442zM539 510l57 -67c-31 -51 -63 -107 -129 -107c-23 0 -46 8 -60 14c-6 2 -33 14 -39 16l-13 5c-9 4 -21 8 -24 10c-25 11 -32 12 -43 12c-32 0 -48 -26 -77 -79l-59 69c27 47 65 112 133 112c24 0 50 -6 108 -31c53 -23 59 -26 73 -26
c30 0 50 33 66 61c1 1 6 9 7 11z" />
    <glyph glyph-name="twosuperior" unicode="&#xb2;" 
d="M384 367h55l-24 -113h-257l11 52l14 10c39 28 110 81 150 112c52 41 63 52 72 71c5 11 8 24 8 34c0 27 -24 50 -54 50c-23 0 -46 -11 -60 -25c-7 -8 -10 -16 -14 -36h-59l12 57c43 40 88 60 136 60c58 0 99 -39 101 -95c-3 -34 -8 -52 -22 -73c-12 -17 -25 -32 -39 -44
c-22 -18 -52 -43 -89 -69l-65 -46v-2h112z" />
    <glyph glyph-name="rightangle" unicode="&#x221f;" 
d="M587 0h-454v454h88v-366h366v-88z" />
    <glyph glyph-name="productdot" 
d="M363 398c43 0 94 -31 94 -85c0 -53 -48 -85 -94 -85c-45 0 -94 31 -94 85c0 53 49 85 94 85z" />
    <glyph glyph-name="alpha" unicode="&#x3b1;" 
d="M504 82h70l-17 -82h-129c-5 34 -7 50 -19 117c-30 -39 -102 -132 -211 -132c-97 0 -166 82 -166 186c0 157 119 297 254 297c111 0 146 -102 163 -152l95 160l80 -18l-149 -241c2 -10 3 -12 7 -32c12 -48 17 -67 22 -103zM390 219c-30 101 -50 168 -109 168
c-89 0 -161 -108 -161 -209c0 -82 53 -112 93 -112c54 0 109 50 177 153z" />
    <glyph glyph-name="Sigma" unicode="&#x3a3;" 
d="M656 583l-51 -212h-79l19 130h-300l107 -205l-194 -214h306l34 132h79l-42 -214h-500l16 74l206 228l-110 209l15 72h494z" />
    <glyph glyph-name="Tbar" unicode="&#x166;" 
d="M419 381h89l-18 -84h-89l-44 -215h118l-18 -82h-322l18 82h116l45 215h-87l17 84h88l25 120h-130l-52 -194l-86 12l75 264h505l-37 -264l-86 -12l27 194h-129z" />
    <glyph glyph-name="SS270000" unicode="&#x2321;" 
d="M239 839h122v-761c0 -233 -121 -321 -218 -321c-91 0 -105 63 -105 86c0 49 35 75 72 75c46 0 65 -29 77 -47c6 -11 15 -22 26 -22c20 0 26 18 26 116v874z" />
    <glyph glyph-name="Scedilla" unicode="&#x15e;" 
d="M333 -13l-2 -5c38 -10 60 -31 60 -65c0 -29 -24 -87 -113 -87c-53 0 -103 13 -126 20l25 68c16 -4 74 -18 106 -18c16 0 23 5 23 7s-6 6 -13 8c-8 2 -44 6 -55 8l22 67c-54 8 -82 31 -109 58l-20 -66l-82 13c34 89 41 115 52 209h77c0 -49 -1 -54 5 -69
c20 -50 88 -60 128 -60c103 0 154 57 154 110c0 57 -52 61 -118 66c-56 5 -92 18 -118 37c-37 28 -61 77 -61 124c0 91 87 190 233 190c53 0 105 -16 139 -60l29 64l76 -23c-43 -88 -48 -117 -65 -212l-76 12c3 14 6 29 6 49c0 72 -62 84 -105 84c-88 0 -146 -48 -146 -103
c0 -64 52 -69 130 -75c134 -12 167 -91 167 -150c0 -74 -55 -191 -223 -201z" />
    <glyph glyph-name="brokenbar" unicode="&#xa6;" 
d="M414 673v-375h-99v375h99zM414 191v-375h-99v375h99z" />
    <glyph glyph-name="SM680000" unicode="&#x2310;" 
d="M607 462v-89h-365v-210h-89v299h454z" />
    <glyph glyph-name="arrowright" unicode="&#x2192;" 
d="M26 257v60h409c-18 29 -40 69 -40 85c0 7 5 19 21 19c8 0 11 -3 37 -30c34 -37 68 -56 112 -82c7 -4 17 -11 17 -20c0 -11 -2 -12 -44 -38c-44 -28 -64 -41 -102 -86c-5 -5 -10 -11 -20 -11c-15 0 -21 12 -21 19c0 2 4 31 40 84h-409z" />
    <glyph glyph-name="approxequal" unicode="&#x2248;" 
d="M539 510l57 -67c-31 -51 -63 -107 -129 -107c-23 0 -46 8 -60 14c-6 2 -33 14 -39 16l-13 5c-9 4 -21 8 -24 10c-25 11 -32 12 -43 12c-32 0 -48 -26 -77 -79l-59 69c27 47 65 112 133 112c24 0 50 -6 108 -31c53 -23 59 -26 73 -26c30 0 50 33 66 61c1 1 6 9 7 11z
M539 291l57 -67c-31 -51 -63 -107 -129 -107c-23 0 -46 8 -60 14c-6 2 -33 14 -39 16l-13 5c-9 4 -21 8 -24 10c-25 11 -32 12 -43 12c-32 0 -48 -26 -77 -79l-59 69c27 47 65 112 133 112c24 0 50 -6 108 -31c53 -23 59 -26 73 -26c30 0 50 33 66 61c1 1 6 9 7 11z" />
    <glyph glyph-name="club" unicode="&#x2663;" 
d="M495 0h-388l4 16l6 1c80 18 100 27 129 61c31 36 49 86 49 134v22h-2c-33 -71 -85 -109 -148 -109c-71 0 -127 56 -127 128c0 68 48 124 110 126c29 -2 38 -5 73 -23l2 2c-25 40 -31 54 -31 81c0 70 55 124 127 124c71 0 127 -54 127 -122c0 -30 -9 -54 -31 -83l2 -2
l14 8c27 13 38 16 58 16c63 0 113 -56 113 -125c0 -72 -55 -130 -125 -130c-42 0 -89 24 -119 59c-11 12 -18 23 -31 50l-2 -2c1 -61 9 -95 31 -129c32 -49 68 -70 146 -85l9 -2z" />
    <glyph glyph-name="SS010000" unicode="&#x263b;" 
d="M300 563c155 0 282 -126 282 -281c0 -156 -127 -282 -282 -282s-282 126 -282 282c0 155 126 281 282 281zM213 403c-24 0 -43 -19 -43 -42c0 -24 19 -43 43 -43c23 0 42 19 42 43c0 23 -19 42 -42 42zM391 403c-23 0 -42 -19 -42 -43c0 -23 19 -42 42 -42
c24 0 43 19 43 42c0 24 -19 43 -43 43zM483 316v-2l-2 2c-6 -39 -14 -55 -34 -78c-37 -43 -84 -63 -147 -63c-62 0 -109 20 -146 63c-20 23 -28 39 -35 78l-2 -2c5 -65 14 -95 37 -130c32 -49 82 -74 146 -74c59 0 106 21 139 62c29 37 39 72 44 144z" />
    <glyph glyph-name="SM490000" 
d="M21 612l50 58c85 -54 146 -73 229 -73c85 0 143 18 231 73l48 -58c-43 -95 -63 -182 -62 -278c1 -100 21 -191 62 -275l-48 -59c-74 51 -141 72 -226 72c-87 0 -157 -21 -234 -72l-50 59c41 83 62 175 62 275c0 97 -20 184 -62 278zM100 588l14 -53
c25 -70 33 -141 33 -201c0 -53 -10 -134 -32 -199l-15 -54c77 41 129 55 198 55c72 0 128 -15 201 -55l-15 54c-18 64 -31 146 -31 199c0 60 5 130 30 201l18 51l-2 2c-55 -37 -127 -55 -201 -55c-67 0 -130 17 -198 55z" />
    <glyph glyph-name="arrowup" unicode="&#x2191;" 
d="M331 0h-60v441c-29 -18 -69 -40 -85 -40c-7 0 -19 5 -19 21c0 8 3 11 30 37c36 35 56 68 82 112c4 7 11 17 20 17c11 0 12 -2 38 -44c27 -44 41 -64 86 -102c5 -5 11 -10 11 -20c0 -15 -12 -21 -19 -21c-2 0 -31 4 -84 40v-441z" />
    <glyph glyph-name="SF020000" unicode="&#x2514;" 
d="M336 288h264v-72h-336v576h72v-504z" />
    <glyph glyph-name="SF610000" unicode="&#x2588;" 
d="M0 -288v1080h600v-1080h-600z" />
    <glyph glyph-name="commasuperior" 
d="M328 371h117l-127 -174h-91z" />
    <glyph glyph-name="zeroslash" 
d="M488 628l32 53l78 -45l-41 -70c15 -30 22 -70 22 -110c0 -142 -49 -292 -102 -369c-63 -92 -150 -101 -169 -101c-31 0 -61 2 -76 14l-37 -62l-78 45l47 81c-16 31 -22 76 -22 111c0 113 49 464 285 464c11 0 34 -2 61 -11zM235 185l210 365c-5 2 -14 5 -28 5
c-126 0 -179 -235 -184 -368zM486 447l-211 -371c5 -3 18 -6 32 -6c15 0 58 10 96 64c69 98 77 223 85 311z" />
    <glyph glyph-name="Tcedilla" unicode="&#x162;" 
d="M348 0l-6 -18c33 -9 60 -28 60 -65c0 -29 -24 -87 -113 -87c-52 0 -103 13 -127 20l26 68c43 -10 81 -18 106 -18c7 0 23 2 23 8c0 5 -22 9 -23 9c-3 1 -30 4 -45 6l25 77h-135l18 82h116l88 419h-125l-45 -160h-88l69 242h501l-34 -242h-87l22 160h-126l-87 -419h118
l-18 -82h-113z" />
    <glyph glyph-name="carriagereturn" unicode="&#x21b5;" 
d="M574 257h-409c38 -55 40 -84 40 -84c0 -5 -4 -19 -20 -19c-10 0 -16 6 -34 27c-14 17 -39 42 -114 85c-11 6 -19 10 -19 23c0 11 14 18 25 24c50 27 87 56 116 91c8 9 15 17 25 17c17 0 21 -13 21 -19c0 -18 -24 -60 -40 -85h349v210h60v-270z" />
    <glyph glyph-name="diamond" unicode="&#x2666;" 
d="M100 265l-10 11c15 18 26 32 55 68c44 56 54 68 69 90c35 47 60 84 85 129c29 -50 62 -97 115 -168c33 -42 61 -79 78 -98c6 -7 9 -11 18 -21c-15 -15 -28 -31 -52 -61l-56 -73c-35 -46 -75 -105 -102 -153c-12 23 -27 46 -52 82c-47 66 -79 109 -99 134z" />
    <glyph glyph-name="SF440000" unicode="&#x256c;" 
d="M264 216v-504h-72v432h-192v72h264zM264 288h-264v72h192v432h72v-504zM336 216h264v-72h-192v-432h-72v504zM336 288v504h72v-432h192v-72h-264z" />
    <glyph glyph-name="trademark" unicode="&#x2122;" 
d="M356 535l-6 -35c-1 -3 -2 -10 -2 -13h-41c4 19 5 27 5 36c0 12 -5 17 -27 17h-16l-49 -233c0 -9 8 -10 36 -9l-9 -39h-132l7 39c36 0 40 0 44 18l47 224c-30 -2 -47 -3 -57 -53h-41c1 2 3 11 4 13c13 41 16 51 23 83h223c0 -1 -1 -7 -2 -9c-2 -9 -6 -31 -7 -39zM392 546
l8 37h90l25 -190h2l99 190h88l-8 -37c-25 0 -28 0 -32 -19l-42 -211c-3 -16 0 -16 25 -18l-7 -39h-113l7 39c29 1 30 1 34 18l30 155l-2 2l-106 -214h-16l-28 220h-2l-31 -163l-1 -11c0 -6 2 -6 26 -7l-7 -39h-95l8 39c26 0 29 0 33 23l41 206c3 15 0 18 -15 18
c-4 0 -7 0 -11 1z" />
    <glyph glyph-name="sigma" unicode="&#x3c3;" 
d="M649 473l-18 -85l-147 10l-2 -2c22 -14 61 -43 61 -125c0 -137 -125 -286 -289 -286c-129 0 -204 100 -204 194c0 103 63 194 132 241c79 54 181 53 238 53h229zM334 389c-114 0 -196 -101 -196 -197c0 -58 39 -123 125 -123c106 0 192 99 192 199c0 62 -44 121 -121 121
z" />
    <glyph glyph-name="Kcedilla" unicode="&#x136;" 
d="M167 583h246l-20 -82h-74l-31 -153l198 151v2h-44l17 82h230l-18 -82h-51l-227 -178c51 -81 71 -128 116 -241h102l-18 -82h-148c-40 112 -61 159 -126 270l-57 -43l-31 -145h82l-18 -82h-252l18 82h82l88 419h-82zM412 7l-8 -25c32 -9 59 -28 59 -65
c0 -29 -24 -87 -113 -87c-52 0 -103 13 -126 20l25 68c43 -10 81 -18 106 -18c7 0 23 2 23 8c0 5 -22 9 -23 9c-3 1 -30 4 -45 6l28 84h74z" />
    <glyph glyph-name="tquoteright" 
d="M236 583h87l-29 -142h214l-17 -84h-215l-37 -168c-5 -25 -12 -57 -12 -74c0 -42 51 -43 61 -43c51 0 91 12 229 66v-91c-99 -42 -172 -61 -231 -61c-98 0 -147 61 -147 115c0 19 3 36 16 97l34 159h-67l18 84h66zM647 583h146l-180 -274h-110z" />
    <glyph glyph-name="aogonek" unicode="&#x105;" 
d="M575 82l-18 -82h-37c-7 0 -113 -28 -113 -63c0 -13 16 -15 23 -15c22 0 29 3 88 31l-35 -69c-26 -14 -54 -28 -97 -28c-36 0 -75 18 -75 58c0 47 50 75 71 86l8 36c-40 -20 -100 -50 -172 -50c-90 0 -148 61 -148 133c0 80 78 188 262 188c44 0 76 -4 115 -9v12l4 35
c0 37 -52 43 -78 43c-67 0 -133 -25 -189 -47l-18 83c71 26 137 50 218 50c87 0 158 -41 158 -120c0 -20 -6 -47 -7 -53l-46 -219h86zM413 146l15 69c-30 4 -58 8 -97 8c-143 0 -170 -73 -170 -100c0 -33 35 -51 62 -51c62 0 154 47 190 74z" />
    <glyph glyph-name="SF280000" unicode="&#x255b;" 
d="M336 792v-648h-336v72h264v72h-264v72h264v432h72z" />
    <glyph glyph-name="tbar" unicode="&#x167;" 
d="M307 323h235l-17 -78h-234l-11 -56c-10 -52 -12 -64 -12 -77c0 -39 54 -40 61 -40c38 0 71 5 213 59l17 -82c-90 -38 -165 -63 -233 -63c-80 0 -146 43 -146 121c0 27 3 36 15 91l10 47h-66l16 78h66l10 40h-66l16 78h66l29 142h87l-30 -142h234l-16 -78h-234z" />
    <glyph glyph-name="SF600000" unicode="&#x2580;" 
d="M0 252v540h600v-540h-600z" />
    <glyph glyph-name="registered" unicode="&#xae;" 
d="M271 474h138c33 0 104 0 104 -69c0 -23 -17 -78 -79 -96c14 -12 19 -20 30 -63c11 -45 13 -47 17 -50s6 -3 23 -3l-7 -34h-39c-50 0 -56 8 -69 71c-11 54 -15 57 -19 60s-7 3 -29 3l-18 -82c-1 -5 -1 -10 -1 -11c0 -7 3 -7 31 -7l-5 -34h-145l7 34c32 0 35 0 39 18
l45 211c3 16 0 16 -31 16zM370 434l-22 -103c31 0 90 1 90 71c0 21 -10 34 -40 34c-14 0 -21 0 -28 -2zM361 599c160 0 294 -129 294 -293c0 -160 -131 -293 -294 -293c-162 0 -293 132 -293 293c0 164 134 293 293 293zM361 541c-128 0 -235 -104 -235 -235
c0 -130 107 -235 235 -235c129 0 236 105 236 235c0 131 -107 235 -236 235z" />
    <glyph glyph-name="threeeighths" unicode="&#x215c;" 
d="M349 3c0 43 24 81 69 110c-19 23 -26 39 -26 62c0 68 70 130 147 130c58 0 101 -37 101 -86c0 -42 -19 -73 -62 -106c21 -17 31 -39 31 -64c0 -73 -71 -137 -154 -137c-62 0 -106 38 -106 91zM454 185c0 -26 21 -46 49 -46c38 0 75 33 75 67c0 26 -21 43 -51 43
c-40 0 -73 -29 -73 -64zM411 14c0 -27 24 -46 56 -46c42 0 80 31 80 67c0 28 -22 48 -55 48c-44 0 -81 -33 -81 -69zM123 549l-20 47c67 38 93 48 131 48c54 0 91 -32 93 -81c-3 -45 -15 -68 -50 -98c22 -17 33 -42 33 -70c0 -77 -75 -144 -160 -144c-31 0 -52 6 -94 24
l-25 11l34 53c45 -24 70 -32 98 -32c48 0 86 36 86 80c0 28 -22 45 -61 44l-33 -1l12 57c47 1 59 3 77 18c14 12 22 29 22 46c0 21 -19 37 -45 37c-21 0 -38 -7 -72 -25zM672 657l41 -33l-674 -718l-39 36z" />
    <glyph glyph-name="delta" unicode="&#x3b4;" 
d="M587 633l-17 -82h-250l126 -107c85 -73 105 -128 105 -182c0 -151 -136 -277 -278 -277c-114 0 -194 83 -194 189c0 100 84 251 251 261l-76 66c-23 20 -32 28 -48 50l17 82h364zM348 363c-108 0 -183 -94 -183 -183c0 -56 38 -113 113 -113c105 0 187 94 187 185
c0 105 -98 111 -117 111z" />
    <glyph glyph-name="SF420000" unicode="&#x2560;" 
d="M192 -288v1080h72v-1080h-72zM336 216h264v-72h-192v-432h-72v504zM336 288v504h72v-432h192v-72h-264z" />
    <glyph glyph-name="SF480000" unicode="&#x2565;" 
d="M336 216h-72v-504h-72v504h-192v72h600v-72h-192v-504h-72v504z" />
    <glyph glyph-name="SM570001" unicode="&#x25d8;" 
d="M61 0v479h478v-479h-478zM300 338c-54 0 -99 -44 -99 -99c0 -54 45 -98 99 -98s99 44 99 98c0 55 -45 99 -99 99z" />
    <glyph glyph-name="SF010000" unicode="&#x250c;" 
d="M336 216v-504h-72v576h336v-72h-264z" />
    <glyph glyph-name="dquoteright" 
d="M358 626l244 22l-119 -566h81l-18 -82h-169l8 38c-30 -21 -82 -48 -149 -48c-126 0 -194 95 -194 190c0 148 138 277 280 277c56 0 100 -18 141 -55l31 149l-164 -12zM427 257c0 84 -57 114 -107 114c-101 0 -185 -88 -185 -185c0 -80 60 -110 103 -110
c111 0 189 102 189 181zM714 583h146l-181 -274h-109z" />
    <glyph glyph-name="SS000000" unicode="&#x263a;" 
d="M300 563c155 0 282 -126 282 -281c0 -156 -127 -282 -282 -282s-282 126 -282 282c0 155 126 281 282 281zM300 525c-135 0 -244 -108 -244 -243s109 -244 244 -244s244 109 244 244s-109 243 -244 243zM216 399c22 0 39 -17 39 -39c0 -21 -17 -39 -39 -39s-39 18 -39 39
c0 22 17 39 39 39zM384 399c22 0 39 -18 39 -40s-17 -38 -39 -38c-21 0 -39 17 -39 38c0 22 18 40 39 40zM483 316c-5 -72 -16 -107 -45 -144c-32 -41 -79 -62 -138 -62c-64 0 -114 25 -146 74c-23 35 -32 65 -37 132c9 -39 17 -55 37 -78c37 -43 84 -63 146 -63
c63 0 110 20 147 63c20 23 27 39 36 78z" />
    <glyph glyph-name="plussuperior" unicode="&#x207a;" 
d="M292 592h76v-116h129v-67h-129v-117h-76v117h-129v67h129v116z" />
    <glyph glyph-name="divide" unicode="&#xf7;" 
d="M363 550c36 0 63 -29 63 -63c0 -32 -26 -63 -63 -63c-38 0 -63 31 -63 63c0 33 26 63 63 63zM117 357h492v-88h-492v88zM363 202c36 0 63 -29 63 -62c0 -34 -27 -64 -63 -64s-63 30 -63 64s27 62 63 62z" />
    <glyph glyph-name="uogonek" unicode="&#x173;" 
d="M580 82l-18 -82h-26c-7 0 -113 -28 -113 -63c0 -13 16 -15 23 -15c22 0 28 3 87 31l-34 -69c-26 -14 -55 -28 -98 -28c-36 0 -74 18 -74 58c0 15 6 52 69 86l8 30c-22 -14 -66 -44 -137 -44c-117 0 -140 99 -140 141c0 22 6 51 7 56l40 188h-78l17 82h168l-60 -278
c-1 -6 -6 -31 -6 -49c0 -15 10 -54 54 -54c50 0 107 28 158 77l47 222h-82l18 82h170l-78 -371h78z" />
    <glyph glyph-name="SF410000" unicode="&#x2566;" 
d="M408 -288h-72v504h264v-72h-192v-432zM0 216h264v-504h-72v432h-192v72zM600 288h-600v72h600v-72z" />
    <glyph glyph-name="SM630000" unicode="&#x25c0;" 
d="M560 83l-560 199l560 198v-397z" />
    <glyph glyph-name="Aogonek" unicode="&#x104;" 
d="M552 -47l-35 -69c-26 -14 -54 -28 -97 -28c-36 0 -74 18 -74 58c0 49 52 76 71 84v2h-60l18 82h89l-17 97h-224l-60 -97h88l-18 -82h-239l18 82h56l259 419h-127l18 82h240l98 -501h58l-18 -82h-42c-29 -6 -113 -32 -113 -63c0 -13 17 -15 24 -15c22 0 28 3 87 31z
M432 263l-38 190l-120 -190h158z" />
    <glyph glyph-name="SF070000" unicode="&#x2534;" 
d="M336 288h264v-72h-600v72h264v504h72v-504z" />
    <glyph glyph-name="scedilla" unicode="&#x15f;" 
d="M349 -10l-2 -8c32 -9 59 -28 59 -65c0 -29 -24 -87 -112 -87c-53 0 -104 13 -127 20l25 68c43 -10 81 -18 106 -18c7 0 23 2 23 8c0 5 -22 9 -23 9c-3 1 -30 4 -45 6l23 69c-59 10 -86 31 -101 44l-16 -51l-78 11c25 67 32 108 36 173l80 5c0 -33 0 -37 3 -48
c14 -51 107 -51 115 -51c70 0 144 27 144 79c0 13 0 26 -73 30c-95 5 -127 9 -154 20c-57 23 -78 68 -78 105c0 89 97 160 214 160c8 0 90 0 134 -44l18 51l70 -10c-30 -88 -35 -128 -37 -168h-78c2 8 2 13 2 23c0 22 -3 35 -23 46c-18 10 -58 16 -86 16
c-76 0 -123 -36 -123 -67c0 -28 27 -38 110 -43c82 -5 195 -10 195 -116c0 -85 -85 -155 -201 -167z" />
    <glyph glyph-name="arrowdown" unicode="&#x2193;" 
d="M270 563h60v-441c29 18 69 40 85 40c7 0 19 -5 19 -21c0 -8 -3 -11 -30 -37c-36 -35 -56 -68 -82 -112c-4 -7 -11 -17 -20 -17c-11 0 -12 2 -38 44c-27 44 -41 64 -86 102c-5 5 -11 10 -11 20c0 15 12 21 19 21c2 0 31 -4 84 -40v441z" />
    <glyph glyph-name="thorn" unicode="&#xfe;" 
d="M308 648l-48 -229c48 32 95 48 153 48c133 0 194 -100 194 -191c0 -155 -148 -283 -282 -283c-15 0 -85 0 -144 57l-25 -120h144l-17 -82h-312l18 82h79l132 626l-84 -4l13 86zM409 381c-110 0 -198 -92 -198 -190c0 -71 61 -112 116 -112c98 0 189 94 189 193
c0 67 -40 109 -107 109z" />
    <glyph glyph-name="dbar" unicode="&#x111;" 
d="M607 522h81l-12 -62h-81l-80 -378h80l-17 -82h-169l9 38c-29 -19 -81 -48 -150 -48c-116 0 -190 82 -190 182c0 135 134 263 272 263c49 0 103 -19 138 -54l19 79h-234l13 62h234l7 41l-158 -12l21 75l244 22zM270 65c109 0 189 99 189 185c0 67 -44 110 -107 110
c-102 0 -185 -89 -185 -185c0 -78 58 -110 103 -110z" />
    <glyph glyph-name="sixsuperior" unicode="&#x2076;" 
d="M507 638l-16 -59l-18 1h-28c-60 0 -94 -11 -125 -47c-17 -19 -28 -36 -36 -56l2 -2c22 14 44 20 67 20c57 0 94 -39 94 -98c0 -79 -70 -151 -148 -151c-60 0 -101 46 -101 114c0 77 37 166 91 219c42 42 96 62 169 60l32 -1h17zM262 388l-3 -19c0 -37 24 -65 54 -65
c39 0 73 38 73 83c0 30 -17 50 -42 50c-21 0 -46 -10 -62 -25c-6 -5 -10 -10 -20 -24z" />
    <glyph glyph-name="SF470000" unicode="&#x2564;" 
d="M336 144v-432h-72v432h-264v72h600v-72h-264zM600 288h-600v72h600v-72z" />
    <glyph glyph-name="similar" unicode="&#x223c;" 
d="M529 412l59 -67l-4 -6c-25 -42 -61 -101 -128 -101c-27 0 -45 8 -98 30c-27 11 -67 27 -81 27c-29 0 -46 -23 -70 -66l-6 -13l-60 69l4 6c25 44 61 106 132 106c13 0 35 0 106 -31c40 -18 58 -26 73 -26c29 0 46 28 73 72z" />
    <glyph glyph-name="SS260000" unicode="&#x2320;" 
d="M361 -243h-122v761c0 232 119 321 218 321c92 0 106 -63 106 -86c0 -48 -36 -75 -73 -75c-46 0 -64 29 -77 48c-6 9 -15 21 -27 21c-19 0 -25 -17 -25 -116v-874z" />
    <glyph glyph-name="degree" unicode="&#xb0;" 
d="M208 483c0 87 70 156 156 156c87 0 157 -70 157 -156c0 -87 -70 -157 -157 -157c-86 0 -156 69 -156 157zM289 483c0 -42 33 -76 75 -76c43 0 76 34 76 76c0 41 -33 75 -76 75s-75 -34 -75 -75z" />
    <glyph glyph-name="SF520000" unicode="&#x2553;" 
d="M336 216h-72v-504h-72v576h408v-72h-192v-504h-72v504z" />
    <glyph glyph-name="ccedilla" unicode="&#xe7;" 
d="M350 -11v-7c16 -4 59 -14 59 -73c0 -47 -39 -91 -112 -91c-51 0 -98 11 -129 20l26 68c7 -2 72 -18 106 -18c8 0 24 1 24 14c0 8 -9 12 -14 13c-5 2 -29 5 -55 8l21 63c-80 7 -179 64 -179 197c0 148 134 286 297 286c85 0 120 -36 134 -51l20 55l70 -14
c-27 -66 -36 -109 -39 -187l-80 -11c2 32 2 42 2 53c0 68 -83 69 -104 69c-131 0 -208 -104 -208 -197c0 -106 99 -114 120 -114c68 0 134 34 211 82l37 -75c-53 -34 -122 -74 -207 -90z" />
    <glyph glyph-name="SM760000" unicode="&#x2195;" 
d="M326 462v-301c27 17 68 40 85 40c5 0 19 -4 19 -21c0 -10 -3 -13 -30 -37c-14 -12 -44 -43 -78 -104c-9 -16 -14 -24 -24 -24c-11 0 -12 1 -33 35c-38 62 -50 74 -89 108c-9 8 -13 12 -13 22c0 17 14 21 19 21c3 0 31 -4 84 -40v301c-50 -35 -82 -40 -84 -40
c-7 0 -19 6 -19 20c0 9 1 10 26 33c15 14 45 42 86 114c6 10 10 18 23 18c10 0 12 -4 33 -38c22 -35 42 -68 82 -101c10 -9 17 -15 17 -25c0 -15 -11 -21 -18 -21c-23 0 -75 33 -86 40z" />
    <glyph glyph-name="Uogonek" unicode="&#x172;" 
d="M403 -47l-35 -69c-26 -14 -54 -28 -97 -28c-36 0 -74 18 -74 58c0 42 42 69 52 76c-23 5 -126 30 -126 150c0 20 2 48 15 112l53 249h-71l18 82h257l-18 -82h-98l-55 -259c-4 -19 -13 -65 -13 -97c0 -73 84 -73 97 -73c139 0 156 84 174 170l54 259h-98l18 82h252
l-17 -82h-69l-57 -272c-36 -169 -78 -201 -215 -246c-16 -5 -57 -23 -57 -46c0 -13 16 -15 23 -15c22 0 28 3 87 31z" />
    <glyph glyph-name="Ldot" unicode="&#x13f;" 
d="M165 583h304l-18 -82h-119l-89 -419h235l53 196h88l-72 -278h-506l18 82h96l88 419h-96zM440 397c35 0 71 -23 71 -64c0 -50 -51 -90 -100 -90c-38 0 -72 24 -72 64c0 50 51 90 101 90z" />
    <glyph glyph-name="underscoredbl" unicode="&#x2017;" 
d="M648 -175v-50h-696v50h696zM-48 -75h696v-50h-696v50z" />
    <glyph glyph-name="SM750002" unicode="&#x25d9;" 
d="M300 499c-119 0 -217 -96 -217 -217c0 -120 98 -217 217 -217s217 97 217 217c0 121 -98 217 -217 217zM18 0v564h564v-564h-564zM300 449c91 0 167 -75 167 -167c0 -91 -75 -167 -167 -167s-167 77 -167 167c0 92 75 167 167 167z" />
    <glyph glyph-name="SF430000" unicode="&#x2550;" 
d="M600 360v-72h-600v72h600zM600 216v-72h-600v72h600z" />
    <glyph glyph-name="SF400000" unicode="&#x2569;" 
d="M600 288h-264v504h72v-432h192v-72zM0 288v72h192v432h72v-504h-264zM600 216v-72h-600v72h600z" />
    <glyph glyph-name="SF530000" unicode="&#x256b;" 
d="M264 288h72v504h72v-504h192v-72h-192v-504h-72v504h-72v-504h-72v504h-192v72h192v504h72v-504z" />
    <glyph glyph-name="SF370000" unicode="&#x255f;" 
d="M336 792h72v-504h192v-72h-192v-504h-72v1080zM192 -288v1080h72v-1080h-72z" />
    <glyph glyph-name="SF060000" unicode="&#x252c;" 
d="M336 216v-504h-72v504h-264v72h600v-72h-264z" />
    <glyph glyph-name="SM690000" unicode="&#x263c;" 
d="M137 404l-66 65l42 41l66 -66c19 19 66 38 92 38v94h58v-94c27 0 68 -18 92 -38l67 66l41 -41l-66 -66c18 -18 37 -64 37 -92h94v-58h-94c0 -29 -17 -68 -37 -93l66 -66l-41 -41l-67 66c-14 -14 -61 -37 -92 -38v-94h-58v95c-35 0 -72 16 -92 37l-66 -66l-42 41l67 66
c-21 21 -37 65 -37 93h-95v58h95c0 24 18 71 36 93zM300 416c-74 0 -133 -59 -133 -133s59 -135 133 -135s134 61 134 135s-60 133 -134 133z" />
    <glyph glyph-name="tau" unicode="&#x3c4;" 
d="M360 371l-55 -256c-1 -7 -3 -17 -3 -27c0 -13 8 -21 29 -21c30 0 51 14 70 27c4 3 10 8 12 9l-4 -81c-1 0 -3 -2 -4 -2c-34 -19 -69 -29 -108 -29c-46 0 -83 20 -83 72c0 15 4 31 5 35l58 273h-47c-7 0 -55 -1 -111 -11l16 76c18 5 22 6 59 14c15 3 32 3 40 3h292
l-17 -82h-149z" />
    <glyph glyph-name="SM700000" 
d="M7 149v179h586v-179h-586z" />
    <glyph glyph-name="Lcedilla" unicode="&#x13b;" 
d="M360 0l-6 -18c33 -9 59 -28 59 -65c0 -29 -23 -87 -112 -87c-53 0 -103 13 -127 20l26 68c42 -10 81 -18 106 -18c7 0 23 2 23 8c0 5 -22 9 -23 9c-3 1 -30 4 -45 6l25 77h-245l18 82h96l88 419h-96l18 82h304l-18 -82h-119l-89 -419h235l52 196h89l-72 -278h-187z" />
    <glyph glyph-name="zerodot" 
d="M374 372c29 0 59 -19 59 -53c0 -43 -43 -74 -82 -74c-30 0 -59 19 -59 52c0 45 44 75 82 75zM425 639c146 0 154 -141 154 -186c0 -123 -55 -467 -281 -467c-147 0 -156 138 -156 186c0 122 55 467 283 467zM418 555c-131 0 -185 -264 -185 -384c0 -35 8 -101 69 -101
c138 0 186 279 186 382c0 29 -3 103 -70 103z" />
    <glyph glyph-name="SV040000" unicode="&#x25bc;" 
d="M102 467h396l-198 -371z" />
    <glyph glyph-name="SP500000" 
d="M265 282l-147 148l36 34l146 -147l146 147l36 -34l-147 -148l147 -146l-36 -36l-146 147l-146 -147l-36 36zM18 0v564h564v-564h-564zM75 507v-450h450v450h-450z" />
    <glyph glyph-name="Rcedilla" unicode="&#x156;" 
d="M152 583h262c65 0 183 0 183 -135c0 -66 -39 -124 -87 -157c-27 -18 -50 -26 -81 -35c35 -74 53 -111 74 -174h97l-18 -82h-153c-23 86 -58 169 -97 249h-84l-35 -167h88l-20 -82h-253l18 82h79l88 419h-79zM408 501h-107l-36 -168h68c39 0 91 -1 127 26
c24 18 48 49 48 87c0 55 -39 55 -100 55zM380 7l-8 -25c32 -9 59 -28 59 -65c0 -29 -23 -87 -112 -87c-53 0 -104 13 -127 20l25 68c43 -10 82 -18 106 -18c7 0 23 2 23 8c0 5 -21 9 -23 9c-2 1 -30 4 -44 6l27 84h74z" />
    <glyph glyph-name="SF490000" unicode="&#x2559;" 
d="M336 288v504h72v-504h192v-72h-408v576h72v-504h72z" />
    <glyph glyph-name="radical" unicode="&#x221a;" 
d="M52 344h161l32 -128h2l165 589h285v-86h-219l-204 -719h-71l-67 258h-84v86z" />
    <glyph glyph-name="SF460000" unicode="&#x2568;" 
d="M336 288v504h72v-504h192v-72h-600v72h192v504h72v-504h72z" />
    <glyph glyph-name="SM590000" unicode="&#x25b6;" 
d="M40 83v397l560 -198z" />
    <glyph glyph-name="SM750000" unicode="&#x25cb;" 
d="M300 499c119 0 217 -96 217 -217c0 -120 -98 -217 -217 -217s-217 97 -217 217c0 121 98 217 217 217zM300 449c-92 0 -167 -75 -167 -167c0 -90 75 -167 167 -167s167 76 167 167c0 92 -76 167 -167 167z" />
    <glyph glyph-name="SM770000" unicode="&#x21a8;" 
d="M185 -37h233v-60h-233v60zM326 462v-301c27 17 68 40 85 40c5 0 19 -4 19 -21c0 -10 -3 -13 -30 -37c-14 -12 -44 -43 -78 -104c-9 -16 -14 -24 -24 -24c-11 0 -12 1 -33 35c-38 62 -50 74 -89 108c-9 8 -13 12 -13 22c0 17 14 21 19 21c3 0 31 -4 84 -40v301
c-50 -35 -82 -40 -84 -40c-7 0 -19 6 -19 20c0 9 1 10 26 33c15 14 45 42 86 114c6 10 10 18 23 18c10 0 12 -4 33 -38c22 -35 42 -68 82 -101c10 -9 17 -15 17 -25c0 -15 -11 -21 -18 -21c-23 0 -75 33 -86 40z" />
    <glyph glyph-name="SF580000" unicode="&#x258c;" 
d="M0 -288v1080h300v-1080h-300z" />
    <glyph glyph-name="arrowboth" unicode="&#x2194;" 
d="M167 317h265c-17 27 -40 68 -40 85c0 5 4 19 21 19c10 0 13 -3 37 -30c12 -14 43 -44 104 -78c16 -9 24 -14 24 -24c0 -11 -1 -12 -35 -33c-62 -39 -74 -50 -108 -89c-8 -9 -12 -13 -22 -13c-17 0 -21 14 -21 19c0 3 4 31 40 84h-265c35 -50 40 -82 40 -84
c0 -7 -6 -19 -20 -19c-9 0 -10 1 -33 26c-14 15 -42 45 -114 86c-10 6 -18 10 -18 23c0 10 4 12 38 33c36 21 68 42 101 82c9 10 15 17 25 17c15 0 21 -11 21 -18c0 -23 -33 -75 -40 -86z" />
    <glyph glyph-name="SF240000" unicode="&#x2551;" 
d="M408 -288h-72v1080h72v-1080zM192 -288v1080h72v-1080h-72z" />
    <glyph glyph-name="Eng" unicode="&#x14a;" 
d="M151 583h170l-9 -44c46 24 108 56 183 56c113 0 130 -97 130 -139c0 -19 -5 -41 -6 -46l-79 -374c-24 -115 -124 -167 -200 -167h-99l19 89h87c74 0 101 64 107 89l79 377c4 16 4 27 4 32c0 29 -15 50 -56 50c-69 0 -152 -49 -193 -82l-73 -342h82l-18 -82h-252l18 82h82
l88 419h-82z" />
    <glyph glyph-name="SF390000" unicode="&#x2554;" 
d="M336 216h264v-72h-192v-432h-72v504zM264 288v-576h-72v648h408v-72h-336z" />
    <glyph glyph-name="Theta" unicode="&#x398;" 
d="M221 193l40 189h72l-13 -59h84l13 59h72l-40 -189h-72l12 59h-84l-12 -59h-72zM79 212c0 186 139 387 337 387c141 0 217 -114 217 -225c0 -190 -139 -391 -335 -391c-146 0 -219 116 -219 229zM167 224c0 -66 32 -160 139 -160c139 0 239 158 239 292
c0 77 -37 162 -138 162c-136 0 -240 -151 -240 -294z" />
    <glyph glyph-name="Omega" unicode="&#x2126;" 
d="M20 0l24 106h70l-8 -37h103l9 37c-35 15 -137 41 -137 171c0 173 151 323 330 323c135 0 244 -90 244 -219c0 -107 -67 -237 -224 -275l-9 -37h98l9 37h71l-24 -106h-249l34 159c29 1 80 3 129 41c50 38 81 106 81 171c0 91 -71 147 -164 147c-145 0 -242 -120 -242 -236
c0 -59 30 -105 140 -123l-34 -159h-251z" />
    <glyph glyph-name="Thorn" unicode="&#xde;" 
d="M335 460h70c72 0 213 0 213 -129c0 -82 -45 -131 -75 -154c-65 -50 -160 -49 -247 -49h-35l-7 -46h142l-18 -82h-303l18 82h78l90 419h-80l18 82h284l-18 -82h-123zM398 395h-78l-43 -199h34c85 0 144 0 182 35c29 27 39 65 39 90c0 74 -79 74 -134 74z" />
    <glyph glyph-name="spade" unicode="&#x2660;" 
d="M298 194v19h-2c-11 -27 -19 -39 -33 -52c-24 -23 -54 -35 -85 -35c-55 0 -100 46 -100 101c0 48 25 90 86 140c36 29 40 33 58 53c47 51 67 86 79 143c17 -72 43 -111 122 -182c79 -72 99 -103 99 -153c0 -58 -43 -102 -100 -102c-48 0 -85 28 -114 87h-2
c0 -74 12 -112 43 -145c30 -32 67 -47 129 -51l4 -17h-363l3 17c110 0 175 65 176 177z" />
    <glyph glyph-name="sevensuperior" unicode="&#x2077;" 
d="M266 631h259l-9 -44l-188 -333h-66l186 321h-136l-11 -53h-58z" />
    <glyph glyph-name="zerosuperior" unicode="&#x2070;" 
d="M383 639c58 0 93 -41 93 -109c0 -80 -29 -176 -67 -226c-29 -38 -68 -58 -112 -58c-60 0 -93 40 -93 111c0 78 29 174 67 223c29 38 68 59 112 59zM370 584c-21 0 -40 -12 -56 -36c-26 -39 -48 -122 -48 -183c0 -41 16 -64 44 -64c22 0 40 13 58 39c29 42 46 116 46 178
c0 44 -15 66 -44 66z" />
    <glyph glyph-name="onehalf" unicode="&#xbd;" 
d="M124 592l125 51h40l-70 -327h79l-12 -57h-219l12 57h81l54 253l-77 -31zM696 657l41 -33l-674 -718l-39 36zM552 33h56l-24 -112h-256l11 54l9 6l32 23l69 52c34 25 62 47 86 67c32 27 48 52 48 79c0 26 -22 44 -53 44c-35 0 -66 -21 -71 -48l-1 -6l-1 -6h-60l13 61
c40 38 83 57 130 57c58 0 104 -43 104 -98c0 -36 -14 -68 -44 -99c-17 -17 -50 -47 -87 -75c-17 -13 -36 -26 -76 -51v-2h103z" />
    <glyph glyph-name="IJ" unicode="&#x132;" 
d="M189 82h87l-19 -82h-253l18 82h84l88 419h-84l18 82h257l-18 -82h-91zM303 60l35 185h82l-12 -66c-1 -3 -11 -57 -11 -79c0 -18 9 -30 27 -30c24 0 41 18 68 147l60 284h-95l18 82h244l-18 -82h-61l-60 -284c-29 -138 -62 -233 -167 -233c-80 0 -102 56 -110 76z" />
    <glyph glyph-name="SF450000" unicode="&#x2567;" 
d="M336 360h264v-72h-600v72h264v432h72v-432zM600 144h-600v72h600v-72z" />
    <glyph glyph-name="SM790000" unicode="&#x2302;" 
d="M73 0v312l227 255l227 -255v-312h-454zM126 290v-237h348v237l-174 195z" />
    <glyph glyph-name="SF090000" unicode="&#x2524;" 
d="M336 -288h-72v504h-264v72h264v504h72v-1080z" />
    <glyph glyph-name="eth" unicode="&#xf0;" 
d="M376 660l57 67l55 -44l-48 -60c147 -87 171 -220 171 -306c0 -214 -152 -331 -317 -331c-122 0 -214 67 -214 193c0 154 137 291 303 291c42 0 96 -11 131 -36l2 2c-34 56 -78 95 -129 126l-63 -71l-61 42l61 65c-52 26 -68 32 -100 42l39 68c57 -19 81 -31 113 -48z
M386 394c-143 0 -218 -119 -218 -206c0 -39 17 -126 140 -126c130 0 215 109 215 206c0 55 -31 126 -137 126z" />
    <glyph glyph-name="eng" unicode="&#x14b;" 
d="M252 311l-49 -229h80l-17 -82h-250l18 82h80l61 289h-80l19 82h169l-8 -31c27 15 85 47 149 47c95 0 137 -66 137 -138c0 -19 -4 -40 -5 -45l-53 -250c-25 -117 -126 -170 -201 -170h-92l19 88h79c67 0 101 59 108 93l53 244c2 10 4 21 4 33c0 37 -21 57 -53 57
c-55 0 -107 -31 -168 -70z" />
    <glyph glyph-name="arrowleft" unicode="&#x2190;" 
d="M574 257h-409c38 -55 40 -84 40 -84c0 -5 -4 -19 -20 -19c-10 0 -17 8 -34 27c-15 16 -39 42 -114 85c-11 6 -19 10 -19 23c0 10 5 12 39 33c58 34 80 56 106 86c8 10 15 13 21 13c17 0 21 -13 21 -19c0 -18 -24 -61 -40 -85h409v-60z" />
    <glyph glyph-name="rcedilla" unicode="&#x157;" 
d="M380 0l-6 -18c32 -9 59 -28 59 -65c0 -29 -23 -87 -112 -87c-53 0 -104 13 -127 20l25 68c43 -10 82 -18 106 -18c7 0 23 2 23 8c0 5 -21 9 -23 9c-2 1 -30 4 -44 6l25 77h-249l18 82h121l61 289h-113l18 82h200l-12 -54l2 -2c60 57 119 67 157 67
c115 0 132 -110 136 -133l-92 -12c-4 24 -10 59 -51 59c-73 0 -151 -89 -183 -126l-36 -170h184l-18 -82h-69z" />
    <glyph glyph-name="plusminus" unicode="&#xb1;" 
d="M319 601h88v-188h202v-88h-202v-188h-88v188h-202v88h202v188zM117 111h492v-88h-492v88z" />
    <glyph glyph-name="Gamma" unicode="&#x393;" 
d="M164 583h502l-40 -212h-79l19 130h-247l-90 -419h129l-17 -82h-288l17 82h77l89 419h-89z" />
    <glyph glyph-name="underscorebroken" 
d="M555 -75v-87h-510v87h510z" />
    <glyph glyph-name="SF150000" unicode="&#x2592;" 
d="M0 733h100v-99l-1 -1h-99v100zM200 733h100v-99l-1 -1h-98l-1 1v99zM400 733h100v-99l-1 -1h-98l-1 1v99zM100 632l1 1h98l1 -1v-98l-1 -1h-98l-1 1v98zM300 632l1 1h98l1 -1v-98l-1 -1h-98l-1 1v98zM501 633h99v-100h-99l-1 1v98zM0 533h99l1 -1v-98l-1 -1h-99v100z
M200 532l1 1h98l1 -1v-98l-1 -1h-98l-1 1v98zM400 532l1 1h98l1 -1v-98l-1 -1h-98l-1 1v98zM100 432l1 1h98l1 -1v-98l-1 -1h-98l-1 1v98zM300 432l1 1h98l1 -1v-98l-1 -1h-98l-1 1v98zM501 433h99v-100h-99l-1 1v98zM0 333h99l1 -1v-98l-1 -1h-99v100zM200 332l1 1h98l1 -1
v-98l-1 -1h-98l-1 1v98zM400 332l1 1h98l1 -1v-98l-1 -1h-98l-1 1v98zM100 232l1 1h98l1 -1v-98l-1 -1h-98l-1 1v98zM300 232l1 1h98l1 -1v-98l-1 -1h-98l-1 1v98zM501 233h99v-100h-99l-1 1v98zM0 133h99l1 -1v-98l-1 -1h-99v100zM200 132l1 1h98l1 -1v-98l-1 -1h-98l-1 1
v98zM400 132l1 1h98l1 -1v-98l-1 -1h-98l-1 1v98zM100 32l1 1h98l1 -1v-98l-1 -1h-98l-1 1v98zM300 32l1 1h98l1 -1v-98l-1 -1h-98l-1 1v98zM501 33h99v-100h-99l-1 1v98zM0 -67h99l1 -1v-98l-1 -1h-99v100zM200 -68l1 1h98l1 -1v-98l-1 -1h-98l-1 1v98zM400 -68l1 1h98
l1 -1v-98l-1 -1h-98l-1 1v98zM101 -167h98l1 -1v-99h-100v99zM301 -167h98l1 -1v-99h-100v99zM501 -167h99v-100h-100v99z" />
    <glyph glyph-name="SF080000" unicode="&#x251c;" 
d="M264 -288v1080h72v-504h264v-72h-264v-504h-72z" />
    <glyph glyph-name="foursuperior" unicode="&#x2074;" 
d="M449 639l-52 -245h53l-11 -50h-53l-7 -37h52l-11 -53h-189l11 53h79l7 37h-156l10 46l204 249h63zM339 394l32 147l-2 2l-120 -149h90z" />
    <glyph glyph-name="SF380000" unicode="&#x255a;" 
d="M336 288v504h72v-432h192v-72h-264zM264 216h336v-72h-408v648h72v-576z" />
    <glyph glyph-name="Iogonek" unicode="&#x12e;" 
d="M415 -47l-35 -69c-26 -14 -54 -28 -97 -28c-36 0 -75 18 -75 58c0 49 56 78 71 84v2h-199l18 82h169l89 419h-170l18 82h427l-18 -82h-169l-88 -419h169l-18 -82h-90c-29 -6 -113 -32 -113 -63c0 -13 16 -15 24 -15c21 0 28 3 87 31z" />
    <glyph glyph-name="SF500000" unicode="&#x2558;" 
d="M264 792h72v-432h264v-72h-264v-72h264v-72h-336v648z" />
    <glyph glyph-name="female" unicode="&#x2640;" 
d="M326 275v-65h122v-47h-122v-125h-50v125h-122v47h122v65c-39 0 -120 51 -120 142c0 81 64 146 144 146c83 0 144 -69 144 -145c0 -96 -92 -143 -118 -143zM300 513c-52 0 -94 -42 -94 -94s42 -94 94 -94s94 42 94 94s-42 94 -94 94z" />
    <glyph glyph-name="SF040000" unicode="&#x2518;" 
d="M264 288v504h72v-576h-336v72h264z" />
    <glyph glyph-name="eightsuperior" unicode="&#x2078;" 
d="M192 337c0 43 24 81 69 110c-19 23 -26 39 -26 62c0 68 70 130 147 130c58 0 101 -37 101 -86c0 -42 -19 -73 -62 -106c21 -17 31 -39 31 -64c0 -73 -71 -137 -154 -137c-62 0 -106 38 -106 91zM297 519c0 -26 21 -46 49 -46c38 0 75 33 75 67c0 26 -21 43 -51 43
c-40 0 -73 -29 -73 -64zM254 348c0 -27 24 -46 56 -46c42 0 80 31 80 67c0 28 -22 48 -55 48c-44 0 -81 -33 -81 -69z" />
    <glyph glyph-name="Eogonek" unicode="&#x118;" 
d="M530 -47l-35 -69c-26 -14 -54 -28 -97 -28c-36 0 -74 18 -74 58c0 49 55 78 71 84v2h-355l18 82h82l89 419h-83l18 82h499l-41 -216h-84l19 134h-240l-32 -151h116l15 70h85l-48 -225h-84l14 69h-116l-38 -182h248l33 135h85l-47 -217h-16c-29 -6 -113 -32 -113 -63
c0 -13 17 -15 24 -15c22 0 28 3 87 31z" />
    <glyph glyph-name="spacenumeric" 
 />
    <glyph glyph-name="mu" unicode="&#xb5;" 
d="M115 453h168l-54 -251c-2 -9 -10 -46 -10 -65c0 -27 27 -65 80 -65c115 0 139 111 145 141l35 162h-80l17 78h168l-80 -371h80l-18 -82h-167l6 26l-2 2c-16 -17 -44 -42 -105 -42c-45 0 -81 12 -106 42l-36 -170h-88l110 517h-80z" />
    <glyph glyph-name="hbar" unicode="&#x127;" 
d="M288 460l-15 -71c46 27 96 46 148 46c64 0 137 -44 137 -128c0 -19 -5 -45 -6 -50l-35 -175h81l-19 -82h-252l17 82h84l37 183c1 5 7 33 7 47c0 28 -30 45 -55 45c-56 0 -106 -32 -163 -69l-46 -206h80l-19 -82h-248l16 82h82l82 378h-95l13 62h94l7 45l-90 -6l12 73
l185 14l-26 -126h220l-12 -62h-221z" />
    <glyph glyph-name="Gcedilla" unicode="&#x122;" 
d="M363 -14l-1 -4c33 -9 59 -28 59 -65c0 -29 -23 -87 -112 -87c-53 0 -104 13 -127 20l26 68c42 -10 81 -18 106 -18c6 0 22 2 22 8c0 5 -21 9 -23 9c-2 1 -29 4 -44 6l20 62c-169 17 -204 145 -204 231c0 190 149 383 341 383c91 0 129 -55 143 -75l20 63l81 -17
c-23 -53 -47 -126 -52 -208l-83 -14c2 40 2 45 2 55c0 96 -77 112 -116 112c-135 0 -243 -145 -243 -297c0 -100 55 -148 154 -148c65 0 116 20 137 28l20 96h-144l18 84h279l-18 -84h-46l-34 -159c-67 -25 -112 -42 -181 -49z" />
    <glyph glyph-name="SF270000" unicode="&#x255c;" 
d="M264 288h72v504h72v-576h-408v72h192v504h72v-504z" />
    <glyph glyph-name="Lquoteright" 
d="M165 583h304l-18 -82h-119l-89 -419h235l52 196h89l-72 -278h-506l18 82h96l88 419h-96zM541 583h146l-181 -274h-110z" />
    <glyph glyph-name="SF540000" unicode="&#x256a;" 
d="M336 360h264v-72h-264v-72h264v-72h-264v-432h-72v432h-264v72h264v72h-264v72h264v432h72v-432z" />
    <glyph glyph-name="greaterequal" unicode="&#x2265;" 
d="M133 610l511 -237l-511 -243l-36 79l348 163l-348 160zM120 106h488v-88h-488v88z" />
    <glyph glyph-name="SF510000" unicode="&#x2552;" 
d="M336 216h264v-72h-264v-432h-72v648h336v-72h-264v-72z" />
    <glyph glyph-name="Eth" unicode="&#xd0;" 
d="M149 261h-76l18 84h76l33 156h-77l18 82h256c86 0 123 -10 157 -34c38 -27 75 -86 75 -171c0 -29 -8 -171 -107 -284c-82 -93 -194 -94 -241 -94h-264l18 82h77zM391 501h-102l-33 -156h165l-18 -84h-164l-38 -179h88c37 0 112 0 167 67c64 78 80 175 80 219
c0 67 -26 100 -39 111c-17 15 -40 22 -106 22z" />
    <glyph glyph-name="SF190000" unicode="&#x2561;" 
d="M336 -288h-72v432h-264v72h264v72h-264v72h264v432h72v-1080z" />
    <glyph glyph-name="overline" unicode="&#x203e;" 
d="M555 805v-87h-510v87h510z" />
    <glyph glyph-name="heart" unicode="&#x2665;" 
d="M185 203l-52 69c-65 85 -82 122 -82 172c0 67 51 119 117 119c64 0 107 -38 132 -115h2c9 35 17 51 34 70c25 29 59 45 95 45c65 0 118 -51 118 -115c0 -59 -25 -112 -97 -203c-46 -58 -56 -71 -74 -97c-43 -65 -63 -105 -77 -159c-9 32 -15 49 -26 73
c-17 35 -52 91 -90 141z" />
    <glyph glyph-name="SM580000" 
d="M300 497c119 0 215 -96 215 -215s-96 -215 -215 -215s-215 96 -215 215c0 118 96 215 215 215z" />
    <glyph glyph-name="threequarters" unicode="&#xbe;" 
d="M608 304l-52 -243h52l-12 -57h-52l-6 -28h52l-12 -55h-189l12 55h78l6 28h-155l12 55l201 245h65zM498 61l29 135l-2 2l-110 -137h83zM123 549l-20 47c67 38 93 48 131 48c54 0 91 -32 93 -81c-3 -45 -15 -68 -50 -98c22 -17 33 -42 33 -70c0 -77 -75 -144 -160 -144
c-31 0 -52 6 -94 24l-25 11l34 53c45 -24 70 -32 98 -32c48 0 86 36 86 80c0 28 -22 45 -61 44l-33 -1l12 57c47 1 59 3 77 18c14 12 22 29 22 46c0 21 -19 37 -45 37c-21 0 -38 -7 -72 -25zM692 657l41 -33l-674 -718l-39 36z" />
    <glyph glyph-name="SF230000" unicode="&#x2563;" 
d="M336 -288v1080h72v-1080h-72zM192 144h-192v72h264v-504h-72v432zM264 288h-264v72h192v432h72v-504z" />
    <glyph glyph-name="SF110000" unicode="&#x2502;" 
d="M264 -288v1080h72v-1080h-72z" />
    <glyph glyph-name="fivesuperior" unicode="&#x2075;" 
d="M263 631h225l-12 -56h-169l-17 -81c22 7 38 9 57 9c66 0 107 -38 107 -98c0 -87 -76 -159 -168 -159c-21 0 -43 3 -63 9c-13 4 -25 9 -59 23l32 54c42 -21 69 -30 99 -30c57 0 98 40 98 92c0 33 -25 53 -60 53c-28 0 -49 -7 -84 -30l-28 17z" />
    <glyph glyph-name="minussuperior" unicode="&#x207b;" 
d="M497 476v-67h-334v67h334z" />
    <glyph glyph-name="ncedilla" unicode="&#x146;" 
d="M330 0l-5 -18c32 -9 59 -28 59 -65c0 -29 -24 -87 -112 -87c-53 0 -104 13 -127 20l25 68c43 -10 81 -18 106 -18c7 0 22 2 22 8c0 5 -20 9 -22 9c-2 1 -30 4 -45 6l26 77h-241l18 82h79l62 289h-80l18 82h170l-9 -33c58 33 105 48 148 48c68 0 139 -48 139 -133
c0 -22 -5 -50 -7 -55l-41 -198h81l-18 -82h-246zM268 7h57l15 75h85l43 205c1 7 7 32 7 48c0 24 -23 45 -60 45c-40 0 -90 -19 -164 -71l-48 -227h80z" />
    <glyph glyph-name="onequarter" unicode="&#xbc;" 
d="M619 304l-52 -243h52l-12 -57h-53l-6 -28h53l-12 -55h-189l12 55h78l6 28h-155l12 55l201 245h65zM508 61l30 135l-2 2l-110 -137h82zM124 592l125 51h40l-70 -327h79l-12 -57h-219l12 57h81l54 253l-77 -31zM703 657l40 -33l-674 -718l-38 36z" />
    <glyph glyph-name="phi" unicode="&#x3c6;" 
d="M316 -13l-29 -138h-88l31 145c-16 4 -55 13 -88 43c-40 37 -59 90 -59 143c0 71 31 130 59 168c54 74 104 94 162 118l-21 -98c-104 -62 -109 -151 -109 -174c0 -20 9 -89 75 -113l54 256c6 27 29 137 144 137c73 0 165 -62 165 -185c0 -43 -13 -130 -68 -188
c-98 -103 -169 -110 -228 -114zM391 338l-57 -267c40 4 80 8 150 88c28 32 37 86 37 114c0 71 -49 115 -85 115c-34 0 -43 -37 -45 -50z" />
    <glyph glyph-name="highcomman" 
d="M46 672h125l-83 -139h-87zM113 453h170l-9 -33c67 35 104 48 144 48c74 0 143 -48 143 -134c0 -22 -5 -49 -6 -54l-42 -198h81l-18 -82h-252l16 82h85l43 205c1 5 7 33 7 48c0 28 -29 45 -59 45s-72 -7 -165 -71l-48 -227h80l-17 -82h-250l18 82h79l62 289h-80z" />
    <glyph glyph-name="yuan" 
d="M316 277l7 30l-121 223h-70l18 82h234l-22 -82h-56l78 -139l131 139h-55l18 82h229l-18 -82h-67l-213 -223l-6 -30h133l-18 -82h-134l-22 -113h116l-18 -82h-317l19 82h113l23 113h-136l19 82h135z" />
    <glyph glyph-name="oneeighth" unicode="&#x215b;" 
d="M362 3c0 43 24 81 69 110c-19 23 -26 39 -26 62c0 68 70 130 147 130c58 0 101 -37 101 -86c0 -42 -19 -73 -62 -106c21 -17 31 -39 31 -64c0 -73 -71 -137 -154 -137c-62 0 -106 38 -106 91zM467 185c0 -26 21 -46 49 -46c38 0 75 33 75 67c0 26 -21 43 -51 43
c-40 0 -73 -29 -73 -64zM424 14c0 -27 24 -46 56 -46c42 0 80 31 80 67c0 28 -22 48 -55 48c-44 0 -81 -33 -81 -69zM124 592l125 51h40l-70 -327h79l-12 -57h-219l12 57h81l54 253l-77 -31zM703 657l40 -33l-674 -718l-38 36z" />
    <glyph glyph-name="tcedilla" unicode="&#x163;" 
d="M370 -11l-2 -7c33 -9 59 -28 59 -65c0 -29 -23 -87 -112 -87c-53 0 -104 13 -127 20l25 68c43 -10 83 -18 108 -18c6 0 22 2 22 8c0 5 -21 9 -23 9c-2 1 -30 4 -45 6l21 65c-109 18 -117 96 -117 113c0 19 3 36 16 97l34 159h-67l18 84h66l30 142h87l-29 -142h214
l-17 -84h-215l-37 -168c-5 -25 -12 -57 -12 -74c0 -42 51 -42 61 -42c51 0 91 11 229 65v-91c-90 -38 -151 -53 -187 -58z" />
    <glyph glyph-name="musicalnotedbl" unicode="&#x266b;" 
d="M479 171v159l-247 -68v-146c0 -103 -78 -136 -126 -136c-62 0 -63 39 -63 54c0 49 45 98 104 98c12 0 22 -2 35 -5v352l347 90v-408c0 -102 -76 -137 -125 -137c-31 0 -63 13 -63 54c0 49 44 99 104 99c12 0 22 -2 34 -6zM232 413v-75l247 67v76z" />
    <glyph glyph-name="SF220000" unicode="&#x2555;" 
d="M0 216h264v72h-264v72h336v-648h-72v432h-264v72z" />
    <glyph glyph-name="SM600000" unicode="&#x25b2;" 
d="M102 95l198 371l198 -371h-396z" />
    <glyph glyph-name="multiply" unicode="&#xd7;" 
d="M426 316l143 -143l-61 -61l-143 143l-143 -143l-62 61l143 143l-143 143l62 62l143 -143l143 143l61 -62z" />
    <glyph glyph-name="Phi" unicode="&#x3a6;" 
d="M368 519h-89l13 64h248l-13 -64h-75l-9 -41c20 -2 74 -5 111 -27c53 -31 72 -83 72 -124c0 -58 -32 -134 -104 -177c-62 -37 -126 -39 -158 -40l-10 -47h87l-12 -63h-247l13 63h76l11 46c-25 1 -78 5 -119 30c-50 30 -66 80 -66 118c0 10 0 210 262 221zM297 187l46 213
c-160 -5 -160 -124 -160 -134c0 -76 80 -77 114 -79zM426 400l-46 -212c161 6 160 119 160 133c0 76 -82 78 -114 79z" />
    <glyph glyph-name="pi" unicode="&#x3c0;" 
d="M611 453l-18 -82h-73l-63 -289h87l-17 -82h-229l17 82h59l62 289h-206l-64 -289h64l-15 -82h-223l17 82h74l62 289h-87l17 82h536z" />
    <glyph glyph-name="SF360000" unicode="&#x255e;" 
d="M264 -288v1080h72v-432h264v-72h-264v-72h264v-72h-264v-432h-72z" />
    <glyph glyph-name="periodsuperior" 
d="M370 365c29 0 61 -16 61 -49c0 -37 -40 -66 -82 -66c-29 0 -60 16 -60 49c0 37 41 66 81 66z" />
    <glyph glyph-name="SF250000" unicode="&#x2557;" 
d="M192 144h-192v72h264v-504h-72v432zM336 -288v576h-336v72h408v-648h-72z" />
    <glyph glyph-name="SF200000" unicode="&#x2562;" 
d="M264 792v-1080h-72v504h-192v72h192v504h72zM408 -288h-72v1080h72v-1080z" />
    <glyph glyph-name="kcedilla" unicode="&#x137;" 
d="M121 633l188 15l-76 -353l129 74v2h-33l19 82h249l-18 -82h-76l-174 -111c64 -80 93 -116 130 -178h95l-18 -82h-240l18 82h41c-41 57 -59 81 -101 130l-44 -29l-39 -183h-168l18 82h80l100 473l-90 -8zM279 7l-8 -25c33 -9 59 -28 59 -65c0 -29 -23 -87 -112 -87
c-53 0 -104 13 -127 20l26 68c42 -10 81 -18 106 -18c23 0 23 6 23 7c0 8 -18 10 -68 16l28 84h73z" />
    <glyph glyph-name="Ccedilla" unicode="&#xc7;" 
d="M193 -162l25 68c7 -2 72 -18 107 -18c7 0 24 1 24 14c0 8 -9 12 -15 13c-5 2 -29 5 -54 8l20 60c-132 14 -197 107 -197 236c0 210 162 380 342 380c33 0 102 -6 142 -71l21 60l76 -19c-16 -35 -46 -98 -54 -216l-79 5c2 21 4 41 4 61c0 81 -79 94 -115 94
c-132 0 -246 -133 -246 -295c0 -50 12 -148 151 -148c92 0 142 34 205 78l47 -73c-41 -30 -119 -88 -224 -91v-2c17 -3 60 -13 60 -72c0 -47 -38 -92 -112 -92c-55 0 -102 13 -128 20z" />
    <glyph glyph-name="fiveeighths" unicode="&#x215d;" 
d="M349 3c0 43 24 81 69 110c-19 23 -26 39 -26 62c0 68 70 130 147 130c58 0 101 -37 101 -86c0 -42 -19 -73 -62 -106c21 -17 31 -39 31 -64c0 -73 -71 -137 -154 -137c-62 0 -106 38 -106 91zM454 185c0 -26 21 -46 49 -46c38 0 75 33 75 67c0 26 -21 43 -51 43
c-40 0 -73 -29 -73 -64zM411 14c0 -27 24 -46 56 -46c42 0 80 31 80 67c0 28 -22 48 -55 48c-44 0 -81 -33 -81 -69zM135 631h225l-12 -56h-169l-17 -81c22 7 38 9 57 9c66 0 107 -38 107 -98c0 -87 -76 -159 -168 -159c-21 0 -43 3 -63 9c-13 4 -25 9 -59 23l32 54
c42 -21 69 -30 99 -30c57 0 98 40 98 92c0 33 -25 53 -60 53c-28 0 -49 -7 -84 -30l-28 17zM678 657l41 -33l-674 -718l-38 36z" />
    <glyph glyph-name="SF570000" unicode="&#x2584;" 
d="M0 -288v540h600v-540h-600z" />
    <glyph glyph-name="minus" unicode="&#x2212;" 
d="M611 356v-87h-492v87h492z" />
    <glyph glyph-name="SF590000" unicode="&#x2590;" 
d="M300 -288v1080h300v-1080h-300z" />
    <glyph glyph-name="ninesuperior" unicode="&#x2079;" 
d="M184 247l16 59l18 -1h28c60 0 94 11 125 47c17 19 28 36 36 56l-2 2c-22 -14 -44 -20 -67 -20c-57 0 -94 39 -94 98c0 79 70 151 148 151c60 0 101 -46 101 -114c0 -77 -37 -166 -91 -219c-42 -42 -96 -62 -169 -60l-32 1h-17zM429 497l3 19c0 37 -24 65 -54 65
c-39 0 -73 -38 -73 -83c0 -30 17 -50 42 -50c21 0 46 10 62 25c6 5 10 10 20 24z" />
    <glyph glyph-name="Ncedilla" unicode="&#x145;" 
d="M130 583h183l142 -437h18l75 355h-93l18 82h241l-18 -82h-60l-109 -513h-106l-146 444h-18l-74 -350h96l-18 -82h-249l18 82h65l88 419h-71zM375 7l-8 -25c33 -9 60 -28 60 -65c0 -29 -24 -87 -113 -87c-53 0 -103 13 -127 20l26 68c42 -10 81 -18 106 -18c7 0 23 2 23 8
c0 5 -22 9 -23 9c-3 1 -30 4 -45 6l28 84h73z" />
    <glyph glyph-name="seveneighths" unicode="&#x215e;" 
d="M349 3c0 43 24 81 69 110c-19 23 -26 39 -26 62c0 68 70 130 147 130c58 0 101 -37 101 -86c0 -42 -19 -73 -62 -106c21 -17 31 -39 31 -64c0 -73 -71 -137 -154 -137c-62 0 -106 38 -106 91zM454 185c0 -26 21 -46 49 -46c38 0 75 33 75 67c0 26 -21 43 -51 43
c-40 0 -73 -29 -73 -64zM411 14c0 -27 24 -46 56 -46c42 0 80 31 80 67c0 28 -22 48 -55 48c-44 0 -81 -33 -81 -69zM109 634h258l-11 -47l-186 -328h-68l186 319h-133l-11 -53h-58zM645 657l41 -33l-674 -718l-39 36z" />
    <glyph glyph-name="equivalence" unicode="&#x2261;" 
d="M117 531h495v-88h-495v88zM117 357h495v-88h-495v88zM117 182h495v-88h-495v88z" />
    <glyph glyph-name="iogonek" unicode="&#x12f;" 
d="M417 -47l-34 -69c-20 -11 -52 -28 -98 -28c-35 0 -74 17 -74 58c0 49 56 78 71 84v2h-197l18 82h170l61 289h-143l18 82h231l-79 -371h167l-18 -82h-90c-35 -7 -113 -33 -113 -63c0 -13 16 -15 23 -15c22 0 28 3 87 31zM352 540l28 132h106l-27 -132h-107z" />
    <glyph glyph-name="SF210000" unicode="&#x2556;" 
d="M264 216v-504h-72v504h-192v72h408v-576h-72v504h-72z" />
    <glyph glyph-name="ohm" unicode="&#x2126;" 
d="M22 0v116h71v-40h103v20c-123 30 -177 129 -177 232c0 163 132 271 281 271c152 0 281 -111 281 -270c0 -26 -1 -186 -176 -233v-20h102v40h71v-116h-249v146c43 8 168 33 168 178c0 133 -115 194 -197 194c-81 0 -197 -60 -197 -194c0 -147 128 -171 169 -178v-146h-250
z" />
    <glyph glyph-name="Hbar" unicode="&#x126;" 
d="M282 466h223l8 35h-73l18 82h234l-18 -82h-73l-8 -35h73l-18 -84h-72l-63 -300h73l-18 -82h-234l18 82h73l37 177h-223l-38 -177h73l-18 -82h-234l18 82h73l63 300h-73l17 84h73l8 35h-73l18 82h234l-18 -82h-72zM487 382h-223l-7 -39h223z" />
    <glyph glyph-name="SF030000" unicode="&#x2510;" 
d="M0 216v72h336v-576h-72v504h-264z" />
    <glyph glyph-name="eogonek" unicode="&#x119;" 
d="M413 -47l-35 -69c-26 -14 -54 -28 -97 -28c-36 0 -75 18 -75 58c0 42 41 68 55 77c-147 26 -162 139 -162 187c0 146 126 291 299 291c140 0 204 -88 204 -179c0 -31 -6 -49 -20 -94h-392c1 -39 3 -122 129 -122c74 0 144 29 226 65l25 -81c-59 -29 -71 -32 -180 -64
c-4 -1 -88 -26 -88 -57c0 -13 16 -15 24 -15c21 0 28 3 87 31zM216 278h295c-1 23 -2 105 -119 105c-110 0 -160 -79 -176 -105z" />
    <glyph glyph-name="micro" unicode="&#xb5;" 
d="M120 453h164l-53 -246c-1 -6 -9 -44 -9 -64c0 -41 40 -76 87 -76c71 0 126 52 145 140l35 164h-80l17 82h164l-80 -371h80l-17 -82h-164l12 46l-2 2c-11 -18 -45 -63 -118 -63c-76 0 -92 40 -101 63h-2l-43 -201h-83l112 524h-81z" />
    <glyph glyph-name="epsilon" unicode="&#x3b5;" 
d="M508 476l73 -6c-28 -75 -35 -102 -41 -174l-70 -10c-7 62 -13 109 -125 109c-66 0 -108 -29 -108 -60c0 -36 55 -61 142 -61c7 0 18 1 37 1l-17 -80c-12 1 -34 3 -59 3c-129 0 -176 -50 -176 -79c0 -18 19 -52 102 -52c56 0 92 12 179 45l7 -79c-1 0 -4 -1 -5 -2
c-42 -17 -110 -46 -196 -46c-101 0 -175 52 -175 119c0 55 55 115 133 138c-35 21 -60 51 -60 86c0 89 104 145 193 145c75 0 122 -37 148 -58z" />
    <glyph glyph-name="Pts" unicode="&#x20a7;" 
d="M125 583h208c61 0 182 0 182 -122c0 -161 -169 -161 -285 -161h-46l-49 -226h49l-14 -74h-169l15 74h45l95 435h-45zM255 265h65l-13 -58h63l-14 -65h-63l-9 -40c-4 -19 -5 -26 -5 -32c0 -16 18 -17 19 -17c9 0 12 2 45 13l8 -66c-35 -11 -50 -14 -66 -14s-74 8 -74 69
c0 18 5 36 8 47l11 40h-35l13 65h33zM545 213l4 11l49 -8c-2 -8 -11 -40 -14 -67h-45c-1 22 -36 22 -40 22c-20 0 -35 -7 -35 -23c0 -17 14 -18 40 -19c43 -1 86 -14 86 -60c0 -48 -45 -83 -104 -83c-33 0 -41 5 -56 14l-4 -13l-54 7c2 7 5 16 7 29c1 2 4 18 4 21
c3 15 4 16 4 22h49c2 -6 4 -12 10 -17s17 -8 35 -8c21 0 44 8 44 24c0 14 -5 14 -49 18c-49 4 -77 21 -77 60c0 45 41 82 97 82c22 0 37 -7 49 -12zM313 509h-83l-31 -138h47c88 0 190 0 190 81c0 57 -79 57 -123 57z" />
    <glyph glyph-name="SF100000" unicode="&#x2500;" 
d="M0 216v72h600v-72h-600z" />
    <glyph glyph-name="SF050000" unicode="&#x253c;" 
d="M336 288h264v-72h-264v-504h-72v504h-264v72h264v504h72v-504z" />
    <glyph glyph-name="infinity" unicode="&#x221e;" 
d="M363 377c22 23 63 65 131 65c70 0 129 -48 129 -129c0 -66 -43 -130 -126 -130c-65 0 -108 41 -132 64c-56 -63 -116 -64 -131 -64c-63 0 -128 43 -128 128c0 90 72 130 127 130c51 0 98 -24 130 -64zM423 314l16 -16c7 -6 27 -25 60 -25c32 0 38 28 38 40
c0 29 -22 41 -41 41c-35 0 -60 -26 -73 -40zM306 313c-29 30 -51 40 -74 40c-5 0 -40 -1 -40 -41c0 -34 25 -39 38 -39c21 0 44 7 76 40z" />
    <glyph glyph-name="lessequal" unicode="&#x2264;" 
d="M581 610l36 -78l-348 -160l347 -163l-35 -79l-512 243zM594 106v-88h-489v88h489z" />
    <glyph glyph-name="liter" 
d="M296 243c-5 -22 -34 -158 -34 -189c0 -6 3 -11 10 -11c21 0 37 30 40 35c13 24 17 31 31 31c17 0 19 -15 19 -19c0 -20 -39 -102 -105 -102c-31 0 -71 20 -71 75c0 32 5 59 13 110c-30 -23 -34 -25 -44 -25c-8 0 -19 9 -19 19s4 13 35 39c5 4 22 19 41 37
c50 232 105 378 192 378c45 0 59 -41 59 -77c0 -38 -12 -84 -31 -125c-28 -57 -32 -61 -136 -176zM313 323l17 21c37 40 88 129 88 197c0 16 -6 31 -19 31s-21 -14 -24 -17c-20 -31 -38 -108 -64 -230z" />
    <glyph glyph-name="logicalnot" unicode="&#xac;" 
d="M142 462h454v-299h-88v211h-366v88z" />
    <glyph glyph-name="SF140000" unicode="&#x2591;" 
d="M500 533v-100h-100v100h100zM300 533v-100h-100v100h100zM500 333v-100h-100v100h100zM300 333v-100h-100v100h100zM500 133v-100h-100v100h100zM300 133v-100h-100v100h100zM500 -67v-100h-100v100h100zM300 -67v-100h-100v100h100zM100 533v-100h-100v100h100zM100 333
v-100h-100v100h100zM100 133v-100h-100v100h100zM100 -67v-100h-100v100h100zM100 733v-100h-100v100h100zM300 733v-100h-100v100h100zM500 733v-100h-100v100h100z" />
    <glyph glyph-name="nsuperior" unicode="&#x207f;" 
d="M223 590h131l-4 -23c34 21 68 32 108 32c21 0 92 -5 92 -79c0 -18 -3 -37 -5 -47l-30 -139h53l-16 -74h-182l15 74h54l30 139c2 7 4 22 4 30c0 15 -16 22 -33 22c-31 0 -67 -15 -107 -43l-33 -148h50l-17 -74h-180l15 74h55l40 182h-56z" />
    <glyph glyph-name="intersection" unicode="&#x2229;" 
d="M221 0h-87l-1 261c0 123 0 178 36 233c46 70 122 105 195 105c91 0 161 -51 196 -106c34 -54 35 -119 35 -232v-261h-88v264c0 96 1 149 -23 186c-28 44 -79 63 -120 63c-44 0 -91 -22 -119 -64c-24 -36 -24 -97 -24 -185v-264z" />
    <glyph glyph-name="SF160000" unicode="&#x2593;" 
d="M600 -267h-600v100h100v100h-100v100h100v100h-100v100h100v100h-100v100h100v100h-100v100h100v100h100v-100h100v100h100v-100h100v100h100v-1000zM500 233v100h-100v-100h100zM300 233v100h-100v-100h100zM500 33v100h-100v-100h100zM300 33v100h-100v-100h100z
M500 433v100h-100v-100h100zM300 433v100h-100v-100h100zM500 -167v100h-100v-100h100zM300 -167v100h-100v-100h100z" />
    <glyph glyph-name="SF260000" unicode="&#x255d;" 
d="M264 288h-264v72h192v432h72v-504zM336 216v576h72v-648h-408v72h336z" />
    <glyph glyph-name="notequal" unicode="&#x2260;" 
d="M426 334l-15 -31h174v-82h-216l-78 -157l-85 45l56 112h-119v82h160l15 31h-175v82h217l76 151l86 -44l-54 -107h117v-82h-159z" />
    <glyph glyph-name="filledbox" unicode="&#x25a0;" 
d="M201 141v198h198v-198h-198z" />
    <glyph glyph-name="lcedilla" unicode="&#x13c;" 
d="M332 0l-6 -18c33 -9 59 -28 59 -65c0 -29 -23 -87 -112 -87c-53 0 -104 13 -127 20l25 68c43 -10 82 -18 107 -18c6 0 22 2 22 8c0 5 -21 9 -23 9c-2 1 -29 4 -44 6l25 77h-176l18 82h169l97 459l-158 -11l9 85l254 16l-116 -549h169l-18 -82h-174z" />
    <glyph glyph-name="parenrightsuperior" unicode="&#x207e;" 
d="M280 213h-86c3 2 11 13 13 16c68 83 135 169 135 281c0 51 -9 86 -36 165h76c11 -23 42 -85 42 -171c0 -102 -58 -199 -144 -291z" />
    <glyph glyph-name="musicalnote" unicode="&#x266a;" 
d="M271 162v401h50v-53c3 -4 8 -11 10 -12c5 -7 35 -43 41 -50c18 -21 74 -88 74 -182c0 -16 0 -77 -49 -136h-37c16 36 32 70 32 125c0 47 -22 107 -71 128v-232c0 -104 -79 -137 -127 -137c-63 0 -63 49 -63 54c0 50 45 99 104 99c13 0 23 -2 36 -5z" />
    <glyph glyph-name="parenleftsuperior" unicode="&#x207d;" 
d="M494 675h86c-76 -94 -148 -182 -148 -296c0 -42 7 -80 24 -128c8 -23 8 -26 9 -28c1 -3 3 -9 4 -10h-76c0 1 -2 4 -3 5c-26 52 -40 109 -40 167c0 104 61 201 144 290z" />
    <glyph glyph-name="longdash" 
d="M113 345h503v-92h-503v92z" />
    <glyph glyph-name="male" unicode="&#x2642;" 
d="M305 387l104 104c-49 17 -55 19 -75 33c-6 5 -13 10 -13 20c0 6 4 17 17 17c5 0 9 -1 17 -3c14 -3 31 -6 59 -6c43 0 53 3 66 7c10 4 16 4 19 4c10 0 14 -7 14 -14c0 -5 -1 -9 -3 -19c-7 -23 -8 -50 -8 -68c0 -28 4 -47 7 -61c2 -10 2 -12 2 -16c0 -16 -14 -18 -16 -18
c-23 0 -44 62 -53 91l-99 -99c10 -11 35 -40 35 -92c0 -76 -59 -148 -145 -148c-78 0 -143 63 -143 143c0 74 57 145 146 145c39 0 57 -11 69 -20zM234 357c-64 0 -94 -53 -94 -94c0 -52 42 -94 94 -94s94 42 94 94s-42 94 -94 94z" />
    <glyph glyph-name="lquoteright" 
d="M177 615l254 16l-116 -549h169l-18 -82h-424l18 82h169l97 459l-158 -11zM581 583h146l-181 -274h-110z" />
    <glyph glyph-name="threesuperior" unicode="&#xb3;" 
d="M252 544l-20 47c67 38 93 48 131 48c54 0 91 -32 93 -81c-3 -45 -15 -68 -50 -98c22 -17 33 -42 33 -70c0 -77 -75 -144 -160 -144c-31 0 -52 6 -94 24l-25 11l34 53c45 -24 70 -32 98 -32c48 0 86 36 86 80c0 28 -22 45 -61 44l-33 -1l12 57c47 1 59 3 77 18
c14 12 22 29 22 46c0 21 -19 37 -45 37c-21 0 -38 -7 -72 -25z" />
    <glyph glyph-name="jcircumflex" unicode="&#x135;" 
d="M166 453h335l-84 -396c-11 -51 -44 -203 -242 -203c-60 0 -112 12 -153 22l39 83c35 -8 82 -19 131 -19c112 0 128 71 139 125l61 306h-244zM328 652h86l79 -86l-57 -31l-78 48l-92 -48l-48 33z" />
    <glyph glyph-name="ij" unicode="&#x133;" 
d="M210 453h193l-96 -453h-221l18 82h133l60 289h-105zM315 540l28 132h107l-28 -132h-107zM445 453h169l-85 -396c-11 -51 -43 -203 -241 -203c-61 0 -112 12 -153 22l39 83c35 -8 82 -19 132 -19c113 0 128 72 139 125l62 306h-80zM507 540l27 132h107l-28 -132h-106z" />
    <glyph glyph-name="onesuperior" unicode="&#xb9;" 
d="M235 581l145 58h36l-70 -329h101l-12 -56h-261l12 56h102l54 258l-94 -38z" />
    <glyph glyph-name="kgreenlandic" unicode="&#x138;" 
d="M84 453h183l-34 -158l129 74v2h-33l19 82h249l-18 -82h-76l-174 -111c65 -81 93 -117 130 -178h95l-18 -82h-240l18 82h41c-41 57 -59 81 -101 130l-44 -29l-39 -183h-168l18 82h80l60 289h-95z" />
    <glyph glyph-name="ldot" unicode="&#x140;" 
d="M217 615l254 16l-116 -549h169l-18 -82h-424l18 82h169l97 459l-158 -11zM549 370c36 0 72 -23 72 -63c0 -51 -52 -90 -100 -90c-36 0 -72 22 -72 63c0 51 52 90 100 90z" />
    <glyph glyph-name="exclamdbl" unicode="&#x203c;" 
d="M369 591l-105 -404h-83l66 404h122zM206 141c45 0 77 -30 77 -68c0 -48 -47 -89 -99 -89c-43 0 -76 29 -76 69c0 47 45 88 98 88zM595 591l-105 -404h-83l66 404h122zM432 141c46 0 76 -31 76 -68c0 -48 -45 -89 -98 -89c-42 0 -77 28 -77 69c0 47 46 88 99 88z" />
    <glyph glyph-name="Aacute" unicode="&#xc1;" 
d="M218 583h240l98 -501h58l-18 -82h-239l18 82h89l-17 97h-224l-60 -97h88l-18 -82h-239l18 82h56l259 419h-127zM432 263l-38 190l-120 -190h158zM612 768l-174 -94h-89l123 98h140v-4z" />
    <glyph glyph-name="Abreve" unicode="&#x102;" 
d="M218 583h240l98 -501h58l-18 -82h-239l18 82h89l-17 97h-224l-60 -97h88l-18 -82h-239l18 82h56l259 419h-127zM432 263l-38 190l-120 -190h158zM240 792h77c3 -25 9 -71 84 -71c43 0 89 20 114 66c1 2 2 5 3 5h79c-18 -38 -29 -60 -66 -90c-47 -37 -97 -49 -141 -49
c-58 0 -113 22 -139 78c-9 19 -9 33 -11 61z" />
    <glyph glyph-name="Acircumflex" unicode="&#xc2;" 
d="M218 583h240l98 -501h58l-18 -82h-239l18 82h89l-17 97h-224l-60 -97h88l-18 -82h-239l18 82h56l259 419h-127zM432 263l-38 190l-120 -190h158zM372 782h86l78 -86l-56 -31l-78 48l-92 -48l-49 33z" />
    <glyph glyph-name="Adieresis" unicode="&#xc4;" 
d="M218 583h240l98 -501h58l-18 -82h-239l18 82h89l-17 97h-224l-60 -97h88l-18 -82h-239l18 82h56l259 419h-127zM432 263l-38 190l-120 -190h158zM314 663l26 115h97l-26 -115h-97zM462 663l26 115h97l-26 -115h-97z" />
    <glyph glyph-name="Agrave" unicode="&#xc0;" 
d="M218 583h240l98 -501h58l-18 -82h-239l18 82h89l-17 97h-224l-60 -97h88l-18 -82h-239l18 82h56l259 419h-127zM432 263l-38 190l-120 -190h158zM294 768v4h148l86 -98h-84z" />
    <glyph glyph-name="Amacron" unicode="&#x100;" 
d="M218 583h240l98 -501h58l-18 -82h-239l18 82h89l-17 97h-224l-60 -97h88l-18 -82h-239l18 82h56l259 419h-127zM432 263l-38 190l-120 -190h158zM240 765h343l-19 -85h-342z" />
    <glyph glyph-name="Aring" unicode="&#xc5;" 
d="M218 583h240l98 -501h58l-18 -82h-239l18 82h89l-17 97h-224l-60 -97h88l-18 -82h-239l18 82h56l259 419h-127zM432 263l-38 190l-120 -190h158zM513 734c0 -49 -40 -89 -90 -89c-49 0 -89 40 -89 89c0 50 40 90 89 90c50 0 90 -40 90 -90zM455 734c0 18 -14 32 -32 32
c-17 0 -31 -14 -31 -32c0 -17 14 -31 31 -31c18 0 32 14 32 31z" />
    <glyph glyph-name="Atilde" unicode="&#xc3;" 
d="M218 583h240l98 -501h58l-18 -82h-239l18 82h89l-17 97h-224l-60 -97h88l-18 -82h-239l18 82h56l259 419h-127zM432 263l-38 190l-120 -190h158zM566 789l67 -21c-19 -35 -56 -107 -139 -107c-17 0 -40 3 -73 31c-25 21 -30 22 -36 22c-23 0 -37 -23 -53 -48
c-1 -2 -4 -5 -4 -6l-66 24c22 38 60 103 133 103c37 0 57 -17 75 -32c16 -14 27 -21 39 -21c24 0 42 29 54 49c0 1 3 5 3 6z" />
    <glyph glyph-name="Cacute" unicode="&#x106;" 
d="M608 588l76 -19c-16 -35 -46 -98 -55 -216l-79 5c2 21 5 41 5 61c0 81 -79 94 -116 94c-131 0 -245 -133 -245 -295c0 -50 13 -148 152 -148c92 0 140 34 204 78l47 -73c-54 -39 -127 -91 -255 -91c-170 0 -239 106 -239 237c0 209 162 378 342 378c33 0 102 -6 142 -71z
M612 768l-174 -94h-89l123 98h140v-4z" />
    <glyph glyph-name="Ccaron" unicode="&#x10c;" 
d="M608 588l76 -19c-16 -35 -46 -98 -55 -216l-79 5c2 21 5 41 5 61c0 81 -79 94 -116 94c-131 0 -245 -133 -245 -295c0 -50 13 -148 152 -148c92 0 140 34 204 78l47 -73c-54 -39 -127 -91 -255 -91c-170 0 -239 106 -239 237c0 209 162 378 342 378c33 0 102 -6 142 -71z
M481 665h-86l-79 86l56 31l79 -48l92 48l48 -33z" />
    <glyph glyph-name="Ccircumflex" unicode="&#x108;" 
d="M608 588l76 -19c-16 -35 -46 -98 -55 -216l-79 5c2 21 5 41 5 61c0 81 -79 94 -116 94c-131 0 -245 -133 -245 -295c0 -50 13 -148 152 -148c92 0 140 34 204 78l47 -73c-54 -39 -127 -91 -255 -91c-170 0 -239 106 -239 237c0 209 162 378 342 378c33 0 102 -6 142 -71z
M420 782h86l78 -86l-56 -31l-78 48l-92 -48l-49 33z" />
    <glyph glyph-name="Cdotaccent" unicode="&#x10a;" 
d="M608 588l76 -19c-16 -35 -46 -98 -55 -216l-79 5c2 21 5 41 5 61c0 81 -79 94 -116 94c-131 0 -245 -133 -245 -295c0 -50 13 -148 152 -148c92 0 140 34 204 78l47 -73c-54 -39 -127 -91 -255 -91c-170 0 -239 106 -239 237c0 209 162 378 342 378c33 0 102 -6 142 -71z
M383 663l25 120h97l-26 -120h-96z" />
    <glyph glyph-name="Dcaron" unicode="&#x10e;" 
d="M141 583h256c86 0 123 -10 157 -34c38 -27 75 -86 75 -171c0 -29 -8 -171 -107 -284c-82 -93 -194 -94 -241 -94h-264l18 82h77l88 419h-77zM391 501h-102l-88 -419h88c37 0 112 0 167 67c64 78 80 176 80 220c0 67 -26 99 -39 110c-17 15 -40 22 -106 22zM439 665h-86
l-79 86l56 31l79 -48l92 48l48 -33z" />
    <glyph glyph-name="Eacute" unicode="&#xc9;" 
d="M164 583h499l-41 -216h-84l19 134h-240l-32 -151h116l15 70h85l-48 -225h-84l14 69h-116l-38 -182h248l33 135h85l-47 -217h-508l18 82h82l89 419h-83zM612 768l-174 -94h-89l123 98h140v-4z" />
    <glyph glyph-name="Ecaron" unicode="&#x11a;" 
d="M164 583h499l-41 -216h-84l19 134h-240l-32 -151h116l15 70h85l-48 -225h-84l14 69h-116l-38 -182h248l33 135h85l-47 -217h-508l18 82h82l89 419h-83zM481 665h-86l-79 86l56 31l79 -48l92 48l48 -33z" />
    <glyph glyph-name="Ecircumflex" unicode="&#xca;" 
d="M164 583h499l-41 -216h-84l19 134h-240l-32 -151h116l15 70h85l-48 -225h-84l14 69h-116l-38 -182h248l33 135h85l-47 -217h-508l18 82h82l89 419h-83zM420 782h86l78 -86l-56 -31l-78 48l-92 -48l-49 33z" />
    <glyph glyph-name="Edieresis" unicode="&#xcb;" 
d="M164 583h499l-41 -216h-84l19 134h-240l-32 -151h116l15 70h85l-48 -225h-84l14 69h-116l-38 -182h248l33 135h85l-47 -217h-508l18 82h82l89 419h-83zM314 663l26 115h97l-26 -115h-97zM462 663l26 115h97l-26 -115h-97z" />
    <glyph glyph-name="Edotaccent" unicode="&#x116;" 
d="M164 583h499l-41 -216h-84l19 134h-240l-32 -151h116l15 70h85l-48 -225h-84l14 69h-116l-38 -182h248l33 135h85l-47 -217h-508l18 82h82l89 419h-83zM383 663l25 120h97l-26 -120h-96z" />
    <glyph glyph-name="Egrave" unicode="&#xc8;" 
d="M164 583h499l-41 -216h-84l19 134h-240l-32 -151h116l15 70h85l-48 -225h-84l14 69h-116l-38 -182h248l33 135h85l-47 -217h-508l18 82h82l89 419h-83zM294 798v4h148l86 -98h-84z" />
    <glyph glyph-name="Emacron" unicode="&#x112;" 
d="M164 583h499l-41 -216h-84l19 134h-240l-32 -151h116l15 70h85l-48 -225h-84l14 69h-116l-38 -182h248l33 135h85l-47 -217h-508l18 82h82l89 419h-83zM285 765h343l-19 -85h-342z" />
    <glyph glyph-name="Gbreve" unicode="&#x11e;" 
d="M363 278h279l-18 -84h-46l-34 -159l-14 -5c-54 -20 -123 -46 -212 -46c-149 0 -233 93 -233 232c0 190 149 383 341 383c91 0 129 -55 143 -75l20 63l81 -17c-23 -53 -47 -126 -52 -208l-83 -14c2 34 2 44 2 55c0 96 -77 112 -116 112c-135 0 -243 -145 -243 -297
c0 -100 55 -148 154 -148c65 0 116 20 137 28l20 96h-144zM288 792h77c3 -25 9 -71 84 -71c43 0 89 20 114 66c1 2 2 5 3 5h79c-18 -38 -29 -60 -66 -90c-47 -37 -97 -49 -141 -49c-58 0 -113 22 -139 78c-9 19 -9 33 -11 61z" />
    <glyph glyph-name="Gcircumflex" unicode="&#x11c;" 
d="M363 278h279l-18 -84h-46l-34 -159l-14 -5c-54 -20 -123 -46 -212 -46c-149 0 -233 93 -233 232c0 190 149 383 341 383c91 0 129 -55 143 -75l20 63l81 -17c-23 -53 -47 -126 -52 -208l-83 -14c2 34 2 44 2 55c0 96 -77 112 -116 112c-135 0 -243 -145 -243 -297
c0 -100 55 -148 154 -148c65 0 116 20 137 28l20 96h-144zM420 782h86l78 -86l-56 -31l-78 48l-92 -48l-49 33z" />
    <glyph glyph-name="Gdotaccent" unicode="&#x120;" 
d="M363 278h279l-18 -84h-46l-34 -159l-14 -5c-54 -20 -123 -46 -212 -46c-149 0 -233 93 -233 232c0 190 149 383 341 383c91 0 129 -55 143 -75l20 63l81 -17c-23 -53 -47 -126 -52 -208l-83 -14c2 34 2 44 2 55c0 96 -77 112 -116 112c-135 0 -243 -145 -243 -297
c0 -100 55 -148 154 -148c65 0 116 20 137 28l20 96h-144zM383 663l25 120h97l-26 -120h-96z" />
    <glyph glyph-name="Hcircumflex" unicode="&#x124;" 
d="M146 583h234l-18 -82h-73l-33 -158h223l34 158h-73l18 82h234l-18 -82h-73l-88 -419h73l-18 -82h-234l18 82h73l37 177h-223l-38 -177h73l-18 -82h-234l18 82h73l88 419h-73zM420 782h86l78 -86l-56 -31l-78 48l-92 -48l-49 33z" />
    <glyph glyph-name="Iacute" unicode="&#xcd;" 
d="M204 583h427l-18 -82h-169l-88 -419h169l-18 -82h-427l18 82h169l89 419h-170zM612 768l-174 -94h-89l123 98h140v-4z" />
    <glyph glyph-name="Icircumflex" unicode="&#xce;" 
d="M204 583h427l-18 -82h-169l-88 -419h169l-18 -82h-427l18 82h169l89 419h-170zM420 782h86l78 -86l-56 -31l-78 48l-92 -48l-49 33z" />
    <glyph glyph-name="Idieresis" unicode="&#xcf;" 
d="M204 583h427l-18 -82h-169l-88 -419h169l-18 -82h-427l18 82h169l89 419h-170zM314 663l26 115h97l-26 -115h-97zM462 663l26 115h97l-26 -115h-97z" />
    <glyph glyph-name="Idotaccent" unicode="&#x130;" 
d="M204 583h427l-18 -82h-169l-88 -419h169l-18 -82h-427l18 82h169l89 419h-170zM383 663l25 120h97l-26 -120h-96z" />
    <glyph glyph-name="Igrave" unicode="&#xcc;" 
d="M204 583h427l-18 -82h-169l-88 -419h169l-18 -82h-427l18 82h169l89 419h-170zM294 768v4h148l86 -98h-84z" />
    <glyph glyph-name="Imacron" unicode="&#x12a;" 
d="M204 583h427l-18 -82h-169l-88 -419h169l-18 -82h-427l18 82h169l89 419h-170zM285 765h343l-19 -85h-342z" />
    <glyph glyph-name="Itilde" unicode="&#x128;" 
d="M204 583h427l-18 -82h-169l-88 -419h169l-18 -82h-427l18 82h169l89 419h-170zM566 789l67 -21c-19 -35 -56 -107 -139 -107c-17 0 -40 3 -73 31c-25 21 -30 22 -36 22c-23 0 -37 -23 -53 -48c-1 -2 -4 -5 -4 -6l-66 24c22 38 60 103 133 103c37 0 57 -17 75 -32
c16 -14 27 -21 39 -21c24 0 42 29 54 49c0 1 3 5 3 6z" />
    <glyph glyph-name="Jcircumflex" unicode="&#x134;" 
d="M306 583h402l-18 -82h-123l-61 -288c-15 -73 -28 -110 -50 -141c-39 -55 -103 -88 -174 -88c-74 0 -140 27 -221 68l41 240h88l-20 -117c-3 -12 -5 -30 -5 -44c0 -41 68 -61 113 -61c106 0 123 65 141 151l59 280h-190zM485 782h86l78 -86l-56 -31l-78 48l-92 -48l-49 33
z" />
    <glyph glyph-name="Lacute" unicode="&#x139;" 
d="M165 583h304l-18 -82h-119l-89 -419h235l52 196h89l-72 -278h-506l18 82h96l88 419h-96zM494 768l-174 -94h-89l123 98h140v-4z" />
    <glyph glyph-name="Lcaron" unicode="&#x13d;" 
d="M165 583h304l-18 -82h-119l-89 -419h235l52 196h89l-72 -278h-506l18 82h96l88 419h-96zM363 665h-86l-79 86l56 31l79 -48l92 48l48 -33z" />
    <glyph glyph-name="Nacute" unicode="&#x143;" 
d="M130 583h183l142 -437h18l75 355h-93l18 82h241l-18 -82h-60l-109 -513h-106l-146 444h-18l-74 -350h96l-18 -82h-249l18 82h65l88 419h-71zM612 768l-174 -94h-89l123 98h140v-4z" />
    <glyph glyph-name="Ncaron" unicode="&#x147;" 
d="M130 583h183l142 -437h18l75 355h-93l18 82h241l-18 -82h-60l-109 -513h-106l-146 444h-18l-74 -350h96l-18 -82h-249l18 82h65l88 419h-71zM481 665h-86l-79 86l56 31l79 -48l92 48l48 -33z" />
    <glyph glyph-name="Ntilde" unicode="&#xd1;" 
d="M130 583h183l142 -437h18l75 355h-93l18 82h241l-18 -82h-60l-109 -513h-106l-146 444h-18l-74 -350h96l-18 -82h-249l18 82h65l88 419h-71zM566 789l67 -21c-19 -35 -56 -107 -139 -107c-17 0 -40 3 -73 31c-25 21 -30 22 -36 22c-23 0 -37 -23 -53 -48
c-1 -2 -4 -5 -4 -6l-66 24c22 38 60 103 133 103c37 0 57 -17 75 -32c16 -14 27 -21 39 -21c24 0 42 29 54 49c0 1 3 5 3 6z" />
    <glyph glyph-name="Oacute" unicode="&#xd3;" 
d="M80 224c0 165 133 375 335 375c181 0 218 -153 218 -234c0 -181 -140 -381 -336 -381c-195 0 -217 178 -217 240zM173 227c0 -43 12 -159 129 -159c133 0 238 152 238 294c0 43 -17 153 -130 153c-137 0 -237 -160 -237 -288zM612 768l-174 -94h-89l123 98h140v-4z" />
    <glyph glyph-name="Ocircumflex" unicode="&#xd4;" 
d="M80 224c0 165 133 375 335 375c181 0 218 -153 218 -234c0 -181 -140 -381 -336 -381c-195 0 -217 178 -217 240zM173 227c0 -43 12 -159 129 -159c133 0 238 152 238 294c0 43 -17 153 -130 153c-137 0 -237 -160 -237 -288zM420 782h86l78 -86l-56 -31l-78 48l-92 -48
l-49 33z" />
    <glyph glyph-name="Odieresis" unicode="&#xd6;" 
d="M80 224c0 165 133 375 335 375c181 0 218 -153 218 -234c0 -181 -140 -381 -336 -381c-195 0 -217 178 -217 240zM173 227c0 -43 12 -159 129 -159c133 0 238 152 238 294c0 43 -17 153 -130 153c-137 0 -237 -160 -237 -288zM314 663l26 115h97l-26 -115h-97zM462 663
l26 115h97l-26 -115h-97z" />
    <glyph glyph-name="Ograve" unicode="&#xd2;" 
d="M80 224c0 165 133 375 335 375c181 0 218 -153 218 -234c0 -181 -140 -381 -336 -381c-195 0 -217 178 -217 240zM173 227c0 -43 12 -159 129 -159c133 0 238 152 238 294c0 43 -17 153 -130 153c-137 0 -237 -160 -237 -288zM324 768v4h148l86 -98h-84z" />
    <glyph glyph-name="Ohungarumlaut" unicode="&#x150;" 
d="M80 224c0 165 133 375 335 375c181 0 218 -153 218 -234c0 -181 -140 -381 -336 -381c-195 0 -217 178 -217 240zM173 227c0 -43 12 -159 129 -159c133 0 238 152 238 294c0 43 -17 153 -130 153c-137 0 -237 -160 -237 -288zM518 787l-182 -129h-72l138 129h116z
M680 787l-182 -129h-72l138 129h116z" />
    <glyph glyph-name="Omacron" unicode="&#x14c;" 
d="M80 224c0 165 133 375 335 375c181 0 218 -153 218 -234c0 -181 -140 -381 -336 -381c-195 0 -217 178 -217 240zM173 227c0 -43 12 -159 129 -159c133 0 238 152 238 294c0 43 -17 153 -130 153c-137 0 -237 -160 -237 -288zM285 765h343l-19 -85h-342z" />
    <glyph glyph-name="Otilde" unicode="&#xd5;" 
d="M80 224c0 165 133 375 335 375c181 0 218 -153 218 -234c0 -181 -140 -381 -336 -381c-195 0 -217 178 -217 240zM173 227c0 -43 12 -159 129 -159c133 0 238 152 238 294c0 43 -17 153 -130 153c-137 0 -237 -160 -237 -288zM566 789l67 -21c-19 -35 -56 -107 -139 -107
c-17 0 -40 3 -73 31c-25 21 -30 22 -36 22c-23 0 -37 -23 -53 -48c-1 -2 -4 -5 -4 -6l-66 24c22 38 60 103 133 103c37 0 57 -17 75 -32c16 -14 27 -21 39 -21c24 0 42 29 54 49c0 1 3 5 3 6z" />
    <glyph glyph-name="Racute" unicode="&#x154;" 
d="M152 583h262c65 0 183 0 183 -135c0 -66 -39 -124 -87 -157c-27 -18 -50 -26 -81 -35c36 -76 53 -113 74 -174h97l-18 -82h-153c-23 86 -58 169 -97 249h-84l-35 -167h88l-20 -82h-253l18 82h79l88 419h-79zM408 501h-107l-36 -168h68c39 0 91 -1 127 26
c24 18 48 49 48 87c0 55 -39 55 -100 55zM612 768l-174 -94h-89l123 98h140v-4z" />
    <glyph glyph-name="Rcaron" unicode="&#x158;" 
d="M152 583h262c65 0 183 0 183 -135c0 -66 -39 -124 -87 -157c-27 -18 -50 -26 -81 -35c36 -76 53 -113 74 -174h97l-18 -82h-153c-23 86 -58 169 -97 249h-84l-35 -167h88l-20 -82h-253l18 82h79l88 419h-79zM408 501h-107l-36 -168h68c39 0 91 -1 127 26
c24 18 48 49 48 87c0 55 -39 55 -100 55zM481 665h-86l-79 86l56 31l79 -48l92 48l48 -33z" />
    <glyph glyph-name="Sacute" unicode="&#x15a;" 
d="M569 606l76 -23c-43 -88 -48 -117 -65 -212l-76 12c3 14 6 29 6 49c0 72 -62 84 -105 84c-88 0 -146 -48 -146 -103c0 -67 66 -71 107 -74c38 -2 78 -5 118 -27c36 -21 72 -57 72 -124c0 -76 -59 -202 -246 -202c-91 0 -124 27 -159 62l-20 -66l-82 13
c34 89 41 117 52 209h77c0 -49 -1 -54 5 -69c20 -50 88 -60 128 -60c103 0 154 57 154 110c0 57 -52 61 -118 66c-56 5 -92 18 -118 37c-37 28 -61 77 -61 124c0 91 87 190 233 190c53 0 105 -16 139 -60zM612 768l-174 -94h-89l123 98h140v-4z" />
    <glyph glyph-name="Scaron" unicode="&#x160;" 
d="M569 606l76 -23c-43 -88 -48 -117 -65 -212l-76 12c3 14 6 29 6 49c0 72 -62 84 -105 84c-88 0 -146 -48 -146 -103c0 -67 66 -71 107 -74c38 -2 78 -5 118 -27c36 -21 72 -57 72 -124c0 -76 -59 -202 -246 -202c-91 0 -124 27 -159 62l-20 -66l-82 13
c34 89 41 117 52 209h77c0 -49 -1 -54 5 -69c20 -50 88 -60 128 -60c103 0 154 57 154 110c0 57 -52 61 -118 66c-56 5 -92 18 -118 37c-37 28 -61 77 -61 124c0 91 87 190 233 190c53 0 105 -16 139 -60zM481 665h-86l-79 86l56 31l79 -48l92 48l48 -33z" />
    <glyph glyph-name="Scircumflex" unicode="&#x15c;" 
d="M569 606l76 -23c-43 -88 -48 -117 -65 -212l-76 12c3 14 6 29 6 49c0 72 -62 84 -105 84c-88 0 -146 -48 -146 -103c0 -67 66 -71 107 -74c38 -2 78 -5 118 -27c36 -21 72 -57 72 -124c0 -76 -59 -202 -246 -202c-91 0 -124 27 -159 62l-20 -66l-82 13
c34 89 41 117 52 209h77c0 -49 -1 -54 5 -69c20 -50 88 -60 128 -60c103 0 154 57 154 110c0 57 -52 61 -118 66c-56 5 -92 18 -118 37c-37 28 -61 77 -61 124c0 91 87 190 233 190c53 0 105 -16 139 -60zM420 782h86l78 -86l-56 -31l-78 48l-92 -48l-49 33z" />
    <glyph glyph-name="Tcaron" unicode="&#x164;" 
d="M172 583h501l-34 -242h-87l22 160h-126l-87 -419h118l-18 -82h-322l18 82h116l88 419h-125l-45 -160h-88zM481 665h-86l-79 86l56 31l79 -48l92 48l48 -33z" />
    <glyph glyph-name="Uacute" unicode="&#xda;" 
d="M138 583h257l-18 -82h-98l-55 -259c-4 -19 -13 -65 -13 -97c0 -73 84 -73 97 -73c139 0 156 84 174 170l54 259h-98l18 82h252l-17 -82h-69l-57 -272c-24 -110 -47 -153 -88 -186c-54 -44 -121 -59 -175 -59c-93 0 -179 49 -179 156c0 20 2 48 15 112l53 249h-71z
M612 768l-174 -94h-89l123 98h140v-4z" />
    <glyph glyph-name="Ubreve" unicode="&#x16c;" 
d="M138 583h257l-18 -82h-98l-55 -259c-4 -19 -13 -65 -13 -97c0 -73 84 -73 97 -73c139 0 156 84 174 170l54 259h-98l18 82h252l-17 -82h-69l-57 -272c-24 -110 -47 -153 -88 -186c-54 -44 -121 -59 -175 -59c-93 0 -179 49 -179 156c0 20 2 48 15 112l53 249h-71z
M288 792h77c3 -25 9 -71 84 -71c43 0 89 20 114 66c1 2 2 5 3 5h79c-18 -38 -29 -60 -66 -90c-47 -37 -97 -49 -141 -49c-58 0 -113 22 -139 78c-9 19 -9 33 -11 61z" />
    <glyph glyph-name="Ucircumflex" unicode="&#xdb;" 
d="M138 583h257l-18 -82h-98l-55 -259c-4 -19 -13 -65 -13 -97c0 -73 84 -73 97 -73c139 0 156 84 174 170l54 259h-98l18 82h252l-17 -82h-69l-57 -272c-24 -110 -47 -153 -88 -186c-54 -44 -121 -59 -175 -59c-93 0 -179 49 -179 156c0 20 2 48 15 112l53 249h-71z
M420 782h86l78 -86l-56 -31l-78 48l-92 -48l-49 33z" />
    <glyph glyph-name="Udieresis" unicode="&#xdc;" 
d="M138 583h257l-18 -82h-98l-55 -259c-4 -19 -13 -65 -13 -97c0 -73 84 -73 97 -73c139 0 156 84 174 170l54 259h-98l18 82h252l-17 -82h-69l-57 -272c-24 -110 -47 -153 -88 -186c-54 -44 -121 -59 -175 -59c-93 0 -179 49 -179 156c0 20 2 48 15 112l53 249h-71z
M314 663l26 115h97l-26 -115h-97zM462 663l26 115h97l-26 -115h-97z" />
    <glyph glyph-name="Ugrave" unicode="&#xd9;" 
d="M138 583h257l-18 -82h-98l-55 -259c-4 -19 -13 -65 -13 -97c0 -73 84 -73 97 -73c139 0 156 84 174 170l54 259h-98l18 82h252l-17 -82h-69l-57 -272c-24 -110 -47 -153 -88 -186c-54 -44 -121 -59 -175 -59c-93 0 -179 49 -179 156c0 20 2 48 15 112l53 249h-71z
M294 768v4h148l86 -98h-84z" />
    <glyph glyph-name="Uhungarumlaut" unicode="&#x170;" 
d="M138 583h257l-18 -82h-98l-55 -259c-4 -19 -13 -65 -13 -97c0 -73 84 -73 97 -73c139 0 156 84 174 170l54 259h-98l18 82h252l-17 -82h-69l-57 -272c-24 -110 -47 -153 -88 -186c-54 -44 -121 -59 -175 -59c-93 0 -179 49 -179 156c0 20 2 48 15 112l53 249h-71z
M518 787l-182 -129h-72l138 129h116zM680 787l-182 -129h-72l138 129h116z" />
    <glyph glyph-name="Umacron" unicode="&#x16a;" 
d="M138 583h257l-18 -82h-98l-55 -259c-4 -19 -13 -65 -13 -97c0 -73 84 -73 97 -73c139 0 156 84 174 170l54 259h-98l18 82h252l-17 -82h-69l-57 -272c-24 -110 -47 -153 -88 -186c-54 -44 -121 -59 -175 -59c-93 0 -179 49 -179 156c0 20 2 48 15 112l53 249h-71z
M285 765h343l-19 -85h-342z" />
    <glyph glyph-name="Uring" unicode="&#x16e;" 
d="M138 583h257l-18 -82h-98l-55 -259c-4 -19 -13 -65 -13 -97c0 -73 84 -73 97 -73c139 0 156 84 174 170l54 259h-98l18 82h252l-17 -82h-69l-57 -272c-24 -110 -47 -153 -88 -186c-54 -44 -121 -59 -175 -59c-93 0 -179 49 -179 156c0 20 2 48 15 112l53 249h-71z
M513 734c0 -49 -40 -89 -90 -89c-49 0 -89 40 -89 89c0 50 40 90 89 90c50 0 90 -40 90 -90zM455 734c0 18 -14 32 -32 32c-17 0 -31 -14 -31 -32c0 -17 14 -31 31 -31c18 0 32 14 32 31z" />
    <glyph glyph-name="Utilde" unicode="&#x168;" 
d="M138 583h257l-18 -82h-98l-55 -259c-4 -19 -13 -65 -13 -97c0 -73 84 -73 97 -73c139 0 156 84 174 170l54 259h-98l18 82h252l-17 -82h-69l-57 -272c-24 -110 -47 -153 -88 -186c-54 -44 -121 -59 -175 -59c-93 0 -179 49 -179 156c0 20 2 48 15 112l53 249h-71z
M566 789l67 -21c-19 -35 -56 -107 -139 -107c-17 0 -40 3 -73 31c-25 21 -30 22 -36 22c-23 0 -37 -23 -53 -48c-1 -2 -4 -5 -4 -6l-66 24c22 38 60 103 133 103c37 0 57 -17 75 -32c16 -14 27 -21 39 -21c24 0 42 29 54 49c0 1 3 5 3 6z" />
    <glyph glyph-name="Yacute" unicode="&#xdd;" 
d="M138 583h231l-18 -82h-61l71 -184l148 184h-57l19 82h227l-18 -82h-67l-227 -281l-29 -138h114l-19 -82h-314l16 82h116l30 147l-106 272h-73zM612 768l-174 -94h-89l123 98h140v-4z" />
    <glyph glyph-name="Ydieresis" unicode="&#x178;" 
d="M138 583h231l-18 -82h-61l71 -184l148 184h-57l19 82h227l-18 -82h-67l-227 -281l-29 -138h114l-19 -82h-314l16 82h116l30 147l-106 272h-73zM314 663l26 115h97l-26 -115h-97zM462 663l26 115h97l-26 -115h-97z" />
    <glyph glyph-name="Zacute" unicode="&#x179;" 
d="M196 583h429l-15 -70l-406 -431h252l33 159h85l-51 -241h-457l15 74l401 427h-218l-30 -143h-86zM612 768l-174 -94h-89l123 98h140v-4z" />
    <glyph glyph-name="Zcaron" unicode="&#x17d;" 
d="M196 583h429l-15 -70l-406 -431h252l33 159h85l-51 -241h-457l15 74l401 427h-218l-30 -143h-86zM481 665h-86l-79 86l56 31l79 -48l92 48l48 -33z" />
    <glyph glyph-name="Zdotaccent" unicode="&#x17b;" 
d="M196 583h429l-15 -70l-406 -431h252l33 159h85l-51 -241h-457l15 74l401 427h-218l-30 -143h-86zM383 663l25 120h97l-26 -120h-96z" />
    <glyph glyph-name="aacute" unicode="&#xe1;" 
d="M535 301l-46 -219h86l-18 -82h-175l8 36c-40 -20 -100 -50 -172 -50c-90 0 -148 61 -148 133c0 80 78 188 262 188c44 0 76 -4 115 -9c0 15 0 16 2 29c1 8 2 15 2 18c0 37 -52 43 -78 43c-52 0 -111 -17 -160 -36c-17 -7 -19 -7 -29 -11l-18 83c7 2 8 3 15 5c3 2 6 3 7 3
c47 17 115 42 196 42c87 0 158 -41 158 -120c0 -20 -6 -47 -7 -53zM413 146l15 69c-30 4 -58 8 -97 8c-143 0 -170 -73 -170 -100c0 -33 35 -51 62 -51c62 0 154 47 190 74zM582 638l-174 -94h-89l123 98h140v-4z" />
    <glyph glyph-name="abreve" unicode="&#x103;" 
d="M535 301l-46 -219h86l-18 -82h-175l8 36c-40 -20 -100 -50 -172 -50c-90 0 -148 61 -148 133c0 80 78 188 262 188c44 0 76 -4 115 -9c0 15 0 16 2 29c1 8 2 15 2 18c0 37 -52 43 -78 43c-52 0 -111 -17 -160 -36c-17 -7 -19 -7 -29 -11l-18 83c7 2 8 3 15 5c3 2 6 3 7 3
c47 17 115 42 196 42c87 0 158 -41 158 -120c0 -20 -6 -47 -7 -53zM413 146l15 69c-30 4 -58 8 -97 8c-143 0 -170 -73 -170 -100c0 -33 35 -51 62 -51c62 0 154 47 190 74zM258 662h77c3 -25 9 -71 84 -71c43 0 89 20 114 66c1 2 2 5 3 5h79c-18 -38 -29 -60 -66 -90
c-47 -37 -97 -49 -141 -49c-58 0 -113 22 -139 78c-9 19 -9 33 -11 61z" />
    <glyph glyph-name="acircumflex" unicode="&#xe2;" 
d="M535 301l-46 -219h86l-18 -82h-175l8 36c-40 -20 -100 -50 -172 -50c-90 0 -148 61 -148 133c0 80 78 188 262 188c44 0 76 -4 115 -9c0 15 0 16 2 29c1 8 2 15 2 18c0 37 -52 43 -78 43c-52 0 -111 -17 -160 -36c-17 -7 -19 -7 -29 -11l-18 83c7 2 8 3 15 5c3 2 6 3 7 3
c47 17 115 42 196 42c87 0 158 -41 158 -120c0 -20 -6 -47 -7 -53zM413 146l15 69c-30 4 -58 8 -97 8c-143 0 -170 -73 -170 -100c0 -33 35 -51 62 -51c62 0 154 47 190 74zM390 652h86l78 -86l-56 -31l-78 48l-92 -48l-49 33z" />
    <glyph glyph-name="adieresis" unicode="&#xe4;" 
d="M535 301l-46 -219h86l-18 -82h-175l8 36c-40 -20 -100 -50 -172 -50c-90 0 -148 61 -148 133c0 80 78 188 262 188c44 0 76 -4 115 -9c0 15 0 16 2 29c1 8 2 15 2 18c0 37 -52 43 -78 43c-52 0 -111 -17 -160 -36c-17 -7 -19 -7 -29 -11l-18 83c7 2 8 3 15 5c3 2 6 3 7 3
c47 17 115 42 196 42c87 0 158 -41 158 -120c0 -20 -6 -47 -7 -53zM413 146l15 69c-30 4 -58 8 -97 8c-143 0 -170 -73 -170 -100c0 -33 35 -51 62 -51c62 0 154 47 190 74zM284 533l26 115h97l-26 -115h-97zM432 533l26 115h97l-26 -115h-97z" />
    <glyph glyph-name="agrave" unicode="&#xe0;" 
d="M535 301l-46 -219h86l-18 -82h-175l8 36c-40 -20 -100 -50 -172 -50c-90 0 -148 61 -148 133c0 80 78 188 262 188c44 0 76 -4 115 -9c0 15 0 16 2 29c1 8 2 15 2 18c0 37 -52 43 -78 43c-52 0 -111 -17 -160 -36c-17 -7 -19 -7 -29 -11l-18 83c7 2 8 3 15 5c3 2 6 3 7 3
c47 17 115 42 196 42c87 0 158 -41 158 -120c0 -20 -6 -47 -7 -53zM413 146l15 69c-30 4 -58 8 -97 8c-143 0 -170 -73 -170 -100c0 -33 35 -51 62 -51c62 0 154 47 190 74zM264 638v4h148l86 -98h-84z" />
    <glyph glyph-name="amacron" unicode="&#x101;" 
d="M535 301l-46 -219h86l-18 -82h-175l8 36c-40 -20 -100 -50 -172 -50c-90 0 -148 61 -148 133c0 80 78 188 262 188c44 0 76 -4 115 -9c0 15 0 16 2 29c1 8 2 15 2 18c0 37 -52 43 -78 43c-52 0 -111 -17 -160 -36c-17 -7 -19 -7 -29 -11l-18 83c7 2 8 3 15 5c3 2 6 3 7 3
c47 17 115 42 196 42c87 0 158 -41 158 -120c0 -20 -6 -47 -7 -53zM413 146l15 69c-30 4 -58 8 -97 8c-143 0 -170 -73 -170 -100c0 -33 35 -51 62 -51c62 0 154 47 190 74zM255 635h343l-19 -85h-342z" />
    <glyph glyph-name="aring" unicode="&#xe5;" 
d="M535 301l-46 -219h86l-18 -82h-175l8 36c-40 -20 -100 -50 -172 -50c-90 0 -148 61 -148 133c0 80 78 188 262 188c44 0 76 -4 115 -9c0 15 0 16 2 29c1 8 2 15 2 18c0 37 -52 43 -78 43c-52 0 -111 -17 -160 -36c-17 -7 -19 -7 -29 -11l-18 83c7 2 8 3 15 5c3 2 6 3 7 3
c47 17 115 42 196 42c87 0 158 -41 158 -120c0 -20 -6 -47 -7 -53zM413 146l15 69c-30 4 -58 8 -97 8c-143 0 -170 -73 -170 -100c0 -33 35 -51 62 -51c62 0 154 47 190 74zM483 604c0 -49 -40 -89 -90 -89c-49 0 -89 40 -89 89c0 50 40 90 89 90c50 0 90 -40 90 -90z
M425 604c0 18 -14 32 -32 32c-17 0 -31 -14 -31 -32c0 -17 14 -31 31 -31c18 0 32 14 32 31z" />
    <glyph glyph-name="atilde" unicode="&#xe3;" 
d="M535 301l-46 -219h86l-18 -82h-175l8 36c-40 -20 -100 -50 -172 -50c-90 0 -148 61 -148 133c0 80 78 188 262 188c44 0 76 -4 115 -9c0 15 0 16 2 29c1 8 2 15 2 18c0 37 -52 43 -78 43c-52 0 -111 -17 -160 -36c-17 -7 -19 -7 -29 -11l-18 83c7 2 8 3 15 5c3 2 6 3 7 3
c47 17 115 42 196 42c87 0 158 -41 158 -120c0 -20 -6 -47 -7 -53zM413 146l15 69c-30 4 -58 8 -97 8c-143 0 -170 -73 -170 -100c0 -33 35 -51 62 -51c62 0 154 47 190 74zM536 659l67 -21c-19 -35 -56 -107 -139 -107c-17 0 -40 3 -73 31c-25 21 -30 22 -36 22
c-23 0 -37 -23 -53 -48c-1 -2 -4 -5 -4 -6l-66 24c22 38 60 103 133 103c37 0 57 -17 75 -32c16 -14 27 -21 39 -21c24 0 42 29 54 49c0 1 3 5 3 6z" />
    <glyph glyph-name="cacute" unicode="&#x107;" 
d="M548 473l70 -14c-28 -66 -36 -109 -39 -187l-80 -11c2 37 2 43 2 53c0 68 -83 69 -104 69c-131 0 -208 -104 -208 -197c0 -106 98 -114 120 -114c68 0 134 34 211 82l37 -75c-63 -39 -150 -93 -257 -93c-95 0 -203 57 -203 196c0 149 134 287 297 287
c85 0 120 -36 134 -51zM582 638l-174 -94h-89l123 98h140v-4z" />
    <glyph glyph-name="ccaron" unicode="&#x10d;" 
d="M548 473l70 -14c-28 -66 -36 -109 -39 -187l-80 -11c2 37 2 43 2 53c0 68 -83 69 -104 69c-131 0 -208 -104 -208 -197c0 -106 98 -114 120 -114c68 0 134 34 211 82l37 -75c-63 -39 -150 -93 -257 -93c-95 0 -203 57 -203 196c0 149 134 287 297 287
c85 0 120 -36 134 -51zM451 535h-86l-79 86l56 31l79 -48l92 48l48 -33z" />
    <glyph glyph-name="ccircumflex" unicode="&#x109;" 
d="M548 473l70 -14c-28 -66 -36 -109 -39 -187l-80 -11c2 37 2 43 2 53c0 68 -83 69 -104 69c-131 0 -208 -104 -208 -197c0 -106 98 -114 120 -114c68 0 134 34 211 82l37 -75c-63 -39 -150 -93 -257 -93c-95 0 -203 57 -203 196c0 149 134 287 297 287
c85 0 120 -36 134 -51zM390 652h86l78 -86l-56 -31l-78 48l-92 -48l-49 33z" />
    <glyph glyph-name="cdotaccent" unicode="&#x10b;" 
d="M548 473l70 -14c-28 -66 -36 -109 -39 -187l-80 -11c2 37 2 43 2 53c0 68 -83 69 -104 69c-131 0 -208 -104 -208 -197c0 -106 98 -114 120 -114c68 0 134 34 211 82l37 -75c-63 -39 -150 -93 -257 -93c-95 0 -203 57 -203 196c0 149 134 287 297 287
c85 0 120 -36 134 -51zM353 533l25 120h97l-26 -120h-96z" />
    <glyph glyph-name="dcaron" unicode="&#x10f;" 
d="M398 626l244 22l-119 -566h81l-18 -82h-169l8 38c-30 -21 -82 -48 -149 -48c-126 0 -194 95 -194 190c0 148 138 277 280 277c56 0 100 -18 141 -55l31 149l-164 -12zM467 257c0 84 -57 114 -107 114c-101 0 -185 -88 -185 -185c0 -80 60 -110 103 -110
c111 0 189 102 189 181zM486 713h-86l-79 86l56 31l79 -48l92 48l48 -33z" />
    <glyph glyph-name="eacute" unicode="&#xe9;" 
d="M545 139l25 -81c-53 -26 -159 -72 -256 -72c-134 0 -215 75 -215 192c0 146 126 291 299 291c140 0 204 -88 204 -179c0 -26 -5 -47 -14 -75l-6 -19h-392c1 -39 3 -122 129 -122c74 0 144 29 226 65zM216 278h295c-1 23 -2 105 -119 105c-110 0 -160 -79 -176 -105z
M582 638l-174 -94h-89l123 98h140v-4z" />
    <glyph glyph-name="ecaron" unicode="&#x11b;" 
d="M545 139l25 -81c-53 -26 -159 -72 -256 -72c-134 0 -215 75 -215 192c0 146 126 291 299 291c140 0 204 -88 204 -179c0 -26 -5 -47 -14 -75l-6 -19h-392c1 -39 3 -122 129 -122c74 0 144 29 226 65zM216 278h295c-1 23 -2 105 -119 105c-110 0 -160 -79 -176 -105z
M451 535h-86l-79 86l56 31l79 -48l92 48l48 -33z" />
    <glyph glyph-name="ecircumflex" unicode="&#xea;" 
d="M545 139l25 -81c-53 -26 -159 -72 -256 -72c-134 0 -215 75 -215 192c0 146 126 291 299 291c140 0 204 -88 204 -179c0 -26 -5 -47 -14 -75l-6 -19h-392c1 -39 3 -122 129 -122c74 0 144 29 226 65zM216 278h295c-1 23 -2 105 -119 105c-110 0 -160 -79 -176 -105z
M390 652h86l78 -86l-56 -31l-78 48l-92 -48l-49 33z" />
    <glyph glyph-name="edieresis" unicode="&#xeb;" 
d="M545 139l25 -81c-53 -26 -159 -72 -256 -72c-134 0 -215 75 -215 192c0 146 126 291 299 291c140 0 204 -88 204 -179c0 -26 -5 -47 -14 -75l-6 -19h-392c1 -39 3 -122 129 -122c74 0 144 29 226 65zM216 278h295c-1 23 -2 105 -119 105c-110 0 -160 -79 -176 -105z
M284 533l26 115h97l-26 -115h-97zM432 533l26 115h97l-26 -115h-97z" />
    <glyph glyph-name="edotaccent" unicode="&#x117;" 
d="M545 139l25 -81c-53 -26 -159 -72 -256 -72c-134 0 -215 75 -215 192c0 146 126 291 299 291c140 0 204 -88 204 -179c0 -26 -5 -47 -14 -75l-6 -19h-392c1 -39 3 -122 129 -122c74 0 144 29 226 65zM216 278h295c-1 23 -2 105 -119 105c-110 0 -160 -79 -176 -105z
M353 533l25 120h97l-26 -120h-96z" />
    <glyph glyph-name="egrave" unicode="&#xe8;" 
d="M545 139l25 -81c-53 -26 -159 -72 -256 -72c-134 0 -215 75 -215 192c0 146 126 291 299 291c140 0 204 -88 204 -179c0 -26 -5 -47 -14 -75l-6 -19h-392c1 -39 3 -122 129 -122c74 0 144 29 226 65zM216 278h295c-1 23 -2 105 -119 105c-110 0 -160 -79 -176 -105z
M303 638v4h148l86 -98h-84z" />
    <glyph glyph-name="emacron" unicode="&#x113;" 
d="M545 139l25 -81c-53 -26 -159 -72 -256 -72c-134 0 -215 75 -215 192c0 146 126 291 299 291c140 0 204 -88 204 -179c0 -26 -5 -47 -14 -75l-6 -19h-392c1 -39 3 -122 129 -122c74 0 144 29 226 65zM216 278h295c-1 23 -2 105 -119 105c-110 0 -160 -79 -176 -105z
M255 635h343l-19 -85h-342z" />
    <glyph glyph-name="gacute" unicode="&#x1f5;" 
d="M488 453h167l-18 -82h-79l-70 -328c-13 -61 -42 -192 -250 -192c-44 0 -79 4 -106 8l19 87c26 -5 50 -9 90 -9s132 1 154 86l8 31c-19 -12 -66 -43 -140 -43c-112 0 -187 80 -187 182c0 136 128 266 276 266c67 0 106 -33 126 -50zM269 97c100 0 176 88 176 177
c0 55 -42 99 -98 99c-94 0 -178 -86 -178 -173c0 -62 44 -103 100 -103zM582 638l-174 -94h-89l123 98h140v-4z" />
    <glyph glyph-name="gbreve" unicode="&#x11f;" 
d="M488 453h167l-18 -82h-79l-70 -328c-13 -61 -42 -192 -250 -192c-44 0 -79 4 -106 8l19 87c26 -5 50 -9 90 -9s132 1 154 86l8 31c-19 -12 -66 -43 -140 -43c-112 0 -187 80 -187 182c0 136 128 266 276 266c67 0 106 -33 126 -50zM269 97c100 0 176 88 176 177
c0 55 -42 99 -98 99c-94 0 -178 -86 -178 -173c0 -62 44 -103 100 -103zM258 662h77c3 -25 9 -71 84 -71c43 0 89 20 114 66c1 2 2 5 3 5h79c-18 -38 -29 -60 -66 -90c-47 -37 -97 -49 -141 -49c-58 0 -113 22 -139 78c-9 19 -9 33 -11 61z" />
    <glyph glyph-name="gcircumflex" unicode="&#x11d;" 
d="M488 453h167l-18 -82h-79l-70 -328c-13 -61 -42 -192 -250 -192c-44 0 -79 4 -106 8l19 87c26 -5 50 -9 90 -9s132 1 154 86l8 31c-19 -12 -66 -43 -140 -43c-112 0 -187 80 -187 182c0 136 128 266 276 266c67 0 106 -33 126 -50zM269 97c100 0 176 88 176 177
c0 55 -42 99 -98 99c-94 0 -178 -86 -178 -173c0 -62 44 -103 100 -103zM390 652h86l78 -86l-56 -31l-78 48l-92 -48l-49 33z" />
    <glyph glyph-name="gdotaccent" unicode="&#x121;" 
d="M488 453h167l-18 -82h-79l-70 -328c-13 -61 -42 -192 -250 -192c-44 0 -79 4 -106 8l19 87c26 -5 50 -9 90 -9s132 1 154 86l8 31c-19 -12 -66 -43 -140 -43c-112 0 -187 80 -187 182c0 136 128 266 276 266c67 0 106 -33 126 -50zM269 97c100 0 176 88 176 177
c0 55 -42 99 -98 99c-94 0 -178 -86 -178 -173c0 -62 44 -103 100 -103zM353 533l25 120h97l-26 -120h-96z" />
    <glyph glyph-name="hcircumflex" unicode="&#x125;" 
d="M140 634l188 14l-49 -228c22 13 81 48 145 48c74 0 141 -53 141 -133c0 -23 -6 -50 -7 -55l-41 -198h81l-19 -82h-251l16 82h84l43 205c2 6 8 32 8 49c0 28 -32 44 -57 44c-65 0 -142 -55 -167 -73l-48 -225h80l-18 -82h-248l16 82h82l101 473l-90 -6zM390 830h86l78 -86
l-56 -31l-78 48l-92 -48l-49 33z" />
    <glyph glyph-name="iacute" unicode="&#xed;" 
d="M209 453h231l-79 -371h167l-18 -82h-425l18 82h170l61 289h-143zM582 638l-174 -94h-89l123 98h140v-4z" />
    <glyph glyph-name="icircumflex" unicode="&#xee;" 
d="M209 453h231l-79 -371h167l-18 -82h-425l18 82h170l61 289h-143zM390 652h86l78 -86l-56 -31l-78 48l-92 -48l-49 33z" />
    <glyph glyph-name="idieresis" unicode="&#xef;" 
d="M209 453h231l-79 -371h167l-18 -82h-425l18 82h170l61 289h-143zM284 533l26 115h97l-26 -115h-97zM432 533l26 115h97l-26 -115h-97z" />
    <glyph glyph-name="igrave" unicode="&#xec;" 
d="M209 453h231l-79 -371h167l-18 -82h-425l18 82h170l61 289h-143zM264 638v4h148l86 -98h-84z" />
    <glyph glyph-name="imacron" unicode="&#x12b;" 
d="M209 453h231l-79 -371h167l-18 -82h-425l18 82h170l61 289h-143zM255 635h343l-19 -85h-342z" />
    <glyph glyph-name="itilde" unicode="&#x129;" 
d="M209 453h231l-79 -371h167l-18 -82h-425l18 82h170l61 289h-143zM536 659l67 -21c-19 -35 -56 -107 -139 -107c-17 0 -40 3 -73 31c-25 21 -30 22 -36 22c-23 0 -37 -23 -53 -48c-1 -2 -4 -5 -4 -6l-66 24c22 38 60 103 133 103c37 0 57 -17 75 -32c16 -14 27 -21 39 -21
c24 0 42 29 54 49c0 1 3 5 3 6z" />
    <glyph glyph-name="lacute" unicode="&#x13a;" 
d="M217 615l254 16l-116 -549h169l-18 -82h-424l18 82h169l97 459l-158 -11zM582 816l-174 -94h-89l123 98h140v-4z" />
    <glyph glyph-name="lcaron" unicode="&#x13e;" 
d="M217 615l254 16l-116 -549h169l-18 -82h-424l18 82h169l97 459l-158 -11zM451 713h-86l-79 86l56 31l79 -48l92 48l48 -33z" />
    <glyph glyph-name="nacute" unicode="&#x144;" 
d="M113 453h170l-9 -33c58 33 105 48 148 48c68 0 139 -48 139 -133c0 -22 -5 -50 -7 -55l-41 -198h81l-18 -82h-252l16 82h85l43 205c1 5 7 33 7 48c0 27 -28 45 -59 45s-75 -8 -165 -71l-48 -227h80l-17 -82h-250l18 82h79l62 289h-80zM582 638l-174 -94h-89l123 98h140
v-4z" />
    <glyph glyph-name="ncaron" unicode="&#x148;" 
d="M113 453h170l-9 -33c58 33 105 48 148 48c68 0 139 -48 139 -133c0 -22 -5 -50 -7 -55l-41 -198h81l-18 -82h-252l16 82h85l43 205c1 5 7 33 7 48c0 27 -28 45 -59 45s-75 -8 -165 -71l-48 -227h80l-17 -82h-250l18 82h79l62 289h-80zM451 535h-86l-79 86l56 31l79 -48
l92 48l48 -33z" />
    <glyph glyph-name="ntilde" unicode="&#xf1;" 
d="M113 453h170l-9 -33c58 33 105 48 148 48c68 0 139 -48 139 -133c0 -22 -5 -50 -7 -55l-41 -198h81l-18 -82h-252l16 82h85l43 205c1 5 7 33 7 48c0 27 -28 45 -59 45s-75 -8 -165 -71l-48 -227h80l-17 -82h-250l18 82h79l62 289h-80zM536 659l67 -21
c-19 -35 -56 -107 -139 -107c-17 0 -40 3 -73 31c-25 21 -30 22 -36 22c-23 0 -37 -23 -53 -48c-1 -2 -4 -5 -4 -6l-66 24c22 38 60 103 133 103c37 0 57 -17 75 -32c16 -14 27 -21 39 -21c24 0 42 29 54 49c0 1 3 5 3 6z" />
    <glyph glyph-name="oacute" unicode="&#xf3;" 
d="M391 474c126 0 216 -72 216 -197c0 -135 -116 -291 -311 -291c-121 0 -217 66 -217 197c0 136 115 291 312 291zM384 388c-136 0 -212 -110 -212 -200c0 -62 37 -116 131 -116c131 0 211 109 211 199c0 60 -37 117 -130 117zM582 638l-174 -94h-89l123 98h140v-4z" />
    <glyph glyph-name="ocircumflex" unicode="&#xf4;" 
d="M391 474c126 0 216 -72 216 -197c0 -135 -116 -291 -311 -291c-121 0 -217 66 -217 197c0 136 115 291 312 291zM384 388c-136 0 -212 -110 -212 -200c0 -62 37 -116 131 -116c131 0 211 109 211 199c0 60 -37 117 -130 117zM390 652h86l78 -86l-56 -31l-78 48l-92 -48
l-49 33z" />
    <glyph glyph-name="odieresis" unicode="&#xf6;" 
d="M391 474c126 0 216 -72 216 -197c0 -135 -116 -291 -311 -291c-121 0 -217 66 -217 197c0 136 115 291 312 291zM384 388c-136 0 -212 -110 -212 -200c0 -62 37 -116 131 -116c131 0 211 109 211 199c0 60 -37 117 -130 117zM284 533l26 115h97l-26 -115h-97zM432 533
l26 115h97l-26 -115h-97z" />
    <glyph glyph-name="ograve" unicode="&#xf2;" 
d="M391 474c126 0 216 -72 216 -197c0 -135 -116 -291 -311 -291c-121 0 -217 66 -217 197c0 136 115 291 312 291zM384 388c-136 0 -212 -110 -212 -200c0 -62 37 -116 131 -116c131 0 211 109 211 199c0 60 -37 117 -130 117zM264 638v4h148l86 -98h-84z" />
    <glyph glyph-name="ohungarumlaut" unicode="&#x151;" 
d="M391 474c126 0 216 -72 216 -197c0 -135 -116 -291 -311 -291c-121 0 -217 66 -217 197c0 136 115 291 312 291zM384 388c-136 0 -212 -110 -212 -200c0 -62 37 -116 131 -116c131 0 211 109 211 199c0 60 -37 117 -130 117zM488 657l-182 -129h-72l138 129h116zM650 657
l-182 -129h-72l138 129h116z" />
    <glyph glyph-name="omacron" unicode="&#x14d;" 
d="M391 474c126 0 216 -72 216 -197c0 -135 -116 -291 -311 -291c-121 0 -217 66 -217 197c0 136 115 291 312 291zM384 388c-136 0 -212 -110 -212 -200c0 -62 37 -116 131 -116c131 0 211 109 211 199c0 60 -37 117 -130 117zM255 635h343l-19 -85h-342z" />
    <glyph glyph-name="otilde" unicode="&#xf5;" 
d="M391 474c126 0 216 -72 216 -197c0 -135 -116 -291 -311 -291c-121 0 -217 66 -217 197c0 136 115 291 312 291zM384 388c-136 0 -212 -110 -212 -200c0 -62 37 -116 131 -116c131 0 211 109 211 199c0 60 -37 117 -130 117zM536 659l67 -21c-19 -35 -56 -107 -139 -107
c-17 0 -40 3 -73 31c-25 21 -30 22 -36 22c-23 0 -37 -23 -53 -48c-1 -2 -4 -5 -4 -6l-66 24c22 38 60 103 133 103c37 0 57 -17 75 -32c16 -14 27 -21 39 -21c24 0 42 29 54 49c0 1 3 5 3 6z" />
    <glyph glyph-name="racute" unicode="&#x155;" 
d="M162 453h200l-12 -54l2 -2c60 57 119 67 157 67c115 0 132 -110 136 -133l-92 -12c-4 24 -10 59 -51 59c-73 0 -151 -89 -183 -126l-36 -170h184l-18 -82h-392l18 82h121l61 289h-113zM582 638l-174 -94h-89l123 98h140v-4z" />
    <glyph glyph-name="rcaron" unicode="&#x159;" 
d="M162 453h200l-12 -54l2 -2c60 57 119 67 157 67c115 0 132 -110 136 -133l-92 -12c-4 24 -10 59 -51 59c-73 0 -151 -89 -183 -126l-36 -170h184l-18 -82h-392l18 82h121l61 289h-113zM451 535h-86l-79 86l56 31l79 -48l92 48l48 -33z" />
    <glyph glyph-name="sacute" unicode="&#x15b;" 
d="M520 476l70 -10c-30 -88 -35 -128 -37 -168h-78c2 8 2 13 2 23c0 22 -3 35 -23 46c-18 10 -58 16 -86 16c-76 0 -123 -36 -123 -67c0 -28 27 -38 110 -43c82 -5 195 -10 195 -116c0 -97 -110 -168 -230 -168c-52 0 -104 13 -145 47l-16 -51l-78 11c25 67 32 108 36 173
l80 5c0 -33 0 -37 3 -48c14 -51 107 -51 115 -51c70 0 144 27 144 79c0 13 0 26 -73 30c-4 0 -28 1 -33 2c-68 3 -199 11 -199 123c0 89 97 160 214 160c8 0 90 0 134 -44zM582 638l-174 -94h-89l123 98h140v-4z" />
    <glyph glyph-name="scaron" unicode="&#x161;" 
d="M520 476l70 -10c-30 -88 -35 -128 -37 -168h-78c2 8 2 13 2 23c0 22 -3 35 -23 46c-18 10 -58 16 -86 16c-76 0 -123 -36 -123 -67c0 -28 27 -38 110 -43c82 -5 195 -10 195 -116c0 -97 -110 -168 -230 -168c-52 0 -104 13 -145 47l-16 -51l-78 11c25 67 32 108 36 173
l80 5c0 -33 0 -37 3 -48c14 -51 107 -51 115 -51c70 0 144 27 144 79c0 13 0 26 -73 30c-4 0 -28 1 -33 2c-68 3 -199 11 -199 123c0 89 97 160 214 160c8 0 90 0 134 -44zM451 535h-86l-79 86l56 31l79 -48l92 48l48 -33z" />
    <glyph glyph-name="scircumflex" unicode="&#x15d;" 
d="M520 476l70 -10c-30 -88 -35 -128 -37 -168h-78c2 8 2 13 2 23c0 22 -3 35 -23 46c-18 10 -58 16 -86 16c-76 0 -123 -36 -123 -67c0 -28 27 -38 110 -43c82 -5 195 -10 195 -116c0 -97 -110 -168 -230 -168c-52 0 -104 13 -145 47l-16 -51l-78 11c25 67 32 108 36 173
l80 5c0 -33 0 -37 3 -48c14 -51 107 -51 115 -51c70 0 144 27 144 79c0 13 0 26 -73 30c-4 0 -28 1 -33 2c-68 3 -199 11 -199 123c0 89 97 160 214 160c8 0 90 0 134 -44zM390 652h86l78 -86l-56 -31l-78 48l-92 -48l-49 33z" />
    <glyph glyph-name="tcaron" unicode="&#x165;" 
d="M276 583h87l-29 -142h214l-17 -84h-215l-37 -168c-5 -25 -12 -57 -12 -74c0 -42 51 -43 61 -43c51 0 91 12 229 66v-91c-99 -42 -172 -61 -231 -61c-98 0 -147 61 -147 115c0 19 3 36 16 97l34 159h-67l18 84h66zM392 641h-86l-79 86l56 31l79 -48l92 48l48 -33z" />
    <glyph glyph-name="uacute" unicode="&#xfa;" 
d="M113 453h168l-60 -278c-1 -6 -6 -31 -6 -49c0 -15 10 -54 54 -54c50 0 107 28 158 77l47 222h-82l18 82h170l-78 -371h78l-18 -82h-166l8 30c-22 -14 -66 -44 -137 -44c-117 0 -140 99 -140 141c0 22 6 51 7 56l40 188h-78zM582 638l-174 -94h-89l123 98h140v-4z" />
    <glyph glyph-name="ubreve" unicode="&#x16d;" 
d="M113 453h168l-60 -278c-1 -6 -6 -31 -6 -49c0 -15 10 -54 54 -54c50 0 107 28 158 77l47 222h-82l18 82h170l-78 -371h78l-18 -82h-166l8 30c-22 -14 -66 -44 -137 -44c-117 0 -140 99 -140 141c0 22 6 51 7 56l40 188h-78zM258 662h77c3 -25 9 -71 84 -71
c43 0 89 20 114 66c1 2 2 5 3 5h79c-18 -38 -29 -60 -66 -90c-47 -37 -97 -49 -141 -49c-58 0 -113 22 -139 78c-9 19 -9 33 -11 61z" />
    <glyph glyph-name="ucircumflex" unicode="&#xfb;" 
d="M113 453h168l-60 -278c-1 -6 -6 -31 -6 -49c0 -15 10 -54 54 -54c50 0 107 28 158 77l47 222h-82l18 82h170l-78 -371h78l-18 -82h-166l8 30c-22 -14 -66 -44 -137 -44c-117 0 -140 99 -140 141c0 22 6 51 7 56l40 188h-78zM390 652h86l78 -86l-56 -31l-78 48l-92 -48
l-49 33z" />
    <glyph glyph-name="udieresis" unicode="&#xfc;" 
d="M113 453h168l-60 -278c-1 -6 -6 -31 -6 -49c0 -15 10 -54 54 -54c50 0 107 28 158 77l47 222h-82l18 82h170l-78 -371h78l-18 -82h-166l8 30c-22 -14 -66 -44 -137 -44c-117 0 -140 99 -140 141c0 22 6 51 7 56l40 188h-78zM284 533l26 115h97l-26 -115h-97zM432 533
l26 115h97l-26 -115h-97z" />
    <glyph glyph-name="ugrave" unicode="&#xf9;" 
d="M113 453h168l-60 -278c-1 -6 -6 -31 -6 -49c0 -15 10 -54 54 -54c50 0 107 28 158 77l47 222h-82l18 82h170l-78 -371h78l-18 -82h-166l8 30c-22 -14 -66 -44 -137 -44c-117 0 -140 99 -140 141c0 22 6 51 7 56l40 188h-78zM264 638v4h148l86 -98h-84z" />
    <glyph glyph-name="uhungarumlaut" unicode="&#x171;" 
d="M113 453h168l-60 -278c-1 -6 -6 -31 -6 -49c0 -15 10 -54 54 -54c50 0 107 28 158 77l47 222h-82l18 82h170l-78 -371h78l-18 -82h-166l8 30c-22 -14 -66 -44 -137 -44c-117 0 -140 99 -140 141c0 22 6 51 7 56l40 188h-78zM488 657l-182 -129h-72l138 129h116zM650 657
l-182 -129h-72l138 129h116z" />
    <glyph glyph-name="umacron" unicode="&#x16b;" 
d="M113 453h168l-60 -278c-1 -6 -6 -31 -6 -49c0 -15 10 -54 54 -54c50 0 107 28 158 77l47 222h-82l18 82h170l-78 -371h78l-18 -82h-166l8 30c-22 -14 -66 -44 -137 -44c-117 0 -140 99 -140 141c0 22 6 51 7 56l40 188h-78zM255 635h343l-19 -85h-342z" />
    <glyph glyph-name="uring" unicode="&#x16f;" 
d="M113 453h168l-60 -278c-1 -6 -6 -31 -6 -49c0 -15 10 -54 54 -54c50 0 107 28 158 77l47 222h-82l18 82h170l-78 -371h78l-18 -82h-166l8 30c-22 -14 -66 -44 -137 -44c-117 0 -140 99 -140 141c0 22 6 51 7 56l40 188h-78zM483 604c0 -49 -40 -89 -90 -89
c-49 0 -89 40 -89 89c0 50 40 90 89 90c50 0 90 -40 90 -90zM425 604c0 18 -14 32 -32 32c-17 0 -31 -14 -31 -32c0 -17 14 -31 31 -31c18 0 32 14 32 31z" />
    <glyph glyph-name="utilde" unicode="&#x169;" 
d="M113 453h168l-60 -278c-1 -6 -6 -31 -6 -49c0 -15 10 -54 54 -54c50 0 107 28 158 77l47 222h-82l18 82h170l-78 -371h78l-18 -82h-166l8 30c-22 -14 -66 -44 -137 -44c-117 0 -140 99 -140 141c0 22 6 51 7 56l40 188h-78zM536 659l67 -21c-19 -35 -56 -107 -139 -107
c-17 0 -40 3 -73 31c-25 21 -30 22 -36 22c-23 0 -37 -23 -53 -48c-1 -2 -4 -5 -4 -6l-66 24c22 38 60 103 133 103c37 0 57 -17 75 -32c16 -14 27 -21 39 -21c24 0 42 29 54 49c0 1 3 5 3 6z" />
    <glyph glyph-name="yacute" unicode="&#xfd;" 
d="M421 453h246l-18 -82h-80l-67 -316c-17 -79 -45 -212 -257 -212c-48 0 -88 7 -118 12l20 91c27 -7 63 -17 110 -17c127 0 142 66 158 131c-23 -15 -66 -45 -132 -45c-87 0 -151 59 -151 161c0 18 4 38 5 46l32 149h-74l17 82h239l-18 -82h-75l-34 -161
c-3 -16 -4 -28 -4 -33c0 -57 36 -76 73 -76c22 0 63 4 149 87l39 183h-78zM582 638l-174 -94h-89l123 98h140v-4z" />
    <glyph glyph-name="ydieresis" unicode="&#xff;" 
d="M421 453h246l-18 -82h-80l-67 -316c-17 -79 -45 -212 -257 -212c-48 0 -88 7 -118 12l20 91c27 -7 63 -17 110 -17c127 0 142 66 158 131c-23 -15 -66 -45 -132 -45c-87 0 -151 59 -151 161c0 18 4 38 5 46l32 149h-74l17 82h239l-18 -82h-75l-34 -161
c-3 -16 -4 -28 -4 -33c0 -57 36 -76 73 -76c22 0 63 4 149 87l39 183h-78zM284 533l26 115h97l-26 -115h-97zM432 533l26 115h97l-26 -115h-97z" />
    <glyph glyph-name="zacute" unicode="&#x17a;" 
d="M191 453h410l-15 -71l-346 -300h195l19 92h87l-37 -174h-420l16 75l344 296h-184l-20 -87h-85zM582 638l-174 -94h-89l123 98h140v-4z" />
    <glyph glyph-name="zcaron" unicode="&#x17e;" 
d="M191 453h410l-15 -71l-346 -300h195l19 92h87l-37 -174h-420l16 75l344 296h-184l-20 -87h-85zM451 535h-86l-79 86l56 31l79 -48l92 48l48 -33z" />
    <glyph glyph-name="zdotaccent" unicode="&#x17c;" 
d="M191 453h410l-15 -71l-346 -300h195l19 92h87l-37 -174h-420l16 75l344 296h-184l-20 -87h-85zM353 533l25 120h97l-26 -120h-96z" />
  </font>
</defs>
</svg>
