<?xml version="1.0" standalone="no"?>
<!DOCTYPE svg PUBLIC "-//W3C//DTD SVG 1.1//EN" "http://www.w3.org/Graphics/SVG/1.1/DTD/svg11.dtd" >
<svg xmlns="http://www.w3.org/2000/svg" xmlns:xlink="http://www.w3.org/1999/xlink" version="1.1">
<metadata>
Created by FontForge 20201107 at Tue Oct 12 20:43:59 2021
 By Darren Embry
Copyright (c) IBM Corporation 1990,1991.
</metadata>
<defs>
<font id="IBMCourier" horiz-adv-x="600" >
  <font-face 
    font-family="IBM Courier"
    font-weight="400"
    font-stretch="normal"
    units-per-em="1000"
    panose-1="2 0 5 9 0 0 0 0 0 0"
    ascent="800"
    descent="-200"
    x-height="430"
    cap-height="563"
    bbox="-48 -288 684 841"
    underline-thickness="50"
    underline-position="-100"
    stemh=" 47 "
    stemv=" 50 "
    unicode-range="U+0020-FB04"
  />
    <missing-glyph />
    <glyph glyph-name="fi" unicode="fi" 
d="M461 418v-371h139v-47h-599v47h138v324h-138v47h138v56c0 77 6 151 106 151c37 0 73 -8 101 -14l-20 -50c-35 9 -64 14 -84 14c-53 0 -53 -45 -53 -103v-54h272zM411 47v324h-222v-324h222zM388 537v119h73v-119h-73z" />
    <glyph glyph-name="fl" unicode="fl" 
d="M461 610v-563h139v-47h-599v47h138v324h-138v47h138v57c0 66 5 150 151 150c54 0 119 -8 171 -15zM411 47v513c-58 11 -95 15 -123 15c-96 0 -99 -42 -99 -105v-52h140v-47h-140v-324h222z" />
    <glyph glyph-name="ffl" unicode="&#xfb00;l" 
d="M2 0v47h79v324h-79v47h79v56c0 44 0 151 146 151c49 0 76 -10 103 -19c15 6 27 10 41 14c13 3 28 5 46 5c39 0 66 -7 100 -16v-562h81v-47h-596zM131 371v-324h143v324h-143zM131 471v-53h143v53c0 27 2 65 14 89c-32 15 -65 15 -71 15c-87 0 -86 -60 -86 -104zM467 47
v522c-11 3 -23 6 -47 6c-96 0 -96 -47 -96 -104v-53h74v-47h-74v-324h143z" />
    <glyph glyph-name="ff" unicode="ff" 
d="M600 616l-7 -50c-50 9 -63 9 -82 9c-78 0 -76 -50 -76 -101v-56h145v-47h-145v-324h159v-47h-593v47h158v324h-104v47h104v56c0 51 0 151 154 151c53 0 92 -10 126 -18c17 7 28 12 40 14c12 3 24 4 40 4c28 0 41 -2 81 -9zM385 418v56c0 14 0 63 12 89
c-17 4 -56 12 -95 12c-95 0 -93 -56 -93 -101v-56h176zM209 371v-324h176v324h-176z" />
    <glyph glyph-name="ffi" unicode="&#xfb00;i" 
d="M2 0v47h79v324h-79v47h79v56c0 53 1 151 143 151c45 0 72 -8 96 -14c8 4 15 7 23 10c8 2 18 4 31 4c21 0 36 -3 62 -8l7 -2l-14 -50c-17 5 -41 10 -55 10c-50 0 -50 -47 -50 -101v-56h193v-371h81v-47h-596zM131 371v-324h143v324h-143zM131 471v-53h143v51
c0 28 2 73 10 97c-22 5 -48 9 -69 9c-84 0 -84 -56 -84 -104zM467 47v324h-143v-324h143zM465 537v119h66v-119h-66z" />
    <glyph glyph-name="space" unicode=" " 
 />
    <glyph glyph-name="exclam" unicode="!" 
d="M342 571l-19 -378h-46l-18 378h83zM300 106c40 0 69 -28 69 -62s-31 -61 -69 -61s-69 27 -69 62c0 34 31 61 69 61z" />
    <glyph glyph-name="quotedbl" unicode="&#x22;" 
d="M157 563h95l-10 -281h-74zM348 563h95l-11 -281h-74z" />
    <glyph glyph-name="numbersign" unicode="#" 
d="M201 659h47l-12 -205h145l12 205h47l-12 -205h94v-65h-97l-10 -167h107v-65h-110l-12 -214h-47l12 214h-146l-11 -214h-47l11 214h-94v65h98l10 167h-108v65h111zM378 389h-145l-10 -167h145z" />
    <glyph glyph-name="dollar" unicode="$" 
d="M429 547h47c-1 -13 -2 -28 -2 -48c0 -64 7 -113 11 -146l-46 -5c-19 133 -79 146 -117 155v-204c83 -23 169 -47 169 -144c0 -84 -75 -134 -169 -141v-150h-48v150c-20 1 -33 3 -83 19c-15 5 -19 5 -22 5c-13 0 -13 -7 -14 -29h-47c4 74 -1 127 -10 194h47
c8 -46 24 -128 129 -141v199c-67 18 -159 43 -159 146c0 84 65 137 159 145v104h48v-104c24 -3 47 -11 69 -21c17 -8 19 -9 24 -9c10 0 11 5 14 25zM274 313v191c-31 -5 -107 -18 -107 -95c0 -63 54 -80 107 -96zM322 249v-187c42 4 117 21 117 92c0 62 -60 79 -117 95z" />
    <glyph glyph-name="percent" unicode="%" 
d="M401 253c93 0 142 -72 142 -134c0 -63 -51 -133 -142 -133c-92 0 -141 72 -141 133c0 60 48 134 141 134zM401 206c-55 0 -87 -43 -87 -86c0 -45 33 -87 87 -87c57 0 88 44 88 87c0 41 -30 86 -88 86zM186 614c92 0 142 -71 142 -134c0 -65 -52 -133 -142 -133
c-89 0 -141 69 -141 133c0 62 50 134 141 134zM187 567c-58 0 -88 -45 -88 -87c0 -43 32 -86 88 -86c54 0 87 41 87 86c0 44 -31 87 -87 87zM493 420l20 -47l-406 -180l-20 47z" />
    <glyph glyph-name="ampersand" unicode="&#x26;" 
d="M434 280h95v-47h-60c-24 -70 -42 -103 -52 -122l44 -64h75v-47h-114l-41 60c-24 -26 -64 -68 -138 -68c-93 0 -145 74 -145 146c0 68 45 134 119 162c0 1 -2 5 -4 7c-44 66 -54 81 -54 119c0 65 51 114 129 114c29 0 54 -6 79 -17c28 -11 33 -11 41 -11c16 0 29 5 37 8
l-46 -72c-25 18 -61 44 -111 44c-55 0 -70 -37 -70 -62c0 -24 14 -44 39 -81l130 -193c23 50 25 56 47 124zM354 100l-110 164c-37 -15 -80 -52 -80 -114c0 -49 27 -106 91 -106c52 0 83 37 99 56z" />
    <glyph glyph-name="quoteright" unicode="&#x2019;" 
d="M253 563h104l-109 -243h-71z" />
    <glyph glyph-name="parenleft" unicode="(" 
d="M412 649h51c-43 -82 -116 -220 -116 -373c0 -152 74 -292 116 -372h-51c-75 112 -125 262 -125 372c0 108 48 258 125 373z" />
    <glyph glyph-name="parenright" unicode=")" 
d="M189 -96h-52c40 73 117 218 117 372s-76 296 -117 373h52c83 -127 125 -271 125 -373c0 -108 -47 -254 -125 -372z" />
    <glyph glyph-name="asterisk" unicode="*" 
d="M266 563h68l-6 -147l140 51l21 -64l-144 -40l93 -116l-55 -41l-83 125l-83 -125l-55 41l93 116l-144 40l21 64l140 -51z" />
    <glyph glyph-name="plus" unicode="+" 
d="M275 533h50v-205h209v-50h-209v-205h-50v205h-209v50h209v205z" />
    <glyph glyph-name="comma" unicode="," 
d="M253 133h104l-109 -242h-71z" />
    <glyph glyph-name="hyphen" unicode="-" 
d="M194 317h212v-55h-212v55z" />
    <glyph glyph-name="period" unicode="." 
d="M300 119c38 0 77 -27 77 -68c0 -42 -40 -68 -77 -68c-35 0 -77 24 -77 68c0 42 40 68 77 68z" />
    <glyph glyph-name="slash" unicode="/" 
d="M466 702l43 -18l-375 -817l-43 20z" />
    <glyph glyph-name="zero" unicode="0" 
d="M300 621c163 0 190 -188 190 -318c0 -131 -27 -317 -190 -317s-190 188 -190 317c0 130 27 318 190 318zM300 576c-120 0 -137 -168 -137 -272c0 -106 18 -273 136 -273c120 0 138 168 138 273c0 106 -18 272 -137 272z" />
    <glyph glyph-name="one" unicode="1" 
d="M104 533l198 88h32v-574h171v-47h-395v47h174v516l-160 -74z" />
    <glyph glyph-name="two" unicode="2" 
d="M425 146h47v-146h-390v53c43 37 197 173 278 255c48 48 59 84 59 130c0 95 -87 133 -138 133c-38 0 -133 -22 -127 -104h-52v65c74 89 165 89 181 89c94 0 190 -72 190 -185c0 -43 -10 -73 -34 -111c-32 -51 -156 -169 -290 -276v-2h276v99z" />
    <glyph glyph-name="three" unicode="3" 
d="M84 35l19 44c50 -24 110 -46 166 -46c73 0 147 47 147 136c0 94 -75 119 -83 121c-35 12 -65 11 -97 9v47c29 0 66 1 96 21c33 22 52 59 52 98c0 66 -52 109 -119 109c-52 0 -95 -28 -126 -47l-18 -11l-25 39c55 36 106 66 170 66c85 0 170 -57 170 -155
c0 -89 -59 -125 -77 -136c42 -17 108 -66 108 -159c0 -113 -89 -185 -201 -185c-61 0 -100 16 -182 49z" />
    <glyph glyph-name="four" unicode="4" 
d="M390 621v-427h90v-48h-90v-99h90v-47h-273v47h135v99h-268v58l248 417h68zM123 194h219v369h-2z" />
    <glyph glyph-name="five" unicode="5" 
d="M126 606h334v-48h-289v-202c31 13 68 28 121 28c121 0 197 -88 197 -196c0 -80 -49 -202 -210 -202c-71 0 -120 18 -188 45l18 45c31 -14 96 -40 166 -40c109 0 160 66 160 150c0 81 -55 151 -151 151c-51 0 -92 -17 -133 -48l-25 14v303z" />
    <glyph glyph-name="six" unicode="6" 
d="M486 621v-50c-150 7 -298 2 -328 -274l2 -2c15 20 61 75 145 75c105 0 175 -93 175 -194s-74 -190 -177 -190c-81 0 -201 62 -201 274c0 63 13 278 189 342c29 10 78 25 195 19zM158 212c8 -138 94 -176 145 -176c64 0 123 51 123 140c0 76 -49 144 -121 144
c-20 0 -105 -4 -147 -108z" />
    <glyph glyph-name="seven" unicode="7" 
d="M95 606h393v-47l-194 -559h-58l202 559h-294v-92h-49v139z" />
    <glyph glyph-name="eight" unicode="8" 
d="M208 309c-27 14 -90 63 -90 148c0 90 79 164 182 164s182 -74 182 -164c0 -53 -28 -114 -90 -148c72 -32 101 -101 101 -151c0 -75 -62 -172 -193 -172s-193 97 -193 172c0 63 41 124 101 151zM300 574c-93 0 -128 -70 -128 -118c0 -61 50 -124 128 -124
c65 0 128 48 128 124c0 79 -67 118 -128 118zM300 285c-93 0 -139 -68 -139 -127c0 -67 60 -125 139 -125s139 58 139 125c0 60 -48 127 -139 127z" />
    <glyph glyph-name="nine" unicode="9" 
d="M81 -14v50c150 -7 298 -2 328 274l-2 2c-15 -20 -61 -75 -145 -75c-105 0 -175 93 -175 194s74 190 177 190c81 0 201 -62 201 -274c0 -63 -13 -278 -189 -342c-29 -10 -78 -25 -195 -19zM409 395c-8 138 -94 176 -145 176c-64 0 -123 -51 -123 -140
c0 -76 49 -144 121 -144c20 0 105 4 147 108z" />
    <glyph glyph-name="colon" unicode=":" 
d="M300 390c37 0 77 -26 77 -68c0 -43 -41 -68 -77 -68c-35 0 -77 24 -77 68c0 42 41 68 77 68zM300 119c37 0 77 -26 77 -68c0 -43 -41 -68 -77 -68c-35 0 -77 24 -77 68c0 42 41 68 77 68z" />
    <glyph glyph-name="semicolon" unicode=";" 
d="M258 134h103l-109 -242h-71zM300 390c37 0 77 -26 77 -68c0 -43 -41 -68 -77 -68c-35 0 -77 24 -77 68c0 42 41 68 77 68z" />
    <glyph glyph-name="less" unicode="&#x3c;" 
d="M526 89l-472 219l472 224l20 -45l-381 -179l381 -175z" />
    <glyph glyph-name="equal" unicode="=" 
d="M64 419h472v-50h-472v50zM64 238h472v-50h-472v50z" />
    <glyph glyph-name="greater" unicode="&#x3e;" 
d="M74 527l472 -219l-472 -224l-20 45l381 179l-381 175z" />
    <glyph glyph-name="question" unicode="?" 
d="M120 435v102c70 24 105 35 162 35c127 0 192 -80 192 -164c0 -117 -114 -152 -181 -170v-60h-49v97c3 1 13 4 20 5c67 17 158 39 158 131c0 41 -27 112 -139 112c-49 0 -80 -11 -113 -24v-64h-50zM266 106c39 0 69 -27 69 -61c0 -36 -32 -62 -69 -62s-69 26 -69 62
c0 34 31 61 69 61z" />
    <glyph glyph-name="at" unicode="@" 
d="M512 99l21 -42c-1 0 -5 -3 -6 -3c-66 -39 -153 -68 -239 -68c-175 0 -256 132 -256 274c0 159 100 286 277 286c146 0 258 -91 258 -249c0 -113 -60 -191 -145 -191c-27 0 -31 4 -68 31c-11 8 -11 14 -11 20c-16 -18 -46 -53 -95 -53c-25 0 -78 20 -78 101
c0 89 65 199 147 199c33 0 48 -25 57 -40l9 35h52l-43 -156c-1 -4 -10 -35 -10 -50s16 -40 46 -40c50 0 91 68 91 150c0 131 -95 196 -212 196c-159 0 -223 -121 -223 -240c0 -106 54 -226 207 -226c84 0 152 30 199 55l15 8c1 0 6 3 7 3zM253 153c50 0 94 92 94 151
c0 31 -18 50 -36 50c-46 0 -90 -93 -90 -153c0 -18 8 -48 32 -48z" />
    <glyph glyph-name="A" unicode="A" 
d="M113 563h215l211 -516h51v-47h-205v47h102l-57 139h-261l-56 -139h102v-47h-205v47h53l193 469h-143v47zM413 230l-113 274l-113 -274h226z" />
    <glyph glyph-name="B" unicode="B" 
d="M45 563h273c78 0 116 -17 144 -42s47 -60 47 -103c0 -73 -52 -110 -79 -124c70 -21 114 -68 114 -140c0 -55 -29 -104 -71 -126c-43 -23 -74 -28 -164 -28h-264v47h83v469h-83v47zM316 516h-138v-200h133c132 0 146 73 146 104c0 96 -119 96 -141 96zM303 269h-125v-222
h129c71 0 185 0 185 107c0 83 -81 115 -189 115z" />
    <glyph glyph-name="C" unicode="C" 
d="M561 135l33 -36c-112 -107 -219 -116 -260 -116c-176 0 -270 142 -270 305c0 174 116 292 268 292c80 0 120 -36 128 -43c13 -11 15 -11 17 -11c9 0 13 30 15 48h37c-3 -82 3 -138 10 -191l-47 -8c-4 23 -10 62 -33 96c-19 28 -56 59 -129 59c-131 0 -212 -109 -212 -241
c0 -100 45 -256 216 -256c91 0 162 45 227 102z" />
    <glyph glyph-name="D" unicode="D" 
d="M34 563h250c87 0 150 -7 205 -75c59 -73 62 -161 62 -196c0 -118 -40 -193 -83 -234c-61 -58 -150 -58 -188 -58h-246v47h79v469h-79v47zM285 516h-122v-469h117c34 0 102 0 150 47c36 36 67 103 67 195c0 82 -26 133 -47 162c-42 58 -89 65 -165 65z" />
    <glyph glyph-name="E" unicode="E" 
d="M57 563h475l4 -184h-46l-10 137h-288v-195h162v73h46v-192h-46v72h-162v-227h298l5 137h46v-184h-484v47h85v469h-85v47z" />
    <glyph glyph-name="F" unicode="F" 
d="M72 563h469l5 -180h-45l-12 133h-286v-195h162v73h46v-192h-46v72h-162v-227h130v-47h-261v47h81v469h-81v47z" />
    <glyph glyph-name="G" unicode="G" 
d="M474 574h48c-1 -4 -2 -16 -2 -19c-1 -11 -4 -55 -4 -81c0 -33 3 -67 6 -91l-43 -8c-7 45 -26 155 -167 155c-117 0 -210 -102 -210 -250c0 -137 72 -247 224 -247c33 0 75 5 153 32v135h-148v47h247v-47h-48v-168c-78 -33 -146 -49 -205 -49c-205 0 -277 164 -277 296
c0 154 95 301 266 301c48 0 87 -12 125 -43c11 -10 15 -12 20 -12c10 0 10 5 15 49z" />
    <glyph glyph-name="H" unicode="H" 
d="M39 563h200v-47h-75v-202h272v202h-75v47h201v-47h-76v-469h76v-47h-201v47h75v220h-272v-220h75v-47h-200v47h75v469h-75v47z" />
    <glyph glyph-name="I" unicode="I" 
d="M100 563h400v-47h-175v-469h175v-47h-400v47h175v469h-175v47z" />
    <glyph glyph-name="J" unicode="J" 
d="M205 563h374v-47h-127v-312c0 -55 -2 -116 -29 -157c-32 -46 -92 -64 -135 -64c-79 0 -147 31 -201 56l-19 8l-9 216h49l4 -97c2 -51 7 -78 47 -102c38 -24 84 -31 118 -31c124 0 125 90 125 171v312h-197v47z" />
    <glyph glyph-name="K" unicode="K" 
d="M60 563h219v-47h-85v-245l252 245h-82v47h195v-47h-45l-217 -211c52 -26 120 -77 199 -258h92v-47h-128c-20 55 -52 111 -65 135c-39 66 -74 107 -132 136l-69 -66v-158h85v-47h-219v47h84v469h-84v47z" />
    <glyph glyph-name="L" unicode="L" 
d="M59 563h273v-47h-123v-469h283l14 202h47l-11 -249h-483v47h100v469h-100v47z" />
    <glyph glyph-name="M" unicode="M" 
d="M8 563h167l114 -339h18l124 339h161v-47h-71l17 -469h61v-47h-212v47h107l-15 469h-18l-140 -372h-52l-130 372h-18l-15 -469h107v-47h-212v47h61l17 469h-71v47z" />
    <glyph glyph-name="N" unicode="N" 
d="M28 563h171l263 -521h18v474h-112v47h223v-47h-65v-529h-89l-268 529h-17v-469h113v-47h-237v47h78v469h-78v47z" />
    <glyph glyph-name="O" unicode="O" 
d="M43 281c0 165 100 299 257 299c160 0 257 -137 257 -299c0 -161 -98 -298 -257 -298c-157 0 -257 134 -257 298zM97 282c0 -119 69 -249 203 -249c132 0 203 125 203 249c0 126 -73 248 -203 248c-138 0 -203 -132 -203 -248z" />
    <glyph glyph-name="P" unicode="P" 
d="M71 563h229c71 0 112 -6 148 -26c51 -28 86 -88 86 -149c0 -55 -30 -113 -73 -137c-49 -28 -83 -30 -203 -30h-56v-174h147v-47h-278v47h81v469h-81v47zM300 516h-98v-248h57c81 0 144 -1 179 27c18 14 42 47 42 95c0 56 -33 92 -60 106c-24 13 -49 20 -120 20z" />
    <glyph glyph-name="Q" unicode="Q" 
d="M516 -52l31 -36c-23 -16 -55 -40 -101 -40c-31 0 -51 9 -85 24s-53 20 -78 20c-44 0 -71 -15 -118 -41l-23 37c48 31 81 75 85 81c-113 35 -184 150 -184 288c0 190 122 299 256 299c144 0 258 -119 258 -303c0 -135 -67 -297 -274 -294c-5 -7 -6 -6 -16 -17
c-1 -2 -3 -4 -2 -2h-2v-2c6 0 11 1 22 1c24 0 54 -6 88 -20c47 -19 52 -21 69 -21c33 0 56 14 74 26zM97 282c0 -119 69 -249 203 -249c132 0 203 125 203 249c0 126 -73 248 -203 248c-138 0 -203 -132 -203 -248z" />
    <glyph glyph-name="R" unicode="R" 
d="M45 563h257c64 0 101 -3 136 -27s61 -75 61 -124c0 -59 -37 -141 -153 -153c36 -34 104 -147 143 -212h88v-47h-125c-31 67 -82 149 -96 171c-39 61 -55 87 -107 87h-72v-211h89v-47h-221v47h82v469h-82v47zM300 516h-123v-211h93c53 0 175 -2 175 110
c0 33 -16 66 -42 84c-15 10 -31 17 -103 17z" />
    <glyph glyph-name="S" unicode="S" 
d="M462 574h45c-7 -30 -9 -47 -9 -72c0 -22 2 -62 9 -119l-45 -8c-3 21 -9 60 -31 94c-15 23 -48 61 -127 61c-105 0 -151 -68 -151 -118c0 -91 103 -102 152 -107c75 -8 111 -13 146 -36c34 -23 62 -59 62 -116c0 -116 -107 -170 -205 -170c-80 0 -119 31 -137 46
c-1 1 -5 4 -8 4c-4 0 -8 -5 -10 -8c-3 -9 -4 -12 -9 -45h-45c9 43 9 85 9 89c0 21 -6 78 -9 106h45c5 -25 12 -60 34 -89c19 -25 50 -53 123 -53c122 0 158 66 158 116c0 87 -87 98 -139 103c-78 8 -221 23 -221 156c0 91 85 172 199 172c72 0 110 -30 124 -41
c16 -12 19 -14 23 -14c9 0 9 4 15 36c1 4 2 11 2 13z" />
    <glyph glyph-name="T" unicode="T" 
d="M60 563h480l17 -236l-48 -6l-14 195h-170v-469h121v-47h-292v47h121v469h-170l-14 -195l-48 6z" />
    <glyph glyph-name="U" unicode="U" 
d="M24 563h224v-47h-102v-282c0 -41 0 -91 19 -130c19 -40 57 -71 134 -71c78 0 117 26 136 63c20 36 20 83 20 128v292h-102v47h224v-47h-72v-292c0 -100 -15 -139 -36 -168c-22 -31 -80 -73 -169 -73c-47 0 -125 14 -170 78c-34 49 -34 127 -34 173v282h-72v47z" />
    <glyph glyph-name="V" unicode="V" 
d="M6 563h214v-47h-94l177 -460l180 460h-102v47h213v-47h-63l-198 -516h-62l-196 516h-69v47z" />
    <glyph glyph-name="W" unicode="W" 
d="M2 563h197v-47h-101l56 -420h2l129 364h34l126 -364h2l58 420h-102v47h195v-47h-46l-75 -516h-50l-127 364h-2l-129 -364h-50l-70 516h-47v47z" />
    <glyph glyph-name="X" unicode="X" 
d="M52 563h194v-47h-82l137 -183l140 183h-76v47h183v-47h-51l-168 -220l186 -249h52v-47h-202v47h90l-154 212l-161 -212h106v-47h-213v47h51l189 249l-168 220h-53v47z" />
    <glyph glyph-name="Y" unicode="Y" 
d="M32 563h196v-47h-76l151 -248l149 248h-78v47h194v-47h-63l-179 -298v-171h118v-47h-287v47h119v171l-181 298h-63v47z" />
    <glyph glyph-name="Z" unicode="Z" 
d="M91 563h402v-41l-349 -475h325v162h47v-209h-432v47l345 469h-291v-146h-47v193z" />
    <glyph glyph-name="bracketleft" unicode="[" 
d="M309 654h176v-50h-126v-648h126v-50h-176v748z" />
    <glyph glyph-name="backslash" unicode="\" 
d="M136 705l375 -824l-43 -20l-375 825z" />
    <glyph glyph-name="bracketright" unicode="]" 
d="M291 -94h-176v50h126v648h-126v50h176v-748z" />
    <glyph glyph-name="asciicircum" unicode="^" 
d="M300 503l-163 -349h-64l190 409h74l190 -409h-64z" />
    <glyph glyph-name="underscore" unicode="_" 
d="M-48 -75h696v-50h-696v50z" />
    <glyph glyph-name="quoteleft" unicode="&#x2018;" 
d="M279 320h-103l108 243h71z" />
    <glyph glyph-name="a" unicode="a" 
d="M461 296v-249h89v-47h-139v72c-41 -38 -109 -86 -191 -86c-99 0 -161 72 -161 141c0 54 46 151 212 151c9 0 79 -1 140 -13v31c0 32 0 106 -121 106c-36 0 -91 -7 -171 -42l-19 45c43 18 112 45 191 45c170 0 170 -115 170 -154zM411 139v80c-23 4 -75 11 -130 11
c-165 0 -168 -92 -168 -104c0 -50 50 -92 106 -92c33 0 106 9 192 105z" />
    <glyph glyph-name="b" unicode="b" 
d="M5 620l142 9v-283h2c41 54 98 88 171 88c123 0 224 -99 224 -223c0 -111 -90 -221 -220 -221c-106 0 -154 60 -177 87v-77h-130v47h80v531l-92 -5v47zM148 213c0 -93 75 -173 175 -173c99 0 167 81 167 172c0 92 -71 172 -168 172c-98 0 -174 -80 -174 -171z" />
    <glyph glyph-name="c" unicode="c" 
d="M477 443l46 -5c-3 -20 -9 -57 -9 -92c0 -19 1 -40 3 -66l-46 -7l-4 17c-7 29 -23 105 -152 105s-190 -92 -190 -178c0 -83 55 -181 186 -181c70 0 139 34 212 85l26 -38c-43 -32 -132 -97 -243 -97c-140 0 -235 103 -235 230c0 107 76 229 239 229c38 0 89 -5 147 -53
c1 -1 3 -3 4 -3c5 0 9 16 10 22c1 8 3 19 6 32z" />
    <glyph glyph-name="d" unicode="d" 
d="M282 608l214 19v-580h85v-47h-135v74h-2c-62 -84 -150 -84 -169 -84c-125 0 -222 102 -222 222c0 135 112 222 220 222c61 0 134 -31 171 -86h2v225l-161 -10zM444 210c0 79 -58 174 -169 174c-88 0 -168 -68 -168 -171c0 -102 78 -173 168 -173c91 0 169 72 169 170z
" />
    <glyph glyph-name="e" unicode="e" 
d="M536 101l23 -44c-52 -29 -149 -71 -242 -71c-163 0 -243 110 -243 228c0 124 90 231 237 231c151 0 227 -107 227 -199c0 -16 -2 -38 -2 -45h-408c3 -52 36 -167 190 -167c84 0 176 46 218 67zM128 248h356c-1 65 -53 149 -173 149c-132 0 -176 -104 -183 -149z" />
    <glyph glyph-name="f" unicode="f" 
d="M97 418h104v56c0 82 13 151 157 151c54 0 105 -8 148 -16l-21 -50c-44 11 -97 16 -140 16c-94 0 -94 -50 -94 -104v-53h213v-47h-213v-324h213v-47h-367v47h104v324h-104v47z" />
    <glyph glyph-name="g" unicode="g" 
d="M422 430h131v-47h-81v-353c0 -122 -50 -187 -229 -187h-63v47c167 0 242 3 242 140v58h-2c-13 -21 -70 -78 -159 -78c-122 0 -214 99 -214 212c0 123 103 212 214 212c11 0 103 0 159 -77h2v73zM422 220c0 99 -75 164 -159 164c-83 0 -162 -66 -162 -161
c0 -91 73 -163 162 -163c94 0 159 77 159 160z" />
    <glyph glyph-name="h" unicode="h" 
d="M25 617l147 12v-255c44 32 99 71 171 71c91 0 148 -68 148 -165v-233h84v-47h-219v47h85v229c0 72 -37 119 -96 119c-63 0 -125 -41 -173 -80v-268h79v-47h-213v47h84v531l-93 -8z" />
    <glyph glyph-name="i" unicode="i" 
d="M130 430h197v-383h173v-47h-399v47h176v336h-147v47zM255 537v119h72v-119h-72z" />
    <glyph glyph-name="j" unicode="j" 
d="M85 430h305v-390c0 -53 0 -191 -187 -191c-53 0 -97 9 -135 17l11 48c26 -6 76 -15 127 -15c134 0 134 92 134 148v336h-255v47zM298 537v119h72v-119h-72z" />
    <glyph glyph-name="k" unicode="k" 
d="M36 616l149 13v-390l187 142v2h-56v47h209v-47h-78l-168 -129c81 -73 164 -161 200 -207h84v-47h-208v47h64c-41 49 -81 89 -178 179l-56 -43v-183h-133v47h83v530l-95 -8z" />
    <glyph glyph-name="l" unicode="l" 
d="M107 597l218 14v-564h174v-47h-398v47h174v516l-163 -12z" />
    <glyph glyph-name="m" unicode="m" 
d="M0 430h114v-35l13 11c3 3 38 35 86 35c42 0 81 -23 100 -63c29 34 67 63 114 63c34 0 72 -17 89 -43c19 -28 26 -50 26 -126v-225h57v-47h-107v272c0 56 1 119 -64 119c-28 0 -61 -14 -98 -66v-278h62v-47h-112v276c0 44 1 115 -66 115c-49 0 -79 -35 -96 -56v-288h68
v-47h-186v47h68v336h-68v47z" />
    <glyph glyph-name="n" unicode="n" 
d="M34 430h132v-56c44 31 99 71 172 71c91 0 149 -68 149 -165v-233h80v-47h-216v47h86v229c0 73 -39 119 -98 119c-33 0 -83 -9 -173 -80v-268h84v-47h-216v47h82v336h-82v47z" />
    <glyph glyph-name="o" unicode="o" 
d="M52 218c0 120 85 232 248 232c167 0 248 -117 248 -232s-81 -232 -248 -232c-163 0 -248 113 -248 232zM106 218c0 -94 68 -182 194 -182c128 0 194 90 194 182c0 93 -66 182 -194 182c-125 0 -194 -87 -194 -182z" />
    <glyph glyph-name="p" unicode="p" 
d="M19 430h132v-71h2c17 23 65 84 172 84c136 0 223 -110 223 -224c0 -134 -113 -226 -221 -226c-16 0 -105 0 -174 86h-2v-189h149v-47h-281v47h82v493h-82v47zM147 222c0 -118 100 -179 178 -179c90 0 169 75 169 177c0 83 -56 173 -168 173c-104 0 -179 -79 -179 -171z
" />
    <glyph glyph-name="q" unicode="q" 
d="M581 430v-47h-82v-493h82v-47h-281v47h149v189h-2c-69 -86 -158 -86 -174 -86c-108 0 -221 92 -221 226c0 114 87 224 223 224c107 0 155 -61 172 -84h2v71h132zM453 222c0 92 -75 171 -179 171c-112 0 -168 -90 -168 -173c0 -102 79 -177 169 -177c78 0 178 61 178 179z
" />
    <glyph glyph-name="r" unicode="r" 
d="M83 430h166v-100c45 45 112 114 207 114c63 0 90 -29 112 -55l-53 -39c-1 1 -4 5 -4 7c-10 15 -23 37 -63 37c-86 0 -165 -90 -199 -128v-219h190v-47h-364v47h124v336h-116v47z" />
    <glyph glyph-name="s" unicode="s" 
d="M437 450l45 -7c-4 -21 -9 -47 -9 -86c0 -28 3 -46 5 -63l-44 -5c-7 39 -19 104 -157 104c-79 0 -124 -33 -124 -74c0 -73 89 -77 206 -83c23 -1 145 -7 145 -112c0 -97 -104 -139 -191 -139c-72 0 -124 29 -147 42c0 0 -3 2 -5 2c-9 0 -14 -19 -20 -42h-44
c3 17 6 30 6 63c0 43 -4 76 -6 99l44 5c6 -34 22 -119 161 -119c40 0 148 10 148 87c0 60 -60 63 -143 66c-53 2 -208 8 -208 129c0 72 72 126 177 126c58 0 97 -18 115 -29c2 -2 14 -9 22 -9c11 0 16 18 18 24c3 13 4 14 6 21z" />
    <glyph glyph-name="t" unicode="t" 
d="M173 563h50v-147h242v-47h-242v-189c0 -74 -1 -144 104 -144c33 0 76 3 193 52l18 -45c-64 -29 -141 -57 -206 -57c-62 0 -103 24 -124 45c-35 35 -35 83 -35 149v189h-68v47h68v147z" />
    <glyph glyph-name="u" unicode="u" 
d="M32 430h132v-265c0 -26 0 -129 100 -129c55 0 107 27 161 87v260h-86v47h136v-383h81v-47h-131v55c-28 -25 -80 -69 -157 -69c-126 0 -154 100 -154 179v218h-82v47z" />
    <glyph glyph-name="v" unicode="v" 
d="M21 430h213v-47h-81l150 -325l152 325h-79v47h203v-47h-74l-181 -383h-47l-182 383h-74v47z" />
    <glyph glyph-name="w" unicode="w" 
d="M2 430h179v-47h-83l88 -303h2l98 272h35l99 -276h2l90 307h-84v47h170v-47h-39l-112 -383h-52l-95 258l-93 -258h-49l-113 383h-43v47z" />
    <glyph glyph-name="x" unicode="x" 
d="M41 430h193v-47h-61l125 -125l125 125h-58v47h184v-47h-61l-157 -158l180 -178h63v-47h-203v47h71l-144 146l-145 -146h70v-47h-197v47h62l176 178l-159 158h-64v47z" />
    <glyph glyph-name="y" unicode="y" 
d="M24 430h187v-47h-69l158 -304l174 304h-68v47h183v-47h-58l-280 -489h89v-47h-300v47h154l77 133l-186 356h-61v47z" />
    <glyph glyph-name="z" unicode="z" 
d="M114 430h382v-43l-324 -340h277v92h47v-139h-392v47l321 336h-264v-89h-47v136z" />
    <glyph glyph-name="braceleft" unicode="{" 
d="M461 652v-48c-49 0 -113 -3 -113 -75c0 -21 2 -38 12 -81l8 -35c1 -7 5 -28 5 -44c0 -49 -30 -72 -55 -91c24 -18 55 -42 55 -90c0 -16 -4 -37 -5 -44l-8 -35c-10 -43 -12 -60 -12 -82c0 -73 71 -74 113 -74v-48c-26 0 -51 -2 -82 8c-53 17 -83 63 -83 116c0 9 1 27 6 50
c1 6 7 35 9 41c4 21 9 48 9 70c0 53 -65 61 -85 63v51c51 5 85 24 85 65c0 23 -7 58 -9 68c-11 56 -15 64 -15 88c0 134 139 127 165 127z" />
    <glyph glyph-name="bar" unicode="|" 
d="M327 673v-858h-53v858h53z" />
    <glyph glyph-name="braceright" unicode="}" 
d="M139 -95v48c49 0 113 3 113 75c0 21 -2 38 -12 81l-8 35c-1 7 -5 28 -5 44c0 49 30 72 55 91c-24 18 -55 42 -55 90c0 16 4 37 5 44l8 35c10 43 12 60 12 82c0 73 -71 74 -113 74v48c26 0 51 2 82 -8c53 -17 83 -63 83 -116c0 -9 -1 -27 -6 -50c-1 -6 -7 -35 -9 -41
c-4 -21 -9 -48 -9 -70c0 -53 65 -61 85 -63v-51c-51 -5 -85 -24 -85 -65c0 -23 7 -58 9 -68c11 -56 15 -64 15 -88c0 -134 -139 -127 -165 -127z" />
    <glyph glyph-name="asciitilde" unicode="~" 
d="M481 387l34 -38c-16 -28 -55 -95 -123 -95c-12 0 -24 0 -94 28c-63 27 -70 30 -90 30c-40 0 -61 -35 -89 -83l-33 39c26 45 59 101 122 101c29 0 53 -10 105 -32c53 -22 65 -26 78 -26c16 0 51 7 85 67c0 2 4 8 5 9z" />
    <glyph glyph-name="exclamdown" unicode="&#xa1;" 
d="M258 -138l19 378h46l18 -378h-83zM300 327c-40 0 -69 28 -69 62s31 61 69 61s69 -27 69 -62c0 -34 -31 -61 -69 -61z" />
    <glyph glyph-name="cent" unicode="&#xa2;" 
d="M332 430v-294c59 10 80 17 153 61l24 -41c-1 0 -5 -3 -6 -3c-65 -42 -91 -52 -171 -66v-144h-49v144c-74 16 -105 33 -137 79c-20 30 -35 67 -35 115c0 94 61 177 172 195v136h49v-136c65 -5 98 -36 103 -42c2 -1 4 -4 6 -4c7 0 10 22 10 23c1 4 2 10 2 12l47 -5
c-4 -24 -9 -54 -9 -81c0 -13 1 -30 3 -60l-47 -6c-1 24 -4 67 -38 92c-26 19 -60 25 -77 25zM283 137v290c-120 -27 -120 -136 -120 -145c0 -29 10 -66 34 -97c27 -34 57 -42 86 -48z" />
    <glyph glyph-name="sterling" unicode="&#xa3;" 
d="M96 339h91c-20 53 -26 78 -26 109c0 94 84 164 179 164c51 0 86 -13 114 -24c3 -1 8 -3 11 -3s4 1 8 10h45c-10 -38 -15 -63 -19 -112l-45 -5c1 16 2 28 2 33c0 8 -3 21 -13 28c-14 8 -59 24 -101 24c-86 0 -132 -60 -132 -114c0 -27 5 -49 27 -110h243v-47h-229
c6 -27 9 -45 9 -73c0 -88 -30 -136 -53 -170l2 -2c18 9 40 19 71 19c24 0 41 -4 77 -18c29 -11 42 -15 57 -15c32 0 53 15 85 41l29 -36c-19 -19 -54 -52 -111 -52c-18 0 -38 3 -70 15c-38 14 -50 18 -72 18c-27 0 -58 -7 -113 -39l-33 43c78 80 84 162 84 192
c0 26 -4 52 -12 77h-105v47z" />
    <glyph glyph-name="fraction" unicode="&#x2044;" 
d="M513 637l40 -28l-467 -647l-38 30z" />
    <glyph glyph-name="yen" unicode="&#xa5;" 
d="M327 139v-92h119v-47h-286v47h119v92h-147v47h147v58h-147v47h147v13l-186 242h-61v47h197v-47h-76l150 -195l147 195h-76v47h194v-47h-60l-181 -242v-13h144v-47h-144v-58h144v-47h-144z" />
    <glyph glyph-name="florin" unicode="&#x192;" 
d="M509 660l-5 -51c-17 4 -40 8 -72 8c-151 0 -152 -87 -152 -137v-55h176v-42h-176v-332c0 -46 -7 -79 -44 -107c-44 -33 -105 -43 -162 -43c-17 0 -36 2 -50 4l4 50c20 -3 45 -6 68 -6c44 0 98 12 119 37c15 18 15 45 15 72v325h-107v42h107v60c0 59 13 179 215 179
c28 0 49 -2 64 -4z" />
    <glyph glyph-name="section" unicode="&#xa7;" 
d="M469 563v-133h-47v86h-115c-20 0 -74 0 -74 -58c0 -26 17 -46 36 -60l138 -106c49 -38 83 -65 83 -117c0 -33 -18 -84 -83 -97c7 -11 19 -28 19 -60c0 -68 -54 -109 -137 -109h-158v144h47v-97h117c36 0 79 17 79 61c0 18 -5 34 -41 61l-134 103c-43 33 -75 60 -75 107
c0 46 37 93 81 102c-23 25 -24 59 -24 67c0 43 25 72 46 86c29 20 74 20 94 20h148zM376 253l-128 99c-72 -8 -72 -57 -72 -63c0 -18 7 -32 50 -65l136 -105c63 3 76 39 76 56c0 24 -12 39 -62 78z" />
    <glyph glyph-name="currency" unicode="&#xa4;" 
d="M443 175l82 -80l-35 -34l-81 80c-41 -33 -88 -37 -109 -37c-16 0 -64 2 -109 37l-81 -80l-35 34l82 80c-35 51 -35 90 -35 100c0 64 21 95 35 115l-82 81l35 33l81 -80c41 32 83 37 109 37c58 0 94 -26 109 -37l81 80l35 -33l-82 -81c33 -46 36 -86 36 -100
c0 -65 -23 -97 -36 -115zM432 283c0 67 -51 131 -132 131c-82 0 -131 -66 -131 -131c0 -67 49 -132 130 -132s133 65 133 132z" />
    <glyph glyph-name="quotesingle" unicode="'" 
d="M243 563h114l-20 -282h-75z" />
    <glyph glyph-name="quotedblleft" unicode="&#x201c;" 
d="M433 320h-103l108 243h71zM260 320h-103l109 243h71z" />
    <glyph glyph-name="guillemotleft" unicode="&#xab;" 
d="M313 430l33 -36l-194 -167l190 -165l-29 -36l-234 201zM488 430l32 -36l-194 -167l191 -165l-29 -36l-235 201z" />
    <glyph glyph-name="guilsinglleft" unicode="&#x2039;" 
d="M400 430l33 -36l-194 -167l191 -166l-30 -35l-234 201z" />
    <glyph glyph-name="guilsinglright" unicode="&#x203a;" 
d="M199 430l235 -203l-235 -201l-29 35l191 166l-194 167z" />
    <glyph glyph-name="endash" unicode="&#x2013;" 
d="M88 317h424v-55h-424v55z" />
    <glyph glyph-name="dagger" unicode="&#x2020;" 
d="M273 563h55v-138h111v-49h-111v-424h-55v424h-112v49h112v138z" />
    <glyph glyph-name="daggerdbl" unicode="&#x2021;" 
d="M274 563h53v-140h110v-47h-110v-160h110v-47h-110v-217h-53v217h-110v47h110v160h-110v47h110v140z" />
    <glyph glyph-name="periodcentered" unicode="&#xb7;" 
d="M300 371c38 0 77 -27 77 -68c0 -42 -40 -68 -77 -68c-35 0 -77 24 -77 68c0 42 40 68 77 68z" />
    <glyph glyph-name="paragraph" unicode="&#xb6;" 
d="M444 533v-580h52v-30h-116v30h19v580h-82v-580h19v-30h-126v30h62v308c-75 -4 -171 24 -171 153c0 149 99 149 184 149h207v-30h-48zM272 291v242c-44 -1 -90 -2 -90 -90v-60c0 -16 5 -99 90 -92z" />
    <glyph glyph-name="bullet" unicode="&#x2022;" 
d="M300 382c-55 0 -100 -45 -100 -100s45 -100 100 -100s100 45 100 100s-45 100 -100 100z" />
    <glyph glyph-name="quotesinglbase" unicode="&#x201a;" 
d="M253 133h104l-109 -242h-71z" />
    <glyph glyph-name="quotedblbase" unicode="&#x201e;" 
d="M167 133h104l-109 -242h-71zM340 133h103l-109 -242h-71z" />
    <glyph glyph-name="quotedblright" unicode="&#x201d;" 
d="M167 563h104l-109 -243h-71zM340 563h103l-109 -243h-71z" />
    <glyph glyph-name="guillemotright" unicode="&#xbb;" 
d="M287 430l234 -203l-234 -201l-29 36l190 165l-194 167zM113 430l234 -203l-234 -201l-30 36l191 165l-194 167z" />
    <glyph glyph-name="ellipsis" unicode="&#x2026;" 
d="M300 119c38 0 77 -27 77 -68c0 -42 -40 -68 -77 -68c-35 0 -77 24 -77 68c0 42 40 68 77 68zM500 119c38 0 77 -27 77 -68c0 -42 -40 -68 -77 -68c-35 0 -77 24 -77 68c0 42 40 68 77 68zM100 119c38 0 77 -27 77 -68c0 -42 -40 -68 -77 -68c-35 0 -77 24 -77 68
c0 42 40 68 77 68z" />
    <glyph glyph-name="perthousand" unicode="&#x2030;" 
d="M216 253c72 0 114 -68 114 -134c0 -65 -42 -133 -114 -133s-114 69 -114 133s41 134 114 134zM216 206c-37 0 -60 -43 -60 -86c0 -44 24 -87 60 -87c39 0 60 46 60 87c0 40 -21 86 -60 86zM123 613c72 0 114 -67 114 -133c0 -67 -43 -133 -114 -133
c-72 0 -114 69 -114 133c0 63 41 133 114 133zM123 566c-38 0 -60 -44 -60 -86c0 -43 23 -86 60 -86s60 42 60 86s-23 86 -60 86zM477 253c71 0 114 -68 114 -134s-44 -133 -114 -133c-74 0 -114 71 -114 133s40 134 114 134zM477 206c-38 0 -60 -44 -60 -86
c0 -44 23 -87 60 -87c38 0 60 44 60 87c0 42 -22 86 -60 86zM426 438l20 -40l-407 -180l-20 40z" />
    <glyph glyph-name="questiondown" unicode="&#xbf;" 
d="M474 -3v-102c-70 -24 -105 -35 -162 -35c-127 0 -192 80 -192 164c0 117 114 152 181 170v60h49v-97c-3 -1 -13 -4 -20 -5c-67 -17 -158 -39 -158 -131c0 -41 27 -112 139 -112c49 0 80 11 113 24v64h50zM329 327c-39 0 -69 27 -69 61c0 36 32 62 69 62s69 -26 69 -62
c0 -34 -31 -61 -69 -61z" />
    <glyph glyph-name="grave" unicode="`" 
d="M190 618h107l77 -115h-52z" />
    <glyph glyph-name="acute" unicode="&#xb4;" 
d="M411 618l-143 -115h-53l89 115h107z" />
    <glyph glyph-name="circumflex" unicode="&#x2c6;" 
d="M259 621h77l92 -94l-32 -25l-101 66l-91 -66l-33 24z" />
    <glyph glyph-name="tilde" unicode="&#x2dc;" 
d="M420 619l40 -13c-1 -1 -2 -5 -2 -7c-16 -54 -55 -85 -98 -85c-22 0 -41 8 -71 32c-32 24 -41 29 -55 29c-26 0 -42 -26 -52 -52c0 -1 -2 -6 -2 -6l-40 14c18 50 45 89 94 89c32 0 53 -16 74 -34c25 -19 40 -27 55 -27c36 0 50 40 57 60z" />
    <glyph glyph-name="macron" unicode="&#xaf;" 
d="M130 592h340v-50h-340v50z" />
    <glyph glyph-name="breve" unicode="&#x2d8;" 
d="M138 624h46c1 0 2 -3 2 -3c34 -62 92 -68 114 -68c50 0 89 24 114 68c0 1 1 3 2 3h46c-39 -108 -130 -114 -162 -114c-59 0 -112 27 -142 70c-9 13 -11 21 -20 44z" />
    <glyph glyph-name="dotaccent" unicode="&#x2d9;" 
d="M264 513v108h72v-108h-72z" />
    <glyph glyph-name="dieresis" unicode="&#xa8;" 
d="M199 513v108h72v-108h-72zM329 513v108h72v-108h-72z" />
    <glyph glyph-name="ring" unicode="&#x2da;" 
d="M300 642c42 0 76 -34 76 -76s-34 -76 -76 -76s-76 34 -76 76s34 76 76 76zM301 604c-21 0 -39 -14 -39 -38c0 -21 18 -38 39 -38s37 17 37 38s-16 38 -37 38z" />
    <glyph glyph-name="cedilla" unicode="&#xb8;" 
d="M325 -2l-3 -23c67 -10 70 -54 70 -62c0 -12 -4 -58 -80 -58c-49 0 -92 11 -110 15l7 44c21 -5 59 -14 102 -14c10 0 34 0 34 13c0 19 -33 22 -72 25l7 60h45z" />
    <glyph glyph-name="hungarumlaut" unicode="&#x2dd;" 
d="M354 617l-130 -113h-44l98 113h76zM480 617l-130 -113h-44l98 113h76z" />
    <glyph glyph-name="ogonek" unicode="&#x2db;" 
d="M364 -40l-9 -53c-1 0 -2 -1 -2 -2c-11 -8 -28 -22 -57 -22c-34 0 -58 27 -58 58c0 16 6 51 63 73h94v-4c-25 -6 -37 -8 -51 -14c-16 -7 -47 -19 -47 -42c0 -13 10 -19 19 -19c12 0 20 6 31 13c5 3 7 5 17 12z" />
    <glyph glyph-name="caron" unicode="&#x2c7;" 
d="M340 509h-76l-93 94l32 24l101 -65l92 66l32 -25z" />
    <glyph glyph-name="emdash" unicode="&#x2014;" 
d="M-48 317h696v-55h-696v55z" />
    <glyph glyph-name="AE" unicode="&#xc6;" 
d="M158 563h391v-180h-45l-9 133h-143v-194h65v73h46v-193h-46v73h-65v-228h152l6 139h46v-186h-254v184h-123l-57 -137h89v-47h-192v47h53l189 469h-103v47zM302 231v273h-2l-104 -273h106z" />
    <glyph glyph-name="ordfeminine" unicode="&#xaa;" 
d="M205 521l-14 34c47 19 72 25 102 25c59 0 91 -27 91 -80v-118h43v-36h-81v28c-34 -26 -57 -35 -88 -35c-47 0 -85 33 -85 75c0 48 45 81 111 81c20 0 33 -1 62 -5v7c0 33 -16 47 -54 47c-25 0 -50 -7 -87 -23zM346 423v31c-28 4 -41 5 -57 5c-47 0 -78 -17 -78 -45
c0 -21 22 -39 47 -39c29 0 61 18 88 48zM178 302h244v-36h-244v36z" />
    <glyph glyph-name="Lslash" unicode="&#x141;" 
d="M209 321l191 109l23 -40l-214 -124v-219h283l14 202h47l-11 -249h-483v47h100v197l-79 -46l-21 41l100 59v218h-100v47h273v-47h-123v-195z" />
    <glyph glyph-name="Oslash" unicode="&#xd8;" 
d="M148 37l-50 -60l-34 27l50 65c-35 46 -71 107 -71 211c0 165 99 300 258 300c90 0 136 -40 162 -62l39 49l35 -26l-44 -56c64 -77 64 -188 64 -206c0 -158 -97 -296 -253 -296c-39 0 -98 6 -156 54zM459 441l-282 -363c18 -15 55 -45 123 -45c123 0 203 111 203 247
c0 59 -14 112 -44 161zM148 112l283 365c-39 45 -97 53 -132 53c-127 0 -202 -122 -202 -247c0 -38 10 -122 51 -171z" />
    <glyph glyph-name="OE" unicode="&#x152;" 
d="M279 563h258v-180h-44l-9 133h-132v-194h65v73h46v-193h-46v73h-65v-228h146l6 138h46v-185h-308c-156 0 -226 161 -226 277c0 160 105 286 263 286zM302 47v469h-26c-134 0 -206 -110 -206 -236c0 -98 53 -233 188 -233h44z" />
    <glyph glyph-name="ordmasculine" unicode="&#xba;" 
d="M172 459c0 71 53 121 128 121s128 -50 128 -121c0 -70 -53 -120 -128 -120s-128 50 -128 120zM212 460c0 -50 36 -85 88 -85s88 35 88 85c0 49 -36 84 -88 84s-88 -35 -88 -84zM178 302h244v-36h-244v36z" />
    <glyph glyph-name="ae" unicode="&#xe6;" 
d="M563 203h-243c2 -57 6 -92 32 -127c30 -41 67 -42 85 -42c40 0 80 11 113 22l18 -43c-72 -25 -116 -27 -133 -27c-80 0 -116 55 -129 74c-62 -62 -115 -75 -149 -75c-80 0 -124 65 -124 131c0 68 52 150 160 150c22 0 40 -4 77 -9v35c0 69 -11 110 -73 110
c-35 0 -64 -7 -120 -27l-14 44c55 21 94 31 135 31c72 0 95 -35 108 -75c21 28 56 75 119 75c16 0 150 -3 138 -247zM270 89v120c-34 7 -53 9 -76 9c-90 0 -111 -66 -111 -102c0 -39 23 -83 73 -83c49 0 93 38 114 56zM320 250h193c-2 98 -35 152 -89 152
c-34 0 -59 -23 -73 -40c-29 -36 -30 -69 -31 -112z" />
    <glyph glyph-name="dotlessi" unicode="&#x131;" 
d="M130 430h197v-383h173v-47h-399v47h176v336h-147v47z" />
    <glyph glyph-name="lslash" unicode="&#x142;" 
d="M325 352l136 78l23 -40l-159 -92v-251h174v-47h-398v47h174v230l-136 -79l-23 41l159 92v232l-163 -12l-5 46l218 14v-259z" />
    <glyph glyph-name="oslash" unicode="&#xf8;" 
d="M145 32l-46 -46l-39 37l46 46c-46 55 -54 119 -54 150c0 116 84 231 248 231c46 0 110 -11 152 -45l49 50l38 -38l-46 -46c48 -56 55 -123 55 -153c0 -121 -88 -232 -246 -232c-13 0 -92 0 -157 46zM454 332l-270 -264c24 -15 47 -32 116 -32c128 0 194 90 194 182
c0 43 -13 81 -40 114zM144 105l271 264c-32 16 -53 31 -115 31c-129 0 -194 -92 -194 -182c0 -26 7 -74 38 -113z" />
    <glyph glyph-name="oe" unicode="&#x153;" 
d="M562 205h-242c-3 -139 71 -172 115 -172c43 0 89 14 115 22l18 -43c-70 -24 -113 -27 -131 -27c-24 0 -98 6 -137 93c-11 -24 -42 -93 -137 -93c-154 0 -153 177 -153 212c0 128 44 254 166 254c80 0 116 -63 124 -83c31 55 80 82 124 82c103 0 140 -124 140 -199
c0 -16 -1 -37 -2 -46zM270 211c0 169 -47 192 -94 192c-82 0 -112 -110 -112 -203c0 -74 20 -167 98 -167c109 0 108 142 108 178zM320 249h194c0 76 -27 153 -90 153c-19 0 -102 -17 -104 -153z" />
    <glyph glyph-name="germandbls" unicode="&#xdf;" 
d="M65 47h76v404c0 109 77 174 162 174c88 0 142 -66 142 -143c0 -59 -36 -108 -83 -127c38 -13 151 -49 151 -194c0 -88 -57 -168 -164 -168c-65 0 -99 22 -115 33v52c24 -14 61 -35 114 -35c48 0 111 32 111 123c0 101 -70 155 -202 160v46c26 2 136 9 136 109
c0 53 -31 94 -92 94c-51 0 -110 -30 -110 -132v-443h-126v47z" />
    <glyph glyph-name="copyright" unicode="&#xa9;" 
d="M430 439v-97h-28c-2 29 -3 49 -10 60c-10 17 -41 30 -76 30c-82 0 -126 -64 -126 -138c0 -78 48 -145 123 -145c64 0 88 45 101 71l24 -10c-23 -62 -81 -92 -139 -92c-98 0 -160 79 -160 172c0 88 58 171 173 171c33 0 84 -10 118 -22zM300 580c160 0 290 -129 290 -290
s-130 -291 -290 -291c-159 0 -290 130 -290 291c0 162 132 290 290 290zM300 542c-138 0 -252 -112 -252 -253c0 -139 114 -252 252 -252s252 113 252 252c0 140 -113 253 -252 253z" />
    <glyph glyph-name="approxequalalt" 
d="M513 245v-57h-426v57h426zM481 464l34 -38c-17 -29 -55 -96 -123 -96c-14 0 -23 0 -94 29c-64 26 -71 29 -90 29c-41 0 -62 -36 -89 -82l-33 39s2 3 2 4c24 40 57 96 119 96c31 0 55 -10 106 -31c53 -22 66 -27 79 -27c14 0 50 6 84 68c0 1 4 7 5 9z" />
    <glyph glyph-name="twosuperior" unicode="&#xb2;" 
d="M367 345h39v-97h-239v39l9 8c27 24 86 77 112 101c68 62 76 76 76 113c0 40 -34 72 -75 72c-37 0 -68 -23 -69 -50l1 -12h-42v47c29 36 68 55 111 55c65 0 117 -50 117 -113c0 -50 -22 -76 -110 -157l-69 -63h139v57z" />
    <glyph glyph-name="rightangle" unicode="&#x221f;" 
d="M510 0h-429v429h50v-379h379v-50z" />
    <glyph glyph-name="productdot" 
d="M300 371c38 0 77 -27 77 -68c0 -42 -40 -68 -77 -68c-35 0 -77 24 -77 68c0 42 40 68 77 68z" />
    <glyph glyph-name="alpha" unicode="&#x3b1;" 
d="M494 47h66v-47h-110c-4 25 -5 35 -11 64c-2 8 -10 52 -12 60c-45 -63 -98 -139 -197 -139c-111 0 -189 112 -189 235c0 127 79 231 193 231c127 0 190 -123 210 -193c46 88 63 154 72 190h49c0 -1 -1 -7 -2 -9c-10 -47 -24 -105 -88 -234c-2 -3 -9 -18 -11 -21
c1 -2 4 -12 4 -15c4 -14 13 -50 15 -62l9 -50c0 -2 1 -7 2 -10zM410 192c-13 85 -77 210 -176 210c-75 0 -140 -75 -140 -182c0 -106 63 -186 142 -186c74 0 132 84 174 158z" />
    <glyph glyph-name="Sigma" unicode="&#x3a3;" 
d="M86 563h393v-183h-47l-9 136h-278l180 -218l-186 -251h293l6 137h46v-184h-398v52l178 246l-178 213v52z" />
    <glyph glyph-name="Tbar" unicode="&#x166;" 
d="M325 354h140v-47h-140v-260h123v-47h-294v47h121v260h-140v47h140v162h-170l-13 -195l-49 6l17 236h480l17 -236l-48 -6l-14 195h-170v-162z" />
    <glyph glyph-name="SS270000" unicode="&#x2321;" 
d="M258 841h84v-869c0 -156 -81 -217 -146 -217s-73 44 -73 59c0 33 25 51 48 51c33 0 43 -16 54 -32c1 -2 9 -15 16 -15c17 0 17 19 17 78v945z" />
    <glyph glyph-name="Scedilla" unicode="&#x15e;" 
d="M328 -16l-1 -9c68 -10 71 -54 71 -62c0 -12 -4 -58 -81 -58c-49 0 -92 11 -110 15l7 44c24 -6 60 -14 103 -14c9 0 34 0 34 13c0 19 -33 22 -72 25l5 46c-23 2 -58 9 -89 28c-5 3 -27 21 -32 21c-4 0 -8 -5 -10 -8c-3 -9 -4 -12 -9 -45h-45c9 43 9 85 9 89
c0 21 -6 78 -9 106h45c10 -50 30 -142 158 -142c104 0 157 51 157 115c0 87 -87 99 -139 104c-78 8 -221 23 -221 156c0 91 85 172 199 172c72 0 110 -30 124 -41c16 -12 19 -14 23 -14c7 0 9 9 11 13c1 4 6 33 6 36h45c-7 -30 -9 -47 -9 -72c0 -22 2 -62 9 -119l-45 -8
c-6 41 -22 155 -158 155c-96 0 -151 -60 -151 -118c0 -91 103 -102 152 -107c75 -8 111 -13 146 -36s62 -59 62 -116c0 -66 -40 -155 -185 -169z" />
    <glyph glyph-name="brokenbar" unicode="&#xa6;" 
d="M327 673v-373h-53v373h53zM327 188v-373h-53v373h53z" />
    <glyph glyph-name="SM680000" unicode="&#x2310;" 
d="M510 438v-52h-377v-217h-52v269h429z" />
    <glyph glyph-name="arrowright" unicode="&#x2192;" 
d="M26 262v50h410c-37 55 -40 83 -40 84c0 3 3 19 21 19c9 0 16 -8 34 -27c44 -47 104 -79 112 -83c9 -4 19 -8 19 -20c0 -9 -9 -13 -24 -21c-36 -16 -83 -51 -110 -82c-18 -21 -21 -24 -31 -24c-15 0 -21 12 -21 19c0 21 30 70 40 85h-410z" />
    <glyph glyph-name="approxequal" unicode="&#x2248;" 
d="M481 464l34 -38c-17 -29 -55 -96 -123 -96c-14 0 -23 0 -94 29c-64 26 -71 29 -90 29c-41 0 -62 -36 -89 -82l-33 39s2 3 2 4c24 40 57 96 119 96c31 0 55 -10 106 -31c53 -22 66 -27 79 -27c14 0 50 6 84 68c0 1 4 7 5 9zM481 297l34 -38c-17 -29 -55 -96 -123 -96
c-14 0 -23 0 -94 29c-64 26 -71 29 -90 29c-41 0 -62 -36 -89 -82l-33 39s2 3 2 4c24 40 57 96 119 96c31 0 55 -10 106 -31c53 -22 66 -27 79 -27c14 0 50 6 84 68c0 1 4 7 5 9z" />
    <glyph glyph-name="club" unicode="&#x2663;" 
d="M495 0h-388l4 16l6 1c80 18 100 27 129 61c31 36 49 86 49 134v22h-2c-33 -71 -85 -109 -148 -109c-71 0 -127 56 -127 128c0 68 48 124 110 126c29 -2 38 -5 73 -23l2 2c-25 40 -31 54 -31 81c0 70 55 124 127 124c71 0 127 -54 127 -122c0 -30 -9 -54 -31 -83l2 -2
l14 8c27 13 38 16 58 16c63 0 113 -56 113 -125c0 -72 -55 -130 -125 -130c-42 0 -89 24 -119 59c-11 12 -18 23 -31 50l-2 -2c1 -61 9 -95 31 -129c32 -49 68 -70 146 -85l9 -2z" />
    <glyph glyph-name="SS010000" unicode="&#x263b;" 
d="M300 563c155 0 282 -126 282 -281c0 -156 -127 -282 -282 -282s-282 126 -282 282c0 155 126 281 282 281zM213 403c-24 0 -43 -19 -43 -42c0 -24 19 -43 43 -43c23 0 42 19 42 43c0 23 -19 42 -42 42zM391 403c-23 0 -42 -19 -42 -43c0 -23 19 -42 42 -42
c24 0 43 19 43 42c0 24 -19 43 -43 43zM483 316v-2l-2 2c-6 -39 -14 -55 -34 -78c-37 -43 -84 -63 -147 -63c-62 0 -109 20 -146 63c-20 23 -28 39 -35 78l-2 -2c5 -65 14 -95 37 -130c32 -49 82 -74 146 -74c59 0 106 21 139 62c29 37 39 72 44 144z" />
    <glyph glyph-name="SM490000" 
d="M21 612l50 58c85 -54 146 -73 229 -73c85 0 143 18 231 73l48 -58c-43 -95 -63 -182 -62 -278c1 -100 21 -191 62 -275l-48 -59c-74 51 -141 72 -226 72c-87 0 -157 -21 -234 -72l-50 59c41 83 62 175 62 275c0 97 -20 184 -62 278zM100 588l14 -53
c25 -70 33 -141 33 -201c0 -53 -10 -134 -32 -199l-15 -54c77 41 129 55 198 55c72 0 128 -15 201 -55l-15 54c-18 64 -31 146 -31 199c0 60 5 130 30 201l18 51l-2 2c-55 -37 -127 -55 -201 -55c-67 0 -130 17 -198 55z" />
    <glyph glyph-name="arrowup" unicode="&#x2191;" 
d="M325 0h-50v442c-55 -37 -83 -40 -84 -40c-3 0 -19 3 -19 21c0 9 8 16 27 34c47 44 79 104 83 112c4 9 8 19 20 19c9 0 13 -9 21 -24c16 -36 51 -83 82 -110c21 -18 24 -21 24 -31c0 -15 -12 -21 -19 -21c-21 0 -70 30 -85 40v-442z" />
    <glyph glyph-name="SF020000" unicode="&#x2514;" 
d="M336 288h264v-72h-336v576h72v-504z" />
    <glyph glyph-name="SF610000" unicode="&#x2588;" 
d="M0 -288v1080h600v-1080h-600z" />
    <glyph glyph-name="commasuperior" 
d="M263 355h86l-76 -156h-63z" />
    <glyph glyph-name="zeroslash" 
d="M389 598l22 57l46 -17l-29 -75c58 -78 62 -209 62 -256c0 -136 -29 -319 -190 -319c-43 0 -66 12 -84 22l-28 -73l-46 18l34 88c-63 77 -66 215 -66 262c0 131 27 318 190 318c44 0 68 -14 89 -25zM198 101l173 450c-1 0 -1 0 -2 2c-14 13 -41 25 -69 25
c-119 0 -137 -167 -137 -274c0 -45 5 -136 35 -203zM404 503l-170 -447c22 -18 45 -23 66 -23c116 0 137 157 137 280c0 69 -7 105 -31 190h-2z" />
    <glyph glyph-name="Tcedilla" unicode="&#x162;" 
d="M315 0l-3 -25c63 -9 70 -49 70 -62c0 -12 -4 -58 -80 -58c-49 0 -92 11 -110 15l7 44c24 -6 59 -14 102 -14c10 0 34 0 34 13c0 19 -33 22 -72 25l7 62h-116v47h121v469h-170l-14 -195l-48 6l17 236h480l17 -236l-48 -6l-14 195h-170v-469h121v-47h-131z" />
    <glyph glyph-name="carriagereturn" unicode="&#x21b5;" 
d="M524 312v215h50v-265h-410c37 -55 40 -83 40 -84c0 -3 -3 -19 -21 -19c-9 0 -16 8 -34 27c-44 47 -104 79 -112 83c-9 4 -19 8 -19 20c0 9 9 13 24 21c36 16 83 51 110 82c18 21 21 24 31 24c15 0 21 -12 21 -19c0 -21 -30 -70 -40 -85h360z" />
    <glyph glyph-name="diamond" unicode="&#x2666;" 
d="M100 265l-10 11c15 18 26 32 55 68c44 56 54 68 69 90c35 47 60 84 85 129c29 -50 62 -97 115 -168c33 -42 61 -79 78 -98c6 -7 9 -11 18 -21c-15 -15 -28 -31 -52 -61l-56 -73c-35 -46 -75 -105 -102 -153c-12 23 -27 46 -52 82c-47 66 -79 109 -99 134z" />
    <glyph glyph-name="SF440000" unicode="&#x256c;" 
d="M264 216v-504h-72v432h-192v72h264zM264 288h-264v72h192v432h72v-504zM336 216h264v-72h-192v-432h-72v504zM336 288v504h72v-432h192v-72h-264z" />
    <glyph glyph-name="trademark" unicode="&#x2122;" 
d="M598 563v-24c-17 0 -33 2 -33 -9v-222c0 -13 3 -13 33 -15v-24h-110v24c27 1 35 1 35 15v193h-2l-96 -232h-14l-94 232h-2v-188c0 -18 3 -19 35 -20v-24h-94v24c26 0 32 2 32 10v226c0 9 -15 10 -27 10v24h73l91 -223l98 223h75zM234 563l-2 -28l2 -33v-16h-26
c-1 34 -2 51 -38 51h-31v-235c0 -6 0 -9 27 -9h15v-24h-126v24c41 0 43 1 43 15v229c-63 1 -65 -5 -70 -51h-26c3 21 5 36 5 57v20h227z" />
    <glyph glyph-name="sigma" unicode="&#x3c3;" 
d="M592 450v-50l-182 14l-2 -2c82 -43 123 -114 123 -200c0 -115 -97 -227 -230 -227c-138 0 -232 117 -232 234c0 78 42 150 100 190c61 42 152 41 207 41h216zM301 400c-104 0 -178 -84 -178 -184c0 -99 78 -181 178 -181c94 0 176 79 176 181c0 105 -81 184 -176 184z
" />
    <glyph glyph-name="Kcedilla" unicode="&#x136;" 
d="M60 563h219v-47h-85v-245l252 245h-82v47h195v-47h-45l-217 -211c52 -26 120 -77 199 -258h92v-47h-128c-20 55 -52 111 -65 135c-39 66 -74 107 -132 136l-69 -66v-158h85v-47h-219v47h84v469h-84v47zM349 0l-3 -25c67 -10 70 -54 70 -62c0 -12 -4 -58 -80 -58
c-49 0 -92 11 -110 15l7 44c24 -6 59 -14 102 -14c10 0 34 0 34 13c0 19 -33 22 -72 25l7 62h45z" />
    <glyph glyph-name="tquoteright" 
d="M141 563h50v-147h242v-47h-242v-189c0 -74 -1 -144 104 -144c33 0 76 3 193 52l18 -45c-64 -29 -141 -57 -206 -57c-62 0 -103 24 -124 45c-35 35 -35 83 -35 149v189h-68v47h68v147zM543 563h103l-109 -243h-71z" />
    <glyph glyph-name="aogonek" unicode="&#x105;" 
d="M508 -40l-9 -53c-13 -11 -30 -24 -59 -24c-34 0 -58 27 -58 58c0 23 12 42 35 57v2h-6v72c-41 -38 -109 -86 -191 -86c-99 0 -161 72 -161 141c0 54 46 151 212 151c9 0 79 -1 140 -13v31c0 32 0 106 -121 106c-36 0 -91 -7 -171 -42l-19 45c43 18 112 45 191 45
c170 0 170 -115 170 -154v-249h89v-47h-50c-20 -6 -59 -23 -59 -46c0 -13 10 -19 19 -19c14 0 17 3 48 25zM411 139v80c-23 4 -75 11 -130 11c-165 0 -168 -92 -168 -104c0 -50 50 -92 106 -92c33 0 106 9 192 105z" />
    <glyph glyph-name="SF280000" unicode="&#x255b;" 
d="M336 792v-648h-336v72h264v72h-264v72h264v432h72z" />
    <glyph glyph-name="tbar" unicode="&#x167;" 
d="M223 306h242v-47h-242v-79c0 -77 2 -144 104 -144c30 0 70 1 193 52l18 -45c-52 -24 -136 -57 -207 -57c-61 0 -102 24 -123 45c-35 35 -35 83 -35 149v79h-67v47h67v63h-67v47h67v147h50v-147h242v-47h-242v-63z" />
    <glyph glyph-name="SF600000" unicode="&#x2580;" 
d="M0 252v540h600v-540h-600z" />
    <glyph glyph-name="registered" unicode="&#xae;" 
d="M160 441v25h138c21 0 116 0 116 -85c0 -11 0 -68 -76 -86c21 -15 33 -41 54 -89c21 -47 26 -48 60 -47v-24h-40c-39 0 -51 29 -69 76c-27 71 -32 74 -79 74h-18v-100c0 -17 0 -19 7 -23c2 -1 24 -3 34 -4v-23h-127v23c4 1 11 1 14 2c24 2 27 2 27 25v233c0 16 0 18 -6 20
c-3 1 -4 1 -35 3zM246 421v-112h23c60 0 100 17 100 69c0 61 -56 64 -82 64c-37 0 -41 -1 -41 -21zM300 580c159 0 290 -128 290 -290c0 -159 -130 -290 -290 -290s-290 131 -290 290c0 162 132 290 290 290zM300 542c-138 0 -252 -112 -252 -252c0 -138 112 -252 252 -252
s252 114 252 252c0 141 -115 252 -252 252z" />
    <glyph glyph-name="threeeighths" unicode="&#x215c;" 
d="M358 21c0 36 19 67 53 88c-31 24 -46 51 -46 86c0 57 49 101 112 101s112 -45 112 -101c0 -34 -15 -63 -46 -86c34 -21 53 -52 53 -88c0 -60 -52 -106 -119 -106s-119 46 -119 106zM406 194c0 -39 34 -67 71 -67c40 0 71 28 71 67s-33 64 -71 64c-39 0 -71 -24 -71 -64z
M399 19c0 -37 36 -66 78 -66c43 0 78 27 78 67c0 44 -39 69 -78 69c-43 0 -78 -25 -78 -70zM41 549l-19 32c48 31 74 41 107 41c60 0 106 -41 106 -95c0 -33 -12 -57 -40 -79c40 -23 58 -53 58 -94c0 -66 -52 -113 -124 -113c-29 0 -49 6 -96 24l-18 7l15 35
c45 -21 72 -28 101 -28c48 0 82 30 82 75s-30 73 -84 71l-22 -1v37c35 1 48 4 62 14c17 12 26 30 26 51c0 34 -28 58 -66 58c-23 0 -41 -7 -73 -26zM550 633l29 -20l-510 -703l-28 22z" />
    <glyph glyph-name="delta" unicode="&#x3b4;" 
d="M470 615v-47h-285v-2l190 -142c78 -59 144 -109 144 -219c0 -122 -98 -220 -219 -220c-126 0 -219 103 -219 218c0 49 18 108 54 143c65 63 106 72 174 72v2l-124 89c-25 18 -31 24 -52 48v58h337zM300 368c-107 0 -165 -79 -165 -166c0 -92 70 -167 163 -167
c97 0 167 78 167 169c0 96 -70 164 -165 164z" />
    <glyph glyph-name="SF420000" unicode="&#x2560;" 
d="M192 -288v1080h72v-1080h-72zM336 216h264v-72h-192v-432h-72v504zM336 288v504h72v-432h192v-72h-264z" />
    <glyph glyph-name="SF480000" unicode="&#x2565;" 
d="M336 216h-72v-504h-72v504h-192v72h600v-72h-192v-504h-72v504z" />
    <glyph glyph-name="SM570001" unicode="&#x25d8;" 
d="M61 0v478h478v-478h-478zM300 338c-54 0 -99 -45 -99 -100c0 -54 45 -98 99 -98s99 44 99 98c0 55 -45 100 -99 100z" />
    <glyph glyph-name="SF010000" unicode="&#x250c;" 
d="M336 216v-504h-72v576h336v-72h-264z" />
    <glyph glyph-name="dquoteright" 
d="M251 608l214 19v-580h85v-47h-135v74h-2c-62 -84 -150 -84 -169 -84c-125 0 -222 102 -222 222c0 135 112 222 220 222c61 0 134 -31 171 -86h2v225l-161 -10zM413 210c0 79 -58 174 -169 174c-88 0 -168 -68 -168 -171c0 -102 78 -173 168 -173c91 0 169 72 169 170z
M581 562h103l-108 -243h-71z" />
    <glyph glyph-name="SS000000" unicode="&#x263a;" 
d="M300 563c155 0 282 -126 282 -281c0 -156 -127 -282 -282 -282s-282 126 -282 282c0 155 126 281 282 281zM300 525c-135 0 -244 -108 -244 -243s109 -244 244 -244s244 109 244 244s-109 243 -244 243zM216 399c22 0 39 -17 39 -39c0 -21 -17 -39 -39 -39s-39 18 -39 39
c0 22 17 39 39 39zM384 399c22 0 39 -18 39 -40s-17 -38 -39 -38c-21 0 -39 17 -39 38c0 22 18 40 39 40zM483 316c-5 -72 -16 -107 -45 -144c-32 -41 -79 -62 -138 -62c-64 0 -114 25 -146 74c-23 35 -32 65 -37 132c9 -39 17 -55 37 -78c37 -43 84 -63 146 -63
c63 0 110 20 147 63c20 23 27 39 36 78z" />
    <glyph glyph-name="plussuperior" unicode="&#x207a;" 
d="M275 573h50v-121h134v-43h-134v-121h-50v121h-134v43h134v121z" />
    <glyph glyph-name="divide" unicode="&#xf7;" 
d="M300 528c24 0 45 -19 45 -45c0 -24 -19 -45 -45 -45c-25 0 -45 21 -45 45c0 27 22 45 45 45zM66 328h468v-50h-468v50zM300 168c22 0 45 -18 45 -45c0 -26 -22 -45 -45 -45c-24 0 -45 20 -45 45c0 26 21 45 45 45z" />
    <glyph glyph-name="uogonek" unicode="&#x173;" 
d="M514 -40l-10 -53c-12 -11 -29 -24 -58 -24c-34 0 -58 27 -58 58s22 51 37 61v53c-28 -25 -80 -69 -157 -69c-126 0 -154 100 -154 179v218h-82v47h132v-265c0 -26 0 -128 100 -128c55 0 107 26 161 86v260h-86v47h136v-383h81v-47h-50c-21 -6 -59 -23 -59 -46
c0 -13 10 -19 19 -19c13 0 17 3 48 25z" />
    <glyph glyph-name="SF410000" unicode="&#x2566;" 
d="M408 -288h-72v504h264v-72h-192v-432zM0 216h264v-504h-72v432h-192v72zM600 288h-600v72h600v-72z" />
    <glyph glyph-name="SM630000" unicode="&#x25c0;" 
d="M560 83l-560 199l560 198v-397z" />
    <glyph glyph-name="Aogonek" unicode="&#x104;" 
d="M548 -40l-10 -53c-13 -11 -30 -24 -59 -24c-34 0 -58 27 -58 58c0 23 12 42 35 57v2h-71v47h102l-57 139h-261l-56 -139h102v-47h-205v47h53l193 469h-143v47h215l211 -516h51v-47h-51c-20 -6 -58 -23 -58 -46c0 -13 10 -19 18 -19c14 0 17 3 49 25zM413 230l-113 274
l-113 -274h226z" />
    <glyph glyph-name="SF070000" unicode="&#x2534;" 
d="M336 288h264v-72h-600v72h264v504h72v-504z" />
    <glyph glyph-name="scedilla" unicode="&#x15f;" 
d="M324 -15l-2 -10c68 -10 71 -54 71 -62c0 -12 -4 -58 -81 -58c-48 0 -92 11 -110 15l7 44c24 -6 60 -14 103 -14c9 0 34 0 34 13c0 19 -33 22 -72 25l6 49c-24 4 -47 8 -79 22c-7 3 -40 20 -40 20c-9 0 -14 -19 -20 -42h-44c3 17 6 30 6 63c0 43 -4 76 -6 99l44 5
c6 -34 22 -119 161 -119c40 0 148 11 148 88c0 60 -60 62 -143 65c-53 2 -208 8 -208 129c0 72 72 126 177 126c46 0 80 -10 104 -23c3 -2 29 -15 33 -15c9 0 10 4 24 45l45 -7c-4 -21 -9 -47 -9 -86c0 -28 3 -46 5 -63l-44 -5c-8 39 -20 104 -157 104
c-79 0 -124 -34 -124 -75c0 -73 89 -76 206 -82c23 -1 145 -8 145 -113c0 -73 -63 -131 -180 -138z" />
    <glyph glyph-name="arrowdown" unicode="&#x2193;" 
d="M275 563h50v-442c55 37 83 40 84 40c3 0 19 -3 19 -21c0 -9 -8 -16 -27 -34c-47 -44 -79 -104 -83 -112c-4 -9 -8 -19 -20 -19c-9 0 -13 9 -21 24c-16 36 -51 83 -82 110c-21 18 -24 21 -24 31c0 15 12 21 19 21c21 0 70 -30 85 -40v442z" />
    <glyph glyph-name="thorn" unicode="&#xfe;" 
d="M151 629v-270h2c17 24 65 84 172 84c135 0 223 -109 223 -224c0 -135 -113 -226 -221 -226c-16 0 -105 0 -174 86h-2v-189h149v-47h-281v47h82v687l-89 -4v47zM147 222c0 -118 100 -179 178 -179c90 0 169 75 169 177c0 83 -56 173 -168 173c-104 0 -179 -79 -179 -171z
" />
    <glyph glyph-name="dbar" unicode="&#x111;" 
d="M282 608l214 19v-107h85v-47h-85v-426h85v-47h-135v74h-2c-62 -84 -150 -84 -169 -84c-125 0 -222 102 -222 222c0 135 112 222 220 222c61 0 134 -31 171 -86h2v125h-241v47h241v53l-161 -10zM444 210c0 79 -58 174 -169 174c-88 0 -168 -68 -168 -171
c0 -102 78 -173 168 -173c91 0 169 72 169 170z" />
    <glyph glyph-name="sixsuperior" unicode="&#x2076;" 
d="M415 620v-40c-16 0 -21 0 -37 1c-49 -1 -72 -5 -96 -22c-31 -22 -46 -51 -58 -114l2 -2c12 12 24 20 37 25c12 5 25 6 39 6c61 0 109 -52 109 -118c0 -65 -49 -116 -109 -116c-74 0 -123 66 -123 166c0 80 29 150 76 184c32 23 62 30 124 31c16 0 20 -1 36 -1zM223 376
c3 -56 35 -96 78 -96c38 0 66 32 66 77c0 43 -28 77 -64 77c-35 0 -65 -21 -80 -58z" />
    <glyph glyph-name="SF470000" unicode="&#x2564;" 
d="M336 144v-432h-72v432h-264v72h600v-72h-264zM600 288h-600v72h600v-72z" />
    <glyph glyph-name="similar" unicode="&#x223c;" 
d="M481 387l34 -38c-16 -28 -55 -95 -123 -95c-12 0 -24 0 -94 28c-64 25 -70 30 -90 30c-40 0 -61 -35 -89 -83l-33 39c26 45 59 101 122 101c29 0 53 -10 105 -32c53 -22 65 -26 78 -26c16 0 51 7 85 67c0 2 4 8 5 9z" />
    <glyph glyph-name="SS260000" unicode="&#x2320;" 
d="M342 -245h-84v869c0 152 79 217 146 217c64 0 73 -43 73 -59c0 -35 -27 -51 -49 -51c-32 0 -42 16 -53 32c-1 2 -9 14 -15 14c-18 0 -18 -17 -18 -77v-945z" />
    <glyph glyph-name="degree" unicode="&#xb0;" 
d="M147 467c0 85 68 154 153 154c87 0 153 -71 153 -154s-67 -152 -153 -152c-85 0 -153 67 -153 152zM202 468c0 -54 44 -98 98 -98c55 0 98 44 98 98c0 55 -43 98 -98 98c-54 0 -98 -43 -98 -98z" />
    <glyph glyph-name="SF520000" unicode="&#x2553;" 
d="M336 216h-72v-504h-72v576h408v-72h-192v-504h-72v504z" />
    <glyph glyph-name="ccedilla" unicode="&#xe7;" 
d="M330 -13v-13c28 -7 41 -32 41 -55c0 -22 -13 -63 -60 -63c-26 0 -42 11 -58 22l22 37c21 -14 23 -15 32 -15c16 0 19 12 19 18c0 17 -16 17 -21 17c-11 0 -17 -1 -23 -2l4 54c-104 4 -215 88 -215 229c0 106 75 229 239 229c52 0 89 -12 130 -41c3 -2 20 -15 21 -15
c4 0 7 10 8 13l8 41l46 -5c-3 -20 -9 -57 -9 -92c0 -19 1 -40 3 -66l-46 -7c-10 46 -15 68 -41 89c-37 30 -88 33 -115 33c-128 0 -190 -91 -190 -178c0 -85 56 -181 186 -181c70 0 139 34 212 85l26 -38c-75 -55 -133 -87 -219 -96z" />
    <glyph glyph-name="SM760000" unicode="&#x2195;" 
d="M321 461v-297c42 25 81 40 92 40c5 0 19 -4 19 -21c0 -8 -1 -9 -47 -53c-21 -20 -54 -62 -72 -101c-1 -3 -7 -14 -15 -14c-10 0 -12 4 -26 31s-44 74 -85 110c-17 15 -19 17 -19 27c0 15 12 21 19 21c1 0 29 -2 84 -40v297c-47 -34 -81 -40 -84 -40c-6 0 -19 5 -19 20
c0 9 1 11 27 34c48 43 80 109 82 113c4 8 8 19 20 19c10 0 13 -5 21 -24c1 -2 27 -56 97 -116c11 -9 17 -15 17 -25c0 -17 -13 -21 -18 -21c-14 0 -53 17 -93 40z" />
    <glyph glyph-name="Uogonek" unicode="&#x172;" 
d="M404 -40l-9 -53c-13 -11 -30 -24 -59 -24c-34 0 -58 26 -58 58c0 22 10 35 16 42c-205 13 -198 167 -198 251v282h-72v47h224v-47h-102v-282c0 -82 0 -201 153 -201c156 0 156 101 156 191v292h-102v47h224v-47h-72v-292c0 -141 -22 -185 -115 -226
c-26 -11 -53 -23 -53 -44c0 -13 10 -19 19 -19c13 0 17 3 48 25z" />
    <glyph glyph-name="Ldot" unicode="&#x13f;" 
d="M59 563h273v-47h-123v-469h283l14 202h47l-11 -249h-483v47h100v469h-100v47zM365 381c36 0 76 -25 76 -67c0 -43 -40 -68 -77 -68c-36 0 -76 25 -76 68c0 42 40 67 77 67z" />
    <glyph glyph-name="underscoredbl" unicode="&#x2017;" 
d="M648 -175v-50h-696v50h696zM-48 -75h696v-50h-696v50z" />
    <glyph glyph-name="SM750002" unicode="&#x25d9;" 
d="M300 499c-119 0 -217 -96 -217 -217c0 -120 98 -217 217 -217s217 97 217 217c0 121 -98 217 -217 217zM18 0v564h564v-564h-564zM300 449c91 0 167 -75 167 -167c0 -91 -75 -167 -167 -167s-167 77 -167 167c0 92 75 167 167 167z" />
    <glyph glyph-name="SF430000" unicode="&#x2550;" 
d="M600 360v-72h-600v72h600zM600 216v-72h-600v72h600z" />
    <glyph glyph-name="SF400000" unicode="&#x2569;" 
d="M600 288h-264v504h72v-432h192v-72zM0 288v72h192v432h72v-504h-264zM600 216v-72h-600v72h600z" />
    <glyph glyph-name="SF530000" unicode="&#x256b;" 
d="M264 288h72v504h72v-504h192v-72h-192v-504h-72v504h-72v-504h-72v504h-192v72h192v504h72v-504z" />
    <glyph glyph-name="SF370000" unicode="&#x255f;" 
d="M336 792h72v-504h192v-72h-192v-504h-72v1080zM192 -288v1080h72v-1080h-72z" />
    <glyph glyph-name="SF060000" unicode="&#x252c;" 
d="M336 216v-504h-72v504h-264v72h600v-72h-264z" />
    <glyph glyph-name="SM690000" unicode="&#x263c;" 
d="M137 404l-66 65l42 41l66 -66c19 19 66 38 92 38v94h58v-94c27 0 68 -18 92 -38l67 66l41 -41l-66 -66c18 -18 37 -64 37 -92h94v-58h-94c0 -29 -17 -68 -37 -93l66 -66l-41 -41l-67 66c-14 -14 -61 -37 -92 -38v-94h-58v95c-35 0 -72 16 -92 37l-66 -66l-42 41l67 66
c-21 21 -37 65 -37 93h-95v58h95c0 24 18 71 36 93zM300 416c-74 0 -133 -59 -133 -133s59 -135 133 -135s134 61 134 135s-60 133 -134 133z" />
    <glyph glyph-name="tau" unicode="&#x3c4;" 
d="M306 383v-307c0 -24 7 -38 35 -38c34 0 59 15 87 30l13 -47l-5 -3c-25 -13 -51 -27 -99 -27c-61 0 -81 31 -81 77v315h-62c-44 0 -82 -6 -97 -9v48c24 5 63 8 87 8h275v-47h-153z" />
    <glyph glyph-name="SM700000" 
d="M7 149v179h586v-179h-586z" />
    <glyph glyph-name="Lcedilla" unicode="&#x13b;" 
d="M331 0l-3 -25c63 -9 70 -49 70 -62c0 -12 -3 -58 -80 -58c-49 0 -92 11 -110 15l7 44c24 -6 59 -14 103 -14c9 0 33 0 33 13c0 19 -33 22 -71 25l7 62h-228v47h100v469h-100v47h273v-47h-123v-469h283l14 202h47l-11 -249h-211z" />
    <glyph glyph-name="zerodot" 
d="M300 352c29 0 57 -20 57 -50c0 -32 -29 -51 -57 -51s-57 19 -57 51c0 31 29 50 57 50zM300 621c163 0 190 -188 190 -318c0 -131 -27 -317 -190 -317s-190 188 -190 317c0 130 27 318 190 318zM300 576c-120 0 -137 -168 -137 -272c0 -106 18 -273 136 -273
c120 0 138 168 138 273c0 106 -18 272 -137 272z" />
    <glyph glyph-name="SV040000" unicode="&#x25bc;" 
d="M102 467h396l-198 -371z" />
    <glyph glyph-name="SP500000" 
d="M265 282l-147 148l36 34l146 -147l146 147l36 -34l-147 -148l147 -146l-36 -36l-146 147l-146 -147l-36 36zM18 0v564h564v-564h-564zM75 507v-450h450v450h-450z" />
    <glyph glyph-name="Rcedilla" unicode="&#x156;" 
d="M45 563h257c64 0 101 -3 136 -27s61 -75 61 -124c0 -59 -37 -141 -153 -153c36 -34 104 -147 143 -212h88v-47h-125c-31 67 -82 149 -96 171c-39 61 -55 87 -107 87h-72v-211h89v-47h-221v47h82v469h-82v47zM300 516h-123v-211h93c53 0 175 -2 175 110
c0 33 -16 66 -42 84c-15 10 -31 17 -103 17zM336 0l-3 -25c68 -10 71 -54 71 -62c0 -12 -4 -58 -81 -58c-48 0 -92 11 -110 15l8 44c23 -6 59 -14 102 -14c9 0 34 0 34 13c0 19 -33 22 -72 25l7 62h44z" />
    <glyph glyph-name="SF490000" unicode="&#x2559;" 
d="M336 288v504h72v-504h192v-72h-408v576h72v-504h72z" />
    <glyph glyph-name="radical" unicode="&#x221a;" 
d="M13 316h130l47 -185h2l188 644h268v-50h-230l-214 -725h-48l-70 266h-73v50z" />
    <glyph glyph-name="SF460000" unicode="&#x2568;" 
d="M336 288v504h72v-504h192v-72h-600v72h192v504h72v-504h72z" />
    <glyph glyph-name="SM590000" unicode="&#x25b6;" 
d="M40 83v397l560 -198z" />
    <glyph glyph-name="SM750000" unicode="&#x25cb;" 
d="M300 499c119 0 217 -96 217 -217c0 -120 -98 -217 -217 -217s-217 97 -217 217c0 121 98 217 217 217zM300 449c-92 0 -167 -75 -167 -167c0 -90 75 -167 167 -167s167 76 167 167c0 92 -76 167 -167 167z" />
    <glyph glyph-name="SM770000" unicode="&#x21a8;" 
d="M321 461v-297c42 25 81 40 92 40c5 0 19 -4 19 -21c0 -8 -1 -9 -47 -53c-21 -20 -54 -62 -72 -101c-1 -3 -7 -14 -15 -14c-10 0 -12 4 -26 31s-44 74 -85 110c-17 15 -19 17 -19 27c0 15 12 21 19 21c1 0 29 -2 84 -40v297c-47 -34 -81 -40 -84 -40c-6 0 -19 5 -19 20
c0 9 1 11 27 34c48 43 80 109 82 113c4 8 8 19 20 19c10 0 13 -5 21 -24c1 -2 27 -56 97 -116c11 -9 17 -15 17 -25c0 -17 -13 -21 -18 -21c-14 0 -53 17 -93 40zM195 -37h213v-50h-213v50z" />
    <glyph glyph-name="SF580000" unicode="&#x258c;" 
d="M0 -288v1080h300v-1080h-300z" />
    <glyph glyph-name="arrowboth" unicode="&#x2194;" 
d="M432 262h-261c25 -42 40 -81 40 -92c0 -5 -4 -19 -21 -19c-8 0 -9 1 -53 47c-20 21 -62 54 -101 72c-3 1 -14 7 -14 15c0 10 4 12 31 26s74 44 110 85c15 17 17 19 27 19c15 0 21 -12 21 -19c0 -1 -2 -29 -40 -84h261c-34 47 -40 81 -40 84c0 6 5 19 20 19
c9 0 11 -1 34 -27c43 -48 109 -80 113 -82c8 -4 19 -8 19 -20c0 -10 -5 -13 -24 -21c-2 -1 -56 -27 -116 -97c-9 -11 -15 -17 -25 -17c-17 0 -21 13 -21 18c0 14 17 53 40 93z" />
    <glyph glyph-name="SF240000" unicode="&#x2551;" 
d="M408 -288h-72v1080h72v-1080zM192 -288v1080h72v-1080h-72z" />
    <glyph glyph-name="Eng" unicode="&#x14a;" 
d="M44 563h135v-67c42 29 115 80 202 80c106 0 145 -90 145 -165v-390c0 -108 -84 -158 -156 -158h-76v50h76c88 0 106 78 106 108v389c0 67 -33 116 -102 116s-145 -46 -195 -96v-383h84v-47h-219v47h85v469h-85v47z" />
    <glyph glyph-name="SF390000" unicode="&#x2554;" 
d="M336 216h264v-72h-192v-432h-72v504zM264 288v-576h-72v648h408v-72h-336z" />
    <glyph glyph-name="Theta" unicode="&#x398;" 
d="M164 377h47v-67h178v67h47v-181h-47v67h-178v-67h-47v181zM43 281c0 164 100 299 257 299c162 0 257 -140 257 -299c0 -158 -95 -298 -257 -298c-158 0 -257 135 -257 298zM95 282c0 -137 82 -252 205 -252c126 0 205 119 205 252c0 132 -79 251 -205 251
c-123 0 -205 -115 -205 -251z" />
    <glyph glyph-name="Omega" unicode="&#x2126;" 
d="M32 0v103h47v-56h127v38c-41 11 -67 21 -98 49c-50 46 -79 115 -79 187c0 150 123 259 271 259c150 0 271 -111 271 -260c0 -77 -33 -145 -79 -187c-31 -28 -56 -37 -98 -48v-38h127v56h47v-103h-221v118c39 9 171 39 171 197c0 140 -115 218 -218 218
s-218 -79 -218 -218c0 -159 133 -189 171 -197v-118h-221z" />
    <glyph glyph-name="Thorn" unicode="&#xde;" 
d="M202 47h113v-47h-244v47h81v469h-81v47h244v-47h-113v-51h55c123 0 161 -4 203 -31s74 -78 74 -139c0 -60 -31 -118 -74 -142c-49 -28 -82 -30 -203 -30h-55v-76zM300 418h-98v-248h57c81 0 144 -1 179 27c18 14 42 47 42 95c0 56 -33 92 -60 106c-24 13 -49 20 -120 20z
" />
    <glyph glyph-name="spade" unicode="&#x2660;" 
d="M298 194v19h-2c-11 -27 -19 -39 -33 -52c-24 -23 -54 -35 -85 -35c-55 0 -100 46 -100 101c0 48 25 90 86 140c36 29 40 33 58 53c47 51 67 86 79 143c17 -72 43 -111 122 -182c79 -72 99 -103 99 -153c0 -58 -43 -102 -100 -102c-48 0 -85 28 -114 87h-2
c0 -74 12 -112 43 -145c30 -32 67 -47 129 -51l4 -17h-363l3 17c110 0 175 65 176 177z" />
    <glyph glyph-name="sevensuperior" unicode="&#x2077;" 
d="M186 613h241v-34l-115 -331h-46l117 325h-156v-53h-41v93z" />
    <glyph glyph-name="zerosuperior" unicode="&#x2070;" 
d="M300 621c76 0 117 -67 117 -191s-41 -190 -117 -190s-117 67 -117 190c0 124 41 191 117 191zM300 583c-24 0 -46 -16 -56 -41c-12 -29 -17 -68 -17 -111c0 -99 25 -153 73 -153s73 53 73 153c0 99 -25 152 -73 152z" />
    <glyph glyph-name="onehalf" unicode="&#xbd;" 
d="M19 579l104 43h23v-335h76v-38h-191v38h77v288l-73 -30zM556 633l29 -20l-510 -703l-28 22zM556 18h34v-95h-229v39c3 2 4 3 9 7s15 14 48 44c47 44 70 66 88 84c37 37 46 55 46 86c0 43 -32 74 -76 74c-35 0 -67 -23 -67 -49c0 -3 1 -5 1 -12h-38v45c29 36 65 54 106 54
c65 0 113 -48 113 -112c0 -48 -24 -84 -95 -149l-62 -55l-19 -18h141v57z" />
    <glyph glyph-name="IJ" unicode="&#x132;" 
d="M47 563h225v-47h-88v-469h88v-47h-225v47h87v469h-87v47zM357 563h212v-47h-64v-312c0 -97 0 -221 -103 -221c-13 0 -72 0 -114 64l-5 168h51v-49c4 -91 5 -101 26 -119c11 -10 24 -14 37 -14c51 0 58 53 58 171v312h-98v47z" />
    <glyph glyph-name="SF450000" unicode="&#x2567;" 
d="M336 360h264v-72h-600v72h264v432h72v-432zM600 144h-600v72h600v-72z" />
    <glyph glyph-name="SM790000" unicode="&#x2302;" 
d="M73 0v312l227 255l227 -255v-312h-454zM126 290v-237h348v237l-174 195z" />
    <glyph glyph-name="SF090000" unicode="&#x2524;" 
d="M336 -288h-72v504h-264v72h264v504h72v-1080z" />
    <glyph glyph-name="eth" unicode="&#xf0;" 
d="M265 568l-52 -82l-43 30l50 76c-50 23 -72 33 -111 45l17 49c50 -16 73 -25 122 -49l41 67l43 -28l-39 -62c61 -37 255 -155 255 -387c0 -155 -109 -241 -248 -241c-165 0 -248 115 -248 232c0 146 116 232 239 232c52 0 108 -13 137 -27l2 2c-37 48 -70 87 -165 143z
M106 218c0 -95 69 -185 194 -185c128 0 194 93 194 185c0 93 -67 185 -194 185c-124 0 -194 -89 -194 -185z" />
    <glyph glyph-name="eng" unicode="&#x14b;" 
d="M166 315v-268h84v-47h-216v47h82v336h-82v47h132v-56c44 31 99 71 172 71c92 0 149 -69 149 -163v-261c0 -110 -84 -160 -157 -160h-67v50h67c77 0 107 66 107 110v255c0 80 -46 119 -97 119c-67 0 -122 -42 -174 -80z" />
    <glyph glyph-name="arrowleft" unicode="&#x2190;" 
d="M574 312v-50h-410c37 -55 40 -83 40 -84c0 -3 -3 -19 -21 -19c-9 0 -16 8 -34 27c-44 47 -104 79 -112 83c-9 4 -19 8 -19 20c0 9 9 13 24 21c36 16 83 51 110 82c18 21 21 24 31 24c15 0 21 -12 21 -19c0 -21 -30 -70 -40 -85h410z" />
    <glyph glyph-name="rcedilla" unicode="&#x157;" 
d="M346 0l-3 -25c68 -10 70 -54 70 -62c0 -12 -3 -58 -80 -58c-49 0 -92 11 -110 15l7 44c24 -6 59 -14 103 -14c9 0 34 0 34 13c0 19 -34 22 -72 25l7 62h-227v47h124v336h-116v47h166v-100c45 45 112 114 207 114c63 0 90 -29 112 -55l-53 -39c-15 23 -28 44 -67 44
c-86 0 -165 -90 -199 -128v-219h190v-47h-93z" />
    <glyph glyph-name="plusminus" unicode="&#xb1;" 
d="M275 576h50v-196h209v-50h-209v-196h-50v196h-209v50h209v196zM66 81h468v-50h-468v50z" />
    <glyph glyph-name="Gamma" unicode="&#x393;" 
d="M58 563h474l4 -183h-46l-10 136h-288v-469h86v-47h-220v47h84v469h-84v47z" />
    <glyph glyph-name="underscorebroken" 
d="M46 -75h508v-50h-508v50z" />
    <glyph glyph-name="SF150000" unicode="&#x2592;" 
d="M0 733h100v-99l-1 -1h-99v100zM200 733h100v-99l-1 -1h-98l-1 1v99zM400 733h100v-99l-1 -1h-98l-1 1v99zM100 632l1 1h98l1 -1v-98l-1 -1h-98l-1 1v98zM300 632l1 1h98l1 -1v-98l-1 -1h-98l-1 1v98zM501 633h99v-100h-99l-1 1v98zM0 533h99l1 -1v-98l-1 -1h-99v100z
M200 532l1 1h98l1 -1v-98l-1 -1h-98l-1 1v98zM400 532l1 1h98l1 -1v-98l-1 -1h-98l-1 1v98zM100 432l1 1h98l1 -1v-98l-1 -1h-98l-1 1v98zM300 432l1 1h98l1 -1v-98l-1 -1h-98l-1 1v98zM501 433h99v-100h-99l-1 1v98zM0 333h99l1 -1v-98l-1 -1h-99v100zM200 332l1 1h98l1 -1
v-98l-1 -1h-98l-1 1v98zM400 332l1 1h98l1 -1v-98l-1 -1h-98l-1 1v98zM100 232l1 1h98l1 -1v-98l-1 -1h-98l-1 1v98zM300 232l1 1h98l1 -1v-98l-1 -1h-98l-1 1v98zM501 233h99v-100h-99l-1 1v98zM0 133h99l1 -1v-98l-1 -1h-99v100zM200 132l1 1h98l1 -1v-98l-1 -1h-98l-1 1
v98zM400 132l1 1h98l1 -1v-98l-1 -1h-98l-1 1v98zM100 32l1 1h98l1 -1v-98l-1 -1h-98l-1 1v98zM300 32l1 1h98l1 -1v-98l-1 -1h-98l-1 1v98zM501 33h99v-100h-99l-1 1v98zM0 -67h99l1 -1v-98l-1 -1h-99v100zM200 -68l1 1h98l1 -1v-98l-1 -1h-98l-1 1v98zM400 -68l1 1h98
l1 -1v-98l-1 -1h-98l-1 1v98zM101 -167h98l1 -1v-99h-100v99zM301 -167h98l1 -1v-99h-100v99zM501 -167h99v-100h-100v99z" />
    <glyph glyph-name="SF080000" unicode="&#x251c;" 
d="M264 -288v1080h72v-504h264v-72h-264v-504h-72z" />
    <glyph glyph-name="foursuperior" unicode="&#x2074;" 
d="M358 621v-248h53v-40h-53v-47h53v-38h-171v38h78v47h-156v41l147 247h49zM318 373v186h-2l-108 -186h110z" />
    <glyph glyph-name="SF380000" unicode="&#x255a;" 
d="M336 288v504h72v-432h192v-72h-264zM264 216h336v-72h-408v648h72v-576z" />
    <glyph glyph-name="Iogonek" unicode="&#x12e;" 
d="M378 -40l-10 -53c-13 -11 -30 -24 -59 -24c-34 0 -58 27 -58 58c0 23 12 42 35 57v2h-186v47h175v469h-175v47h400v-47h-175v-469h175v-47h-131c-20 -6 -59 -23 -59 -46c0 -13 11 -19 19 -19c14 0 17 3 49 25z" />
    <glyph glyph-name="SF500000" unicode="&#x2558;" 
d="M264 792h72v-432h264v-72h-264v-72h264v-72h-336v648z" />
    <glyph glyph-name="female" unicode="&#x2640;" 
d="M326 275v-65h122v-47h-122v-125h-50v125h-122v47h122v65c-39 0 -120 51 -120 142c0 81 64 146 144 146c83 0 144 -69 144 -145c0 -96 -92 -143 -118 -143zM300 513c-52 0 -94 -42 -94 -94s42 -94 94 -94s94 42 94 94s-42 94 -94 94z" />
    <glyph glyph-name="SF040000" unicode="&#x2518;" 
d="M264 288v504h72v-576h-336v72h264z" />
    <glyph glyph-name="eightsuperior" unicode="&#x2078;" 
d="M181 346c0 36 19 67 53 88c-31 24 -46 51 -46 86c0 57 49 101 112 101s112 -45 112 -101c0 -34 -15 -63 -46 -86c34 -21 53 -52 53 -88c0 -60 -52 -106 -119 -106s-119 46 -119 106zM231 519c0 -36 31 -67 69 -67s69 31 69 67s-29 64 -69 64s-69 -27 -69 -64zM224 345
c0 -37 35 -67 76 -67c42 0 76 30 76 67c0 38 -33 69 -76 69s-76 -31 -76 -69z" />
    <glyph glyph-name="Eogonek" unicode="&#x118;" 
d="M497 -40l-10 -53c-13 -11 -30 -24 -59 -24c-34 0 -58 27 -58 58c0 23 12 42 35 57v2h-348v47h85v469h-85v47h475l4 -184h-46l-10 137h-288v-195h162v73h46v-192h-46v72h-162v-227h298l5 137h46v-184h-53c-20 -6 -58 -23 -58 -46c0 -13 10 -19 18 -19c14 0 17 3 49 25z
" />
    <glyph glyph-name="spacenumeric" 
 />
    <glyph glyph-name="mu" unicode="&#xb5;" 
d="M36 430h132v-235c0 -65 5 -86 23 -110c25 -33 66 -49 103 -49s85 17 107 46c23 31 28 59 28 113v193h-82v42h132v-389h83v-41h-132v53h-2l-8 -12c-23 -35 -78 -55 -124 -55c-49 0 -93 27 -105 39s-12 13 -24 22v-196h-49v537h-82v42z" />
    <glyph glyph-name="hbar" unicode="&#x127;" 
d="M172 520h228v-47h-228v-111c44 31 98 69 171 69c83 0 148 -55 148 -163v-221h84v-47h-219v47h85v216c0 71 -36 118 -96 118c-62 0 -123 -37 -173 -78v-256h79v-47h-213v47h84v426h-97v47h97v58l-93 -8l-4 47l147 12v-109z" />
    <glyph glyph-name="Gcedilla" unicode="&#x122;" 
d="M336 -17l-1 -8c67 -10 70 -54 70 -62c0 -12 -4 -58 -80 -58c-49 0 -92 11 -110 15l7 44c24 -6 59 -14 102 -14c10 0 34 0 34 13c0 19 -33 22 -72 25l6 47c-190 18 -244 181 -244 294c0 154 95 301 266 301c48 0 87 -12 125 -43c11 -10 15 -12 20 -12c10 0 10 5 15 49h48
c-3 -37 -6 -74 -6 -100c0 -33 3 -67 6 -91l-43 -8c-7 44 -26 155 -167 155c-112 0 -210 -91 -210 -251c0 -137 72 -246 224 -246c33 0 75 5 153 32v135h-148v47h247v-47h-48v-168c-79 -33 -139 -46 -194 -49z" />
    <glyph glyph-name="SF270000" unicode="&#x255c;" 
d="M264 288h72v504h72v-576h-408v72h192v504h72v-504z" />
    <glyph glyph-name="Lquoteright" 
d="M59 563h273v-47h-123v-469h283l14 202h47l-11 -249h-483v47h100v469h-100v47zM450 563h104l-109 -243h-71z" />
    <glyph glyph-name="SF540000" unicode="&#x256a;" 
d="M336 360h264v-72h-264v-72h264v-72h-264v-432h-72v432h-264v72h264v72h-264v72h264v432h72v-432z" />
    <glyph glyph-name="greaterequal" unicode="&#x2265;" 
d="M74 576l472 -219l-472 -225l-20 45l381 179l-381 175zM71 84h465v-51h-465v51z" />
    <glyph glyph-name="SF510000" unicode="&#x2552;" 
d="M336 216h264v-72h-264v-432h-72v648h336v-72h-264v-72z" />
    <glyph glyph-name="Eth" unicode="&#xd0;" 
d="M113 274h-79v47h79v195h-79v47h250c87 0 150 -7 205 -75c59 -73 62 -161 62 -196c0 -118 -40 -193 -83 -234c-61 -58 -150 -58 -188 -58h-246v47h79v227zM329 274h-166v-227h117c34 0 102 0 150 47c36 36 67 103 67 195c0 82 -26 133 -47 162c-42 58 -89 65 -165 65h-122
v-195h166v-47z" />
    <glyph glyph-name="SF190000" unicode="&#x2561;" 
d="M336 -288h-72v432h-264v72h264v72h-264v72h264v432h72v-1080z" />
    <glyph glyph-name="overline" unicode="&#x203e;" 
d="M46 775h508v-50h-508v50z" />
    <glyph glyph-name="heart" unicode="&#x2665;" 
d="M185 203l-52 69c-65 85 -82 122 -82 172c0 67 51 119 117 119c64 0 107 -38 132 -115h2c9 35 17 51 34 70c25 29 59 45 95 45c65 0 118 -51 118 -115c0 -59 -25 -112 -97 -203c-46 -58 -56 -71 -74 -97c-43 -65 -63 -105 -77 -159c-9 32 -15 49 -26 73
c-17 35 -52 91 -90 141z" />
    <glyph glyph-name="SM580000" 
d="M300 497c119 0 215 -96 215 -215s-96 -215 -215 -215s-215 96 -215 215c0 118 96 215 215 215z" />
    <glyph glyph-name="threequarters" unicode="&#xbe;" 
d="M504 46v195h-2l-115 -195h117zM542 296v-250h53v-37h-53v-50h53v-36h-158v36h67v50h-159v40l149 247h48zM48 549l-19 32c48 31 74 41 107 41c60 0 106 -41 106 -95c0 -33 -12 -57 -40 -79c40 -23 58 -53 58 -94c0 -66 -52 -113 -124 -113c-29 0 -49 6 -96 24l-18 7l15 35
c45 -21 72 -28 101 -28c48 0 82 30 82 75s-30 73 -84 71l-22 -1v37c35 1 48 4 62 14c17 12 26 30 26 51c0 34 -28 58 -66 58c-23 0 -41 -7 -73 -26zM577 633l28 -20l-510 -703l-28 22z" />
    <glyph glyph-name="SF230000" unicode="&#x2563;" 
d="M336 -288v1080h72v-1080h-72zM192 144h-192v72h264v-504h-72v432zM264 288h-264v72h192v432h72v-504z" />
    <glyph glyph-name="SF110000" unicode="&#x2502;" 
d="M264 -288v1080h72v-1080h-72z" />
    <glyph glyph-name="fivesuperior" unicode="&#x2075;" 
d="M192 613h207v-40h-168v-103c25 10 42 15 64 15c79 0 121 -56 121 -121c0 -74 -52 -124 -128 -124c-32 0 -67 11 -100 22l-18 6l15 38c40 -18 70 -26 101 -26c53 0 87 32 87 82c0 49 -34 83 -82 83c-27 0 -49 -9 -77 -30l-22 12v186z" />
    <glyph glyph-name="minussuperior" unicode="&#x207b;" 
d="M459 452v-43h-318v43h318z" />
    <glyph glyph-name="ncedilla" unicode="&#x146;" 
d="M34 430h132v-56c44 31 99 71 172 71c91 0 149 -68 149 -165v-233h80v-47h-216v47h86v229c0 73 -39 119 -98 119c-33 0 -83 -9 -173 -80v-268h84v-47h-216v47h82v336h-82v47zM325 0l-3 -25c67 -10 70 -54 70 -62c0 -12 -4 -58 -80 -58c-49 0 -92 11 -110 15l7 44
c24 -6 59 -14 102 -14c10 0 34 0 34 13c0 19 -33 22 -72 25l7 62h45z" />
    <glyph glyph-name="onequarter" unicode="&#xbc;" 
d="M535 296v-250h53v-37h-53v-50h53v-36h-158v36h67v50h-159v40l149 247h48zM497 46v195h-2l-115 -195h117zM26 579l103 43h24v-335h76v-38h-191v38h77v288l-73 -30zM570 633l28 -20l-510 -703l-28 22z" />
    <glyph glyph-name="phi" unicode="&#x3c6;" 
d="M216 435v-49c-21 -9 -45 -19 -68 -49c-29 -38 -42 -85 -42 -121c0 -35 16 -145 142 -177v212c0 64 -1 194 118 194c100 0 182 -110 182 -227c0 -120 -88 -237 -250 -233v-141h-50v146c-164 29 -196 164 -196 227c0 51 22 171 155 214c1 1 8 3 9 4zM298 251v-219
c156 0 196 122 196 189c0 91 -58 177 -127 177c-67 0 -69 -75 -69 -147z" />
    <glyph glyph-name="highcomman" 
d="M40 430h132v-56c44 31 99 71 172 71c91 0 149 -68 149 -165v-233h80v-47h-216v47h86v229c0 73 -39 118 -98 118c-33 0 -83 -8 -173 -79v-268h84v-47h-216v47h82v336h-82v47zM41 680h96l-72 -130h-65z" />
    <glyph glyph-name="yuan" 
d="M327 187v-140h119v-47h-286v47h119v140h-147v47h147v70l-186 242h-61v47h197v-47h-76l150 -195l147 195h-76v47h194v-47h-60l-181 -242v-70h144v-47h-144z" />
    <glyph glyph-name="oneeighth" unicode="&#x215b;" 
d="M358 21c0 36 19 67 53 88c-31 24 -46 51 -46 86c0 57 49 101 112 101s112 -45 112 -101c0 -34 -15 -63 -46 -86c34 -21 53 -52 53 -88c0 -60 -52 -106 -119 -106s-119 46 -119 106zM406 194c0 -39 34 -67 71 -67c40 0 71 28 71 67s-33 64 -71 64c-39 0 -71 -24 -71 -64z
M399 19c0 -37 36 -66 78 -66c43 0 78 27 78 67c0 44 -39 69 -78 69c-43 0 -78 -25 -78 -70zM17 579l103 43h24v-335h75v-38h-191v38h77v288l-73 -30zM550 633l29 -20l-510 -703l-28 22z" />
    <glyph glyph-name="tcedilla" unicode="&#x163;" 
d="M345 -14l-1 -11c68 -10 70 -54 70 -62c0 -12 -3 -58 -80 -58c-49 0 -92 11 -110 15l7 44c24 -6 59 -14 103 -14c9 0 33 0 33 13c0 19 -33 22 -71 25l6 50c-128 19 -129 104 -129 192v189h-68v47h68v147h50v-147h242v-47h-242v-188c0 -74 -1 -145 104 -145
c33 0 76 3 193 52l18 -45c-56 -26 -130 -53 -193 -57z" />
    <glyph glyph-name="musicalnotedbl" unicode="&#x266b;" 
d="M479 171v159l-247 -68v-146c0 -103 -78 -136 -126 -136c-62 0 -63 39 -63 54c0 49 45 98 104 98c12 0 22 -2 35 -5v352l347 90v-408c0 -102 -76 -137 -125 -137c-31 0 -63 13 -63 54c0 49 44 99 104 99c12 0 22 -2 34 -6zM232 413v-75l247 67v76z" />
    <glyph glyph-name="SF220000" unicode="&#x2555;" 
d="M0 216h264v72h-264v72h336v-648h-72v432h-264v72z" />
    <glyph glyph-name="SM600000" unicode="&#x25b2;" 
d="M102 95l198 371l198 -371h-396z" />
    <glyph glyph-name="multiply" unicode="&#xd7;" 
d="M265 306l-147 147l36 35l146 -146l146 146l36 -35l-147 -147l147 -146l-36 -36l-146 147l-146 -147l-36 36z" />
    <glyph glyph-name="Phi" unicode="&#x3a6;" 
d="M409 563v-47h-85v-42c181 -3 233 -108 233 -192c0 -83 -50 -190 -233 -193v-42h85v-47h-219v47h84v42c-177 3 -231 107 -231 192c0 89 56 190 231 193v42h-84v47h219zM324 430v-295c43 1 180 6 180 148c0 141 -136 146 -180 147zM274 135v295c-44 -1 -178 -6 -178 -147
c0 -142 135 -147 178 -148z" />
    <glyph glyph-name="pi" unicode="&#x3c0;" 
d="M555 430v-47h-83v-336h83v-47h-205v47h72v336h-244v-336h72v-47h-204v47h82v336h-82v47h509z" />
    <glyph glyph-name="SF360000" unicode="&#x255e;" 
d="M264 -288v1080h72v-432h264v-72h-264v-72h264v-72h-264v-432h-72z" />
    <glyph glyph-name="periodsuperior" 
d="M300 346c30 0 58 -18 58 -46c0 -29 -31 -46 -58 -46c-26 0 -58 15 -58 46c0 29 29 46 58 46z" />
    <glyph glyph-name="SF250000" unicode="&#x2557;" 
d="M192 144h-192v72h264v-504h-72v432zM336 -288v576h-336v72h408v-648h-72z" />
    <glyph glyph-name="SF200000" unicode="&#x2562;" 
d="M264 792v-1080h-72v504h-192v72h192v504h72zM408 -288h-72v1080h72v-1080z" />
    <glyph glyph-name="kcedilla" unicode="&#x137;" 
d="M36 616l149 13v-390l187 142v2h-56v47h209v-47h-78l-168 -129c81 -73 164 -161 200 -207h84v-47h-208v47h64c-41 49 -81 89 -178 179l-56 -43v-183h-133v47h83v530l-95 -8zM302 0l-3 -25c68 -10 71 -54 71 -62c0 -12 -4 -58 -81 -58c-49 0 -92 11 -110 15l7 44
c24 -6 59 -14 103 -14c9 0 34 0 34 13c0 19 -34 22 -72 25l7 62h44z" />
    <glyph glyph-name="Ccedilla" unicode="&#xc7;" 
d="M354 -17v-8c26 0 70 -22 70 -62c0 -11 -4 -58 -80 -58c-49 0 -92 11 -110 15l7 44c26 -6 59 -14 104 -14c6 0 32 0 32 13c0 19 -33 22 -72 25l6 45c-190 19 -247 187 -247 305c0 174 116 292 268 292c21 0 67 -2 110 -29c6 -4 29 -25 35 -25c9 0 13 30 15 48h37
c-3 -82 3 -138 10 -191l-47 -8c-7 45 -25 155 -162 155c-99 0 -212 -75 -212 -241c0 -129 63 -256 216 -256c112 0 193 72 227 102l33 -36c-66 -63 -149 -108 -240 -116z" />
    <glyph glyph-name="fiveeighths" unicode="&#x215d;" 
d="M358 21c0 36 19 67 53 88c-31 24 -46 51 -46 86c0 57 49 101 112 101s112 -45 112 -101c0 -34 -15 -63 -46 -86c34 -21 53 -52 53 -88c0 -60 -52 -106 -119 -106s-119 46 -119 106zM406 194c0 -39 34 -67 71 -67c40 0 71 28 71 67s-33 64 -71 64c-39 0 -71 -24 -71 -64z
M399 19c0 -37 36 -66 78 -66c43 0 78 27 78 67c0 44 -39 69 -78 69c-43 0 -78 -25 -78 -70zM34 614h208v-38h-172v-107c27 11 45 16 68 16c70 0 122 -51 122 -121c0 -72 -53 -123 -130 -123c-32 0 -57 5 -102 22l-16 6l14 36c41 -18 71 -26 102 -26c56 0 91 33 91 84
c0 49 -36 84 -85 84c-28 0 -52 -8 -80 -29l-20 11v185zM550 633l29 -20l-510 -703l-28 22z" />
    <glyph glyph-name="SF570000" unicode="&#x2584;" 
d="M0 -288v540h600v-540h-600z" />
    <glyph glyph-name="minus" unicode="&#x2212;" 
d="M534 328v-50h-468v50h468z" />
    <glyph glyph-name="SF590000" unicode="&#x2590;" 
d="M300 -288v1080h300v-1080h-300z" />
    <glyph glyph-name="ninesuperior" unicode="&#x2079;" 
d="M165 241l3 41l34 -1c99 0 134 30 155 135l-2 2c-26 -23 -48 -32 -76 -32c-61 0 -109 53 -109 119c0 65 48 116 109 116c74 0 123 -66 123 -166c0 -80 -29 -150 -77 -184c-31 -22 -61 -30 -123 -31c-16 0 -21 0 -37 1zM358 485c-3 55 -36 95 -79 95c-38 0 -65 -31 -65 -75
s28 -78 64 -78c35 0 64 21 80 58z" />
    <glyph glyph-name="Ncedilla" unicode="&#x145;" 
d="M28 563h171l263 -521h18v474h-112v47h223v-47h-65v-529h-89l-268 529h-17v-469h113v-47h-237v47h78v469h-78v47zM334 0l-3 -25c68 -10 71 -54 71 -62c0 -12 -4 -58 -81 -58c-48 0 -92 11 -110 15l8 44c23 -6 59 -14 102 -14c9 0 34 0 34 13c0 19 -33 22 -72 25l7 62h44z
" />
    <glyph glyph-name="seveneighths" unicode="&#x215e;" 
d="M358 21c0 36 19 67 53 88c-31 24 -46 51 -46 86c0 57 49 101 112 101s112 -45 112 -101c0 -34 -15 -63 -46 -86c34 -21 53 -52 53 -88c0 -60 -52 -106 -119 -106s-119 46 -119 106zM406 194c0 -39 34 -67 71 -67c40 0 71 28 71 67s-33 64 -71 64c-39 0 -71 -24 -71 -64z
M399 19c0 -37 36 -66 78 -66c43 0 78 27 78 67c0 44 -39 69 -78 69c-43 0 -78 -25 -78 -70zM13 614h242v-33l-117 -332h-43l120 327h-164v-53h-38v91zM530 633l29 -20l-510 -703l-28 22z" />
    <glyph glyph-name="equivalence" unicode="&#x2261;" 
d="M64 509h472v-50h-472v50zM64 328h472v-50h-472v50zM64 147h472v-50h-472v50z" />
    <glyph glyph-name="iogonek" unicode="&#x12f;" 
d="M378 -40l-10 -53c-13 -11 -30 -24 -59 -24c-34 0 -58 27 -58 58c0 23 12 42 35 57v2h-185v47h176v336h-147v47h197v-383h173v-47h-131c-20 -6 -59 -23 -59 -46c0 -13 11 -19 19 -19c14 0 17 3 49 25zM254 537v119h73v-119h-73z" />
    <glyph glyph-name="SF210000" unicode="&#x2556;" 
d="M264 216v-504h-72v504h-192v72h408v-576h-72v504h-72z" />
    <glyph glyph-name="ohm" unicode="&#x2126;" 
d="M32 0v113h42v-66h130v38c-40 11 -66 20 -97 47c-52 46 -78 114 -78 182c0 143 113 266 271 266s271 -123 271 -265c0 -77 -33 -144 -79 -184c-30 -26 -55 -35 -96 -46v-38h130v66h42v-113h-221v118c43 9 170 36 170 191c0 135 -109 221 -217 221
c-107 0 -217 -85 -217 -220c0 -156 129 -183 170 -192v-118h-221z" />
    <glyph glyph-name="Hbar" unicode="&#x126;" 
d="M164 445h272v71h-75v47h201v-47h-76v-71h76v-47h-76v-351h76v-47h-201v47h75v220h-272v-220h75v-47h-200v47h75v351h-75v47h75v71h-75v47h200v-47h-75v-71zM436 398h-272v-84h272v84z" />
    <glyph glyph-name="SF030000" unicode="&#x2510;" 
d="M0 216v72h336v-576h-72v504h-264z" />
    <glyph glyph-name="eogonek" unicode="&#x119;" 
d="M414 -40l-10 -53c-13 -11 -30 -24 -59 -24c-34 0 -58 27 -58 58c0 24 12 37 19 45c-166 6 -232 122 -232 228c0 124 90 231 237 231c151 0 227 -107 227 -199c0 -16 -2 -38 -2 -45h-408c3 -52 35 -167 189 -167c84 0 177 46 219 67l23 -44c-79 -44 -155 -62 -175 -65
c-15 -8 -37 -20 -37 -38c0 -13 10 -19 18 -19c14 0 17 3 49 25zM128 248h356c-1 65 -53 149 -173 149c-132 0 -176 -104 -183 -149z" />
    <glyph glyph-name="micro" unicode="&#xb5;" 
d="M36 430h132v-236c0 -61 6 -85 28 -113c24 -30 61 -46 99 -46c41 0 134 15 134 159v189h-82v47h132v-383h83v-47h-133v69h-2c-49 -84 -118 -84 -134 -84c-61 0 -103 40 -123 77h-2v-218h-50v539h-82v47z" />
    <glyph glyph-name="epsilon" unicode="&#x3b5;" 
d="M440 457h41c-2 -21 -6 -62 -6 -99c0 -23 2 -35 6 -59l-48 -8c-7 51 -17 111 -138 111c-69 0 -101 -30 -101 -66c0 -29 20 -52 45 -66c32 -18 78 -20 110 -21v-48c-152 3 -174 -63 -174 -86c0 -35 31 -81 126 -81c63 0 102 17 131 32c1 0 6 3 8 4l12 -50
c-6 -2 -6 -2 -15 -6c-35 -13 -76 -29 -136 -29c-120 0 -180 57 -180 125c0 66 53 106 108 116v2c-59 16 -89 65 -89 108c0 61 59 114 152 114c61 0 108 -21 130 -41c1 -1 3 -3 4 -3c6 0 8 10 14 51z" />
    <glyph glyph-name="Pts" unicode="&#x20a7;" 
d="M3 563h217c59 0 130 -2 179 -38c31 -23 54 -58 54 -97c0 -42 -26 -71 -44 -87c-48 -41 -122 -41 -232 -41h-57v-253h80v-47h-197v47h69v469h-69v47zM220 516h-100v-169h58c90 0 154 1 189 26c14 10 34 30 34 57c0 28 -20 48 -40 61c-35 22 -77 25 -141 25zM220 274h45
v-52h111v-44h-111v-80c0 -33 0 -58 30 -58c16 0 27 5 47 13c9 3 22 9 26 10l13 -44c-43 -19 -74 -26 -92 -26c-69 0 -69 77 -69 105v80h-33v44h33v52zM541 234l43 -7c-2 -16 -3 -30 -3 -42s2 -27 3 -37l-43 -5c-2 15 -6 42 -56 42c-15 0 -42 -8 -42 -25c0 -21 31 -24 58 -26
c2 0 15 -1 17 -2c21 -2 79 -6 79 -64c0 -52 -58 -75 -100 -75c-10 0 -30 2 -58 12v-11h-42c2 12 4 22 4 31c0 6 -1 27 -4 56l42 5c7 -25 13 -47 59 -47c21 0 52 7 52 28c0 18 -17 19 -50 21c-27 2 -103 6 -103 71c0 44 47 70 92 70c16 0 39 -4 52 -7c-1 2 -3 4 -3 6
c0 1 2 4 3 6z" />
    <glyph glyph-name="SF100000" unicode="&#x2500;" 
d="M0 216v72h600v-72h-600z" />
    <glyph glyph-name="SF050000" unicode="&#x253c;" 
d="M336 288h264v-72h-264v-504h-72v504h-264v72h264v504h72v-504z" />
    <glyph glyph-name="infinity" unicode="&#x221e;" 
d="M300 342c25 31 71 75 133 75c61 0 115 -39 115 -113c0 -59 -38 -115 -110 -115c-64 0 -106 43 -138 77c-22 -27 -64 -76 -137 -76c-54 0 -111 37 -111 112c0 77 60 115 115 115c75 0 132 -74 133 -75zM333 304c28 -30 59 -65 104 -65c59 0 61 55 61 65
c0 44 -36 63 -63 63c-53 0 -90 -48 -102 -63zM268 304c-9 13 -14 17 -60 50c-15 11 -34 13 -42 13c-28 0 -64 -15 -64 -64s37 -63 58 -63c50 0 86 40 108 64z" />
    <glyph glyph-name="lessequal" unicode="&#x2264;" 
d="M526 576l20 -45l-381 -175l381 -179l-20 -45l-472 225zM529 84v-51h-465v51h465z" />
    <glyph glyph-name="liter" 
d="M296 243c-5 -22 -34 -158 -34 -189c0 -6 3 -11 10 -11c21 0 37 30 40 35c14 23 17 31 31 31c17 0 19 -15 19 -19c0 -20 -39 -102 -105 -102c-31 0 -71 20 -71 75c0 32 5 59 13 110c-30 -23 -34 -25 -44 -25c-8 0 -19 9 -19 19s4 13 35 39c5 4 22 19 41 37
c50 232 105 378 192 378c45 0 59 -41 59 -77c0 -38 -12 -84 -31 -125c-27 -58 -32 -61 -136 -176zM313 323l17 21c37 40 88 129 88 197c0 16 -6 30 -19 30s-21 -13 -24 -16c-20 -31 -38 -108 -64 -230z" />
    <glyph glyph-name="logicalnot" unicode="&#xac;" 
d="M90 438h429v-269h-50v219h-379v50z" />
    <glyph glyph-name="SF140000" unicode="&#x2591;" 
d="M500 533v-100h-100v100h100zM300 533v-100h-100v100h100zM500 333v-100h-100v100h100zM300 333v-100h-100v100h100zM500 133v-100h-100v100h100zM300 133v-100h-100v100h100zM500 -67v-100h-100v100h100zM300 -67v-100h-100v100h100zM100 533v-100h-100v100h100zM100 333
v-100h-100v100h100zM100 133v-100h-100v100h100zM100 -67v-100h-100v100h100zM100 733v-100h-100v100h100zM300 733v-100h-100v100h100zM500 733v-100h-100v100h100z" />
    <glyph glyph-name="nsuperior" unicode="&#x207f;" 
d="M112 570h104v-31c22 16 57 41 112 41c107 0 107 -82 107 -114v-156h53v-47h-163v47h61v156c0 29 0 65 -56 65c-55 0 -89 -29 -113 -48v-173h56v-47h-161v47h56v214h-56v46z" />
    <glyph glyph-name="intersection" unicode="&#x2229;" 
d="M131 0h-50v250c0 118 0 178 34 230c43 66 116 100 185 100c85 0 151 -48 185 -100c34 -51 34 -108 34 -230v-250h-50v253c0 97 0 160 -28 203c-33 51 -92 74 -141 74c-51 0 -108 -25 -141 -74c-29 -43 -28 -105 -28 -203v-253z" />
    <glyph glyph-name="SF160000" unicode="&#x2593;" 
d="M600 -267h-600v100h100v100h-100v100h100v100h-100v100h100v100h-100v100h100v100h-100v100h100v100h100v-100h100v100h100v-100h100v100h100v-1000zM500 233v100h-100v-100h100zM300 233v100h-100v-100h100zM500 33v100h-100v-100h100zM300 33v100h-100v-100h100z
M500 433v100h-100v-100h100zM300 433v100h-100v-100h100zM500 -167v100h-100v-100h100zM300 -167v100h-100v-100h100z" />
    <glyph glyph-name="SF260000" unicode="&#x255d;" 
d="M264 288h-264v72h192v432h72v-504zM336 216v576h72v-648h-408v72h336z" />
    <glyph glyph-name="notequal" unicode="&#x2260;" 
d="M356 352l-51 -102h208v-57h-237l-62 -122l-54 21l51 101h-124v57h153l51 102h-204v57h232l65 130l56 -21l-55 -109h128v-57h-157z" />
    <glyph glyph-name="filledbox" unicode="&#x25a0;" 
d="M201 141v198h198v-198h-198z" />
    <glyph glyph-name="lcedilla" unicode="&#x13c;" 
d="M325 0l-3 -25c67 -10 70 -54 70 -62c0 -12 -4 -58 -80 -58c-49 0 -92 11 -110 15l7 44c24 -6 59 -14 102 -14c10 0 34 0 34 13c0 19 -33 22 -72 25l7 62h-179v47h174v516l-163 -12l-5 46l218 14v-564h174v-47h-174z" />
    <glyph glyph-name="parenrightsuperior" unicode="&#x207e;" 
d="M234 221h-52c32 55 79 136 79 226c0 88 -45 166 -79 226h52c61 -84 84 -172 84 -226c0 -64 -30 -153 -84 -226z" />
    <glyph glyph-name="musicalnote" unicode="&#x266a;" 
d="M271 162v401h50v-53c3 -4 8 -11 10 -12c5 -7 35 -43 41 -50c18 -21 74 -88 74 -182c0 -16 0 -77 -49 -136h-37c16 36 32 70 32 125c0 47 -22 107 -71 128v-232c0 -104 -79 -137 -127 -137c-63 0 -63 49 -63 54c0 50 45 99 104 99c13 0 23 -2 36 -5z" />
    <glyph glyph-name="parenleftsuperior" unicode="&#x207d;" 
d="M366 673h52c-34 -59 -79 -137 -79 -226c0 -90 47 -170 79 -226h-52c-54 73 -84 164 -84 226c0 50 21 139 84 226z" />
    <glyph glyph-name="longdash" 
d="M49 317h502v-55h-502v55z" />
    <glyph glyph-name="male" unicode="&#x2642;" 
d="M305 387l104 104c-49 17 -55 19 -75 33c-6 5 -13 10 -13 20c0 6 4 17 17 17c5 0 9 -1 17 -3c14 -3 31 -6 59 -6c43 0 53 3 66 7c10 4 16 4 19 4c10 0 14 -7 14 -14c0 -5 -1 -9 -3 -19c-7 -23 -8 -50 -8 -68c0 -28 4 -47 7 -61c2 -10 2 -12 2 -16c0 -16 -14 -18 -16 -18
c-23 0 -44 62 -53 91l-99 -99c10 -11 35 -40 35 -92c0 -76 -59 -148 -145 -148c-78 0 -143 63 -143 143c0 74 57 145 146 145c39 0 57 -11 69 -20zM234 357c-64 0 -94 -53 -94 -94c0 -52 42 -94 94 -94s94 42 94 94s-42 94 -94 94z" />
    <glyph glyph-name="lquoteright" 
d="M107 597l218 14v-564h174v-47h-398v47h174v516l-163 -12zM442 563h103l-109 -243h-71z" />
    <glyph glyph-name="threesuperior" unicode="&#xb3;" 
d="M194 545l-21 34c49 32 74 42 107 42c60 0 105 -41 105 -96c0 -33 -12 -57 -38 -78c38 -23 56 -53 56 -94c0 -66 -51 -114 -123 -114c-29 0 -50 5 -95 24l-19 8l16 37c43 -20 72 -29 100 -29c46 0 79 31 79 74c0 44 -29 68 -81 68h-24v40c36 1 48 4 62 14
c16 12 25 29 25 49c0 33 -27 57 -63 57c-22 0 -40 -5 -71 -26z" />
    <glyph glyph-name="jcircumflex" unicode="&#x135;" 
d="M85 430h305v-390c0 -53 0 -191 -187 -191c-53 0 -97 9 -135 17l11 48c26 -6 76 -15 127 -15c134 0 134 92 134 148v336h-255v47zM202 621h76l93 -94l-32 -25l-101 66l-92 -66l-32 24z" />
    <glyph glyph-name="ij" unicode="&#x133;" 
d="M146 430h159v-430h-187v47h137v336h-109v47zM233 537v119h72v-119h-72zM342 430h140v-390c0 -53 0 -191 -187 -191c-52 0 -95 9 -135 17l12 49c11 -3 71 -16 126 -16c134 0 134 91 134 148v336h-90v47zM390 537v119h72v-119h-72z" />
    <glyph glyph-name="onesuperior" unicode="&#xb9;" 
d="M178 567l122 54h26v-333h100v-40h-243v40h102v283l-91 -40z" />
    <glyph glyph-name="kgreenlandic" unicode="&#x138;" 
d="M185 239l187 142v2h-56v47h210v-47h-79l-168 -129c80 -72 162 -158 200 -207h84v-47h-207v47h63c-41 49 -81 89 -178 179l-56 -43v-183h-132v47h82v336h-98v47h148v-191z" />
    <glyph glyph-name="ldot" unicode="&#x140;" 
d="M107 597l218 14v-564h174v-47h-398v47h174v516l-163 -12zM494 373c37 0 76 -26 76 -68c0 -44 -41 -67 -76 -67s-77 23 -77 67c0 43 40 68 77 68z" />
    <glyph glyph-name="exclamdbl" unicode="&#x203c;" 
d="M225 571l-19 -378h-46l-18 378h83zM183 106c39 0 69 -27 69 -62c0 -34 -30 -61 -69 -61c-38 0 -69 26 -69 61s31 62 69 62zM459 571l-19 -378h-46l-18 378h83zM417 106c39 0 69 -28 69 -62s-31 -61 -69 -61s-70 26 -70 61s31 62 70 62z" />
    <glyph glyph-name="Aacute" unicode="&#xc1;" 
d="M113 563h215l211 -516h51v-47h-205v47h102l-57 139h-261l-56 -139h102v-47h-205v47h53l193 469h-143v47zM413 230l-113 274l-113 -274h226zM411 751l-143 -115h-53l89 115h107z" />
    <glyph glyph-name="Abreve" unicode="&#x102;" 
d="M113 563h215l211 -516h51v-47h-205v47h102l-57 139h-261l-56 -139h102v-47h-205v47h53l193 469h-143v47zM413 230l-113 274l-113 -274h226zM138 757h46c1 0 2 -3 2 -3c34 -62 92 -68 114 -68c50 0 89 24 114 68c0 1 1 3 2 3h46c-39 -108 -130 -114 -162 -114
c-59 0 -112 27 -142 70c-9 13 -11 21 -20 44z" />
    <glyph glyph-name="Acircumflex" unicode="&#xc2;" 
d="M113 563h215l211 -516h51v-47h-205v47h102l-57 139h-261l-56 -139h102v-47h-205v47h53l193 469h-143v47zM413 230l-113 274l-113 -274h226zM259 754h77l92 -94l-32 -25l-101 66l-91 -66l-33 24z" />
    <glyph glyph-name="Adieresis" unicode="&#xc4;" 
d="M113 563h215l211 -516h51v-47h-205v47h102l-57 139h-261l-56 -139h102v-47h-205v47h53l193 469h-143v47zM413 230l-113 274l-113 -274h226zM199 646v108h72v-108h-72zM329 646v108h72v-108h-72z" />
    <glyph glyph-name="Agrave" unicode="&#xc0;" 
d="M113 563h215l211 -516h51v-47h-205v47h102l-57 139h-261l-56 -139h102v-47h-205v47h53l193 469h-143v47zM413 230l-113 274l-113 -274h226zM190 751h107l77 -115h-52z" />
    <glyph glyph-name="Amacron" unicode="&#x100;" 
d="M113 563h215l211 -516h51v-47h-205v47h102l-57 139h-261l-56 -139h102v-47h-205v47h53l193 469h-143v47zM413 230l-113 274l-113 -274h226zM130 725h340v-50h-340v50z" />
    <glyph glyph-name="Aring" unicode="&#xc5;" 
d="M113 563h215l211 -516h51v-47h-205v47h102l-57 139h-261l-56 -139h102v-47h-205v47h53l193 469h-143v47zM413 230l-113 274l-113 -274h226zM300 775c42 0 76 -34 76 -76s-34 -76 -76 -76s-76 34 -76 76s34 76 76 76zM301 737c-21 0 -39 -14 -39 -38c0 -21 18 -38 39 -38
s37 17 37 38s-16 38 -37 38z" />
    <glyph glyph-name="Atilde" unicode="&#xc3;" 
d="M113 563h215l211 -516h51v-47h-205v47h102l-57 139h-261l-56 -139h102v-47h-205v47h53l193 469h-143v47zM413 230l-113 274l-113 -274h226zM420 752l40 -13c-1 -1 -2 -5 -2 -7c-16 -54 -55 -85 -98 -85c-22 0 -41 8 -71 32c-32 24 -41 29 -55 29c-26 0 -42 -26 -52 -52
c0 -1 -2 -6 -2 -6l-40 14c18 50 45 89 94 89c32 0 53 -16 74 -34c25 -19 40 -27 55 -27c36 0 50 40 57 60z" />
    <glyph glyph-name="Cacute" unicode="&#x106;" 
d="M561 135l33 -36c-112 -107 -219 -116 -260 -116c-176 0 -270 142 -270 305c0 174 116 292 268 292c80 0 120 -36 128 -43c13 -11 15 -11 17 -11c9 0 13 30 15 48h37c-3 -82 3 -138 10 -191l-47 -8c-4 23 -10 62 -33 96c-19 28 -56 59 -129 59c-131 0 -212 -109 -212 -241
c0 -100 45 -256 216 -256c91 0 162 45 227 102zM441 751l-143 -115h-53l89 115h107z" />
    <glyph glyph-name="Ccaron" unicode="&#x10c;" 
d="M561 135l33 -36c-112 -107 -219 -116 -260 -116c-176 0 -270 142 -270 305c0 174 116 292 268 292c80 0 120 -36 128 -43c13 -11 15 -11 17 -11c9 0 13 30 15 48h37c-3 -82 3 -138 10 -191l-47 -8c-4 23 -10 62 -33 96c-19 28 -56 59 -129 59c-131 0 -212 -109 -212 -241
c0 -100 45 -256 216 -256c91 0 162 45 227 102zM370 642h-76l-93 94l32 24l101 -65l92 66l32 -25z" />
    <glyph glyph-name="Ccircumflex" unicode="&#x108;" 
d="M561 135l33 -36c-112 -107 -219 -116 -260 -116c-176 0 -270 142 -270 305c0 174 116 292 268 292c80 0 120 -36 128 -43c13 -11 15 -11 17 -11c9 0 13 30 15 48h37c-3 -82 3 -138 10 -191l-47 -8c-4 23 -10 62 -33 96c-19 28 -56 59 -129 59c-131 0 -212 -109 -212 -241
c0 -100 45 -256 216 -256c91 0 162 45 227 102zM289 754h77l92 -94l-32 -25l-101 66l-91 -66l-33 24z" />
    <glyph glyph-name="Cdotaccent" unicode="&#x10a;" 
d="M561 135l33 -36c-112 -107 -219 -116 -260 -116c-176 0 -270 142 -270 305c0 174 116 292 268 292c80 0 120 -36 128 -43c13 -11 15 -11 17 -11c9 0 13 30 15 48h37c-3 -82 3 -138 10 -191l-47 -8c-4 23 -10 62 -33 96c-19 28 -56 59 -129 59c-131 0 -212 -109 -212 -241
c0 -100 45 -256 216 -256c91 0 162 45 227 102zM294 646v108h72v-108h-72z" />
    <glyph glyph-name="Dcaron" unicode="&#x10e;" 
d="M34 563h250c87 0 150 -7 205 -75c59 -73 62 -161 62 -196c0 -118 -40 -193 -83 -234c-61 -58 -150 -58 -188 -58h-246v47h79v469h-79v47zM285 516h-122v-469h117c34 0 102 0 150 47c36 36 67 103 67 195c0 82 -26 133 -47 162c-42 58 -89 65 -165 65zM340 642h-76l-93 94
l32 24l101 -65l92 66l32 -25z" />
    <glyph glyph-name="Eacute" unicode="&#xc9;" 
d="M57 563h475l4 -184h-46l-10 137h-288v-195h162v73h46v-192h-46v72h-162v-227h298l5 137h46v-184h-484v47h85v469h-85v47zM411 751l-143 -115h-53l89 115h107z" />
    <glyph glyph-name="Ecaron" unicode="&#x11a;" 
d="M57 563h475l4 -184h-46l-10 137h-288v-195h162v73h46v-192h-46v72h-162v-227h298l5 137h46v-184h-484v47h85v469h-85v47zM340 642h-76l-93 94l32 24l101 -65l92 66l32 -25z" />
    <glyph glyph-name="Ecircumflex" unicode="&#xca;" 
d="M57 563h475l4 -184h-46l-10 137h-288v-195h162v73h46v-192h-46v72h-162v-227h298l5 137h46v-184h-484v47h85v469h-85v47zM259 754h77l92 -94l-32 -25l-101 66l-91 -66l-33 24z" />
    <glyph glyph-name="Edieresis" unicode="&#xcb;" 
d="M57 563h475l4 -184h-46l-10 137h-288v-195h162v73h46v-192h-46v72h-162v-227h298l5 137h46v-184h-484v47h85v469h-85v47zM199 646v108h72v-108h-72zM329 646v108h72v-108h-72z" />
    <glyph glyph-name="Edotaccent" unicode="&#x116;" 
d="M57 563h475l4 -184h-46l-10 137h-288v-195h162v73h46v-192h-46v72h-162v-227h298l5 137h46v-184h-484v47h85v469h-85v47zM264 646v108h72v-108h-72z" />
    <glyph glyph-name="Egrave" unicode="&#xc8;" 
d="M57 563h475l4 -184h-46l-10 137h-288v-195h162v73h46v-192h-46v72h-162v-227h298l5 137h46v-184h-484v47h85v469h-85v47zM190 751h107l77 -115h-52z" />
    <glyph glyph-name="Emacron" unicode="&#x112;" 
d="M57 563h475l4 -184h-46l-10 137h-288v-195h162v73h46v-192h-46v72h-162v-227h298l5 137h46v-184h-484v47h85v469h-85v47zM130 725h340v-50h-340v50z" />
    <glyph glyph-name="Gbreve" unicode="&#x11e;" 
d="M474 574h48c-1 -4 -2 -16 -2 -19c-1 -11 -4 -55 -4 -81c0 -33 3 -67 6 -91l-43 -8c-7 45 -26 155 -167 155c-117 0 -210 -102 -210 -250c0 -137 72 -247 224 -247c33 0 75 5 153 32v135h-148v47h247v-47h-48v-168c-78 -33 -146 -49 -205 -49c-205 0 -277 164 -277 296
c0 154 95 301 266 301c48 0 87 -12 125 -43c11 -10 15 -12 20 -12c10 0 10 5 15 49zM168 757h46c1 0 2 -3 2 -3c34 -62 92 -68 114 -68c50 0 89 24 114 68c0 1 1 3 2 3h46c-39 -108 -130 -114 -162 -114c-59 0 -112 27 -142 70c-9 13 -11 21 -20 44z" />
    <glyph glyph-name="Gcircumflex" unicode="&#x11c;" 
d="M474 574h48c-1 -4 -2 -16 -2 -19c-1 -11 -4 -55 -4 -81c0 -33 3 -67 6 -91l-43 -8c-7 45 -26 155 -167 155c-117 0 -210 -102 -210 -250c0 -137 72 -247 224 -247c33 0 75 5 153 32v135h-148v47h247v-47h-48v-168c-78 -33 -146 -49 -205 -49c-205 0 -277 164 -277 296
c0 154 95 301 266 301c48 0 87 -12 125 -43c11 -10 15 -12 20 -12c10 0 10 5 15 49zM289 754h77l92 -94l-32 -25l-101 66l-91 -66l-33 24z" />
    <glyph glyph-name="Gdotaccent" unicode="&#x120;" 
d="M474 574h48c-1 -4 -2 -16 -2 -19c-1 -11 -4 -55 -4 -81c0 -33 3 -67 6 -91l-43 -8c-7 45 -26 155 -167 155c-117 0 -210 -102 -210 -250c0 -137 72 -247 224 -247c33 0 75 5 153 32v135h-148v47h247v-47h-48v-168c-78 -33 -146 -49 -205 -49c-205 0 -277 164 -277 296
c0 154 95 301 266 301c48 0 87 -12 125 -43c11 -10 15 -12 20 -12c10 0 10 5 15 49zM264 646v108h72v-108h-72z" />
    <glyph glyph-name="Hcircumflex" unicode="&#x124;" 
d="M39 563h200v-47h-75v-202h272v202h-75v47h201v-47h-76v-469h76v-47h-201v47h75v220h-272v-220h75v-47h-200v47h75v469h-75v47zM259 754h77l92 -94l-32 -25l-101 66l-91 -66l-33 24z" />
    <glyph glyph-name="Iacute" unicode="&#xcd;" 
d="M100 563h400v-47h-175v-469h175v-47h-400v47h175v469h-175v47zM411 751l-143 -115h-53l89 115h107z" />
    <glyph glyph-name="Icircumflex" unicode="&#xce;" 
d="M100 563h400v-47h-175v-469h175v-47h-400v47h175v469h-175v47zM259 754h77l92 -94l-32 -25l-101 66l-91 -66l-33 24z" />
    <glyph glyph-name="Idieresis" unicode="&#xcf;" 
d="M100 563h400v-47h-175v-469h175v-47h-400v47h175v469h-175v47zM199 646v108h72v-108h-72zM329 646v108h72v-108h-72z" />
    <glyph glyph-name="Idotaccent" unicode="&#x130;" 
d="M100 563h400v-47h-175v-469h175v-47h-400v47h175v469h-175v47zM264 646v108h72v-108h-72z" />
    <glyph glyph-name="Igrave" unicode="&#xcc;" 
d="M100 563h400v-47h-175v-469h175v-47h-400v47h175v469h-175v47zM190 751h107l77 -115h-52z" />
    <glyph glyph-name="Imacron" unicode="&#x12a;" 
d="M100 563h400v-47h-175v-469h175v-47h-400v47h175v469h-175v47zM130 725h340v-50h-340v50z" />
    <glyph glyph-name="Itilde" unicode="&#x128;" 
d="M100 563h400v-47h-175v-469h175v-47h-400v47h175v469h-175v47zM420 752l40 -13c-1 -1 -2 -5 -2 -7c-16 -54 -55 -85 -98 -85c-22 0 -41 8 -71 32c-32 24 -41 29 -55 29c-26 0 -42 -26 -52 -52c0 -1 -2 -6 -2 -6l-40 14c18 50 45 89 94 89c32 0 53 -16 74 -34
c25 -19 40 -27 55 -27c36 0 50 40 57 60z" />
    <glyph glyph-name="Jcircumflex" unicode="&#x134;" 
d="M205 563h374v-47h-127v-312c0 -55 -2 -116 -29 -157c-32 -46 -92 -64 -135 -64c-79 0 -147 31 -201 56l-19 8l-9 216h49l4 -97c2 -51 7 -78 47 -102c38 -24 84 -31 118 -31c124 0 125 90 125 171v312h-197v47zM359 754h77l92 -94l-32 -25l-101 66l-91 -66l-33 24z" />
    <glyph glyph-name="Lacute" unicode="&#x139;" 
d="M59 563h273v-47h-123v-469h283l14 202h47l-11 -249h-483v47h100v469h-100v47zM311 751l-143 -115h-53l89 115h107z" />
    <glyph glyph-name="Lcaron" unicode="&#x13d;" 
d="M59 563h273v-47h-123v-469h283l14 202h47l-11 -249h-483v47h100v469h-100v47zM240 642h-76l-93 94l32 24l101 -65l92 66l32 -25z" />
    <glyph glyph-name="Nacute" unicode="&#x143;" 
d="M28 563h171l263 -521h18v474h-112v47h223v-47h-65v-529h-89l-268 529h-17v-469h113v-47h-237v47h78v469h-78v47zM411 751l-143 -115h-53l89 115h107z" />
    <glyph glyph-name="Ncaron" unicode="&#x147;" 
d="M28 563h171l263 -521h18v474h-112v47h223v-47h-65v-529h-89l-268 529h-17v-469h113v-47h-237v47h78v469h-78v47zM340 642h-76l-93 94l32 24l101 -65l92 66l32 -25z" />
    <glyph glyph-name="Ntilde" unicode="&#xd1;" 
d="M28 563h171l263 -521h18v474h-112v47h223v-47h-65v-529h-89l-268 529h-17v-469h113v-47h-237v47h78v469h-78v47zM420 752l40 -13c-1 -1 -2 -5 -2 -7c-16 -54 -55 -85 -98 -85c-22 0 -41 8 -71 32c-32 24 -41 29 -55 29c-26 0 -42 -26 -52 -52c0 -1 -2 -6 -2 -6l-40 14
c18 50 45 89 94 89c32 0 53 -16 74 -34c25 -19 40 -27 55 -27c36 0 50 40 57 60z" />
    <glyph glyph-name="Oacute" unicode="&#xd3;" 
d="M43 281c0 165 100 299 257 299c160 0 257 -137 257 -299c0 -161 -98 -298 -257 -298c-157 0 -257 134 -257 298zM97 282c0 -119 69 -249 203 -249c132 0 203 125 203 249c0 126 -73 248 -203 248c-138 0 -203 -132 -203 -248zM411 751l-143 -115h-53l89 115h107z" />
    <glyph glyph-name="Ocircumflex" unicode="&#xd4;" 
d="M43 281c0 165 100 299 257 299c160 0 257 -137 257 -299c0 -161 -98 -298 -257 -298c-157 0 -257 134 -257 298zM97 282c0 -119 69 -249 203 -249c132 0 203 125 203 249c0 126 -73 248 -203 248c-138 0 -203 -132 -203 -248zM259 754h77l92 -94l-32 -25l-101 66l-91 -66
l-33 24z" />
    <glyph glyph-name="Odieresis" unicode="&#xd6;" 
d="M43 281c0 165 100 299 257 299c160 0 257 -137 257 -299c0 -161 -98 -298 -257 -298c-157 0 -257 134 -257 298zM97 282c0 -119 69 -249 203 -249c132 0 203 125 203 249c0 126 -73 248 -203 248c-138 0 -203 -132 -203 -248zM199 646v108h72v-108h-72zM329 646v108h72
v-108h-72z" />
    <glyph glyph-name="Ograve" unicode="&#xd2;" 
d="M43 281c0 165 100 299 257 299c160 0 257 -137 257 -299c0 -161 -98 -298 -257 -298c-157 0 -257 134 -257 298zM97 282c0 -119 69 -249 203 -249c132 0 203 125 203 249c0 126 -73 248 -203 248c-138 0 -203 -132 -203 -248zM190 751h107l77 -115h-52z" />
    <glyph glyph-name="Ohungarumlaut" unicode="&#x150;" 
d="M43 281c0 165 100 299 257 299c160 0 257 -137 257 -299c0 -161 -98 -298 -257 -298c-157 0 -257 134 -257 298zM97 282c0 -119 69 -249 203 -249c132 0 203 125 203 249c0 126 -73 248 -203 248c-138 0 -203 -132 -203 -248zM354 750l-130 -113h-44l98 113h76zM480 750
l-130 -113h-44l98 113h76z" />
    <glyph glyph-name="Omacron" unicode="&#x14c;" 
d="M43 281c0 165 100 299 257 299c160 0 257 -137 257 -299c0 -161 -98 -298 -257 -298c-157 0 -257 134 -257 298zM97 282c0 -119 69 -249 203 -249c132 0 203 125 203 249c0 126 -73 248 -203 248c-138 0 -203 -132 -203 -248zM130 725h340v-50h-340v50z" />
    <glyph glyph-name="Otilde" unicode="&#xd5;" 
d="M43 281c0 165 100 299 257 299c160 0 257 -137 257 -299c0 -161 -98 -298 -257 -298c-157 0 -257 134 -257 298zM97 282c0 -119 69 -249 203 -249c132 0 203 125 203 249c0 126 -73 248 -203 248c-138 0 -203 -132 -203 -248zM420 752l40 -13c-1 -1 -2 -5 -2 -7
c-16 -54 -55 -85 -98 -85c-22 0 -41 8 -71 32c-32 24 -41 29 -55 29c-26 0 -42 -26 -52 -52c0 -1 -2 -6 -2 -6l-40 14c18 50 45 89 94 89c32 0 53 -16 74 -34c25 -19 40 -27 55 -27c36 0 50 40 57 60z" />
    <glyph glyph-name="Racute" unicode="&#x154;" 
d="M45 563h257c64 0 101 -3 136 -27s61 -75 61 -124c0 -59 -37 -141 -153 -153c36 -34 104 -147 143 -212h88v-47h-125c-31 67 -82 149 -96 171c-39 61 -55 87 -107 87h-72v-211h89v-47h-221v47h82v469h-82v47zM300 516h-123v-211h93c53 0 175 -2 175 110
c0 33 -16 66 -42 84c-15 10 -31 17 -103 17zM411 751l-143 -115h-53l89 115h107z" />
    <glyph glyph-name="Rcaron" unicode="&#x158;" 
d="M45 563h257c64 0 101 -3 136 -27s61 -75 61 -124c0 -59 -37 -141 -153 -153c36 -34 104 -147 143 -212h88v-47h-125c-31 67 -82 149 -96 171c-39 61 -55 87 -107 87h-72v-211h89v-47h-221v47h82v469h-82v47zM300 516h-123v-211h93c53 0 175 -2 175 110
c0 33 -16 66 -42 84c-15 10 -31 17 -103 17zM340 642h-76l-93 94l32 24l101 -65l92 66l32 -25z" />
    <glyph glyph-name="Sacute" unicode="&#x15a;" 
d="M462 574h45c-7 -30 -9 -47 -9 -72c0 -22 2 -62 9 -119l-45 -8c-3 21 -9 60 -31 94c-15 23 -48 61 -127 61c-105 0 -151 -68 -151 -118c0 -91 103 -102 152 -107c75 -8 111 -13 146 -36c34 -23 62 -59 62 -116c0 -116 -107 -170 -205 -170c-80 0 -119 31 -137 46
c-1 1 -5 4 -8 4c-4 0 -8 -5 -10 -8c-3 -9 -4 -12 -9 -45h-45c9 43 9 85 9 89c0 21 -6 78 -9 106h45c5 -25 12 -60 34 -89c19 -25 50 -53 123 -53c122 0 158 66 158 116c0 87 -87 98 -139 103c-78 8 -221 23 -221 156c0 91 85 172 199 172c72 0 110 -30 124 -41
c16 -12 19 -14 23 -14c9 0 9 4 15 36c1 4 2 11 2 13zM411 751l-143 -115h-53l89 115h107z" />
    <glyph glyph-name="Scaron" unicode="&#x160;" 
d="M462 574h45c-7 -30 -9 -47 -9 -72c0 -22 2 -62 9 -119l-45 -8c-3 21 -9 60 -31 94c-15 23 -48 61 -127 61c-105 0 -151 -68 -151 -118c0 -91 103 -102 152 -107c75 -8 111 -13 146 -36c34 -23 62 -59 62 -116c0 -116 -107 -170 -205 -170c-80 0 -119 31 -137 46
c-1 1 -5 4 -8 4c-4 0 -8 -5 -10 -8c-3 -9 -4 -12 -9 -45h-45c9 43 9 85 9 89c0 21 -6 78 -9 106h45c5 -25 12 -60 34 -89c19 -25 50 -53 123 -53c122 0 158 66 158 116c0 87 -87 98 -139 103c-78 8 -221 23 -221 156c0 91 85 172 199 172c72 0 110 -30 124 -41
c16 -12 19 -14 23 -14c9 0 9 4 15 36c1 4 2 11 2 13zM340 642h-76l-93 94l32 24l101 -65l92 66l32 -25z" />
    <glyph glyph-name="Scircumflex" unicode="&#x15c;" 
d="M462 574h45c-7 -30 -9 -47 -9 -72c0 -22 2 -62 9 -119l-45 -8c-3 21 -9 60 -31 94c-15 23 -48 61 -127 61c-105 0 -151 -68 -151 -118c0 -91 103 -102 152 -107c75 -8 111 -13 146 -36c34 -23 62 -59 62 -116c0 -116 -107 -170 -205 -170c-80 0 -119 31 -137 46
c-1 1 -5 4 -8 4c-4 0 -8 -5 -10 -8c-3 -9 -4 -12 -9 -45h-45c9 43 9 85 9 89c0 21 -6 78 -9 106h45c5 -25 12 -60 34 -89c19 -25 50 -53 123 -53c122 0 158 66 158 116c0 87 -87 98 -139 103c-78 8 -221 23 -221 156c0 91 85 172 199 172c72 0 110 -30 124 -41
c16 -12 19 -14 23 -14c9 0 9 4 15 36c1 4 2 11 2 13zM259 754h77l92 -94l-32 -25l-101 66l-91 -66l-33 24z" />
    <glyph glyph-name="Tcaron" unicode="&#x164;" 
d="M60 563h480l17 -236l-48 -6l-14 195h-170v-469h121v-47h-292v47h121v469h-170l-14 -195l-48 6zM340 642h-76l-93 94l32 24l101 -65l92 66l32 -25z" />
    <glyph glyph-name="Uacute" unicode="&#xda;" 
d="M24 563h224v-47h-102v-282c0 -41 0 -91 19 -130c19 -40 57 -71 134 -71c78 0 117 26 136 63c20 36 20 83 20 128v292h-102v47h224v-47h-72v-292c0 -100 -15 -139 -36 -168c-22 -31 -80 -73 -169 -73c-47 0 -125 14 -170 78c-34 49 -34 127 -34 173v282h-72v47zM411 751
l-143 -115h-53l89 115h107z" />
    <glyph glyph-name="Ubreve" unicode="&#x16c;" 
d="M24 563h224v-47h-102v-282c0 -41 0 -91 19 -130c19 -40 57 -71 134 -71c78 0 117 26 136 63c20 36 20 83 20 128v292h-102v47h224v-47h-72v-292c0 -100 -15 -139 -36 -168c-22 -31 -80 -73 -169 -73c-47 0 -125 14 -170 78c-34 49 -34 127 -34 173v282h-72v47zM138 757
h46c1 0 2 -3 2 -3c34 -62 92 -68 114 -68c50 0 89 24 114 68c0 1 1 3 2 3h46c-39 -108 -130 -114 -162 -114c-59 0 -112 27 -142 70c-9 13 -11 21 -20 44z" />
    <glyph glyph-name="Ucircumflex" unicode="&#xdb;" 
d="M24 563h224v-47h-102v-282c0 -41 0 -91 19 -130c19 -40 57 -71 134 -71c78 0 117 26 136 63c20 36 20 83 20 128v292h-102v47h224v-47h-72v-292c0 -100 -15 -139 -36 -168c-22 -31 -80 -73 -169 -73c-47 0 -125 14 -170 78c-34 49 -34 127 -34 173v282h-72v47zM259 754
h77l92 -94l-32 -25l-101 66l-91 -66l-33 24z" />
    <glyph glyph-name="Udieresis" unicode="&#xdc;" 
d="M24 563h224v-47h-102v-282c0 -41 0 -91 19 -130c19 -40 57 -71 134 -71c78 0 117 26 136 63c20 36 20 83 20 128v292h-102v47h224v-47h-72v-292c0 -100 -15 -139 -36 -168c-22 -31 -80 -73 -169 -73c-47 0 -125 14 -170 78c-34 49 -34 127 -34 173v282h-72v47zM199 646
v108h72v-108h-72zM329 646v108h72v-108h-72z" />
    <glyph glyph-name="Ugrave" unicode="&#xd9;" 
d="M24 563h224v-47h-102v-282c0 -41 0 -91 19 -130c19 -40 57 -71 134 -71c78 0 117 26 136 63c20 36 20 83 20 128v292h-102v47h224v-47h-72v-292c0 -100 -15 -139 -36 -168c-22 -31 -80 -73 -169 -73c-47 0 -125 14 -170 78c-34 49 -34 127 -34 173v282h-72v47zM190 751
h107l77 -115h-52z" />
    <glyph glyph-name="Uhungarumlaut" unicode="&#x170;" 
d="M24 563h224v-47h-102v-282c0 -41 0 -91 19 -130c19 -40 57 -71 134 -71c78 0 117 26 136 63c20 36 20 83 20 128v292h-102v47h224v-47h-72v-292c0 -100 -15 -139 -36 -168c-22 -31 -80 -73 -169 -73c-47 0 -125 14 -170 78c-34 49 -34 127 -34 173v282h-72v47zM354 750
l-130 -113h-44l98 113h76zM480 750l-130 -113h-44l98 113h76z" />
    <glyph glyph-name="Umacron" unicode="&#x16a;" 
d="M24 563h224v-47h-102v-282c0 -41 0 -91 19 -130c19 -40 57 -71 134 -71c78 0 117 26 136 63c20 36 20 83 20 128v292h-102v47h224v-47h-72v-292c0 -100 -15 -139 -36 -168c-22 -31 -80 -73 -169 -73c-47 0 -125 14 -170 78c-34 49 -34 127 -34 173v282h-72v47zM130 725
h340v-50h-340v50z" />
    <glyph glyph-name="Uring" unicode="&#x16e;" 
d="M24 563h224v-47h-102v-282c0 -41 0 -91 19 -130c19 -40 57 -71 134 -71c78 0 117 26 136 63c20 36 20 83 20 128v292h-102v47h224v-47h-72v-292c0 -100 -15 -139 -36 -168c-22 -31 -80 -73 -169 -73c-47 0 -125 14 -170 78c-34 49 -34 127 -34 173v282h-72v47zM300 775
c42 0 76 -34 76 -76s-34 -76 -76 -76s-76 34 -76 76s34 76 76 76zM301 737c-21 0 -39 -14 -39 -38c0 -21 18 -38 39 -38s37 17 37 38s-16 38 -37 38z" />
    <glyph glyph-name="Utilde" unicode="&#x168;" 
d="M24 563h224v-47h-102v-282c0 -41 0 -91 19 -130c19 -40 57 -71 134 -71c78 0 117 26 136 63c20 36 20 83 20 128v292h-102v47h224v-47h-72v-292c0 -100 -15 -139 -36 -168c-22 -31 -80 -73 -169 -73c-47 0 -125 14 -170 78c-34 49 -34 127 -34 173v282h-72v47zM420 752
l40 -13c-1 -1 -2 -5 -2 -7c-16 -54 -55 -85 -98 -85c-22 0 -41 8 -71 32c-32 24 -41 29 -55 29c-26 0 -42 -26 -52 -52c0 -1 -2 -6 -2 -6l-40 14c18 50 45 89 94 89c32 0 53 -16 74 -34c25 -19 40 -27 55 -27c36 0 50 40 57 60z" />
    <glyph glyph-name="Yacute" unicode="&#xdd;" 
d="M32 563h196v-47h-76l151 -248l149 248h-78v47h194v-47h-63l-179 -298v-171h118v-47h-287v47h119v171l-181 298h-63v47zM411 751l-143 -115h-53l89 115h107z" />
    <glyph glyph-name="Ydieresis" unicode="&#x178;" 
d="M32 563h196v-47h-76l151 -248l149 248h-78v47h194v-47h-63l-179 -298v-171h118v-47h-287v47h119v171l-181 298h-63v47zM199 646v108h72v-108h-72zM329 646v108h72v-108h-72z" />
    <glyph glyph-name="Zacute" unicode="&#x179;" 
d="M91 563h402v-41l-349 -475h325v162h47v-209h-432v47l345 469h-291v-146h-47v193zM411 751l-143 -115h-53l89 115h107z" />
    <glyph glyph-name="Zcaron" unicode="&#x17d;" 
d="M91 563h402v-41l-349 -475h325v162h47v-209h-432v47l345 469h-291v-146h-47v193zM340 642h-76l-93 94l32 24l101 -65l92 66l32 -25z" />
    <glyph glyph-name="Zdotaccent" unicode="&#x17b;" 
d="M91 563h402v-41l-349 -475h325v162h47v-209h-432v47l345 469h-291v-146h-47v193zM264 646v108h72v-108h-72z" />
    <glyph glyph-name="aacute" unicode="&#xe1;" 
d="M461 296v-249h89v-47h-139v72c-41 -38 -109 -86 -191 -86c-99 0 -161 72 -161 141c0 54 46 151 212 151c9 0 79 -1 140 -13v31c0 32 0 106 -121 106c-36 0 -91 -7 -171 -42l-19 45c43 18 112 45 191 45c170 0 170 -115 170 -154zM411 139v80c-23 4 -75 11 -130 11
c-165 0 -168 -92 -168 -104c0 -50 50 -92 106 -92c33 0 106 9 192 105zM411 618l-143 -115h-53l89 115h107z" />
    <glyph glyph-name="abreve" unicode="&#x103;" 
d="M461 296v-249h89v-47h-139v72c-41 -38 -109 -86 -191 -86c-99 0 -161 72 -161 141c0 54 46 151 212 151c9 0 79 -1 140 -13v31c0 32 0 106 -121 106c-36 0 -91 -7 -171 -42l-19 45c43 18 112 45 191 45c170 0 170 -115 170 -154zM411 139v80c-23 4 -75 11 -130 11
c-165 0 -168 -92 -168 -104c0 -50 50 -92 106 -92c33 0 106 9 192 105zM138 624h46c1 0 2 -3 2 -3c34 -62 92 -68 114 -68c50 0 89 24 114 68c0 1 1 3 2 3h46c-39 -108 -130 -114 -162 -114c-59 0 -112 27 -142 70c-9 13 -11 21 -20 44z" />
    <glyph glyph-name="acircumflex" unicode="&#xe2;" 
d="M461 296v-249h89v-47h-139v72c-41 -38 -109 -86 -191 -86c-99 0 -161 72 -161 141c0 54 46 151 212 151c9 0 79 -1 140 -13v31c0 32 0 106 -121 106c-36 0 -91 -7 -171 -42l-19 45c43 18 112 45 191 45c170 0 170 -115 170 -154zM411 139v80c-23 4 -75 11 -130 11
c-165 0 -168 -92 -168 -104c0 -50 50 -92 106 -92c33 0 106 9 192 105zM239 621h77l92 -94l-32 -25l-101 66l-91 -66l-33 24z" />
    <glyph glyph-name="adieresis" unicode="&#xe4;" 
d="M461 296v-249h89v-47h-139v72c-41 -38 -109 -86 -191 -86c-99 0 -161 72 -161 141c0 54 46 151 212 151c9 0 79 -1 140 -13v31c0 32 0 106 -121 106c-36 0 -91 -7 -171 -42l-19 45c43 18 112 45 191 45c170 0 170 -115 170 -154zM411 139v80c-23 4 -75 11 -130 11
c-165 0 -168 -92 -168 -104c0 -50 50 -92 106 -92c33 0 106 9 192 105zM179 513v108h72v-108h-72zM309 513v108h72v-108h-72z" />
    <glyph glyph-name="agrave" unicode="&#xe0;" 
d="M461 296v-249h89v-47h-139v72c-41 -38 -109 -86 -191 -86c-99 0 -161 72 -161 141c0 54 46 151 212 151c9 0 79 -1 140 -13v31c0 32 0 106 -121 106c-36 0 -91 -7 -171 -42l-19 45c43 18 112 45 191 45c170 0 170 -115 170 -154zM411 139v80c-23 4 -75 11 -130 11
c-165 0 -168 -92 -168 -104c0 -50 50 -92 106 -92c33 0 106 9 192 105zM190 618h107l77 -115h-52z" />
    <glyph glyph-name="amacron" unicode="&#x101;" 
d="M461 296v-249h89v-47h-139v72c-41 -38 -109 -86 -191 -86c-99 0 -161 72 -161 141c0 54 46 151 212 151c9 0 79 -1 140 -13v31c0 32 0 106 -121 106c-36 0 -91 -7 -171 -42l-19 45c43 18 112 45 191 45c170 0 170 -115 170 -154zM411 139v80c-23 4 -75 11 -130 11
c-165 0 -168 -92 -168 -104c0 -50 50 -92 106 -92c33 0 106 9 192 105zM130 592h340v-50h-340v50z" />
    <glyph glyph-name="aring" unicode="&#xe5;" 
d="M461 296v-249h89v-47h-139v72c-41 -38 -109 -86 -191 -86c-99 0 -161 72 -161 141c0 54 46 151 212 151c9 0 79 -1 140 -13v31c0 32 0 106 -121 106c-36 0 -91 -7 -171 -42l-19 45c43 18 112 45 191 45c170 0 170 -115 170 -154zM411 139v80c-23 4 -75 11 -130 11
c-165 0 -168 -92 -168 -104c0 -50 50 -92 106 -92c33 0 106 9 192 105zM300 642c42 0 76 -34 76 -76s-34 -76 -76 -76s-76 34 -76 76s34 76 76 76zM301 604c-21 0 -39 -14 -39 -38c0 -21 18 -38 39 -38s37 17 37 38s-16 38 -37 38z" />
    <glyph glyph-name="atilde" unicode="&#xe3;" 
d="M461 296v-249h89v-47h-139v72c-41 -38 -109 -86 -191 -86c-99 0 -161 72 -161 141c0 54 46 151 212 151c9 0 79 -1 140 -13v31c0 32 0 106 -121 106c-36 0 -91 -7 -171 -42l-19 45c43 18 112 45 191 45c170 0 170 -115 170 -154zM411 139v80c-23 4 -75 11 -130 11
c-165 0 -168 -92 -168 -104c0 -50 50 -92 106 -92c33 0 106 9 192 105zM420 619l40 -13c-1 -1 -2 -5 -2 -7c-16 -54 -55 -85 -98 -85c-22 0 -41 8 -71 32c-32 24 -41 29 -55 29c-26 0 -42 -26 -52 -52c0 -1 -2 -6 -2 -6l-40 14c18 50 45 89 94 89c32 0 53 -16 74 -34
c25 -19 40 -27 55 -27c36 0 50 40 57 60z" />
    <glyph glyph-name="cacute" unicode="&#x107;" 
d="M477 443l46 -5c-3 -20 -9 -57 -9 -92c0 -19 1 -40 3 -66l-46 -7l-4 17c-7 29 -23 105 -152 105s-190 -92 -190 -178c0 -83 55 -181 186 -181c70 0 139 34 212 85l26 -38c-43 -32 -132 -97 -243 -97c-140 0 -235 103 -235 230c0 107 76 229 239 229c38 0 89 -5 147 -53
c1 -1 3 -3 4 -3c5 0 9 16 10 22c1 8 3 19 6 32zM428 618l-143 -115h-53l89 115h107z" />
    <glyph glyph-name="ccaron" unicode="&#x10d;" 
d="M477 443l46 -5c-3 -20 -9 -57 -9 -92c0 -19 1 -40 3 -66l-46 -7l-4 17c-7 29 -23 105 -152 105s-190 -92 -190 -178c0 -83 55 -181 186 -181c70 0 139 34 212 85l26 -38c-43 -32 -132 -97 -243 -97c-140 0 -235 103 -235 230c0 107 76 229 239 229c38 0 89 -5 147 -53
c1 -1 3 -3 4 -3c5 0 9 16 10 22c1 8 3 19 6 32zM357 509h-76l-93 94l32 24l101 -65l92 66l32 -25z" />
    <glyph glyph-name="ccircumflex" unicode="&#x109;" 
d="M477 443l46 -5c-3 -20 -9 -57 -9 -92c0 -19 1 -40 3 -66l-46 -7l-4 17c-7 29 -23 105 -152 105s-190 -92 -190 -178c0 -83 55 -181 186 -181c70 0 139 34 212 85l26 -38c-43 -32 -132 -97 -243 -97c-140 0 -235 103 -235 230c0 107 76 229 239 229c38 0 89 -5 147 -53
c1 -1 3 -3 4 -3c5 0 9 16 10 22c1 8 3 19 6 32zM276 623h77l92 -94l-32 -25l-101 66l-91 -66l-33 24z" />
    <glyph glyph-name="cdotaccent" unicode="&#x10b;" 
d="M477 443l46 -5c-3 -20 -9 -57 -9 -92c0 -19 1 -40 3 -66l-46 -7l-4 17c-7 29 -23 105 -152 105s-190 -92 -190 -178c0 -83 55 -181 186 -181c70 0 139 34 212 85l26 -38c-43 -32 -132 -97 -243 -97c-140 0 -235 103 -235 230c0 107 76 229 239 229c38 0 89 -5 147 -53
c1 -1 3 -3 4 -3c5 0 9 16 10 22c1 8 3 19 6 32zM264 513v108h72v-108h-72z" />
    <glyph glyph-name="dcaron" unicode="&#x10f;" 
d="M282 608l214 19v-580h85v-47h-135v74h-2c-62 -84 -150 -84 -169 -84c-125 0 -222 102 -222 222c0 135 112 222 220 222c61 0 134 -31 171 -86h2v225l-161 -10zM444 210c0 79 -58 174 -169 174c-88 0 -168 -68 -168 -171c0 -102 78 -173 168 -173c91 0 169 72 169 170z
M357 665h-76l-93 94l32 24l101 -65l92 66l32 -25z" />
    <glyph glyph-name="eacute" unicode="&#xe9;" 
d="M536 101l23 -44c-52 -29 -149 -71 -242 -71c-163 0 -243 110 -243 228c0 124 90 231 237 231c151 0 227 -107 227 -199c0 -16 -2 -38 -2 -45h-408c3 -52 36 -167 190 -167c84 0 176 46 218 67zM128 248h356c-1 65 -53 149 -173 149c-132 0 -176 -104 -183 -149zM411 618
l-143 -115h-53l89 115h107z" />
    <glyph glyph-name="ecaron" unicode="&#x11b;" 
d="M536 101l23 -44c-52 -29 -149 -71 -242 -71c-163 0 -243 110 -243 228c0 124 90 231 237 231c151 0 227 -107 227 -199c0 -16 -2 -38 -2 -45h-408c3 -52 36 -167 190 -167c84 0 176 46 218 67zM128 248h356c-1 65 -53 149 -173 149c-132 0 -176 -104 -183 -149zM340 509
h-76l-93 94l32 24l101 -65l92 66l32 -25z" />
    <glyph glyph-name="ecircumflex" unicode="&#xea;" 
d="M536 101l23 -44c-52 -29 -149 -71 -242 -71c-163 0 -243 110 -243 228c0 124 90 231 237 231c151 0 227 -107 227 -199c0 -16 -2 -38 -2 -45h-408c3 -52 36 -167 190 -167c84 0 176 46 218 67zM128 248h356c-1 65 -53 149 -173 149c-132 0 -176 -104 -183 -149zM259 621
h77l92 -94l-32 -25l-101 66l-91 -66l-33 24z" />
    <glyph glyph-name="edieresis" unicode="&#xeb;" 
d="M536 101l23 -44c-52 -29 -149 -71 -242 -71c-163 0 -243 110 -243 228c0 124 90 231 237 231c151 0 227 -107 227 -199c0 -16 -2 -38 -2 -45h-408c3 -52 36 -167 190 -167c84 0 176 46 218 67zM128 248h356c-1 65 -53 149 -173 149c-132 0 -176 -104 -183 -149zM199 513
v108h72v-108h-72zM329 513v108h72v-108h-72z" />
    <glyph glyph-name="edotaccent" unicode="&#x117;" 
d="M536 101l23 -44c-52 -29 -149 -71 -242 -71c-163 0 -243 110 -243 228c0 124 90 231 237 231c151 0 227 -107 227 -199c0 -16 -2 -38 -2 -45h-408c3 -52 36 -167 190 -167c84 0 176 46 218 67zM128 248h356c-1 65 -53 149 -173 149c-132 0 -176 -104 -183 -149zM264 513
v108h72v-108h-72z" />
    <glyph glyph-name="egrave" unicode="&#xe8;" 
d="M536 101l23 -44c-52 -29 -149 -71 -242 -71c-163 0 -243 110 -243 228c0 124 90 231 237 231c151 0 227 -107 227 -199c0 -16 -2 -38 -2 -45h-408c3 -52 36 -167 190 -167c84 0 176 46 218 67zM128 248h356c-1 65 -53 149 -173 149c-132 0 -176 -104 -183 -149zM207 618
h107l77 -115h-52z" />
    <glyph glyph-name="emacron" unicode="&#x113;" 
d="M536 101l23 -44c-52 -29 -149 -71 -242 -71c-163 0 -243 110 -243 228c0 124 90 231 237 231c151 0 227 -107 227 -199c0 -16 -2 -38 -2 -45h-408c3 -52 36 -167 190 -167c84 0 176 46 218 67zM128 248h356c-1 65 -53 149 -173 149c-132 0 -176 -104 -183 -149zM147 592
h340v-50h-340v50z" />
    <glyph glyph-name="gacute" unicode="&#x1f5;" 
d="M422 430h131v-47h-81v-353c0 -122 -50 -187 -229 -187h-63v47c167 0 242 3 242 140v58h-2c-13 -21 -70 -78 -159 -78c-122 0 -214 99 -214 212c0 123 103 212 214 212c11 0 103 0 159 -77h2v73zM422 220c0 99 -75 164 -159 164c-83 0 -162 -66 -162 -161
c0 -91 73 -163 162 -163c94 0 159 77 159 160zM411 618l-143 -115h-53l89 115h107z" />
    <glyph glyph-name="gbreve" unicode="&#x11f;" 
d="M422 430h131v-47h-81v-353c0 -122 -50 -187 -229 -187h-63v47c167 0 242 3 242 140v58h-2c-13 -21 -70 -78 -159 -78c-122 0 -214 99 -214 212c0 123 103 212 214 212c11 0 103 0 159 -77h2v73zM422 220c0 99 -75 164 -159 164c-83 0 -162 -66 -162 -161
c0 -91 73 -163 162 -163c94 0 159 77 159 160zM138 624h46c1 0 2 -3 2 -3c34 -62 92 -68 114 -68c50 0 89 24 114 68c0 1 1 3 2 3h46c-39 -108 -130 -114 -162 -114c-59 0 -112 27 -142 70c-9 13 -11 21 -20 44z" />
    <glyph glyph-name="gcircumflex" unicode="&#x11d;" 
d="M422 430h131v-47h-81v-353c0 -122 -50 -187 -229 -187h-63v47c167 0 242 3 242 140v58h-2c-13 -21 -70 -78 -159 -78c-122 0 -214 99 -214 212c0 123 103 212 214 212c11 0 103 0 159 -77h2v73zM422 220c0 99 -75 164 -159 164c-83 0 -162 -66 -162 -161
c0 -91 73 -163 162 -163c94 0 159 77 159 160zM259 621h77l92 -94l-32 -25l-101 66l-91 -66l-33 24z" />
    <glyph glyph-name="gdotaccent" unicode="&#x121;" 
d="M422 430h131v-47h-81v-353c0 -122 -50 -187 -229 -187h-63v47c167 0 242 3 242 140v58h-2c-13 -21 -70 -78 -159 -78c-122 0 -214 99 -214 212c0 123 103 212 214 212c11 0 103 0 159 -77h2v73zM422 220c0 99 -75 164 -159 164c-83 0 -162 -66 -162 -161
c0 -91 73 -163 162 -163c94 0 159 77 159 160zM264 513v108h72v-108h-72z" />
    <glyph glyph-name="hcircumflex" unicode="&#x125;" 
d="M25 617l147 12v-255c44 32 99 71 171 71c91 0 148 -68 148 -165v-233h84v-47h-219v47h85v229c0 72 -37 119 -96 119c-63 0 -125 -41 -173 -80v-268h79v-47h-213v47h84v531l-93 -8zM259 785h77l92 -94l-32 -25l-101 66l-91 -66l-33 24z" />
    <glyph glyph-name="iacute" unicode="&#xed;" 
d="M130 430h197v-383h173v-47h-399v47h176v336h-147v47zM411 618l-143 -115h-53l89 115h107z" />
    <glyph glyph-name="icircumflex" unicode="&#xee;" 
d="M130 430h197v-383h173v-47h-399v47h176v336h-147v47zM259 621h77l92 -94l-32 -25l-101 66l-91 -66l-33 24z" />
    <glyph glyph-name="idieresis" unicode="&#xef;" 
d="M130 430h197v-383h173v-47h-399v47h176v336h-147v47zM199 513v108h72v-108h-72zM329 513v108h72v-108h-72z" />
    <glyph glyph-name="igrave" unicode="&#xec;" 
d="M130 430h197v-383h173v-47h-399v47h176v336h-147v47zM190 618h107l77 -115h-52z" />
    <glyph glyph-name="imacron" unicode="&#x12b;" 
d="M130 430h197v-383h173v-47h-399v47h176v336h-147v47zM130 592h340v-50h-340v50z" />
    <glyph glyph-name="itilde" unicode="&#x129;" 
d="M130 430h197v-383h173v-47h-399v47h176v336h-147v47zM420 619l40 -13c-1 -1 -2 -5 -2 -7c-16 -54 -55 -85 -98 -85c-22 0 -41 8 -71 32c-32 24 -41 29 -55 29c-26 0 -42 -26 -52 -52c0 -1 -2 -6 -2 -6l-40 14c18 50 45 89 94 89c32 0 53 -16 74 -34c25 -19 40 -27 55 -27
c36 0 50 40 57 60z" />
    <glyph glyph-name="lacute" unicode="&#x13a;" 
d="M107 597l218 14v-564h174v-47h-398v47h174v516l-163 -12zM399 765l-143 -115h-53l89 115h107z" />
    <glyph glyph-name="lcaron" unicode="&#x13e;" 
d="M107 597l218 14v-564h174v-47h-398v47h174v516l-163 -12zM328 653h-76l-93 94l32 24l101 -65l92 66l32 -25z" />
    <glyph glyph-name="nacute" unicode="&#x144;" 
d="M34 430h132v-56c44 31 99 71 172 71c91 0 149 -68 149 -165v-233h80v-47h-216v47h86v229c0 73 -39 119 -98 119c-33 0 -83 -9 -173 -80v-268h84v-47h-216v47h82v336h-82v47zM411 618l-143 -115h-53l89 115h107z" />
    <glyph glyph-name="ncaron" unicode="&#x148;" 
d="M34 430h132v-56c44 31 99 71 172 71c91 0 149 -68 149 -165v-233h80v-47h-216v47h86v229c0 73 -39 119 -98 119c-33 0 -83 -9 -173 -80v-268h84v-47h-216v47h82v336h-82v47zM340 509h-76l-93 94l32 24l101 -65l92 66l32 -25z" />
    <glyph glyph-name="ntilde" unicode="&#xf1;" 
d="M34 430h132v-56c44 31 99 71 172 71c91 0 149 -68 149 -165v-233h80v-47h-216v47h86v229c0 73 -39 119 -98 119c-33 0 -83 -9 -173 -80v-268h84v-47h-216v47h82v336h-82v47zM420 619l40 -13c-1 -1 -2 -5 -2 -7c-16 -54 -55 -85 -98 -85c-22 0 -41 8 -71 32
c-32 24 -41 29 -55 29c-26 0 -42 -26 -52 -52c0 -1 -2 -6 -2 -6l-40 14c18 50 45 89 94 89c32 0 53 -16 74 -34c25 -19 40 -27 55 -27c36 0 50 40 57 60z" />
    <glyph glyph-name="oacute" unicode="&#xf3;" 
d="M52 218c0 120 85 232 248 232c167 0 248 -117 248 -232s-81 -232 -248 -232c-163 0 -248 113 -248 232zM106 218c0 -94 68 -182 194 -182c128 0 194 90 194 182c0 93 -66 182 -194 182c-125 0 -194 -87 -194 -182zM411 618l-143 -115h-53l89 115h107z" />
    <glyph glyph-name="ocircumflex" unicode="&#xf4;" 
d="M52 218c0 120 85 232 248 232c167 0 248 -117 248 -232s-81 -232 -248 -232c-163 0 -248 113 -248 232zM106 218c0 -94 68 -182 194 -182c128 0 194 90 194 182c0 93 -66 182 -194 182c-125 0 -194 -87 -194 -182zM259 621h77l92 -94l-32 -25l-101 66l-91 -66l-33 24z
" />
    <glyph glyph-name="odieresis" unicode="&#xf6;" 
d="M52 218c0 120 85 232 248 232c167 0 248 -117 248 -232s-81 -232 -248 -232c-163 0 -248 113 -248 232zM106 218c0 -94 68 -182 194 -182c128 0 194 90 194 182c0 93 -66 182 -194 182c-125 0 -194 -87 -194 -182zM199 513v108h72v-108h-72zM329 513v108h72v-108h-72z
" />
    <glyph glyph-name="ograve" unicode="&#xf2;" 
d="M52 218c0 120 85 232 248 232c167 0 248 -117 248 -232s-81 -232 -248 -232c-163 0 -248 113 -248 232zM106 218c0 -94 68 -182 194 -182c128 0 194 90 194 182c0 93 -66 182 -194 182c-125 0 -194 -87 -194 -182zM190 618h107l77 -115h-52z" />
    <glyph glyph-name="ohungarumlaut" unicode="&#x151;" 
d="M52 218c0 120 85 232 248 232c167 0 248 -117 248 -232s-81 -232 -248 -232c-163 0 -248 113 -248 232zM106 218c0 -94 68 -182 194 -182c128 0 194 90 194 182c0 93 -66 182 -194 182c-125 0 -194 -87 -194 -182zM354 617l-130 -113h-44l98 113h76zM480 617l-130 -113
h-44l98 113h76z" />
    <glyph glyph-name="omacron" unicode="&#x14d;" 
d="M52 218c0 120 85 232 248 232c167 0 248 -117 248 -232s-81 -232 -248 -232c-163 0 -248 113 -248 232zM106 218c0 -94 68 -182 194 -182c128 0 194 90 194 182c0 93 -66 182 -194 182c-125 0 -194 -87 -194 -182zM130 592h340v-50h-340v50z" />
    <glyph glyph-name="otilde" unicode="&#xf5;" 
d="M52 218c0 120 85 232 248 232c167 0 248 -117 248 -232s-81 -232 -248 -232c-163 0 -248 113 -248 232zM106 218c0 -94 68 -182 194 -182c128 0 194 90 194 182c0 93 -66 182 -194 182c-125 0 -194 -87 -194 -182zM420 619l40 -13c-1 -1 -2 -5 -2 -7
c-16 -54 -55 -85 -98 -85c-22 0 -41 8 -71 32c-32 24 -41 29 -55 29c-26 0 -42 -26 -52 -52c0 -1 -2 -6 -2 -6l-40 14c18 50 45 89 94 89c32 0 53 -16 74 -34c25 -19 40 -27 55 -27c36 0 50 40 57 60z" />
    <glyph glyph-name="racute" unicode="&#x155;" 
d="M83 430h166v-100c45 45 112 114 207 114c63 0 90 -29 112 -55l-53 -39c-1 1 -4 5 -4 7c-10 15 -23 37 -63 37c-86 0 -165 -90 -199 -128v-219h190v-47h-364v47h124v336h-116v47zM411 618l-143 -115h-53l89 115h107z" />
    <glyph glyph-name="rcaron" unicode="&#x159;" 
d="M83 430h166v-100c45 45 112 114 207 114c63 0 90 -29 112 -55l-53 -39c-1 1 -4 5 -4 7c-10 15 -23 37 -63 37c-86 0 -165 -90 -199 -128v-219h190v-47h-364v47h124v336h-116v47zM340 509h-76l-93 94l32 24l101 -65l92 66l32 -25z" />
    <glyph glyph-name="sacute" unicode="&#x15b;" 
d="M437 450l45 -7c-4 -21 -9 -47 -9 -86c0 -28 3 -46 5 -63l-44 -5c-7 39 -19 104 -157 104c-79 0 -124 -33 -124 -74c0 -73 89 -77 206 -83c23 -1 145 -7 145 -112c0 -97 -104 -139 -191 -139c-72 0 -124 29 -147 42c0 0 -3 2 -5 2c-9 0 -14 -19 -20 -42h-44
c3 17 6 30 6 63c0 43 -4 76 -6 99l44 5c6 -34 22 -119 161 -119c40 0 148 10 148 87c0 60 -60 63 -143 66c-53 2 -208 8 -208 129c0 72 72 126 177 126c58 0 97 -18 115 -29c2 -2 14 -9 22 -9c11 0 16 18 18 24c3 13 4 14 6 21zM411 618l-143 -115h-53l89 115h107z" />
    <glyph glyph-name="scaron" unicode="&#x161;" 
d="M437 450l45 -7c-4 -21 -9 -47 -9 -86c0 -28 3 -46 5 -63l-44 -5c-7 39 -19 104 -157 104c-79 0 -124 -33 -124 -74c0 -73 89 -77 206 -83c23 -1 145 -7 145 -112c0 -97 -104 -139 -191 -139c-72 0 -124 29 -147 42c0 0 -3 2 -5 2c-9 0 -14 -19 -20 -42h-44
c3 17 6 30 6 63c0 43 -4 76 -6 99l44 5c6 -34 22 -119 161 -119c40 0 148 10 148 87c0 60 -60 63 -143 66c-53 2 -208 8 -208 129c0 72 72 126 177 126c58 0 97 -18 115 -29c2 -2 14 -9 22 -9c11 0 16 18 18 24c3 13 4 14 6 21zM340 509h-76l-93 94l32 24l101 -65l92 66
l32 -25z" />
    <glyph glyph-name="scircumflex" unicode="&#x15d;" 
d="M437 450l45 -7c-4 -21 -9 -47 -9 -86c0 -28 3 -46 5 -63l-44 -5c-7 39 -19 104 -157 104c-79 0 -124 -33 -124 -74c0 -73 89 -77 206 -83c23 -1 145 -7 145 -112c0 -97 -104 -139 -191 -139c-72 0 -124 29 -147 42c0 0 -3 2 -5 2c-9 0 -14 -19 -20 -42h-44
c3 17 6 30 6 63c0 43 -4 76 -6 99l44 5c6 -34 22 -119 161 -119c40 0 148 10 148 87c0 60 -60 63 -143 66c-53 2 -208 8 -208 129c0 72 72 126 177 126c58 0 97 -18 115 -29c2 -2 14 -9 22 -9c11 0 16 18 18 24c3 13 4 14 6 21zM259 621h77l92 -94l-32 -25l-101 66l-91 -66
l-33 24z" />
    <glyph glyph-name="tcaron" unicode="&#x165;" 
d="M173 563h50v-147h242v-47h-242v-189c0 -74 -1 -144 104 -144c33 0 76 3 193 52l18 -45c-64 -29 -141 -57 -206 -57c-62 0 -103 24 -124 45c-35 35 -35 83 -35 149v189h-68v47h68v147zM263 601h-76l-93 94l32 24l101 -65l92 66l32 -25z" />
    <glyph glyph-name="uacute" unicode="&#xfa;" 
d="M32 430h132v-265c0 -26 0 -129 100 -129c55 0 107 27 161 87v260h-86v47h136v-383h81v-47h-131v55c-28 -25 -80 -69 -157 -69c-126 0 -154 100 -154 179v218h-82v47zM411 618l-143 -115h-53l89 115h107z" />
    <glyph glyph-name="ubreve" unicode="&#x16d;" 
d="M32 430h132v-265c0 -26 0 -129 100 -129c55 0 107 27 161 87v260h-86v47h136v-383h81v-47h-131v55c-28 -25 -80 -69 -157 -69c-126 0 -154 100 -154 179v218h-82v47zM138 624h46c1 0 2 -3 2 -3c34 -62 92 -68 114 -68c50 0 89 24 114 68c0 1 1 3 2 3h46
c-39 -108 -130 -114 -162 -114c-59 0 -112 27 -142 70c-9 13 -11 21 -20 44z" />
    <glyph glyph-name="ucircumflex" unicode="&#xfb;" 
d="M32 430h132v-265c0 -26 0 -129 100 -129c55 0 107 27 161 87v260h-86v47h136v-383h81v-47h-131v55c-28 -25 -80 -69 -157 -69c-126 0 -154 100 -154 179v218h-82v47zM259 621h77l92 -94l-32 -25l-101 66l-91 -66l-33 24z" />
    <glyph glyph-name="udieresis" unicode="&#xfc;" 
d="M32 430h132v-265c0 -26 0 -129 100 -129c55 0 107 27 161 87v260h-86v47h136v-383h81v-47h-131v55c-28 -25 -80 -69 -157 -69c-126 0 -154 100 -154 179v218h-82v47zM199 513v108h72v-108h-72zM329 513v108h72v-108h-72z" />
    <glyph glyph-name="ugrave" unicode="&#xf9;" 
d="M32 430h132v-265c0 -26 0 -129 100 -129c55 0 107 27 161 87v260h-86v47h136v-383h81v-47h-131v55c-28 -25 -80 -69 -157 -69c-126 0 -154 100 -154 179v218h-82v47zM190 618h107l77 -115h-52z" />
    <glyph glyph-name="uhungarumlaut" unicode="&#x171;" 
d="M32 430h132v-265c0 -26 0 -129 100 -129c55 0 107 27 161 87v260h-86v47h136v-383h81v-47h-131v55c-28 -25 -80 -69 -157 -69c-126 0 -154 100 -154 179v218h-82v47zM354 617l-130 -113h-44l98 113h76zM480 617l-130 -113h-44l98 113h76z" />
    <glyph glyph-name="umacron" unicode="&#x16b;" 
d="M32 430h132v-265c0 -26 0 -129 100 -129c55 0 107 27 161 87v260h-86v47h136v-383h81v-47h-131v55c-28 -25 -80 -69 -157 -69c-126 0 -154 100 -154 179v218h-82v47zM130 592h340v-50h-340v50z" />
    <glyph glyph-name="uring" unicode="&#x16f;" 
d="M32 430h132v-265c0 -26 0 -129 100 -129c55 0 107 27 161 87v260h-86v47h136v-383h81v-47h-131v55c-28 -25 -80 -69 -157 -69c-126 0 -154 100 -154 179v218h-82v47zM300 642c42 0 76 -34 76 -76s-34 -76 -76 -76s-76 34 -76 76s34 76 76 76zM301 604
c-21 0 -39 -14 -39 -38c0 -21 18 -38 39 -38s37 17 37 38s-16 38 -37 38z" />
    <glyph glyph-name="utilde" unicode="&#x169;" 
d="M32 430h132v-265c0 -26 0 -129 100 -129c55 0 107 27 161 87v260h-86v47h136v-383h81v-47h-131v55c-28 -25 -80 -69 -157 -69c-126 0 -154 100 -154 179v218h-82v47zM420 619l40 -13c-1 -1 -2 -5 -2 -7c-16 -54 -55 -85 -98 -85c-22 0 -41 8 -71 32c-32 24 -41 29 -55 29
c-26 0 -42 -26 -52 -52c0 -1 -2 -6 -2 -6l-40 14c18 50 45 89 94 89c32 0 53 -16 74 -34c25 -19 40 -27 55 -27c36 0 50 40 57 60z" />
    <glyph glyph-name="yacute" unicode="&#xfd;" 
d="M24 430h187v-47h-69l158 -304l174 304h-68v47h183v-47h-58l-280 -489h89v-47h-300v47h154l77 133l-186 356h-61v47zM411 618l-143 -115h-53l89 115h107z" />
    <glyph glyph-name="ydieresis" unicode="&#xff;" 
d="M24 430h187v-47h-69l158 -304l174 304h-68v47h183v-47h-58l-280 -489h89v-47h-300v47h154l77 133l-186 356h-61v47zM199 513v108h72v-108h-72zM329 513v108h72v-108h-72z" />
    <glyph glyph-name="zacute" unicode="&#x17a;" 
d="M114 430h382v-43l-324 -340h277v92h47v-139h-392v47l321 336h-264v-89h-47v136zM411 618l-143 -115h-53l89 115h107z" />
    <glyph glyph-name="zcaron" unicode="&#x17e;" 
d="M114 430h382v-43l-324 -340h277v92h47v-139h-392v47l321 336h-264v-89h-47v136zM340 509h-76l-93 94l32 24l101 -65l92 66l32 -25z" />
    <glyph glyph-name="zdotaccent" unicode="&#x17c;" 
d="M114 430h382v-43l-324 -340h277v92h47v-139h-392v47l321 336h-264v-89h-47v136zM264 513v108h72v-108h-72z" />
  </font>
</defs>
</svg>
